<?xml version="1.0" standalone="no"?>
<!DOCTYPE svg PUBLIC "-//W3C//DTD SVG 1.1//EN" "http://www.w3.org/Graphics/SVG/1.1/DTD/svg11.dtd" >
<svg xmlns="http://www.w3.org/2000/svg" xmlns:xlink="http://www.w3.org/1999/xlink" version="1.1">
<metadata>
Created by FontForge 20161003 at Sun Mar 19 19:28:30 2017
 By www-data
Copyright (c) 1990-2002 ParaType, Inc. All Rights Reserved. ITC Officina is a registered trade mark of International Typeface Corporation.
</metadata>
<defs>
<font id="OfficinaSansExtraBold" horiz-adv-x="522" >
  <font-face 
    font-family="OfficinaSansExtraBold"
    font-weight="800"
    font-stretch="normal"
    units-per-em="1000"
    panose-1="0 0 9 0 0 0 0 0 0 0"
    ascent="730"
    descent="-270"
    x-height="494"
    cap-height="686"
    bbox="-65 -270 934 956"
    underline-thickness="50"
    underline-position="-150"
    unicode-range="U+0020-F6D4"
  />
<missing-glyph horiz-adv-x="233" 
 />
    <glyph glyph-name=".notdef" horiz-adv-x="233" 
 />
    <glyph glyph-name=".null" horiz-adv-x="0" 
 />
    <glyph glyph-name="nonmarkingreturn" horiz-adv-x="333" 
 />
    <glyph glyph-name="space" unicode=" " horiz-adv-x="233" 
 />
    <glyph glyph-name="space" unicode="&#xa0;" horiz-adv-x="233" 
 />
    <glyph glyph-name="exclam" unicode="!" horiz-adv-x="360" 
d="M268 676l-23 -398q-1 -13 -4.5 -16.5t-16.5 -3.5h-91q-13 0 -16.5 3.5t-4.5 16.5l-24 404q0 9 4 12t17 3h139q12 0 16 -3t4 -11v-7zM280 70q0 -41 -29.5 -70.5t-70.5 -29.5t-70.5 29.5t-29.5 70.5t29.5 70.5t70.5 29.5t70.5 -29.5t29.5 -70.5z" />
    <glyph glyph-name="quotedbl" unicode="&#x22;" horiz-adv-x="425" 
d="M392 666l-22 -235q-1 -8 -1.5 -11t-2.5 -6t-5.5 -3.5t-10.5 -0.5h-72q-13 0 -16 3.5t-5 17.5l-22 242q0 8 4.5 10.5t16.5 2.5h115q12 0 16.5 -2.5t4.5 -10.5v-7zM191 666l-21 -235q-2 -14 -5 -17.5t-16 -3.5h-71q-13 0 -16 3.5t-5 17.5l-21 235q0 2 -0.5 4t-0.5 3
q0 13 21 13h115q21 0 21 -13q0 -1 -0.5 -3t-0.5 -4z" />
    <glyph glyph-name="numbersign" unicode="#" horiz-adv-x="686" 
d="M653 470l-10 -92q-2 -14 -6 -17.5t-18 -3.5h-72l-14 -115h75q19 0 19 -11q0 -1 -0.5 -4t-0.5 -5l-10 -93q-1 -14 -5 -17t-18 -3h-75l-18 -168q-2 -14 -5.5 -17.5t-17.5 -3.5h-117q-18 0 -18 11q0 1 0.5 4.5t0.5 5.5l17 168h-75l-18 -168q-2 -14 -5.5 -17.5t-17.5 -3.5
h-117q-11 0 -15 2.5t-4 9.5q0 1 0.5 4t0.5 5l19 168h-76q-12 0 -15.5 1.5t-3.5 8.5q0 1 0.5 4.5t0.5 5.5l10 93q2 13 5 16.5t17 3.5h77l13 115h-75q-19 0 -19 11q0 1 0.5 4.5t0.5 5.5l10 92q2 14 5 17.5t17 3.5h75l16 155q1 13 5 16.5t18 3.5h116q12 0 15.5 -1.5t3.5 -8.5
q0 -1 -0.5 -4.5t-0.5 -5.5l-16 -155h75l16 153q2 14 6.5 18t17.5 4h116q12 0 16 -2t4 -9q0 -1 -0.5 -4t-0.5 -5l-16 -155h75q18 0 18 -11q0 -1 -0.5 -4.5t-0.5 -5.5zM388 357h-75l-14 -115h76z" />
    <glyph glyph-name="dollar" unicode="$" horiz-adv-x="549" 
d="M499 190q0 -78 -47.5 -131.5t-129.5 -68.5v-46q0 -14 -3.5 -17t-17.5 -3h-51q-13 0 -17 3t-4 17v43q-61 7 -119 25.5t-58 36.5q0 5 1 7l33 101q4 11 15 11q7 0 17 -4q99 -45 153 -45q77 0 77 67q0 13 -7.5 25.5t-16.5 21.5t-26 19.5t-27 15.5t-29.5 14t-23.5 11
q-33 16 -48 23.5t-42 26.5t-40 37t-23.5 47t-10.5 64q0 74 46.5 123.5t128.5 63.5v49q0 13 4 17t17 4h51q14 0 17.5 -4t3.5 -17v-47q56 -4 108.5 -22.5t52.5 -39.5q0 -2 -2 -8l-38 -90q-4 -9 -12 -9t-18 6q-72 39 -134 39q-79 0 -79 -62q0 -21 11.5 -34.5t36.5 -28.5
q26 -14 66 -35.5t58 -31.5t44 -26.5t37.5 -29t24 -31t17 -39.5t4.5 -48z" />
    <glyph glyph-name="percent" unicode="%" horiz-adv-x="882" 
d="M844 170q0 -81 -44 -134t-123 -53q-78 0 -121.5 50t-43.5 132q0 83 45 135t122 52t121 -49.5t44 -132.5zM636 652l-281 -675q-7 -17 -24 -17h-72q-19 0 -19 12q0 6 3 13l281 677q7 15 24 15h71q20 0 20 -12q0 -5 -3 -13zM370 480q0 -81 -44 -134t-123 -53
q-78 0 -121.5 50t-43.5 132q0 83 45 135t122 52t121 -49.5t44 -132.5zM728 167q0 93 -50 93q-49 0 -49 -91q0 -93 49 -93q50 0 50 91zM254 477q0 94 -50 94q-49 0 -49 -92t49 -92q50 0 50 90z" />
    <glyph glyph-name="ampersand" unicode="&#x26;" horiz-adv-x="644" 
d="M625 79q9 -9 9 -15q0 -5 -10 -15l-69 -66q-7 -6 -12 -6q-7 0 -16 9l-54 55q-42 -35 -85 -51t-109 -16q-111 0 -175.5 52.5t-64.5 145.5q0 67 36.5 110.5t101.5 84.5q-48 56 -66.5 91t-18.5 72q0 75 60.5 126t147.5 51q85 0 139 -46.5t54 -121.5q0 -54 -30.5 -96
t-91.5 -88l90 -102q6 12 12 41.5t11.5 51.5t11.5 22t9 -1l96 -17q12 -3 12 -17q0 -32 -17 -86.5t-39 -93.5zM350 533q0 28 -15.5 43t-40.5 15q-26 0 -43 -16t-17 -41q0 -14 8 -31t15 -26.5t20.5 -24.5t14.5 -16q33 30 45.5 51t12.5 46zM383 141l-124 140q-64 -45 -64 -97
q0 -37 26 -61t65 -24q53 0 97 42z" />
    <glyph glyph-name="quotesingle" unicode="'" horiz-adv-x="224" 
d="M191 666l-21 -235q-2 -14 -5 -17.5t-16 -3.5h-71q-13 0 -16 3.5t-5 17.5l-21 235q0 2 -0.5 4t-0.5 3q0 13 21 13h115q21 0 21 -13q0 -1 -0.5 -3t-0.5 -4z" />
    <glyph glyph-name="parenleft" unicode="(" horiz-adv-x="452" 
d="M420 -201q2 -3 2 -9q0 -7 -8 -12l-73 -45q-6 -3 -10 -3q-9 0 -24 15q-90 93 -151 228.5t-61 270.5q0 255 213 500q13 15 21 15q6 0 15 -6l70 -44q8 -5 8 -12q0 -8 -8 -19q-83 -121 -120 -213t-37 -221q0 -110 30.5 -195t86.5 -173q38 -61 46 -77z" />
    <glyph glyph-name="parenright" unicode=")" horiz-adv-x="460" 
d="M366 244q0 -118 -42.5 -221.5t-122.5 -209.5q-6 -8 -15 -20.5t-14 -19t-11.5 -15t-10.5 -12.5t-8 -8.5t-7.5 -6t-6.5 -1.5t-9 3l-73 45q-9 5 -9 14q0 8 15 28q75 102 113 199.5t38 224.5q0 129 -37 221t-120 213q-8 11 -8 19q0 7 8 12l70 44q9 6 15 6q8 0 21 -15
q214 -246 214 -500z" />
    <glyph glyph-name="asterisk" unicode="*" horiz-adv-x="551" 
d="M484 502q3 -9 3 -13q0 -9 -18 -12l-116 -18l81 -82q10 -10 10 -15t-12 -14l-74 -53q-11 -8 -15 -8q-8 0 -14 15l-51 108l-53 -109q-6 -14 -13 -14q-4 0 -15 8l-75 53q-11 7 -11 13t9 15l84 86l-116 16q-17 3 -17 11q0 5 3 14l29 87q5 16 13 16q4 0 14 -5l103 -56l-17 118
q0 2 -0.5 5.5t-0.5 4.5q0 13 19 13h92q19 0 19 -13q0 -6 -1 -10l-21 -119l105 56q8 4 14 4q8 0 13 -16z" />
    <glyph glyph-name="plus" unicode="+" 
d="M490 229q0 -14 -3.5 -17t-17.5 -3h-131v-131q0 -14 -3 -17t-17 -3h-113q-14 0 -17.5 3t-3.5 17v131h-131q-14 0 -17 3t-3 17v99q0 13 3 17t17 4h131v130q0 13 4 17t17 4h113q14 0 17 -3.5t3 -17.5v-130h131q14 0 17.5 -4t3.5 -17v-99z" />
    <glyph glyph-name="comma" unicode="," horiz-adv-x="309" 
d="M275 110l-135 -257q-6 -13 -14 -13q-4 0 -13 3l-61 20q-15 4 -15 13q0 4 3 13l69 229q5 17 22 17h129q20 0 20 -10q0 -5 -5 -15z" />
    <glyph glyph-name="hyphen" unicode="-" horiz-adv-x="393" 
d="M360 202q0 -14 -3.5 -17.5t-17.5 -3.5h-285q-14 0 -17 3.5t-3 17.5v103q0 13 3 17t17 4h285q14 0 17.5 -4t3.5 -17v-103z" />
    <glyph glyph-name="hyphen" unicode="&#xad;" horiz-adv-x="393" 
d="M360 202q0 -14 -3.5 -17.5t-17.5 -3.5h-285q-14 0 -17 3.5t-3 17.5v103q0 13 3 17t17 4h285q14 0 17.5 -4t3.5 -17v-103z" />
    <glyph glyph-name="period" unicode="." horiz-adv-x="304" 
d="M262 89q0 -46 -32 -78t-78 -32t-78 32t-32 78t32 78.5t78 32.5t78 -32.5t32 -78.5z" />
    <glyph glyph-name="slash" unicode="/" horiz-adv-x="525" 
d="M41 -61l305 815q7 17 26 17h99q18 0 18 -11q0 -6 -3 -13l-304 -815q-6 -17 -27 -17h-100q-18 0 -18 9q0 1 4 15z" />
    <glyph glyph-name="zero" unicode="0" horiz-adv-x="538" 
d="M522 347q0 -179 -60 -271.5t-196 -92.5q-122 0 -186 90t-64 254q0 167 65 263t197 96q124 0 184 -93t60 -246zM367 318q0 97 -10.5 150.5t-30 73t-53.5 19.5q-51 0 -76.5 -54t-25.5 -177q0 -119 25 -170.5t74 -51.5q52 0 74.5 45.5t22.5 164.5z" />
    <glyph glyph-name="one" unicode="1" horiz-adv-x="542" 
d="M473 21q0 -14 -3.5 -17.5t-17.5 -3.5h-314q-14 0 -17.5 3.5t-3.5 17.5v77q0 14 3.5 17t17.5 3h90v369l-96 -53q-10 -5 -14 -5q-6 0 -13 12l-37 63q-6 10 -6 15t12 13l200 137h89q14 0 17 -4t3 -17v-530h69q14 0 17.5 -3t3.5 -17v-77z" />
    <glyph glyph-name="two" unicode="2" horiz-adv-x="538" 
d="M476 498q0 -55 -17 -97t-44.5 -71.5t-77.5 -66.5l-50 -37q-62 -46 -71 -91h235q13 0 17 -3.5t4 -16.5v-94q0 -14 -3.5 -17.5t-16.5 -3.5h-391q-9 0 -12 3t-3 14v40q0 84 34 140t96 106q14 11 39.5 31.5t35 28.5t27 23.5t23.5 24t14 22t10.5 26.5t2.5 28q0 69 -70 69
q-36 0 -56.5 -21t-38.5 -64q-6 -14 -16 -14q-1 0 -9 2l-86 32q-11 4 -11 14q0 24 29 74q61 107 200 107q95 0 150.5 -50t55.5 -138z" />
    <glyph glyph-name="three" unicode="3" horiz-adv-x="540" 
d="M490 195q0 -94 -68.5 -152.5t-175.5 -58.5q-46 0 -103 12.5t-95 39.5q-8 5 -8 10q0 4 1 6l28 93q3 8 9 8q3 0 13 -5q83 -40 142 -40q101 0 101 93q0 46 -25.5 66.5t-87.5 20.5h-33q-14 0 -17.5 3.5t-3.5 17.5v83q0 12 3 16t13 4h5l42 -1q89 0 89 83q0 31 -19 50t-51 19
q-20 0 -38.5 -9t-27 -17.5t-24.5 -26.5q-2 -2 -4.5 -6t-5 -6t-5.5 -2q-4 0 -7 3l-74 65q-4 3 -4 8q0 3 7 15q30 48 80 73.5t109 25.5q94 0 153 -51t59 -134q0 -89 -84 -141q107 -47 107 -165z" />
    <glyph glyph-name="four" unicode="4" horiz-adv-x="538" 
d="M520 146q0 -13 -3 -17t-17 -4h-54v-122q0 -14 -3.5 -17t-16.5 -3h-108q-14 0 -17.5 3t-3.5 16v123h-255q-13 0 -17 4t-4 17v118l255 414q9 13 13 13q5 0 13 -4l99 -41q16 -7 16 -13q0 -5 -7 -15l-246 -367h136l18 143q1 9 2.5 13t5 5.5t12.5 1.5h88q13 0 16.5 -4t3.5 -17
v-144h54q14 0 17 -4t3 -21v-78z" />
    <glyph glyph-name="five" unicode="5" horiz-adv-x="540" 
d="M503 230q0 -117 -75 -186t-200 -69q-43 0 -112.5 14.5t-69.5 35.5q0 1 0.5 3t0.5 4l18 92q2 11 12 11q5 0 11 -2q84 -27 141 -27q62 0 97 32.5t35 90.5q0 96 -89 96q-32 0 -52 -10.5t-44 -34.5q-8 -8 -15 -8q-4 0 -7 1l-82 26q-16 4 -16 16q0 1 0.5 3.5t0.5 4.5l32 326
q2 13 5.5 16.5t16.5 3.5h321q14 0 17.5 -3.5t3.5 -18.5v-92q0 -13 -3.5 -16.5t-16.5 -3.5h-213l-12 -114q37 24 88 24q94 0 150.5 -59t56.5 -156z" />
    <glyph glyph-name="six" unicode="6" horiz-adv-x="538" 
d="M500 229q0 -111 -63 -178.5t-167 -67.5q-111 0 -168.5 77t-57.5 221q0 183 83.5 293.5t225.5 110.5q47 0 82.5 -13t35.5 -28q0 -4 -1 -6l-30 -88q-3 -7 -10 -7q-4 0 -6 1q-38 18 -71 18q-109 0 -158 -140q53 46 108 46q97 0 147 -67.5t50 -171.5zM358 233q0 118 -78 118
q-39 0 -61 -31t-22 -89q0 -61 21 -92.5t58 -31.5q82 0 82 126z" />
    <glyph glyph-name="seven" unicode="7" horiz-adv-x="538" 
d="M483 596l-232 -599q-5 -13 -14 -13q-6 0 -11 1l-113 20q-16 3 -16 10t4 15l205 498h-236q-14 0 -17.5 3t-3.5 17v100q0 14 3.5 17.5t17.5 3.5h393q13 0 16.5 -3.5t3.5 -17.5v-52z" />
    <glyph glyph-name="eight" unicode="8" horiz-adv-x="538" 
d="M516 183q0 -98 -73 -151t-175 -53q-113 0 -180 54t-67 147q0 56 34 101t94 72q-102 54 -102 153q0 81 63.5 132t158.5 51q97 0 161 -50.5t64 -131.5q0 -92 -102 -152q124 -63 124 -172zM340 495q0 33 -19 51.5t-52 18.5q-32 0 -52 -18.5t-20 -49.5q0 -57 78 -88
q65 26 65 86zM360 186q0 42 -25 65.5t-71 42.5q-91 -44 -91 -108q0 -37 25.5 -59.5t70.5 -22.5q42 0 66.5 23t24.5 59z" />
    <glyph glyph-name="nine" unicode="9" horiz-adv-x="538" 
d="M498 386q0 -182 -83 -292.5t-225 -110.5q-43 0 -77.5 7.5t-34.5 22.5q0 1 0.5 2t0.5 2l21 96q1 8 9 8q9 0 38 -6.5t42 -6.5q111 0 159 136q-48 -45 -108 -45q-91 0 -144.5 63.5t-53.5 174.5t63.5 180t166.5 69q111 0 168.5 -77.5t57.5 -222.5zM344 435q0 125 -77 125
q-82 0 -82 -126q0 -119 79 -119q80 0 80 120z" />
    <glyph glyph-name="colon" unicode=":" horiz-adv-x="304" 
d="M262 407q0 -46 -32 -78t-78 -32t-78 32t-32 78t32 78t78 32t78 -32t32 -78zM262 89q0 -46 -32 -78t-78 -32t-78 32t-32 78t32 78.5t78 32.5t78 -32.5t32 -78.5z" />
    <glyph glyph-name="semicolon" unicode=";" horiz-adv-x="315" 
d="M287 407q0 -46 -32 -78t-78 -32t-78 32t-32 78t32 78t78 32t78 -32t32 -78zM268 110l-137 -257q-8 -13 -14 -13q-5 0 -12 3l-60 20q-15 4 -15 14q0 7 2 12l69 229q5 17 22 17h130q20 0 20 -10q0 -5 -5 -15z" />
    <glyph glyph-name="less" unicode="&#x3c;" 
d="M500 64q0 -16 -8 -16q-6 0 -13 4l-437 222q-17 9 -18 14q-1 3 -1 9v92q0 10 3 13t14 9l439 223q7 4 13 4q8 0 8 -16v-119q0 -11 -3.5 -15t-15.5 -10l-284 -134l284 -137q12 -6 15.5 -10t3.5 -15v-118z" />
    <glyph glyph-name="equal" unicode="=" 
d="M495 327q0 -14 -3.5 -17.5t-17.5 -3.5h-426q-14 0 -17 3.5t-3 17.5v94q0 13 3 16.5t17 3.5h426q14 0 17.5 -3.5t3.5 -16.5v-94zM495 123q0 -14 -3.5 -17t-17.5 -3h-426q-14 0 -17 3t-3 17v94q0 13 3 17t17 4h426q14 0 17.5 -4t3.5 -17v-94z" />
    <glyph glyph-name="greater" unicode="&#x3e;" 
d="M500 297q0 -7 -2.5 -11.5t-3.5 -5l-13 -6.5l-438 -222q-7 -4 -13 -4q-7 0 -7 16v119q0 11 3 15.5t15 9.5l284 136l-284 135q-12 6 -15 9.5t-3 14.5v119q0 16 7 16q6 0 13 -4l439 -223q16 -8 17 -14q1 -3 1 -8v-92z" />
    <glyph glyph-name="question" unicode="?" horiz-adv-x="521" 
d="M473 513q0 -130 -165 -184l-1 -51q0 -14 -3.5 -18t-16.5 -4h-102q-14 0 -17.5 4t-3.5 18v120q0 11 4 15t19 8q73 19 103 38t30 56q0 58 -82 58q-10 0 -21.5 -1.5t-18 -3t-20.5 -6t-17.5 -6t-21 -8.5t-19.5 -8q-14 -6 -17 -6q-7 0 -11 10l-33 90q-2 8 -2 9q0 26 79.5 45.5
t122.5 19.5q95 0 154.5 -53.5t59.5 -141.5zM339 70q0 -41 -29.5 -70.5t-70.5 -29.5t-70 29.5t-29 70.5t29 70.5t70 29.5t70.5 -29.5t29.5 -70.5z" />
    <glyph glyph-name="at" unicode="@" horiz-adv-x="1017" 
d="M934 357q0 -136 -81.5 -224.5t-198.5 -88.5q-82 0 -95 63q-55 -63 -119 -63q-48 0 -73.5 34t-25.5 93q0 106 53.5 185t125.5 79q60 0 91 -33q1 2 3.5 7.5t4 8.5t5 5.5t8.5 2.5h69q12 0 12 -11q0 -6 -1 -9l-47 -221q-2 -8 -2 -24q0 -27 35 -27q51 0 90.5 66t39.5 150
q0 101 -67.5 162t-188.5 61q-163 0 -265.5 -111.5t-102.5 -275.5q0 -132 79 -199t215 -67q159 0 283 59q15 6 18 6q7 0 10 -7l22 -61q2 -6 2 -8q0 -8 -14 -17q-48 -31 -139 -51.5t-179 -20.5q-194 0 -301.5 97t-107.5 272q0 135 64.5 245t175.5 172t245 62q163 0 260 -83.5
t97 -227.5zM585 323q-28 25 -50 25q-35 0 -55.5 -61t-20.5 -113q0 -21 5.5 -30t21.5 -9q27 0 50 25.5t31 67.5z" />
    <glyph glyph-name="A" unicode="A" horiz-adv-x="603" 
d="M595 24q2 -10 2 -12q0 -12 -19 -12h-140q-12 0 -15.5 2.5t-6.5 14.5l-41 154h-150l-41 -154q-3 -12 -6.5 -14.5t-15.5 -2.5h-130q-19 0 -19 10q0 5 3 12l204 647q4 12 7 14.5t15 2.5h127q12 0 15 -2.5t7 -14.5zM348 285l-30 144q-2 8 -20 124q-8 -61 -22 -124l-33 -144
h105z" />
    <glyph glyph-name="B" unicode="B" horiz-adv-x="579" 
d="M534 200q0 -66 -38 -120.5t-95 -68.5q-45 -11 -127 -11h-189q-14 0 -17 3.5t-3 17.5v645q0 13 3 16.5t17 3.5h180q82 0 120.5 -9t67.5 -36q56 -51 56 -136q0 -51 -21 -86t-70 -59q116 -41 116 -160zM353 490q-3 42 -20 59.5t-64 17.5h-45v-159h49q80 0 80 82zM373 208
q0 45 -23 64t-86 19h-40v-163h44q59 0 82 19t23 61z" />
    <glyph glyph-name="C" unicode="C" horiz-adv-x="505" 
d="M489 64q3 -6 3 -10q0 -25 -64.5 -48t-116.5 -23q-134 0 -203.5 95.5t-69.5 272.5q0 165 71.5 258.5t195.5 93.5q45 0 92 -16t80 -44q13 -11 13 -18q0 -6 -2 -9l-46 -94q-4 -9 -11 -9q-3 0 -8 3t-23.5 15t-28 17.5t-27 11.5t-33.5 6q-103 0 -103 -195q0 -251 117 -251
q46 0 99 39q7 5 10 5q4 0 9 -9z" />
    <glyph glyph-name="D" unicode="D" horiz-adv-x="607" 
d="M562 349q0 -185 -67.5 -267t-223.5 -82h-186q-14 0 -17 3.5t-3 17.5v645q0 13 3.5 16.5t16.5 3.5h167q75 0 130 -12t95 -52q85 -82 85 -273zM392 336q0 118 -24.5 168t-106.5 50h-30v-421h30q45 0 71.5 11t39.5 39t16.5 61t3.5 92z" />
    <glyph glyph-name="E" unicode="E" horiz-adv-x="493" 
d="M465 664l-18 -94q-4 -17 -22 -17h-194v-131h163q13 0 17 -3.5t4 -17.5v-92q0 -13 -4 -17t-17 -4h-163v-155h208q13 0 17 -3.5t4 -17.5v-91q0 -13 -4 -17t-17 -4h-354q-14 0 -17 3.5t-3 17.5v645q0 13 3 16.5t17 3.5h365q17 0 17 -9q0 -3 -2 -13z" />
    <glyph glyph-name="F" unicode="F" horiz-adv-x="458" 
d="M465 663l-18 -93q-2 -11 -6 -14t-16 -3h-194v-136h163q13 0 17 -3.5t4 -17.5v-93q0 -13 -4 -16.5t-17 -3.5h-163v-262q0 -14 -4 -17.5t-17 -3.5h-125q-14 0 -17 3.5t-3 17.5v645q0 14 3 17t17 3h363q18 0 18 -12q0 -7 -1 -11z" />
    <glyph glyph-name="G" unicode="G" horiz-adv-x="594" 
d="M541 68q0 -32 -75.5 -58.5t-143.5 -26.5q-283 0 -283 352v4q1 177 73 270.5t212 93.5q123 0 196 -58q8 -8 8 -15q0 -4 -1 -6l-48 -96q-3 -5 -6 -5q-2 0 -12 5q-75 41 -130 41q-122 0 -122 -222q0 -233 124 -233q26 0 61 14v116h-78q-14 0 -17 3t-3 16v90q0 14 3.5 17
t17.5 3h204q14 0 17 -3t3 -16v-286z" />
    <glyph glyph-name="H" unicode="H" horiz-adv-x="619" 
d="M554 21q0 -14 -3.5 -17.5t-17.5 -3.5h-124q-14 0 -17.5 3.5t-3.5 17.5v266h-157v-266q0 -14 -4 -17.5t-17 -3.5h-124q-14 0 -17.5 3.5t-3.5 17.5v645q0 13 3.5 16.5t17.5 3.5h124q13 0 17 -3.5t4 -16.5v-247h157v247q0 13 3.5 16.5t17.5 3.5h124q14 0 17.5 -3.5
t3.5 -16.5v-645z" />
    <glyph glyph-name="I" unicode="I" horiz-adv-x="352" 
d="M324 21q0 -14 -3.5 -17.5t-17.5 -3.5h-255q-14 0 -17 3.5t-3 17.5v81q0 14 3 17t17 3h44v442h-44q-14 0 -17 3t-3 17v82q0 13 3 16.5t17 3.5h255q14 0 17.5 -3.5t3.5 -16.5v-82q0 -14 -3.5 -17t-17.5 -3h-45v-442h45q14 0 17.5 -3.5t3.5 -16.5v-81z" />
    <glyph glyph-name="J" unicode="J" horiz-adv-x="459" 
d="M398 211q0 -228 -204 -228q-97 0 -146.5 51.5t-49.5 161.5q0 25 13 25h119q12 0 12 -16q0 -53 10 -72.5t37 -19.5q25 0 33.5 17.5t8.5 63.5v370h-135q-14 0 -17 3t-3 17v82q0 13 3 16.5t17 3.5h281q13 0 17 -3.5t4 -16.5v-455z" />
    <glyph glyph-name="K" unicode="K" horiz-adv-x="589" 
d="M594 57q7 -8 7 -15q0 -10 -14 -14l-126 -41l-6 -2t-5 -1.5t-3 -0.5q-5 0 -13 11l-203 280v-253q0 -14 -4 -17.5t-17 -3.5h-125q-14 0 -17 3.5t-3 17.5v645q0 13 3 16.5t17 3.5h125q13 0 17 -3.5t4 -16.5v-257l188 276q7 10 13 10q3 0 15 -4l113 -37q14 -4 14 -12
q0 -6 -8 -16l-203 -274z" />
    <glyph glyph-name="L" unicode="L" horiz-adv-x="491" 
d="M478 125l-18 -108q-2 -11 -6 -14t-16 -3h-353q-14 0 -17 3.5t-3 17.5v645q0 13 3 16.5t17 3.5h125q13 0 17 -3.5t4 -16.5v-518h230q18 0 18 -12q0 -7 -1 -11z" />
    <glyph glyph-name="M" unicode="M" horiz-adv-x="714" 
d="M659 22v-7q0 -9 -3.5 -12t-15.5 -3h-117q-14 0 -18 4t-4 17l-5 307q0 79 5 146q-26 -106 -40 -151l-49 -160q-4 -12 -7 -14.5t-15 -2.5h-75q-12 0 -16 3t-7 15l-42 155q-6 21 -37 155q2 -72 2 -130l-5 -323q0 -13 -4 -17t-18 -4h-113q-12 0 -15.5 3t-3.5 11l34 652
q1 13 4.5 16.5t16.5 3.5h127q11 0 14.5 -2.5t7.5 -13.5l71 -225q11 -35 26 -105q22 81 30 106l74 224q4 11 7 13.5t15 2.5h122q12 0 15.5 -3.5t4.5 -16.5z" />
    <glyph glyph-name="N" unicode="N" horiz-adv-x="625" 
d="M560 21q0 -14 -3 -17.5t-17 -3.5h-90q-12 0 -16 3t-12 17l-166 301q-30 55 -55 122q10 -96 10 -118v-304q0 -14 -3.5 -17.5t-17.5 -3.5h-105q-14 0 -17 4t-3 17v645q0 13 3 16.5t17 3.5h104q13 0 17 -2.5t11 -14.5l151 -272q21 -38 56 -130q-8 92 -8 122v277
q0 13 3.5 16.5t17.5 3.5h103q14 0 17 -3t3 -17v-645z" />
    <glyph glyph-name="O" unicode="O" horiz-adv-x="600" 
d="M562 353q0 -370 -265 -370q-259 0 -259 370q0 52 6.5 98t24.5 93.5t46.5 81.5t76 55.5t109.5 21.5q261 0 261 -350zM392 344q0 233 -91 233q-43 0 -68 -58.5t-25 -178.5q0 -231 93 -231q91 0 91 235z" />
    <glyph glyph-name="P" unicode="P" horiz-adv-x="524" 
d="M509 492q0 -103 -65 -165t-173 -62h-40v-244q0 -14 -4 -17.5t-17 -3.5h-125q-14 0 -17 3.5t-3 17.5v645q0 14 3 17t17 3h179q73 0 115.5 -10t71.5 -35q58 -52 58 -149zM356 483q0 45 -21.5 63.5t-71.5 18.5h-32v-170h24q56 0 78.5 19.5t22.5 68.5z" />
    <glyph glyph-name="Q" unicode="Q" horiz-adv-x="600" 
d="M584 -11l-80 -69q-7 -6 -14 -6q-35 0 -110 80q-42 -13 -82 -13q-260 0 -260 367q0 53 6 99.5t23.5 95t45.5 82.5t76 56t111 22q262 0 262 -349q0 -192 -69 -282q4 -3 31.5 -20.5t45.5 -32t18 -22.5q0 -4 -4 -8zM392 345q0 232 -91 232q-43 0 -68 -58t-25 -178
q0 -232 93 -232q91 0 91 236z" />
    <glyph glyph-name="R" unicode="R" horiz-adv-x="571" 
d="M552 38q5 -7 5 -15q0 -9 -16 -12l-120 -26q-10 -2 -12 -2q-7 0 -14 13l-137 278h-31v-253q0 -14 -3 -17.5t-17 -3.5h-122q-14 0 -17 4t-3 19v643q0 14 3 17t17 3h180q134 0 189.5 -49t55.5 -149q0 -131 -106 -192zM354 483q0 46 -21 64t-71 18h-35v-170h27q56 0 78 19.5
t22 68.5z" />
    <glyph glyph-name="S" unicode="S" horiz-adv-x="520" 
d="M485 201q0 -97 -64.5 -155.5t-169.5 -58.5q-56 0 -138.5 21.5t-82.5 44.5q0 1 2 9l33 107q3 8 9 8t10 -3q89 -51 167 -51q36 0 56 17.5t20 48.5q0 35 -22 54t-107 60q-88 42 -125 84.5t-37 113.5q0 92 63 145t169 53q61 0 132.5 -21.5t71.5 -47.5q0 -4 -1 -6l-40 -96
q-3 -7 -9 -7q-2 0 -8 2q-90 44 -141 44q-38 0 -57.5 -16t-19.5 -42q0 -23 16 -36.5t66 -39.5l76 -38q67 -33 99 -78.5t32 -115.5z" />
    <glyph glyph-name="T" unicode="T" horiz-adv-x="477" 
d="M489 663l-22 -103q-2 -11 -6 -14t-15 -3h-123v-522q0 -14 -3 -17.5t-17 -3.5h-126q-14 0 -17 3.5t-3 17.5v522h-128q-14 0 -17.5 3.5t-3.5 17.5v102q0 13 3.5 16.5t17.5 3.5h444q18 0 18 -10q0 -1 -2 -13z" />
    <glyph glyph-name="U" unicode="U" horiz-adv-x="639" 
d="M576 236q0 -127 -71 -190t-197 -63q-131 0 -188 61.5t-57 187.5v434q0 13 3.5 16.5t17.5 3.5h124q14 0 17.5 -3.5t3.5 -16.5v-425q0 -73 20 -100.5t70 -27.5q51 0 74 29.5t23 96.5v427q0 13 4 16.5t17 3.5h118q14 0 17.5 -3.5t3.5 -16.5v-430z" />
    <glyph glyph-name="V" unicode="V" horiz-adv-x="549" 
d="M551 655l-186 -652q-3 -10 -7 -13t-16 -3h-138q-12 0 -15 2.5t-6 13.5l-180 649q-3 8 -3 12q0 10 18 13l134 18q2 0 4 0.5t3 0.5q14 0 17 -17l77 -370q9 -45 23 -143q18 108 26 143l82 366q2 10 5.5 13t10.5 3l137 -11q17 -1 17 -11q0 -5 -3 -14z" />
    <glyph glyph-name="W" unicode="W" horiz-adv-x="789" 
d="M786 648l-147 -644q-3 -12 -7 -14.5t-16 -2.5h-115q-13 0 -17 2.5t-6 14.5l-61 315q-12 58 -19 158q-9 -96 -24 -159l-71 -314q-3 -12 -6 -14.5t-15 -2.5h-116q-13 0 -16.5 2.5t-5.5 14.5l-137 646q-2 10 -2 12q0 10 19 13l117 15q5 1 12 1q8 0 12 -17l54 -309
q13 -78 19 -157q17 135 19 144l70 314q2 12 6 14.5t17 2.5h101q12 0 15.5 -3t6.5 -16l65 -296q9 -39 22 -165q17 146 20 165l52 305q3 18 13 18q6 0 10 -1l115 -17q18 -3 18 -13q0 -2 -2 -12z" />
    <glyph glyph-name="X" unicode="X" horiz-adv-x="573" 
d="M568 32q6 -10 6 -16q0 -8 -17 -11l-130 -19q-5 -1 -12 -1q-8 0 -14 12l-88 177q-16 33 -24 57q-10 -29 -25 -57l-90 -175q-6 -13 -12 -13q-1 0 -13 2l-129 21q-17 3 -17 12q0 5 6 16l187 326l-168 280q-6 9 -6 15q0 10 18 13l129 25q12 2 13 2q5 0 13 -14l68 -141
q12 -25 26 -63q13 41 22 63l63 143q6 14 14 14q2 0 12 -2l126 -28q18 -4 18 -12q0 -4 -6 -15l-159 -282z" />
    <glyph glyph-name="Y" unicode="Y" horiz-adv-x="539" 
d="M546 648l-189 -367v-260q0 -14 -3.5 -17.5t-17.5 -3.5h-124q-14 0 -17.5 3.5t-3.5 17.5v261l-195 370q-4 7 -4 12q0 10 15 11l139 19q5 1 11 1q7 0 13 -14l77 -175q13 -30 28 -84q14 48 31 88l76 172q5 13 15 13q6 0 10 -1l130 -21q14 -3 14 -10q0 -5 -5 -15z" />
    <glyph glyph-name="Z" unicode="Z" horiz-adv-x="536" 
d="M513 125l-10 -106q-2 -12 -5.5 -15.5t-16.5 -3.5h-428q-14 0 -17 3.5t-3 17.5v88l266 439h-235q-19 0 -19 12q0 6 1 11l18 98q2 12 5 14.5t16 2.5h376q14 0 17 -3.5t3 -16.5v-98l-258 -422h273q18 0 18 -10q0 -7 -1 -11z" />
    <glyph glyph-name="bracketleft" unicode="[" horiz-adv-x="452" 
d="M386 -184q0 -14 -4 -17.5t-17 -3.5h-227q-14 0 -17.5 3.5t-3.5 17.5v878q0 14 3.5 17.5t17.5 3.5h227q13 0 17 -3.5t4 -17.5v-87q0 -13 -4 -17t-17 -4h-90v-662h90q13 0 17 -4t4 -17v-87z" />
    <glyph glyph-name="backslash" unicode="\" horiz-adv-x="528" 
d="M484 -61q4 -14 4 -15q0 -9 -18 -9h-100q-21 0 -27 17l-304 815q-3 7 -3 13q0 11 18 11h99q19 0 26 -17z" />
    <glyph glyph-name="bracketright" unicode="]" horiz-adv-x="452" 
d="M335 -184q0 -14 -3 -17.5t-17 -3.5h-228q-13 0 -16.5 3.5t-3.5 17.5v87q0 13 3.5 17t16.5 4h91v662h-91q-13 0 -16.5 4t-3.5 17v87q0 14 3 17.5t17 3.5h228q14 0 17 -3.5t3 -17.5v-878z" />
    <glyph glyph-name="asciicircum" unicode="^" horiz-adv-x="534" 
d="M519 370q5 -8 5 -13q0 -7 -16 -7h-121q-11 0 -15.5 3t-9.5 15l-93 193l-92 -193q-5 -12 -9.5 -15t-15.5 -3h-122q-16 0 -16 7q0 5 5 13l150 301q1 1 2 4q13 13 21 14h153q10 0 13.5 -3t9.5 -14z" />
    <glyph glyph-name="underscore" unicode="_" horiz-adv-x="553" 
d="M549 -153q0 -14 -3 -17.5t-17 -3.5h-504q-14 0 -17.5 3.5t-3.5 17.5v91q0 13 3.5 17t17.5 4h504q14 0 17 -4t3 -17v-91z" />
    <glyph glyph-name="grave" unicode="`" horiz-adv-x="459" 
d="M330 622l-25 -50q-6 -13 -12 -13q-1 0 -13 4l-207 80q-14 6 -14 12q0 3 5 15l42 85q7 14 13 14q5 0 15 -6l188 -113q14 -8 14 -14q0 -2 -6 -14z" />
    <glyph glyph-name="a" unicode="a" horiz-adv-x="500" 
d="M459 38q3 -5 3 -10q0 -6 -8 -9l-93 -31q-10 -4 -15 -4q-14 0 -32 54q-56 -52 -124 -52q-75 0 -118 42t-43 113q0 173 255 173h8v29q0 30 -12 41.5t-50 11.5q-42 0 -118 -30q-3 -2 -9 -2q-7 0 -10 9l-28 81q-2 4 -2 10q0 18 67 32.5t119 14.5q186 0 186 -165v-194
q0 -59 24 -114zM292 121v99h-9q-116 0 -116 -72q0 -27 16 -44.5t40 -17.5q36 0 69 35z" />
    <glyph glyph-name="b" unicode="b" horiz-adv-x="541" 
d="M507 264q0 -130 -58.5 -205.5t-154.5 -75.5q-50 0 -97 40q-10 -23 -16 -29.5t-15 -6.5q-2 0 -5.5 1t-7.5 1l-99 16q-11 2 -11 10q0 4 3 10q20 48 20 108v552q0 11 2 14.5t12 4.5l121 19q2 0 5 0.5t4 0.5q10 0 10 -17v-232q55 36 108 36q87 0 133 -65t46 -182zM358 257
q0 72 -19 109.5t-51 37.5q-29 0 -68 -28v-267q24 -16 49 -16q40 0 64.5 43t24.5 121z" />
    <glyph glyph-name="c" unicode="c" horiz-adv-x="433" 
d="M424 437l-36 -76q-4 -8 -9 -8t-12 5q-54 36 -92 36q-90 0 -90 -150q0 -143 91 -143q37 0 83 29q6 5 13 5t11 -10l31 -68q3 -6 3 -10q0 -20 -57 -42t-102 -22q-110 0 -168.5 67.5t-58.5 187.5q0 126 64.5 199.5t178.5 73.5q42 0 97.5 -19t55.5 -43q0 -5 -3 -12z" />
    <glyph glyph-name="d" unicode="d" horiz-adv-x="533" 
d="M492 42q3 -6 3 -10t-11 -9l-96 -33q-10 -3 -17 -3q-17 0 -28 47q-65 -51 -134 -51q-85 0 -130 67.5t-45 182.5q0 136 51.5 207t146.5 71q43 0 87 -22v195q0 14 12 16l125 23q2 0 4 0.5t3 0.5q10 0 10 -17v-579q0 -37 19 -86zM319 122v267q-33 14 -63 14q-40 0 -57.5 -34
t-17.5 -121q0 -84 17 -119t51 -35q40 0 70 28z" />
    <glyph glyph-name="e" unicode="e" horiz-adv-x="503" 
d="M474 231q0 -13 -4.5 -16.5t-17.5 -3.5h-273q3 -57 26.5 -84t69.5 -27q60 0 123 34q8 4 11 4q7 0 13 -10l34 -68q3 -4 3 -9q0 -25 -73.5 -46.5t-118.5 -21.5q-116 0 -176 67.5t-60 192.5q0 120 62.5 194t168.5 74q212 0 212 -280zM323 312q-2 55 -17.5 76.5t-49.5 21.5
q-35 0 -51.5 -21.5t-24.5 -76.5h143z" />
    <glyph glyph-name="f" unicode="f" horiz-adv-x="380" 
d="M401 675l-23 -83q-3 -11 -11 -11q-4 0 -10 3q-42 18 -68 18q-27 0 -36.5 -14.5t-9.5 -52.5v-41h115q16 0 16 -8q0 -2 -2 -12l-16 -80q-3 -12 -18 -12h-95v-367q0 -11 -2.5 -13t-12.5 -2h-127q-7 0 -9.5 2.5t-2.5 12.5v367h-63q-12 0 -14.5 2.5t-2.5 15.5v79q0 9 3.5 12
t14.5 3h62v40q0 190 176 190q36 0 87 -12t51 -28q0 -1 -2 -9z" />
    <glyph glyph-name="g" unicode="g" horiz-adv-x="529" 
d="M488 458q-22 -58 -22 -117v-149q0 -36 2 -107.5t2 -106.5q0 -90 -53 -138.5t-151 -48.5q-49 0 -132.5 20t-83.5 42q0 1 2 9l26 86q3 8 10 8q3 0 15 -4q85 -39 153 -39q35 0 49 14.5t14 52.5q0 14 -5 57q-50 -31 -103 -31q-84 0 -130.5 63.5t-46.5 173.5q0 122 51.5 195
t144.5 73q62 0 111 -42q21 46 38 46q1 0 2 -0.5t2 -0.5l104 -26q6 -1 6 -10zM314 141v231q-31 22 -62 22q-33 0 -52 -36.5t-19 -106.5q0 -69 17 -104t46 -35q39 0 70 29z" />
    <glyph glyph-name="h" unicode="h" horiz-adv-x="550" 
d="M489 17q0 -12 -3 -14.5t-16 -2.5h-118q-11 0 -14 2.5t-3 14.5v314q0 35 -10.5 50.5t-34.5 15.5q-38 0 -75 -33v-347q0 -12 -3 -14.5t-16 -2.5h-119q-11 0 -13.5 3t-2.5 14v669q0 10 2.5 13.5t11.5 4.5l118 19q4 1 11 1q11 0 11 -19v-244q56 51 128 51q146 0 146 -159
v-336z" />
    <glyph glyph-name="i" unicode="i" horiz-adv-x="307" 
d="M256 650q-1 -39 -28 -67t-67 -28q-39 0 -66 28t-27 67q0 38 27 66t67 28q39 0 66.5 -28t27.5 -66zM243 15q0 -11 -2.5 -13t-13.5 -2h-121q-11 0 -14 2.5t-3 12.5v361h-64q-10 0 -13 3t-3 13v86q0 10 3 13t13 3h202q11 0 13.5 -3t2.5 -13v-463z" />
    <glyph glyph-name="j" unicode="j" horiz-adv-x="312" 
d="M261 650q-1 -39 -27.5 -67t-66.5 -28q-39 0 -66.5 28t-27.5 67q0 38 27 66t67 28q39 0 66.5 -28t27.5 -66zM248 12q0 -87 -9 -126.5t-36 -69.5q-47 -52 -143 -52q-39 0 -82 11.5t-43 24.5q0 2 2 10l28 91q1 6 9 6q2 0 8 -2q42 -16 66 -16q29 0 37.5 24t8.5 99v364h-64
q-10 0 -13 3t-3 13v86q0 11 3 13.5t13 2.5h202q10 0 13 -3t3 -13v-466z" />
    <glyph glyph-name="k" unicode="k" horiz-adv-x="526" 
d="M516 58q7 -9 7 -13q0 -6 -11 -11l-108 -46q-10 -4 -12 -4q-7 0 -12 8l-165 213v-190q0 -10 -2.5 -12.5t-12.5 -2.5h-124q-10 0 -12.5 2t-2.5 13v669q0 11 3 14.5t14 5.5l113 19q5 1 12 1t9.5 -4t2.5 -15v-375l172 178q7 7 12 7q4 0 13 -6l76 -54q8 -5 8 -12q0 -6 -7 -13
l-152 -154z" />
    <glyph glyph-name="l" unicode="l" horiz-adv-x="300" 
d="M311 28q1 -3 1 -8q0 -15 -41.5 -26t-70.5 -11q-70 0 -102.5 37t-35.5 123l-1 540q0 17 15 20l117 19q12 2 13 2q9 0 9 -16v-554q0 -38 20 -38q9 0 24.5 4.5t20.5 4.5q8 0 9 -6z" />
    <glyph glyph-name="m" unicode="m" horiz-adv-x="805" 
d="M744 19q0 -13 -2.5 -16t-14.5 -3h-120q-12 0 -14.5 3t-2.5 16v321q0 61 -35 61q-33 0 -73 -36v-346q0 -13 -2 -16t-13 -3h-122q-12 0 -14.5 3t-2.5 16v316q0 37 -7 50.5t-28 13.5q-32 0 -73 -34v-346q0 -13 -2.5 -16t-15.5 -3h-119q-12 0 -14.5 3t-2.5 16v329
q0 64 -19 116q-3 8 -3 13q0 7 10 10l107 24q8 2 11 2q20 0 36 -59q69 57 145 57q83 0 112 -65q72 65 150 65q73 0 101 -43t28 -128v-321z" />
    <glyph glyph-name="n" unicode="n" horiz-adv-x="557" 
d="M496 16q0 -10 -2.5 -13t-12.5 -3h-123q-11 0 -13.5 2.5t-2.5 13.5v316q0 66 -46 66q-35 0 -76 -34v-349q0 -10 -2 -12.5t-14 -2.5h-123q-10 0 -12.5 2.5t-2.5 12.5v333q0 65 -20 114q-3 6 -3 11q0 6 10 9l102 29q7 3 14 3q21 0 38 -61q65 58 144 58q75 0 110 -40.5
t35 -122.5v-332z" />
    <glyph glyph-name="o" unicode="o" horiz-adv-x="519" 
d="M488 246q0 -120 -61 -191.5t-166 -71.5q-109 0 -169.5 70.5t-60.5 194.5q0 120 61.5 191.5t169.5 71.5q107 0 166.5 -71t59.5 -194zM334 247q0 83 -17.5 118t-56.5 35t-57 -35t-18 -119q0 -83 18 -117.5t57 -34.5t56.5 35t17.5 118z" />
    <glyph glyph-name="p" unicode="p" horiz-adv-x="541" 
d="M507 252q0 -269 -199 -269q-46 0 -89 22v-179q0 -10 -2 -13t-10 -4l-132 -19q-10 0 -10 16v546q0 43 -20 103l-2 8q0 6 9 9l103 36q9 3 14 3q14 0 28 -47q54 47 122 47q93 0 140.5 -68t47.5 -191zM357 248q0 149 -70 149q-33 0 -68 -30v-266q31 -15 60 -15q42 0 60 35
t18 127z" />
    <glyph glyph-name="q" unicode="q" horiz-adv-x="536" 
d="M499 468q-26 -59 -26 -127v-514q0 -9 -2 -12t-10 -4l-133 -20q-9 0 -9 16v207q-42 -31 -99 -31q-91 0 -138.5 66t-47.5 186q0 127 51.5 201.5t145.5 74.5q60 0 111 -43q12 23 20.5 33.5t20.5 10.5q7 0 15 -2l93 -23q10 -3 10 -10q0 -3 -2 -9zM319 117v249q-31 25 -64 25
q-68 0 -68 -156q0 -149 64 -149q37 0 68 31z" />
    <glyph glyph-name="r" unicode="r" horiz-adv-x="383" 
d="M392 484q3 -5 3 -8q0 -6 -4 -14l-33 -89q-3 -10 -10 -10q-5 0 -22 8t-31 8q-29 0 -65 -39v-324q0 -12 -2 -14t-14 -2h-123q-11 0 -13 2t-2 14v307q0 41 -15 92.5t-15 55.5q0 7 9 10l96 26q9 3 14 3q21 0 40 -69q30 30 42 40.5t32.5 20t44.5 9.5q46 0 68 -27z" />
    <glyph glyph-name="s" unicode="s" horiz-adv-x="441" 
d="M410 144q0 -76 -50.5 -118.5t-132.5 -42.5q-58 0 -130.5 20t-72.5 40q0 5 3 14l25 82q3 9 10 9q6 0 10 -3q92 -45 143 -45q49 0 49 39q0 18 -15 27.5t-62 27.5q-84 33 -115 63.5t-31 93.5q0 73 54 116.5t137 43.5q51 0 108 -16t57 -32q0 -5 -3 -11l-31 -77q-5 -9 -9 -9
q-1 0 -9 2q-73 30 -105 30q-55 0 -55 -38q0 -18 13 -27t53 -24q92 -36 125.5 -69t33.5 -96z" />
    <glyph glyph-name="t" unicode="t" horiz-adv-x="383" 
d="M389 38q2 -10 2 -11q0 -16 -54 -30t-93 -14q-80 0 -115.5 41t-35.5 123v235h-67q-12 0 -14.5 2t-2.5 15v77q0 13 2.5 15.5t15.5 2.5h66v128q0 10 2.5 13t12.5 4l120 12q2 0 5 0.5t4 0.5q10 0 10 -15v-143h115q17 0 17 -8q0 -5 -1 -9l-16 -81q-2 -14 -17 -14h-98v-223
q0 -27 7 -37t24 -10q25 0 72 20q6 2 8 2q7 0 10 -11z" />
    <glyph glyph-name="u" unicode="u" horiz-adv-x="552" 
d="M508 28q4 -8 4 -11q0 -6 -8 -7l-108 -22q-5 -1 -12 -1q-18 0 -32 49q-56 -53 -131 -53q-83 0 -124 46q-24 27 -31 55t-7 97v291q0 11 2 14.5t12 4.5l121 18q2 0 5 0.5t4 0.5q10 0 10 -16v-326q0 -40 10.5 -56.5t38.5 -16.5q38 0 73 32v346q0 11 2 14.5t12 4.5l121 17
q5 1 11 1q8 0 8 -16v-363q0 -65 19 -103z" />
    <glyph glyph-name="v" unicode="v" horiz-adv-x="502" 
d="M498 470l-173 -476q-3 -9 -6 -11.5t-13 -2.5h-107q-9 0 -12 2.5t-6 11.5l-171 476q-3 8 -3 12q0 8 16 9l141 9q12 0 14 -13l56 -222q11 -44 24 -126q14 83 26 126l61 222q4 14 11 14q1 0 4 -0.5t5 -0.5l120 -10q15 -1 15 -9q0 -7 -2 -11z" />
    <glyph glyph-name="w" unicode="w" horiz-adv-x="684" 
d="M680 468l-145 -462q-3 -9 -6 -11t-13 -2h-104q-11 0 -14.5 2.5t-4.5 11.5l-40 233q-1 5 -11 103q-6 -57 -15 -103l-52 -233q-2 -10 -5 -12t-13 -2h-105h-8t-4.5 1.5t-3.5 4t-2 7.5l-126 462q-2 8 -2 10q0 10 16 11l125 12q9 0 11 -13l41 -213q6 -33 16 -128
q11 108 13 120l46 212q2 10 5 12.5t12 2.5h110q9 0 12.5 -3t5.5 -13l40 -205q5 -23 14 -126q13 108 18 132l45 209q3 14 13 14q1 0 3 -0.5t4 -0.5l111 -12q15 -1 15 -10q0 -1 -2 -11z" />
    <glyph glyph-name="x" unicode="x" horiz-adv-x="502" 
d="M497 30q6 -8 6 -13q0 -8 -14 -11l-124 -20q-4 -1 -10 -1t-12 9l-63 105q-7 11 -15.5 28t-12.5 24q-18 -36 -29 -52l-67 -105q-6 -9 -11 -9l-10 2l-120 29q-13 3 -13 12q0 4 5 12l153 209l-135 196q-6 9 -6 14q0 7 13 10l120 29q10 2 11 2q5 0 11 -10l50 -89
q16 -28 26 -50q14 24 30 50l57 90q5 9 12 9q1 0 11 -2l119 -32q14 -4 14 -11q0 -3 -7 -13l-143 -193z" />
    <glyph glyph-name="y" unicode="y" horiz-adv-x="490" 
d="M491 469l-113 -397q-4 -14 -13.5 -54t-16.5 -65.5t-23.5 -62t-36.5 -58t-53.5 -37.5t-76.5 -16q-34 0 -92.5 17t-58.5 38q0 6 3 12l38 79q3 7 10 7q4 0 8 -3q56 -27 80 -27q28 0 43 12t24 44l12 42h-38q-8 0 -10.5 0.5t-5 3t-4.5 9.5l-162 454q-3 7 -3 12q0 8 16 9
l136 13q11 0 13 -13l64 -247q9 -37 29 -147q14 94 21 126l59 267q4 14 10 14q1 0 4.5 -0.5t5.5 -0.5l117 -12q16 -1 16 -8q0 -1 -2 -11z" />
    <glyph glyph-name="z" unicode="z" horiz-adv-x="461" 
d="M443 106l-24 -94q-3 -12 -19 -12h-355q-11 0 -14 3t-3 14v81l179 222q39 47 52 56q-16 -3 -66 -3h-127q-12 0 -15 3t-3 15v85q0 11 3.5 14.5t14.5 3.5h345q11 0 14 -3.5t3 -14.5v-83l-180 -223q-29 -36 -47 -48q27 5 59 5h171q14 0 14 -9q0 -2 -2 -12z" />
    <glyph glyph-name="braceleft" unicode="{" 
d="M429 -177q0 -17 -14 -20t-71 -3q-91 0 -131 37.5t-40 121.5v155q0 25 -6 41t-14.5 21.5t-16.5 9t-14 8.5t-6 15v88q0 11 9 17t19.5 9.5t19.5 18t9 39.5v157q0 83 40 119.5t131 36.5h17h16h13.5t11.5 -0.5t9.5 -1.5t8 -2.5t5 -4t3.5 -6t1 -7.5v-91q0 -14 -3 -16.5
t-18 -3.5l-31 -1q-31 -1 -40.5 -12t-9.5 -46v-131q0 -47 -13.5 -73.5t-49.5 -49.5q63 -40 63 -125v-129q0 -39 11.5 -49.5t55.5 -10.5h21q14 0 14 -20v-91z" />
    <glyph glyph-name="bar" unicode="|" 
d="M338 -237q0 -14 -3 -17t-17 -3h-113q-14 0 -17.5 3t-3.5 17v988q0 13 3.5 16.5t17.5 3.5h113q14 0 17 -3.5t3 -16.5v-988z" />
    <glyph glyph-name="braceright" unicode="}" 
d="M428 208q0 -10 -6 -15t-14 -8t-16.5 -8.5t-14.5 -21.5t-6 -41v-155q0 -84 -40.5 -121.5t-131.5 -37.5q-69 0 -78 6q-6 6 -6 17v91q0 8 0.5 11.5t3.5 6t9 2.5h22q44 0 55.5 10.5t11.5 49.5v129q0 85 63 125q-36 23 -49.5 49.5t-13.5 73.5v131q0 35 -9.5 46.5t-40.5 11.5
h-31q-14 0 -17.5 3.5t-3.5 17.5v91q0 4 1 7.5t3.5 6t5 4t7.5 2.5t9 1.5t11.5 0.5h13.5h16h17q91 0 131.5 -36.5t40.5 -119.5v-157q0 -25 9 -39.5t19.5 -17.5t19.5 -9.5t9 -18.5v-88z" />
    <glyph glyph-name="asciitilde" unicode="~" horiz-adv-x="702" 
d="M602 704q-31 -59 -65.5 -89t-93.5 -30q-34 0 -101 26l-49 19q-22 9 -43 9q-33 0 -62 -47q-8 -12 -13 -12t-15 6l-47 28q-12 7 -12 13q0 3 5 15q29 65 61 95.5t92 30.5q30 0 108.5 -26.5t89.5 -26.5q25 0 51 25t28 25q6 0 13 -5l49 -28q11 -7 11 -12q0 -2 -7 -16z" />
    <glyph glyph-name="sterling" unicode="&#xa3;" horiz-adv-x="563" 
d="M547 110l-18 -93q-4 -17 -23 -17h-461q-13 0 -16.5 3.5t-3.5 17.5v91q0 14 3.5 17.5t16.5 3.5h72q8 32 8 71q0 27 -11 80h-79q-14 0 -17.5 3.5t-3.5 16.5v69q0 14 4 17.5t17 3.5h55q-10 39 -10 78q0 94 67 150t176 56q68 0 128.5 -22.5t60.5 -43.5q0 -3 -2 -9l-41 -81
q-4 -9 -13 -9q-7 0 -21 7q-65 30 -110 30q-44 0 -68.5 -23t-24.5 -63q0 -27 12 -68h137q13 0 17 -3.5t4 -17.5v-71q0 -13 -3.5 -16.5t-17.5 -3.5h-116q13 -39 13 -80q0 -36 -7 -71h258q19 0 19 -11q0 -7 -1 -12z" />
    <glyph glyph-name="currency" unicode="&#xa4;" horiz-adv-x="705" 
d="M675 141l-60 -62q-9 -10 -14 -10t-13 9l-91 91q-65 -44 -139 -44q-71 0 -140 43l-93 -95q-6 -6 -9 -6q-4 0 -13 9l-63 64q-7 7 -7 12q0 4 8 12l87 87q-40 58 -40 135q0 72 41 133l-85 83q-6 6 -6 10t10 14l63 63q6 6 10 6q5 0 17 -12l81 -80q64 42 139 42q72 0 136 -41
l85 84q9 7 11 7q5 0 16 -10l60 -59q6 -6 6 -11t-7 -12l-80 -83q42 -65 42 -135q0 -71 -40 -133l86 -88q8 -8 8 -13q0 -4 -6 -10zM486 385q0 54 -36.5 90.5t-91.5 36.5t-91 -36.5t-36 -90.5q0 -53 36.5 -90.5t90.5 -37.5t91 37.5t37 90.5z" />
    <glyph glyph-name="section" unicode="&#xa7;" horiz-adv-x="560" 
d="M499 323q0 -92 -93 -143q71 -45 71 -123q0 -70 -57.5 -121t-135.5 -51q-62 0 -137.5 24t-75.5 52q0 3 2 9l35 85q3 8 10 8q4 0 9 -3q95 -56 151 -56q49 0 49 38q0 20 -16 32.5t-66 35.5q-51 25 -76 38.5t-53.5 35.5t-39 46.5t-10.5 57.5q0 101 99 147q-34 22 -50.5 46.5
t-16.5 63.5q0 71 56.5 117t140.5 46q89 0 164 -49q11 -8 11 -14q0 -1 -4 -11l-36 -75q-4 -9 -12 -9q-4 0 -9 3q-78 44 -110 44q-53 0 -53 -36q0 -14 10 -23t36 -22l85 -43q69 -35 95.5 -68.5t26.5 -81.5zM355 305q0 21 -16.5 34t-62.5 37q-38 -20 -52 -34t-14 -35t18 -34.5
t68 -36.5q33 20 46 34t13 35z" />
    <glyph glyph-name="dieresis" unicode="&#xa8;" horiz-adv-x="509" 
d="M443 637q0 -35 -24.5 -60t-59.5 -25t-59.5 25t-24.5 60t24.5 60t59.5 25t59.5 -25t24.5 -60zM234 637q0 -35 -24.5 -60t-59.5 -25t-59.5 25t-24.5 60t24.5 60t59.5 25t59.5 -25t24.5 -60z" />
    <glyph glyph-name="copyright" unicode="&#xa9;" horiz-adv-x="771" 
d="M734 343q0 -148 -102 -253t-246 -105t-246 105t-102 253q0 150 102 254t248 104q143 0 244.5 -105t101.5 -253zM653 343q0 121 -78 205t-190 84q-109 0 -187 -85t-78 -204t78 -203.5t188 -84.5t188.5 84.5t78.5 203.5zM509 186q4 -8 4 -14q0 -18 -38 -31.5t-75 -13.5
q-84 0 -127.5 57.5t-43.5 163.5q0 97 44 154t123 57q32 0 74.5 -17t42.5 -34q0 -4 -4 -11l-25 -51q-2 -5 -10 -5h-3q-3 1 -16.5 9t-28.5 14.5t-26 6.5q-60 0 -60 -111q0 -145 69 -145q25 0 54 20q7 5 13 5q7 0 9 -6z" />
    <glyph glyph-name="guillemotleft" unicode="&#xab;" horiz-adv-x="640" 
d="M583 67q6 -9 6 -16q0 -8 -12 -13l-85 -36q-12 -5 -15 -5q-5 0 -12 10l-166 229q-6 9 -6 14t6 14l166 223q9 10 13 10q2 0 14 -5l83 -40q12 -5 12 -13q0 -5 -6 -16l-112 -179zM329 67q6 -9 6 -16q0 -8 -12 -13l-85 -36q-12 -5 -15 -5q-6 0 -13 10l-164 229q-7 10 -7 15
t6 13l165 223q9 10 13 10q3 0 15 -5l83 -40q12 -5 12 -13q0 -5 -6 -16l-112 -179z" />
    <glyph glyph-name="logicalnot" unicode="&#xac;" 
d="M500 21q0 -14 -3.5 -17.5t-17.5 -3.5h-113q-14 0 -17.5 3.5t-3.5 17.5v129h-302q-14 0 -17 3.5t-3 17.5v95q0 13 3 17t17 4h436q14 0 17.5 -4t3.5 -17v-245z" />
    <glyph glyph-name="registered" unicode="&#xae;" horiz-adv-x="771" 
d="M734 343q0 -148 -102 -253t-246 -105t-246 105t-102 253q0 150 102 254t248 104q143 0 244.5 -105t101.5 -253zM653 343q0 121 -78 205t-190 84q-109 0 -187 -85t-78 -204t78 -203.5t188 -84.5t188.5 84.5t78.5 203.5zM550 175q6 -10 6 -15q0 -7 -12 -10l-65 -15
q-8 -2 -12 -2q-9 0 -14 9l-82 160h-16v-144q0 -10 -3 -12.5t-12 -2.5h-73q-10 0 -13 3t-3 13v375q0 10 3 12.5t13 2.5h109q152 0 152 -119q0 -76 -63 -113zM428 428q0 24 -12 33.5t-42 9.5h-19v-91h14q33 0 46 10.5t13 37.5z" />
    <glyph glyph-name="degree" unicode="&#xb0;" 
d="M418 528q0 -63 -46 -106t-111 -43t-110.5 43t-45.5 106t45.5 107t110.5 44t111 -44t46 -107zM327 527q0 27 -19.5 46t-46.5 19t-46 -18.5t-19 -45.5t19 -46t46 -19t46.5 18.5t19.5 45.5z" />
    <glyph glyph-name="plusminus" unicode="&#xb1;" 
d="M490 317q0 -14 -3.5 -17.5t-17.5 -3.5h-131v-130q0 -14 -3 -17.5t-17 -3.5h-113q-14 0 -17.5 3.5t-3.5 17.5v130h-131q-14 0 -17 3.5t-3 17.5v99q0 13 3 16.5t17 3.5h131v131q0 13 3.5 16.5t17.5 3.5h113q14 0 17 -3.5t3 -17.5v-130h131q14 0 17.5 -3.5t3.5 -16.5v-99z
M500 -21q0 -14 -3.5 -17t-17.5 -3h-436q-14 0 -17 3t-3 17v96q0 13 3 17t17 4h436q14 0 17.5 -4t3.5 -17v-96z" />
    <glyph glyph-name="acute" unicode="&#xb4;" horiz-adv-x="515" 
d="M399 670q5 -10 5 -14q0 -8 -15 -14l-206 -79q-8 -3 -13 -3q-9 0 -14 13l-24 49q-5 10 -5 14q0 6 14 14l188 113q11 6 15 6q6 0 13 -14z" />
    <glyph glyph-name="mu" unicode="&#xb5;" horiz-adv-x="550" 
d="M506 28q4 -8 4 -11q0 -6 -8 -7l-106 -22q-5 -1 -12 -1q-18 0 -32 49q-31 -29 -58.5 -41t-67.5 -12l-13 2v-159q0 -10 -2 -13t-10 -4l-132 -19q-10 0 -10 17v665q0 11 2 14.5t12 4.5l121 18q2 0 5 0.5t4 0.5q10 0 10 -16v-326q0 -40 10.5 -56.5t38.5 -16.5q38 0 73 32v346
q0 11 2 14.5t12 4.5l119 17q5 1 11 1q8 0 8 -16v-363q0 -65 19 -103z" />
    <glyph glyph-name="mu" unicode="&#x3bc;" horiz-adv-x="550" 
d="M506 28q4 -8 4 -11q0 -6 -8 -7l-106 -22q-5 -1 -12 -1q-18 0 -32 49q-31 -29 -58.5 -41t-67.5 -12l-13 2v-159q0 -10 -2 -13t-10 -4l-132 -19q-10 0 -10 17v665q0 11 2 14.5t12 4.5l121 18q2 0 5 0.5t4 0.5q10 0 10 -16v-326q0 -40 10.5 -56.5t38.5 -16.5q38 0 73 32v346
q0 11 2 14.5t12 4.5l119 17q5 1 11 1q8 0 8 -16v-363q0 -65 19 -103z" />
    <glyph glyph-name="paragraph" unicode="&#xb6;" horiz-adv-x="704" 
d="M679 590q0 -13 -3.5 -16.5t-16.5 -3.5h-41v-736q0 -14 -3 -17t-17 -3h-79q-11 0 -16 1t-8 5.5t-3 13.5v736h-82v-736q0 -14 -3 -17t-17 -3h-89q-13 0 -16.5 3t-3.5 17v320q-24 -6 -48 -6q-108 0 -169 69t-61 194q0 188 117 247q34 17 68.5 22.5t102.5 5.5h368
q13 0 16.5 -3.5t3.5 -16.5v-76zM281 265v304q-73 0 -98.5 -33t-25.5 -109q0 -92 23 -129.5t69 -37.5q12 0 32 5z" />
    <glyph glyph-name="guillemotright" unicode="&#xbb;" horiz-adv-x="635" 
d="M598 236l-165 -229q-9 -10 -13 -10q-3 0 -15 5l-84 36q-13 6 -13 13q0 5 7 16l115 177l-113 179q-6 10 -6 16q0 8 12 13l82 40q9 5 15 5q4 0 13 -10l165 -223q6 -9 6 -14t-6 -14zM345 264q6 -7 6 -13q0 -5 -7 -15l-164 -229q-9 -10 -13 -10q-3 0 -15 5l-84 36
q-14 6 -14 13q0 4 7 16l115 177l-112 179q-6 10 -6 16q0 8 12 13l82 40q9 5 15 5q4 0 13 -10z" />
    <glyph glyph-name="divide" unicode="&#xf7;" 
d="M349 476q0 -36 -26 -61.5t-62 -25.5t-61.5 25.5t-25.5 61.5t25.5 62t61.5 26t62 -26t26 -62zM500 231q0 -14 -3.5 -17t-17.5 -3h-436q-14 0 -17 3t-3 17v94q0 13 3 17t17 4h436q14 0 17.5 -4t3.5 -17v-94zM349 80q0 -36 -26 -61t-62 -25t-61.5 25t-25.5 61t25.5 62
t61.5 26t62 -26t26 -62z" />
    <glyph glyph-name="dotlessi" unicode="&#x131;" horiz-adv-x="307" 
d="M244 15q0 -11 -2 -13t-14 -2h-122q-11 0 -14 2.5t-3 12.5v361h-64q-10 0 -13 3t-3 13v86q0 10 3 13t13 3h203q10 0 13 -3t3 -13v-463z" />
    <glyph glyph-name="florin" unicode="&#x192;" horiz-adv-x="549" 
d="M563 675l-27 -86q-4 -10 -10 -10q-2 0 -10 2q-43 16 -57 16q-27 0 -37.5 -16.5t-18.5 -55.5l-6 -29h105q17 0 17 -10q0 -3 -2 -11l-16 -74q-4 -18 -22 -18h-105l-77 -385q-21 -104 -71 -153.5t-140 -49.5q-27 0 -51 5.5t-36 12.5t-12 13q0 1 2 11l23 81q3 11 10 11
q8 0 24.5 -3.5t25.5 -3.5q34 0 50.5 18t28.5 79l74 364h-62q-18 0 -18 11q0 6 1 10l13 72q2 13 5.5 16.5t15.5 3.5h70l9 45q18 95 59.5 136.5t132.5 41.5q37 0 75.5 -10t38.5 -25q0 -1 -2 -9z" />
    <glyph glyph-name="dotaccent" unicode="&#x2d9;" horiz-adv-x="508" 
d="M347 638q0 -38 -27.5 -65.5t-65.5 -27.5q-39 0 -66 27t-27 66t27 65.5t66 26.5t66 -26.5t27 -65.5z" />
    <glyph glyph-name="Delta" unicode="&#x394;" horiz-adv-x="591" 
d="M384 671l203 -647q2 -8 2 -12q0 -12 -17 -12h-546q-19 0 -19 10q0 3 2 9l206 654q3 13 15 13h138q10 0 16 -15zM391 132l-68 289q-15 55 -24 132q-9 -77 -24 -132l-68 -289h184z" />
    <glyph glyph-name="Delta" unicode="&#x2206;" horiz-adv-x="591" 
d="M384 671l203 -647q2 -8 2 -12q0 -12 -17 -12h-546q-19 0 -19 10q0 3 2 9l206 654q3 13 15 13h138q10 0 16 -15zM391 132l-68 289q-15 55 -24 132q-9 -77 -24 -132l-68 -289h184z" />
    <glyph glyph-name="afii10023" unicode="&#x401;" horiz-adv-x="490" 
d="M87 822q0 33 22.5 55.5t55.5 22.5t55.5 -22.5t22.5 -55.5t-22.5 -55.5t-55.5 -22.5t-55.5 22.5t-22.5 55.5zM289 822q0 33 22.5 55.5t55.5 22.5t55.5 -22.5t22.5 -55.5t-22.5 -55.5t-55.5 -22.5t-55.5 22.5t-22.5 55.5zM466 669l-19 -99q-3 -17 -22 -17h-194v-131h171
q13 0 13 -16v-101q0 -17 -21 -17h-163v-155h216q13 0 13 -16v-96q0 -13 -4 -17t-17 -4h-362q-12 0 -12 14v660q0 12 12 12h381q9 0 9 -11q0 -1 -0.5 -3t-0.5 -3z" />
    <glyph glyph-name="afii10051" unicode="&#x402;" horiz-adv-x="685" 
d="M300 543v-139q64 27 131 27q101 0 150 -51t49 -170q0 -32 -2 -56.5t-13 -59t-29.5 -56.5t-55 -38.5t-86.5 -16.5q-30 0 -65 7.5t-35 20.5q0 1 0.5 3.5t0.5 4.5l15 92q2 7 10 7q3 0 4 -1l7 -3q12 -6 31 -6q32 0 42 23t10 72q0 60 -18 80q-19 22 -61 22q-45 0 -85 -21v-264
q0 -20 -20 -20h-128q-18 0 -18 19v524h-119q-15 0 -15 16v112q0 15 15 15h463q15 0 15 -12q0 -6 -1 -8l-23 -107q-2 -10 -5.5 -13t-13.5 -3h-150z" />
    <glyph glyph-name="afii10052" unicode="&#x403;" horiz-adv-x="474" 
d="M438 686q14 0 19 -2.5t5 -10.5q0 -6 -1 -10l-18 -103q-2 -11 -6 -14t-16 -3h-190v-523q0 -13 -4 -16.5t-17 -3.5h-125q-14 0 -17 3.5t-3 16.5v645q0 14 3 17.5t17 3.5h353zM399 857q5 -10 5 -14q0 -8 -15 -14l-206 -79q-7 -3 -13 -3q-9 0 -14 13l-24 49q-5 10 -5 14
q0 6 14 14l188 113q11 6 15 6q6 0 13 -14z" />
    <glyph glyph-name="afii10053" unicode="&#x404;" horiz-adv-x="513" 
d="M438 148l43 -89q2 -6 2 -8q0 -6 -4 -10l-8 -8q-24 -24 -70 -37t-94 -13q-269 0 -269 352q0 207 94 301q66 67 173 67q55 0 115 -23t60 -51q0 -1 -2 -7l-48 -86q-4 -6 -9 -6t-9 3q-5 3 -18.5 14t-30 16.5t-44.5 5.5q-34 0 -57.5 -15t-34.5 -40t-15.5 -49t-4.5 -51h153
q18 0 18 -19v-90q0 -19 -17 -19h-154v-5q0 -67 28 -115.5t84 -48.5q38 0 85 27l12 7q7 4 12 4q6 0 10 -7z" />
    <glyph glyph-name="afii10054" unicode="&#x405;" horiz-adv-x="520" 
d="M485 201q0 -97 -64.5 -155.5t-169.5 -58.5q-56 0 -138.5 21.5t-82.5 44.5q0 1 2 9l33 107q3 8 9 8t10 -3q89 -51 167 -51q36 0 56 17.5t20 48.5q0 35 -22 54t-107 60q-88 42 -125 84.5t-37 113.5q0 92 63 145t169 53q61 0 132.5 -21.5t71.5 -47.5q0 -4 -1 -6l-40 -96
q-3 -7 -9 -7q-2 0 -8 2q-90 44 -141 44q-38 0 -57.5 -16t-19.5 -42q0 -23 16 -36.5t66 -39.5l76 -38q67 -33 99 -78.5t32 -115.5z" />
    <glyph glyph-name="afii10055" unicode="&#x406;" horiz-adv-x="352" 
d="M324 21q0 -14 -3.5 -17.5t-17.5 -3.5h-255q-14 0 -17 3.5t-3 17.5v81q0 14 3 17t17 3h44v442h-44q-14 0 -17 3t-3 17v82q0 13 3 16.5t17 3.5h255q14 0 17.5 -3.5t3.5 -16.5v-82q0 -14 -3.5 -17t-17.5 -3h-45v-442h45q14 0 17.5 -3.5t3.5 -16.5v-81z" />
    <glyph glyph-name="afii10056" unicode="&#x407;" horiz-adv-x="352" 
d="M326 15q0 -9 -3.5 -12t-12.5 -3h-264q-9 0 -12.5 2.5t-3.5 12.5v93q0 8 3 11t11 3h50v442h-49q-9 0 -12 3t-3 12v91q0 11 4 13.5t16 2.5h255q14 0 17.5 -3.5t3.5 -16.5v-87q0 -15 -13 -15h-53v-442h45q14 0 17.5 -3.5t3.5 -16.5v-87zM5 820q0 35 23.5 59.5t56.5 24.5
t56.5 -24.5t23.5 -59.5t-23.5 -59.5t-56.5 -24.5t-56.5 24.5t-23.5 59.5zM187 820q0 35 23.5 59.5t56.5 24.5t56.5 -24.5t23.5 -59.5t-23.5 -59.5t-56.5 -24.5t-56.5 24.5t-23.5 59.5z" />
    <glyph glyph-name="afii10057" unicode="&#x408;" horiz-adv-x="459" 
d="M398 211q0 -228 -204 -228q-97 0 -146.5 51.5t-49.5 161.5q0 25 13 25h119q12 0 12 -16q0 -53 10 -72.5t37 -19.5q25 0 33.5 17.5t8.5 63.5v370h-135q-14 0 -17 3t-3 17v82q0 13 3 16.5t17 3.5h281q13 0 17 -3.5t4 -16.5v-455z" />
    <glyph glyph-name="afii10058" unicode="&#x409;" horiz-adv-x="876" 
d="M545 299v-171h43q16 0 25 0.5t25 5t25.5 13t17 25.5t7.5 41q0 42 -26 64t-67 22h-50zM379 546h-90v-75q0 -72 -8 -195q-10 -160 -80 -230q-30 -30 -72.5 -45.5t-81.5 -15.5q-18 0 -21 12l-29 97q-2 8 -2 11q0 12 13 15l14 3q51 11 73 34q8 8 14 19.5t10.5 21t7.5 26
t4.5 26.5t2.5 30t1.5 28.5t1 32t0.5 29.5q1 66 1 153v143q0 20 20 20h371q16 0 16 -18v-249h72q118 0 174 -56q55 -53 55 -154q0 -96 -56 -150q-61 -59 -187 -59h-204q-20 0 -20 20v526z" />
    <glyph glyph-name="afii10059" unicode="&#x40a;" horiz-adv-x="886" 
d="M555 299v-171h43q16 0 25 0.5t25 5t25.5 13t17 25.5t7.5 41q0 42 -26 64t-67 22h-50zM409 686h129q17 0 17 -13v-254h76q114 0 170 -56q55 -55 55 -154q0 -96 -56 -150q-61 -59 -187 -59h-204q-20 0 -20 20v267h-157v-270q0 -17 -16 -17h-130q-14 0 -17.5 4t-3.5 17v650
q0 15 14 15h136q17 0 17 -20v-247h157v247q0 20 20 20z" />
    <glyph glyph-name="afii10060" unicode="&#x40b;" horiz-adv-x="672" 
d="M15 686h463q15 0 15 -12q0 -4 -1 -6l-23 -109q-2 -9 -5.5 -12.5t-13.5 -3.5h-150v-139q59 27 133 27q51 0 89 -16.5t57.5 -43.5t28.5 -54.5t9 -56.5v-243q0 -17 -19 -17h-127q-20 0 -20 20v214q0 33 -20 52t-54 19q-36 0 -77 -21v-264q0 -20 -20 -20h-128q-18 0 -18 19
v524h-119q-15 0 -15 16v112q0 15 15 15z" />
    <glyph glyph-name="afii10061" unicode="&#x40c;" horiz-adv-x="587" 
d="M214 0h-129q-20 0 -20 20v646q0 20 16 20h134q16 0 16 -20v-247h30q37 0 55 17.5t25 55.5l12 73q10 61 39 90q20 21 57 34.5t66 13.5q21 0 24 -13l26 -93q1 -2 1 -6q0 -12 -11 -15l-23 -6q-39 -12 -46 -51l-10 -61q-12 -75 -78 -98v-3q69 -18 88 -102l16 -80
q4 -26 14.5 -37t33.5 -16l21 -4q11 -3 11 -13q0 -5 -1 -7l-31 -100q-2 -5 -3.5 -7.5t-6.5 -5t-13 -2.5q-88 0 -129 44q-27 29 -38 94l-17 106q-8 64 -73 64h-39v-271q0 -20 -17 -20zM435 857q5 -10 5 -14q0 -8 -15 -14l-206 -79q-7 -3 -13 -3q-9 0 -14 13l-24 49
q-5 10 -5 14q0 6 14 14l188 113q11 6 15 6q6 0 13 -14z" />
    <glyph glyph-name="afii10062" unicode="&#x40e;" horiz-adv-x="553" 
d="M437 879q0 -55 -41.5 -99t-109.5 -44q-70 0 -113.5 43t-43.5 98q0 15 11 16l93 12q5 0 9.5 -9.5t7.5 -21.5t11.5 -21.5t22.5 -9.5q18 0 27 15.5t12.5 30.5t9.5 15l94 -11q10 -1 10 -14zM279 208h-82q-9 0 -12 9l-169 450q-1 1 -1 4q0 10 12 12l147 11q9 0 12 -4.5
t7 -15.5l64 -215q27 -90 39 -143h5q1 6 34 147l50 214q4 17 17 17l125 -8q21 -1 21 -11q0 -5 -1 -7l-142 -508q-24 -86 -68 -128q-50 -49 -136 -49q-35 0 -83 15.5t-48 38.5q0 3 2 9l32 87q4 7 11 7q3 0 4 -1l11 -6q42 -23 71 -23q52 0 68 61z" />
    <glyph glyph-name="afii10145" unicode="&#x40f;" horiz-adv-x="619" 
d="M231 674v-542h157v542q0 12 11 12h141q14 0 14 -12v-652q0 -22 -19 -22h-151v-155q0 -19 -18 -19h-111q-20 0 -20 20v154h-153q-11 0 -14 3t-3 12v656q0 15 14 15h139q13 0 13 -12z" />
    <glyph glyph-name="afii10017" unicode="&#x410;" horiz-adv-x="603" 
d="M595 24q2 -10 2 -12q0 -12 -19 -12h-140q-12 0 -15.5 2.5t-6.5 14.5l-41 154h-150l-41 -154q-3 -12 -6.5 -14.5t-15.5 -2.5h-130q-19 0 -19 10q0 5 3 12l204 647q4 12 7 14.5t15 2.5h127q12 0 15 -2.5t7 -14.5zM348 285l-30 144q-2 8 -20 124q-8 -61 -22 -124l-33 -144
h105z" />
    <glyph glyph-name="afii10018" unicode="&#x411;" horiz-adv-x="567" 
d="M231 548v-129h72q56 0 98.5 -11t76.5 -46q54 -55 54 -149q0 -58 -18 -100t-42 -63t-60.5 -33t-61 -14.5t-55.5 -2.5h-215q-15 0 -15 18v648q0 20 18 20h387q15 0 15 -11q0 -3 -1 -6l-24 -107q-4 -14 -19 -14h-210zM231 299v-171h45q98 0 98 86q0 85 -102 85h-41z" />
    <glyph glyph-name="afii10019" unicode="&#x412;" horiz-adv-x="579" 
d="M534 200q0 -66 -38 -120.5t-95 -68.5q-45 -11 -127 -11h-189q-14 0 -17 3.5t-3 17.5v645q0 13 3 16.5t17 3.5h180q82 0 120.5 -9t67.5 -36q56 -51 56 -136q0 -51 -21 -86t-70 -59q116 -41 116 -160zM353 490q-3 42 -20 59.5t-64 17.5h-45v-159h49q80 0 80 82zM373 208
q0 45 -23 64t-86 19h-40v-163h44q59 0 82 19t23 61z" />
    <glyph glyph-name="afii10020" unicode="&#x413;" horiz-adv-x="474" 
d="M438 686q14 0 19 -2.5t5 -10.5q0 -6 -1 -10l-18 -103q-2 -11 -6 -14t-16 -3h-190v-523q0 -13 -4 -16.5t-17 -3.5h-125q-14 0 -17 3.5t-3 16.5v645q0 14 3 17.5t17 3.5h353z" />
    <glyph glyph-name="afii10021" unicode="&#x414;" horiz-adv-x="612" 
d="M457 0h-312v-142q0 -20 -20 -20h-105q-20 0 -20 20v250q0 20 20 20h38q46 105 60 173q18 84 18 220v145q0 20 20 20h364q20 0 20 -21v-537h42q20 0 20 -20v-250q0 -20 -20 -20h-105q-20 0 -20 20v142zM376 128v430h-91v-83q0 -101 -16 -184q-16 -80 -53 -163h160z" />
    <glyph glyph-name="afii10022" unicode="&#x415;" horiz-adv-x="493" 
d="M465 664l-18 -94q-4 -17 -22 -17h-194v-131h163q13 0 17 -3.5t4 -17.5v-92q0 -13 -4 -17t-17 -4h-163v-155h208q13 0 17 -3.5t4 -17.5v-91q0 -13 -4 -17t-17 -4h-354q-14 0 -17 3.5t-3 17.5v645q0 13 3 16.5t17 3.5h365q17 0 17 -9q0 -3 -2 -13z" />
    <glyph glyph-name="afii10024" unicode="&#x416;" horiz-adv-x="838" 
d="M487 0h-136q-15 0 -15 17v274h-22q-68 0 -76 -80l-13 -95q-8 -60 -39 -91q-22 -21 -59 -31.5t-69 -10.5q-18 0 -22 15l-31 100q-1 3 -1 7q0 9 11 13l25 5q23 4 32 15t15 49l11 61q15 88 92 109v3q-32 8 -52.5 35.5t-27.5 62.5l-12 60q-10 46 -45 53l-22 5q-11 3 -11 15
q0 4 1 6l26 93q3 12 20 12q81 0 125 -48q30 -32 38 -85l12 -74q7 -40 24 -58t54 -18h16v248q0 19 15 19h135q16 0 16 -16v-251h16q22 0 37 6t23 19t11.5 23.5t6.5 28.5l12 73q8 53 38 85q44 48 125 48q17 0 20 -12l26 -93q1 -2 1 -6q0 -12 -11 -15l-22 -5q-35 -7 -45 -53
l-12 -60q-6 -32 -27 -61t-53 -37v-3q78 -20 92 -109l11 -62q2 -10 4 -18.5t4.5 -14.5t4 -10.5t4.5 -7.5t4.5 -5t6 -3t5.5 -1.5t6.5 -1.5t7.5 -1l25 -5q11 -4 11 -13q0 -4 -1 -7l-31 -100q-4 -15 -22 -15q-32 0 -69 10.5t-59 31.5q-31 31 -39 91l-13 95q-11 80 -76 80h-22
v-272q0 -19 -15 -19z" />
    <glyph glyph-name="afii10025" unicode="&#x417;" horiz-adv-x="509" 
d="M146 309v86q0 20 20 20h34q94 0 94 84q0 28 -18.5 52t-66.5 24q-51 0 -95 -34l-19 -14q-6 -5 -12 -5t-12 9l-37 77q-2 6 -2 8q0 9 10 19q68 68 192 68q54 0 94.5 -13.5t63 -33t37 -46t18.5 -48.5t4 -45q0 -50 -25.5 -93.5t-75.5 -60.5q45 -17 74 -46q47 -47 47 -126
q0 -92 -54 -146q-61 -62 -177 -62q-80 0 -144 25q-26 11 -51 27t-25 28q0 1 2 9l35 84q4 10 12 10q6 0 11 -4l13 -9q62 -42 117 -42q42 0 71.5 25t29.5 66t-26 64t-81 23h-38q-20 0 -20 20z" />
    <glyph glyph-name="afii10026" unicode="&#x418;" horiz-adv-x="641" 
d="M65 17v649q0 20 18 20h131q17 0 17 -20v-221q0 -82 -14 -191h4q18 51 57 137l126 282q6 13 19 13h132q21 0 21 -20v-648q0 -18 -13 -18h-140q-13 0 -13 16v266q0 73 12 169h-3q-21 -65 -51 -130l-134 -302q-9 -19 -26 -19h-130q-13 0 -13 17z" />
    <glyph glyph-name="afii10027" unicode="&#x419;" horiz-adv-x="641" 
d="M404 916l92 -11q11 -1 11 -18q0 -39 -19 -68.5t-49 -44.5t-59.5 -22.5t-57.5 -7.5q-25 0 -54.5 7t-61 22t-52 45.5t-20.5 70.5q0 15 12 16l97 11q7 0 9 -8l4 -16q11 -49 65 -49q24 0 39.5 11t20.5 20.5t6 19.5l3 14q2 8 12 8h2zM65 17v649q0 20 18 20h131q17 0 17 -20
v-221q0 -82 -14 -191h4q18 51 57 137l126 282q6 13 19 13h132q21 0 21 -20v-648q0 -18 -13 -18h-140q-13 0 -13 16v266q0 73 12 169h-3q-21 -65 -51 -130l-134 -302q-9 -19 -26 -19h-130q-13 0 -13 17z" />
    <glyph glyph-name="afii10028" unicode="&#x41a;" horiz-adv-x="587" 
d="M214 0h-129q-20 0 -20 20v646q0 20 16 20h134q16 0 16 -20v-247h30q37 0 55 17.5t25 55.5l12 73q10 61 39 90q20 21 57 34.5t66 13.5q21 0 24 -13l26 -93q1 -2 1 -6q0 -12 -11 -15l-23 -6q-39 -12 -46 -51l-10 -61q-12 -75 -78 -98v-3q69 -18 88 -102l16 -80
q4 -26 14.5 -37t33.5 -16l21 -4q11 -3 11 -13q0 -5 -1 -7l-31 -100q-2 -5 -3.5 -7.5t-6.5 -5t-13 -2.5q-88 0 -129 44q-27 29 -38 94l-17 106q-8 64 -73 64h-39v-271q0 -20 -17 -20z" />
    <glyph glyph-name="afii10029" unicode="&#x41b;" horiz-adv-x="611" 
d="M289 546v-75q0 -72 -8 -195q-10 -160 -80 -230q-30 -30 -72.5 -45.5t-81.5 -15.5q-18 0 -21 12l-29 97q-2 8 -2 11q0 12 13 15l14 3q51 11 73 34q8 8 14 19.5t10.5 21t7.5 26t4.5 26.5t2.5 30t1.5 28.5t1 32t0.5 29.5q1 66 1 153v143q0 20 20 20h372q16 0 16 -18v-648
q0 -20 -20 -20h-125q-12 0 -16.5 4.5t-4.5 15.5v526h-91z" />
    <glyph glyph-name="afii10030" unicode="&#x41c;" horiz-adv-x="714" 
d="M659 22v-7q0 -9 -3.5 -12t-15.5 -3h-117q-14 0 -18 4t-4 17l-5 307q0 79 5 146q-26 -106 -40 -151l-49 -160q-4 -12 -7 -14.5t-15 -2.5h-75q-12 0 -16 3t-7 15l-42 155q-6 21 -37 155q2 -72 2 -130l-5 -323q0 -13 -4 -17t-18 -4h-113q-12 0 -15.5 3t-3.5 11l34 652
q1 13 4.5 16.5t16.5 3.5h127q11 0 14.5 -2.5t7.5 -13.5l71 -225q11 -35 26 -105q22 81 30 106l74 224q4 11 7 13.5t15 2.5h122q12 0 15.5 -3.5t4.5 -16.5z" />
    <glyph glyph-name="afii10031" unicode="&#x41d;" horiz-adv-x="619" 
d="M554 21q0 -14 -3.5 -17.5t-17.5 -3.5h-124q-14 0 -17.5 3.5t-3.5 17.5v266h-157v-266q0 -14 -4 -17.5t-17 -3.5h-124q-14 0 -17.5 3.5t-3.5 17.5v645q0 13 3.5 16.5t17.5 3.5h124q13 0 17 -3.5t4 -16.5v-247h157v247q0 13 3.5 16.5t17.5 3.5h124q14 0 17.5 -3.5
t3.5 -16.5v-645z" />
    <glyph glyph-name="afii10032" unicode="&#x41e;" horiz-adv-x="600" 
d="M562 353q0 -370 -265 -370q-259 0 -259 370q0 52 6.5 98t24.5 93.5t46.5 81.5t76 55.5t109.5 21.5q261 0 261 -350zM392 344q0 233 -91 233q-43 0 -68 -58.5t-25 -178.5q0 -231 93 -231q91 0 91 235z" />
    <glyph glyph-name="afii10033" unicode="&#x41f;" horiz-adv-x="611" 
d="M546 21q0 -14 -3.5 -17.5t-17.5 -3.5h-124q-14 0 -17.5 3.5t-3.5 17.5v533h-149v-533q0 -14 -4 -17.5t-17 -3.5h-124q-14 0 -17.5 3.5t-3.5 17.5v645q0 13 3.5 16.5t17.5 3.5h439q14 0 17.5 -3.5t3.5 -16.5v-645z" />
    <glyph glyph-name="afii10034" unicode="&#x420;" horiz-adv-x="524" 
d="M509 492q0 -103 -65 -165t-173 -62h-40v-244q0 -14 -4 -17.5t-17 -3.5h-125q-14 0 -17 3.5t-3 17.5v645q0 14 3 17t17 3h179q73 0 115.5 -10t71.5 -35q58 -52 58 -149zM356 483q0 45 -21.5 63.5t-71.5 18.5h-32v-170h24q56 0 78.5 19.5t22.5 68.5z" />
    <glyph glyph-name="afii10035" unicode="&#x421;" horiz-adv-x="505" 
d="M489 64q3 -6 3 -10q0 -25 -64.5 -48t-116.5 -23q-134 0 -203.5 95.5t-69.5 272.5q0 165 71.5 258.5t195.5 93.5q45 0 92 -16t80 -44q13 -11 13 -18q0 -6 -2 -9l-46 -94q-4 -9 -11 -9q-3 0 -8 3t-23.5 15t-28 17.5t-27 11.5t-33.5 6q-103 0 -103 -195q0 -251 117 -251
q46 0 99 39q7 5 10 5q4 0 9 -9z" />
    <glyph glyph-name="afii10036" unicode="&#x422;" horiz-adv-x="477" 
d="M489 663l-22 -103q-2 -11 -6 -14t-15 -3h-123v-522q0 -14 -3 -17.5t-17 -3.5h-126q-14 0 -17 3.5t-3 17.5v522h-128q-14 0 -17.5 3.5t-3.5 17.5v102q0 13 3.5 16.5t17.5 3.5h444q18 0 18 -10q0 -1 -2 -13z" />
    <glyph glyph-name="afii10037" unicode="&#x423;" horiz-adv-x="553" 
d="M279 208h-82q-9 0 -12 9l-169 450q-1 1 -1 4q0 10 12 12l147 11q9 0 12 -4.5t7 -15.5l64 -215q27 -90 39 -143h5q1 6 34 147l50 214q4 17 17 17l125 -8q21 -1 21 -11q0 -5 -1 -7l-142 -508q-24 -86 -68 -128q-50 -49 -136 -49q-35 0 -83 15.5t-48 38.5q0 3 2 9l32 87
q4 7 11 7q3 0 4 -1l11 -6q42 -23 71 -23q52 0 68 61z" />
    <glyph glyph-name="afii10038" unicode="&#x424;" horiz-adv-x="726" 
d="M429 0h-132q-17 0 -17 15v92h-14q-59 0 -103.5 18t-69 45t-39.5 64.5t-19.5 68.5t-4.5 65q0 135 68 201q62 60 171 60h11v92q0 14 16 14h135q15 0 15 -15v-91h11q109 0 171 -60q68 -66 68 -201q0 -34 -4.5 -65t-19.5 -68.5t-39.5 -64.5t-69 -45t-103.5 -18h-14v-92
q0 -15 -17 -15zM440 514v-291h10q30 0 50.5 13t29 37t11 44.5t2.5 48.5q0 77 -21 112.5t-71 35.5h-11zM286 514h-11q-50 0 -71 -35.5t-21 -112.5q0 -28 2.5 -48.5t11 -44.5t29 -37t50.5 -13h10v291z" />
    <glyph glyph-name="afii10039" unicode="&#x425;" horiz-adv-x="573" 
d="M568 32q6 -10 6 -16q0 -8 -17 -11l-130 -19q-5 -1 -12 -1q-8 0 -14 12l-88 177q-16 33 -24 57q-10 -29 -25 -57l-90 -175q-6 -13 -12 -13q-1 0 -13 2l-129 21q-17 3 -17 12q0 5 6 16l187 326l-168 280q-6 9 -6 15q0 10 18 13l129 25q12 2 13 2q5 0 13 -14l68 -141
q12 -25 26 -63q13 41 22 63l63 143q6 14 14 14q2 0 12 -2l126 -28q18 -4 18 -12q0 -4 -6 -15l-159 -282z" />
    <glyph glyph-name="afii10040" unicode="&#x426;" horiz-adv-x="620" 
d="M231 674v-542h145v542q0 12 11 12h141q14 0 14 -12v-546h48q20 0 20 -20v-251q0 -19 -18 -19h-107q-20 0 -20 20v142h-383q-11 0 -14 3t-3 12v656q0 15 14 15h139q13 0 13 -12z" />
    <glyph glyph-name="afii10041" unicode="&#x427;" horiz-adv-x="605" 
d="M374 20v250q-60 -27 -124 -27q-59 0 -99.5 18.5t-58.5 49t-25 57t-7 55.5v243q0 20 20 20h126q20 0 20 -20v-222q0 -73 74 -73q34 0 74 23v272q0 20 20 20h126q20 0 20 -20v-646q0 -20 -20 -20h-126q-20 0 -20 20z" />
    <glyph glyph-name="afii10042" unicode="&#x428;" horiz-adv-x="908" 
d="M537 665v-533h140v533q0 14 3.5 17.5t17.5 3.5h124q14 0 17.5 -3.5t3.5 -17.5v-645q0 -13 -3.5 -16.5t-17.5 -3.5h-736q-14 0 -17.5 3.5t-3.5 16.5v645q0 14 3.5 17.5t17.5 3.5h124q13 0 17 -3.5t4 -17.5v-533h140v533q0 14 3.5 17.5t17.5 3.5h124q14 0 17.5 -3.5
t3.5 -17.5z" />
    <glyph glyph-name="afii10043" unicode="&#x429;" horiz-adv-x="921" 
d="M537 671v-539h140v539q0 15 15 15h136q15 0 15 -15v-543h48q20 0 20 -20v-250q0 -20 -20 -20h-105q-20 0 -20 20v142h-687q-14 0 -14 15v656q0 15 14 15h139q13 0 13 -14v-540h140v540q0 14 14 14h138q14 0 14 -15z" />
    <glyph glyph-name="afii10044" unicode="&#x42a;" horiz-adv-x="665" 
d="M392 0h-204q-20 0 -20 20v528h-157q-17 0 -17 13q0 6 1 10l23 98q5 17 17 17h283q16 0 16 -13v-254h72q118 0 174 -56q55 -53 55 -154q0 -96 -56 -150q-61 -59 -187 -59zM334 299v-171h43q16 0 25 0.5t25 5t25.5 13t17 25.5t7.5 41q0 42 -26 64t-67 22h-50z" />
    <glyph glyph-name="afii10045" unicode="&#x42b;" horiz-adv-x="812" 
d="M85 686h129q17 0 17 -13v-254h66q118 0 174 -56q55 -53 55 -154q0 -96 -56 -150q-61 -59 -187 -59h-198q-20 0 -20 20v646q0 20 20 20zM747 671v-655q0 -16 -16 -16h-134q-16 0 -16 16v655q0 15 14 15h136q16 0 16 -15zM231 299v-171h43q16 0 25 0.5t25 5t25.5 13
t17 25.5t7.5 41q0 42 -26 64t-67 22h-50z" />
    <glyph glyph-name="afii10046" unicode="&#x42c;" horiz-adv-x="562" 
d="M231 299v-171h43q16 0 25 0.5t25 5t25.5 13t17 25.5t7.5 41q0 42 -26 64t-67 22h-50zM85 686h129q17 0 17 -13v-254h72q118 0 174 -56q55 -53 55 -154q0 -96 -56 -150q-61 -59 -187 -59h-204q-20 0 -20 20v646q0 20 20 20z" />
    <glyph glyph-name="afii10047" unicode="&#x42d;" horiz-adv-x="505" 
d="M76 532l-43 82q-3 4 -3 11q0 33 64.5 55.5t114.5 22.5q111 0 180 -76q49 -53 63.5 -118t14.5 -156q0 -43 -1.5 -71.5t-8.5 -74t-25 -84.5t-46 -69q-66 -71 -182 -71q-101 0 -164 51q-11 9 -11 18q0 6 2 10l41 88q2 5 8 5q4 0 39 -19t65 -19q34 0 58 18t35 46.5t15.5 52.5
t4.5 46v9h-162q-14 0 -14 14v99q0 15 13 15h163q0 37 -9.5 70t-34.5 57.5t-62 24.5t-82 -32l-14 -10q-5 -3 -8 -3q-6 0 -11 8z" />
    <glyph glyph-name="afii10048" unicode="&#x42e;" horiz-adv-x="870" 
d="M231 419h83q4 140 81 217q68 67 175 67q262 0 262 -360q0 -30 -1 -52.5t-6.5 -62.5t-15 -70t-29 -65t-46 -57.5t-69 -37.5t-95.5 -15q-131 0 -193.5 82t-62.5 216v6h-83v-271q0 -16 -12 -16h-140q-14 0 -14 15v656q0 15 15 15h135q16 0 16 -15v-252zM570 109q30 0 49 21
q43 45 43 213t-43 213q-19 21 -49 21t-49 -21q-43 -45 -43 -213t43 -213q19 -21 49 -21z" />
    <glyph glyph-name="afii10049" unicode="&#x42f;" horiz-adv-x="581" 
d="M303 686h193q11 0 15.5 -3.5t4.5 -14.5v-648q0 -20 -20 -20h-126q-20 0 -20 20v253h-26q-24 0 -40 -6.5t-24 -22t-10.5 -24t-5.5 -29.5l-11 -64q-12 -69 -45 -100q-45 -44 -123 -44q-19 0 -24 15l-31 95q-1 2 -1 7q0 13 13 16l9 2q31 5 43.5 20t18.5 42l11 52
q10 47 35 72q14 14 44 29v2q-63 12 -90.5 53.5t-27.5 97.5q0 89 50 139q60 61 188 61zM350 396v167h-46q-40 0 -59 -19q-22 -22 -22 -64q0 -32 20 -58t64 -26h43z" />
    <glyph glyph-name="afii10065" unicode="&#x430;" horiz-adv-x="500" 
d="M459 38q3 -5 3 -10q0 -6 -8 -9l-93 -31q-10 -4 -15 -4q-14 0 -32 54q-56 -52 -124 -52q-75 0 -118 42t-43 113q0 173 255 173h8v29q0 30 -12 41.5t-50 11.5q-42 0 -118 -30q-3 -2 -9 -2q-7 0 -10 9l-28 81q-2 4 -2 10q0 18 67 32.5t119 14.5q186 0 186 -165v-194
q0 -59 24 -114zM292 121v99h-9q-116 0 -116 -72q0 -27 16 -44.5t40 -17.5q36 0 69 35z" />
    <glyph glyph-name="afii10066" unicode="&#x431;" horiz-adv-x="523" 
d="M150 414h4q37 74 137 74q23 0 46.5 -4.5t52.5 -20t50.5 -40.5t36.5 -70.5t15 -105.5q0 -61 -15.5 -108.5t-39 -76t-55 -47t-61 -25.5t-59.5 -7q-61 0 -105 21.5t-67 51.5t-36 76t-16 80t-3 79q0 50 1.5 79.5t7 73.5t18.5 73.5t34.5 63t57 60.5t83.5 49l175 80q10 5 18 5
q9 0 13 -9l37 -88q1 -2 1 -7q0 -13 -14 -18l-184 -79q-114 -50 -130 -134zM263 94q36 0 54.5 30.5t18.5 116.5q0 136 -73 136q-15 0 -26 -4.5t-22.5 -18t-17.5 -44.5t-6 -78q0 -80 19.5 -109t52.5 -29z" />
    <glyph glyph-name="afii10067" unicode="&#x432;" horiz-adv-x="515" 
d="M287 0h-225q-12 0 -12 12v468q0 14 11 14h224q38 0 64.5 -3.5t56 -15t45.5 -38t16 -67.5q0 -37 -20.5 -66t-58.5 -42q45 -8 71 -40t26 -80q0 -142 -198 -142zM204 394v-94h42q71 0 71 51q0 43 -51 43h-62zM204 205v-105h68q63 0 63 52q0 10 -1 15t-6 16t-19.5 16.5
t-38.5 5.5h-66z" />
    <glyph glyph-name="afii10068" unicode="&#x433;" horiz-adv-x="406" 
d="M50 15v463q0 10 3 13t13 3h312q14 0 14 -9q0 -2 -2 -12l-24 -94q-3 -12 -19 -12h-143v-352q0 -10 -3 -12.5t-14 -2.5h-121q-12 0 -14 2t-2 13z" />
    <glyph glyph-name="afii10069" unicode="&#x434;" horiz-adv-x="548" 
d="M486 484v-380h48q9 0 9 -9v-215q0 -9 -2.5 -11.5t-11.5 -2.5h-104q-8 0 -11 3t-3 11v120h-279v-120q0 -9 -2.5 -11.5t-11.5 -2.5h-104q-8 0 -11 3t-3 11v215q0 9 9 9h46q33 55 48 125q12 58 12 137v119q0 9 9 9h353q9 0 9 -10zM332 104v286h-80v-26q0 -168 -49 -260h129z
" />
    <glyph glyph-name="afii10070" unicode="&#x435;" horiz-adv-x="503" 
d="M474 231q0 -13 -4.5 -16.5t-17.5 -3.5h-273q3 -57 26.5 -84t69.5 -27q60 0 123 34q8 4 11 4q7 0 13 -10l34 -68q3 -4 3 -9q0 -25 -73.5 -46.5t-118.5 -21.5q-116 0 -176 67.5t-60 192.5q0 120 62.5 194t168.5 74q212 0 212 -280zM323 312q-2 55 -17.5 76.5t-49.5 21.5
q-35 0 -51.5 -21.5t-24.5 -76.5h143z" />
    <glyph glyph-name="afii10072" unicode="&#x436;" horiz-adv-x="716" 
d="M414 0h-114q-12 0 -12 11v191h-22q-16 0 -26.5 -4.5t-16 -13.5t-7.5 -15t-4 -18l-14 -75q-5 -29 -19.5 -48.5t-36.5 -29t-43 -12.5t-47 -3q-20 0 -25 15l-19 79q-1 3 -1 10q0 12 12 13l19 3q19 3 25.5 10.5t13.5 32.5l13 44q16 57 67 68v3q-45 12 -59 63l-7 30
q-6 25 -17 33q-8 6 -24 9l-16 3q-14 3 -14 12q0 1 0.5 2t0.5 2l23 89q3 11 22 11q59 0 94 -34t43 -77l8 -41q9 -50 59 -50h18v160q0 14 14 17l118 21q8 0 8 -10v-188h18q50 0 59 50l8 41q8 43 43 77t94 34q19 0 22 -11l23 -89q0 -1 0.5 -2t0.5 -2q0 -9 -14 -12l-16 -3
q-17 -3 -26 -11.5t-10.5 -12.5t-4.5 -18l-7 -30q-14 -51 -59 -63v-3q51 -11 67 -68l13 -44q7 -25 13.5 -32.5t25.5 -10.5l19 -3q12 -1 12 -13q0 -7 -1 -10l-19 -79q-5 -15 -25 -15q-26 0 -47 3t-43 12.5t-36.5 29t-19.5 48.5l-14 75q-2 12 -4 18t-7.5 15t-16 13.5t-26.5 4.5
h-22v-188q0 -14 -14 -14z" />
    <glyph glyph-name="afii10073" unicode="&#x437;" horiz-adv-x="429" 
d="M64 369l-32 64q-2 4 -2 6q0 7 9 16q55 55 161 55q29 0 57.5 -5.5t60 -20t51 -45t19.5 -74.5q0 -38 -21 -67t-52 -41v-3q31 -12 57.5 -44.5t26.5 -75.5q0 -65 -47.5 -108.5t-149.5 -43.5q-69 0 -119 21q-58 24 -58 45q0 4 1 6l28 66q4 9 10 9q4 0 10 -4q2 -1 11.5 -7
t13 -8t12 -6.5t14.5 -6.5t15 -4.5t18.5 -3.5t19.5 -1q29 0 50 15.5t21 41.5q0 55 -76 55h-35q-8 0 -11 3t-3 11v72q0 8 3 11t11 3h31q72 0 72 52q0 20 -15 37t-51 17q-37 0 -86 -36l-7 -5q-4 -3 -8 -3q-6 0 -10 7z" />
    <glyph glyph-name="afii10074" unicode="&#x438;" horiz-adv-x="552" 
d="M50 14v463q0 11 11 12l127 22q8 0 8 -13v-210q0 -35 -4 -93h3l18 36q39 74 51 95l87 154q5 9 30 14l113 17q8 0 8 -9v-491q0 -11 -10 -11h-122q-9 0 -11.5 2.5t-2.5 11.5v193q0 43 5 93h-4l-12 -26q-26 -56 -59 -117l-82 -149q-5 -8 -12 -8h-128q-9 0 -11.5 2.5
t-2.5 11.5z" />
    <glyph glyph-name="afii10075" unicode="&#x439;" horiz-adv-x="552" 
d="M370 737l87 -10q10 0 10 -16q0 -56 -45 -100q-49 -48 -133 -48q-90 0 -133.5 45.5t-43.5 102.5q0 16 9 16l88 10q12 0 15 -13l3 -11q15 -52 63 -52q24 0 40 14t21 36l3 12q4 14 14 14h2zM50 14v463q0 11 11 12l127 22q8 0 8 -13v-210q0 -35 -4 -93h3l18 36q39 74 51 95
l87 154q5 9 30 14l113 17q8 0 8 -9v-491q0 -11 -10 -11h-122q-9 0 -11.5 2.5t-2.5 11.5v193q0 43 5 93h-4l-12 -26q-26 -56 -59 -117l-82 -149q-5 -8 -12 -8h-128q-9 0 -11.5 2.5t-2.5 11.5z" />
    <glyph glyph-name="afii10076" unicode="&#x43a;" horiz-adv-x="520" 
d="M193 0h-131q-12 0 -12 10v467q0 12 26 16l119 18q9 0 9 -13v-182h39q52 0 63 55l9 42q8 39 37.5 64t55 31.5t47.5 6.5q20 0 22 -11l22 -89q0 -1 0.5 -2t0.5 -2q0 -8 -14 -11l-12 -3q-36 -8 -43 -41l-7 -27q-4 -16 -6.5 -24.5t-17.5 -23.5t-40 -20v-3q53 -15 66 -62
l16 -56q5 -18 13.5 -25.5t27.5 -12.5l19 -4q10 -2 10 -10v-4l-1 -2l-21 -84q-4 -15 -26 -15q-46 0 -77.5 11t-46 30.5t-19 32t-8.5 30.5l-12 61q-10 52 -62 52h-35v-188q0 -12 -11 -12z" />
    <glyph glyph-name="afii10077" unicode="&#x43b;" horiz-adv-x="533" 
d="M329 373h-79v-16q0 -100 -9 -175q-11 -100 -57 -147q-52 -53 -135 -53q-11 0 -17 3.5t-7 6t-3 9.5l-19 66q-3 12 -3 16q0 11 12 14l18 3q35 6 53 29q10 13 16.5 41t8.5 80.5t2.5 82.5t0.5 102v45q0 9 2.5 11.5t11.5 2.5h344q14 0 14 -15v-465q0 -9 -2.5 -11.5t-11.5 -2.5
h-126q-8 0 -11 3t-3 11v359z" />
    <glyph glyph-name="afii10078" unicode="&#x43c;" horiz-adv-x="634" 
d="M548 494q12 0 12 -15l29 -466q0 -13 -12 -13h-116q-13 0 -13 15l-7 297h-4q-14 -69 -29 -115l-33 -105q0 -1 -1 -3q-5 -15 -14 -17l-8 -1h-69q-6 0 -9.5 1t-6 5.5t-2.5 5.5t-3 9l-32 98q-17 50 -32 122h-4l-8 -297q0 -15 -12 -15h-117q-12 0 -12 12l29 467q0 15 12 15
h141q11 0 14 -11l54 -169q16 -51 21 -81h3q4 16 22 80l52 170q3 11 14 11h141z" />
    <glyph glyph-name="afii10079" unicode="&#x43d;" horiz-adv-x="530" 
d="M204 15q0 -11 -2 -13t-14 -2h-121q-11 0 -14 2.5t-3 12.5v457q0 11 2 14.5t12 4.5l121 18q2 0 5 0.5t4 0.5q10 0 10 -16v-180h122v158q0 11 2 14.5t12 4.5l121 18q2 0 5 0.5t4 0.5q10 0 10 -16v-479q0 -11 -2 -13t-14 -2h-121q-11 0 -14 2.5t-3 12.5v179h-122v-179z" />
    <glyph glyph-name="afii10080" unicode="&#x43e;" horiz-adv-x="519" 
d="M488 246q0 -120 -61 -191.5t-166 -71.5q-109 0 -169.5 70.5t-60.5 194.5q0 120 61.5 191.5t169.5 71.5q107 0 166.5 -71t59.5 -194zM334 247q0 83 -17.5 118t-56.5 35t-57 -35t-18 -119q0 -83 18 -117.5t57 -34.5t56.5 35t17.5 118z" />
    <glyph glyph-name="afii10081" unicode="&#x43f;" horiz-adv-x="514" 
d="M464 476v-465q0 -11 -9 -11h-133q-12 0 -12 12v362h-106v-362q0 -12 -11 -12h-131q-12 0 -12 12v468q0 14 14 14h381q12 0 15.5 -3t3.5 -15z" />
    <glyph glyph-name="afii10082" unicode="&#x440;" horiz-adv-x="541" 
d="M507 252q0 -269 -199 -269q-46 0 -89 22v-179q0 -10 -2 -13t-10 -4l-132 -19q-10 0 -10 16v546q0 43 -20 103l-2 8q0 6 9 9l103 36q9 3 14 3q14 0 28 -47q54 47 122 47q93 0 140.5 -68t47.5 -191zM357 248q0 149 -70 149q-33 0 -68 -30v-266q31 -15 60 -15q42 0 60 35
t18 127z" />
    <glyph glyph-name="afii10083" unicode="&#x441;" horiz-adv-x="433" 
d="M424 437l-36 -76q-4 -8 -9 -8t-12 5q-54 36 -92 36q-90 0 -90 -150q0 -143 91 -143q37 0 83 29q6 5 13 5t11 -10l31 -68q3 -6 3 -10q0 -20 -57 -42t-102 -22q-110 0 -168.5 67.5t-58.5 187.5q0 126 64.5 199.5t178.5 73.5q42 0 97.5 -19t55.5 -43q0 -5 -3 -12z" />
    <glyph glyph-name="afii10084" unicode="&#x442;" horiz-adv-x="420" 
d="M33 494h371q14 0 14 -9q0 -2 -2 -12l-18 -87q-3 -12 -19 -12h-97v-359q0 -11 -2 -13t-13 -2h-127q-7 0 -9.5 2.5t-2.5 12.5v359h-96q-12 0 -14.5 2.5t-2.5 15.5v87q0 9 3.5 12t14.5 3z" />
    <glyph glyph-name="afii10085" unicode="&#x443;" horiz-adv-x="490" 
d="M491 469l-113 -397q-4 -14 -13.5 -54t-16.5 -65.5t-23.5 -62t-36.5 -58t-53.5 -37.5t-76.5 -16q-34 0 -92.5 17t-58.5 38q0 6 3 12l38 79q3 7 10 7q4 0 8 -3q56 -27 80 -27q28 0 43 12t24 44l12 42h-38q-8 0 -10.5 0.5t-5 3t-4.5 9.5l-162 454q-3 7 -3 12q0 8 16 9
l136 13q11 0 13 -13l64 -247q9 -37 29 -147q14 94 21 126l59 267q4 14 10 14q1 0 4.5 -0.5t5.5 -0.5l117 -12q16 -1 16 -8q0 -1 -2 -11z" />
    <glyph glyph-name="afii10086" unicode="&#x444;" horiz-adv-x="716" 
d="M281 -196v206q-35 -27 -85 -27q-43 0 -75.5 21.5t-49 51t-26.5 70.5t-12.5 70.5t-2.5 60.5q0 254 160 254q53 0 91 -36v197q0 11 15 13l130 21q9 0 9 -12v-219q38 36 91 36q160 0 160 -254q0 -31 -2.5 -60.5t-12.5 -70.5t-26.5 -70.5t-49 -51t-75.5 -21.5q-50 0 -85 27
v-209q0 -11 -14 -11h-126q-9 0 -11.5 2.5t-2.5 11.5zM431 371v-263q22 -18 44 -18q33 0 50 37q14 33 14 117q0 93 -16 128q-13 26 -39 26q-31 0 -53 -27zM285 108v263q-22 27 -53 27q-26 0 -39 -26q-16 -35 -16 -128q0 -84 14 -117q17 -37 50 -37q22 0 44 18z" />
    <glyph glyph-name="afii10087" unicode="&#x445;" horiz-adv-x="502" 
d="M497 30q6 -8 6 -13q0 -8 -14 -11l-124 -20q-4 -1 -10 -1t-12 9l-63 105q-7 11 -15.5 28t-12.5 24q-18 -36 -29 -52l-67 -105q-6 -9 -11 -9l-10 2l-120 29q-13 3 -13 12q0 4 5 12l153 209l-135 196q-6 9 -6 14q0 7 13 10l120 29q10 2 11 2q5 0 11 -10l50 -89
q16 -28 26 -50q14 24 30 50l57 90q5 9 12 9q1 0 11 -2l119 -32q14 -4 14 -11q0 -3 -7 -13l-143 -193z" />
    <glyph glyph-name="afii10088" unicode="&#x446;" horiz-adv-x="531" 
d="M464 501v-381h53q9 0 9 -9v-235q0 -10 -10 -10h-111q-11 0 -11 14v120h-333q-11 0 -11 10v468q0 11 9 12l136 20q9 0 9 -10v-380h106v359q0 10 9 11l137 20q8 0 8 -9z" />
    <glyph glyph-name="afii10089" unicode="&#x447;" horiz-adv-x="500" 
d="M296 277v201q0 11 14 13l131 19q9 0 9 -12v-484q0 -9 -2.5 -11.5t-11.5 -2.5h-126q-8 0 -11 3t-3 11v159q-49 -20 -103 -20q-153 0 -153 141v179q0 10 2.5 13.5t11.5 4.5l131 19q9 0 9 -12v-175q0 -59 52 -59q27 0 50 13z" />
    <glyph glyph-name="afii10090" unicode="&#x448;" horiz-adv-x="774" 
d="M724 494v-479q0 -11 -2 -13t-14 -2h-641q-11 0 -14 2.5t-3 12.5v457q0 11 2 14.5t12 4.5l121 18q2 0 5 0.5t4 0.5q10 0 10 -16v-374h106v352q0 11 2 14.5t12 4.5l121 18q2 0 5 0.5t4 0.5q10 0 10 -16v-374h106v352q0 11 2 14.5t12 4.5l121 18q2 0 5 0.5t4 0.5
q10 0 10 -16z" />
    <glyph glyph-name="afii10091" unicode="&#x449;" horiz-adv-x="791" 
d="M724 501v-381h54q8 0 8 -9v-231q0 -9 -2.5 -11.5t-11.5 -2.5h-104q-8 0 -11 3t-3 11v120h-587q-17 0 -17 8v471q0 9 8 11l137 20q9 0 9 -9v-381h106v359q0 10 8 11l138 20q8 0 8 -9v-381h106v359q0 10 8 11l137 20q9 0 9 -9z" />
    <glyph glyph-name="afii10092" unicode="&#x44a;" horiz-adv-x="597" 
d="M358 0h-196q-8 0 -10 2.5t-2 11.5v362h-137q-9 0 -9 9q0 4 1 6l23 89q4 14 15 14h249q12 0 12 -12v-162h73q34 0 66 -7.5t62 -23.5t48.5 -48t18.5 -75q0 -45 -15 -77.5t-35.5 -49t-52.5 -26t-55.5 -11.5t-55.5 -2zM304 213v-103h49q67 0 67 51q0 52 -71 52h-45z" />
    <glyph glyph-name="afii10093" unicode="&#x44b;" horiz-adv-x="714" 
d="M204 501v-181h67q104 0 153 -48q40 -39 40 -106q0 -48 -16.5 -81.5t-37 -49.5t-55.5 -24.5t-53 -9.5t-50 -1h-190q-8 0 -10 2.5t-2 11.5v465q0 10 14 12l129 19q11 0 11 -9zM664 501v-490q0 -11 -10 -11h-130q-14 0 -14 14v466q0 8 14 11l131 19q9 0 9 -9zM204 213v-103
h49q67 0 67 51q0 52 -71 52h-45z" />
    <glyph glyph-name="afii10094" unicode="&#x44c;" horiz-adv-x="497" 
d="M204 213v-103h49q67 0 67 51q0 52 -71 52h-45zM204 501v-181h73q34 0 65.5 -7t62 -23.5t49 -48t18.5 -75.5q0 -35 -9 -62t-21 -44.5t-33.5 -29.5t-37.5 -17.5t-42 -8.5t-37.5 -3.5t-33.5 -0.5h-196q-8 0 -10 2.5t-2 11.5v465q0 10 14 12l129 19q11 0 11 -9z" />
    <glyph glyph-name="afii10095" unicode="&#x44d;" horiz-adv-x="434" 
d="M132 303h117q-2 48 -26.5 72t-56.5 24q-28 0 -58 -19.5t-40 -19.5q-6 0 -9 7l-33 68q-2 3 -2 9q0 24 56.5 45.5t103.5 21.5q55 0 96 -19t64 -47t37 -67t18.5 -72t4.5 -69q0 -134 -64 -198q-56 -56 -157 -56q-16 0 -40 3.5t-51 10t-46 20t-19 29.5q0 4 1 7l30 71q3 7 9 7
q5 0 12 -5q44 -31 87 -31q38 0 61 25t23 79h-118q-8 0 -11 3t-3 11v76q0 8 3 11t11 3z" />
    <glyph glyph-name="afii10096" unicode="&#x44e;" horiz-adv-x="743" 
d="M204 314h62q3 36 15.5 68.5t37 62.5t68.5 48t102 18q28 0 54 -5t58.5 -22t56 -44.5t39.5 -77.5t16 -115q0 -66 -16 -115.5t-40 -77t-56.5 -44.5t-59.5 -22t-55 -5q-102 0 -160 56q-58 57 -60 155h-62v-184q0 -10 -10 -10h-134q-10 0 -10 10v469q0 9 8 11l136 20
q10 0 10 -10v-186zM485 400q-16 0 -26.5 -4t-22.5 -18t-18.5 -47t-6.5 -84t6.5 -84t18.5 -47t22.5 -18t26.5 -4t26.5 4t22.5 18t18.5 47t6.5 84t-6.5 84t-18.5 47t-22.5 18t-26.5 4z" />
    <glyph glyph-name="afii10097" unicode="&#x44f;" horiz-adv-x="521" 
d="M457 0h-126q-9 0 -11.5 2.5t-2.5 11.5v167h-36q-50 0 -63 -56l-9 -35q-14 -50 -34 -70q-38 -37 -119 -37q-20 0 -24 15l-23 84q-1 2 -1 6q0 9 12 12l19 3q31 5 38 35l9 28q17 53 57 62v2q-92 27 -92 117q0 64 39 103q45 44 133 44h234q9 0 11.5 -2.5t2.5 -11.5v-466
q0 -9 -2.5 -11.5t-11.5 -2.5zM317 283v109h-58q-30 0 -45.5 -15.5t-15.5 -40.5q0 -53 69 -53h50z" />
    <glyph glyph-name="afii10071" unicode="&#x451;" horiz-adv-x="503" 
d="M474 231q0 -9 -3 -13.5t-6 -5.5t-8 -1h-278q0 -47 25.5 -79t70.5 -32q55 0 117 31l6 3q8 4 12 4q7 0 11 -8l35 -70q2 -6 2 -9q0 -17 -66 -44q-60 -24 -128 -24q-104 0 -165 59q-68 68 -68 197q0 138 76 212q61 60 159 60q88 0 140 -52q68 -67 68 -215v-13zM323 312
q-1 36 -7.5 58.5t-19.5 30t-19.5 8.5t-20.5 1q-64 0 -76 -98h143zM288 649q0 31 22 53t53 22t53 -22t22 -53t-22 -53t-53 -22t-53 22t-22 53zM98 649q0 31 22 53t53 22t53 -22t22 -53t-22 -53t-53 -22t-53 22t-22 53z" />
    <glyph glyph-name="afii10099" unicode="&#x452;" horiz-adv-x="569" 
d="M226 558v-96q59 50 125 50q69 0 106 -39q51 -53 51 -212q0 -173 -46 -296q-26 -69 -75 -135.5t-69 -66.5q-18 0 -51.5 26t-33.5 35q0 4 14 23l10 13q51 63 72 145t21 210q0 114 -10 144q-11 38 -46 38q-30 0 -68 -35v-350q0 -12 -12 -12h-128q-5 0 -7 0.5t-4 3t-2 8.5
v546h-68q-8 0 -11.5 2.5t-3.5 11.5v50q0 9 3 11.5t11 2.5h69v53q0 8 3 11t11 4l128 20q11 0 11 -15v-73h124q14 0 14 -14v-50q0 -14 -15 -14h-123z" />
    <glyph glyph-name="afii10100" unicode="&#x453;" horiz-adv-x="406" 
d="M50 15v463q0 10 3 13t13 3h312q14 0 14 -9q0 -2 -2 -12l-24 -94q-3 -12 -19 -12h-143v-352q0 -10 -3 -12.5t-14 -2.5h-121q-12 0 -14 2t-2 13zM329 670q5 -10 5 -14q0 -8 -15 -14l-206 -79q-7 -3 -13 -3q-9 0 -14 13l-24 49q-5 10 -5 14q0 6 14 14l188 113q11 6 15 6
q6 0 13 -14z" />
    <glyph glyph-name="afii10101" unicode="&#x454;" horiz-adv-x="443" 
d="M415 441l-41 -73q-2 -5 -7 -5q-1 0 -7 3l-13 9q-36 25 -70 25q-42 0 -64.5 -27t-24.5 -68h118q8 0 11 -3t3 -11v-76q0 -8 -3 -11t-11 -3h-121v-4q0 -41 22.5 -72t71.5 -31q22 0 52.5 17t36.5 17t8 -6l32 -75q2 -3 2 -8q0 -8 -19 -21t-56 -24t-77 -11q-56 0 -98.5 17.5
t-66.5 43.5t-38.5 62t-19 67t-4.5 65q0 30 4 59.5t18.5 70t39 70.5t71.5 51.5t109 21.5q53 0 99 -22t46 -39q0 -4 -3 -9z" />
    <glyph glyph-name="afii10102" unicode="&#x455;" horiz-adv-x="441" 
d="M410 144q0 -76 -50.5 -118.5t-132.5 -42.5q-58 0 -130.5 20t-72.5 40q0 5 3 14l25 82q3 9 10 9q6 0 10 -3q92 -45 143 -45q49 0 49 39q0 18 -15 27.5t-62 27.5q-84 33 -115 63.5t-31 93.5q0 73 54 116.5t137 43.5q51 0 108 -16t57 -32q0 -5 -3 -11l-31 -77q-5 -9 -9 -9
q-1 0 -9 2q-73 30 -105 30q-55 0 -55 -38q0 -18 13 -27t53 -24q92 -36 125.5 -69t33.5 -96z" />
    <glyph glyph-name="afii10103" unicode="&#x456;" horiz-adv-x="307" 
d="M256 650q-1 -39 -28 -67t-67 -28q-39 0 -66 28t-27 67q0 38 27 66t67 28q39 0 66.5 -28t27.5 -66zM244 15q0 -11 -2 -13t-14 -2h-122q-11 0 -14 2.5t-3 12.5v361h-64q-10 0 -13 3t-3 13v86q0 10 3 13t13 3h203q10 0 13 -3t3 -13v-463z" />
    <glyph glyph-name="afii10104" unicode="&#x457;" horiz-adv-x="307" 
d="M260 478v-465q0 -13 -11 -13h-129q-10 0 -12.5 2t-2.5 13v361h-64q-10 0 -13 3t-3 13v86q0 10 3 13t13 3h203q10 0 13 -3t3 -13zM162 640q0 35 19.5 59.5t48.5 24.5t48.5 -24.5t19.5 -59.5t-19.5 -59.5t-48.5 -24.5t-48.5 24.5t-19.5 59.5zM9 640q0 35 19.5 59.5
t48.5 24.5t48.5 -24.5t19.5 -59.5t-19.5 -59.5t-48.5 -24.5t-48.5 24.5t-19.5 59.5z" />
    <glyph glyph-name="afii10105" unicode="&#x458;" horiz-adv-x="312" 
d="M261 650q-1 -39 -27.5 -67t-66.5 -28q-39 0 -66.5 28t-27.5 67q0 38 27 66t67 28q39 0 66.5 -28t27.5 -66zM249 12q0 -87 -9 -126.5t-36 -69.5q-47 -52 -143 -52q-40 0 -83 11.5t-43 24.5q0 2 2 10l28 91q1 6 9 6q2 0 8 -2q42 -16 66 -16q29 0 37.5 24t8.5 99v364h-64
q-10 0 -13 3t-3 13v86q0 11 3 13.5t13 2.5h203q11 0 13.5 -3t2.5 -13v-466z" />
    <glyph glyph-name="afii10106" unicode="&#x459;" horiz-adv-x="775" 
d="M482 479v-159h73q34 0 65.5 -7t62 -23.5t49 -48t18.5 -75.5q0 -35 -9 -62t-21 -44.5t-33.5 -29.5t-37.5 -17.5t-42 -8.5t-37.5 -3.5t-33.5 -0.5h-196q-8 0 -10 2.5t-2 11.5l1 359h-79v-16q0 -100 -9 -175q-11 -100 -57 -147q-52 -53 -135 -53q-11 0 -17 3.5t-7 6t-3 9.5
l-19 66q-3 12 -3 16q0 11 12 14l18 3q35 6 53 29q10 13 16.5 41t8.5 80.5t2.5 82.5t0.5 102v45q0 9 2.5 11.5t11.5 2.5h343q14 0 14 -15zM482 213v-103h49q67 0 67 51q0 52 -71 52h-45z" />
    <glyph glyph-name="afii10107" unicode="&#x45a;" horiz-adv-x="773" 
d="M480 501v-181h73q34 0 65.5 -7t62 -23.5t49 -48t18.5 -75.5q0 -35 -9 -62t-21 -44.5t-33.5 -29.5t-37.5 -17.5t-42 -8.5t-37.5 -3.5t-33.5 -0.5h-196q-8 0 -10 2.5t-2 11.5v180h-122v-186q0 -8 -10 -8h-133q-11 0 -11 12v464q0 8 3 11t11 4l121 18q2 0 5 0.5t4 0.5
q10 0 10 -16v-180h122v165q0 10 14 12l129 19q11 0 11 -9zM480 213v-103h49q67 0 67 51q0 52 -71 52h-45z" />
    <glyph glyph-name="afii10108" unicode="&#x45b;" horiz-adv-x="561" 
d="M500 12q0 -12 -12 -12h-133q-9 0 -9 11v319q0 67 -46 67q-37 0 -74 -33v-352q0 -12 -12 -12h-128q-5 0 -7 0.5t-4 3t-2 8.5v546h-68q-8 0 -11.5 2.5t-3.5 11.5v50q0 9 3 11.5t11 2.5h69v53q0 8 3 11t11 4l128 20q11 0 11 -15v-73h124q14 0 14 -14v-50q0 -14 -15 -14h-123
v-97q57 51 131 51q69 0 106 -38t37 -107v-355z" />
    <glyph glyph-name="afii10109" unicode="&#x45c;" horiz-adv-x="520" 
d="M193 0h-131q-12 0 -12 10v467q0 12 26 16l119 18q9 0 9 -13v-182h39q52 0 63 55l9 42q8 39 37.5 64t55 31.5t47.5 6.5q20 0 22 -11l22 -89q0 -1 0.5 -2t0.5 -2q0 -8 -14 -11l-12 -3q-36 -8 -43 -41l-7 -27q-4 -16 -6.5 -24.5t-17.5 -23.5t-40 -20v-3q53 -15 66 -62
l16 -56q5 -18 13.5 -25.5t27.5 -12.5l19 -4q10 -2 10 -10v-4l-1 -2l-21 -84q-4 -15 -26 -15q-46 0 -77.5 11t-46 30.5t-19 32t-8.5 30.5l-12 61q-10 52 -62 52h-35v-188q0 -12 -11 -12zM399 670q5 -10 5 -14q0 -8 -15 -14l-206 -79q-8 -3 -13 -3q-9 0 -14 13l-24 49
q-5 10 -5 14q0 6 14 14l188 113q11 6 15 6q6 0 13 -14z" />
    <glyph glyph-name="afii10110" unicode="&#x45e;" horiz-adv-x="490" 
d="M402 692q0 -55 -41.5 -99t-109.5 -44q-70 0 -113.5 43t-43.5 98q0 15 11 16l93 12q5 0 9.5 -9.5t7.5 -21.5t11.5 -21.5t22.5 -9.5q18 0 27 15t12.5 30.5t9.5 15.5l94 -11q10 -1 10 -14zM491 469l-113 -397q-4 -14 -13.5 -54t-16.5 -65.5t-23.5 -62t-36.5 -58t-53.5 -37.5
t-76.5 -16q-34 0 -92.5 17t-58.5 38q0 6 3 12l38 79q3 7 10 7q4 0 8 -3q56 -27 80 -27q28 0 43 12t24 44l12 42h-38q-8 0 -10.5 0.5t-5 3t-4.5 9.5l-162 454q-3 7 -3 12q0 8 16 9l136 13q11 0 13 -13l64 -247q9 -37 29 -147q14 94 21 126l59 267q4 14 10 14q1 0 4.5 -0.5
t5.5 -0.5l117 -12q16 -1 16 -8q0 -1 -2 -11z" />
    <glyph glyph-name="afii10193" unicode="&#x45f;" horiz-adv-x="530" 
d="M480 501v-490q0 -7 -2 -9t-9 -2h-130v-155q0 -10 -10 -10h-126q-11 0 -11 14v151h-131q-11 0 -11 10v468q0 11 9 12l136 20q9 0 9 -10v-380h122v359q0 10 9 11l137 20q8 0 8 -9z" />
    <glyph glyph-name="afii10050" unicode="&#x490;" horiz-adv-x="492" 
d="M65 20v646q0 20 20 20h238v141q0 18 17 18h115q17 0 17 -17v-265q0 -20 -21 -20h-220v-523q0 -20 -20 -20h-126q-20 0 -20 20z" />
    <glyph glyph-name="afii10098" unicode="&#x491;" horiz-adv-x="419" 
d="M50 14v466q0 9 2.5 11.5t11.5 2.5h199v127q0 5 0.5 7t3 4t8.5 2h110q8 0 11 -3t3 -11v-239q0 -14 -13 -14h-182v-353q0 -9 -2.5 -11.5t-11.5 -2.5h-127q-9 0 -11 2t-2 12z" />
    <glyph glyph-name="endash" unicode="&#x2013;" horiz-adv-x="529" 
d="M503 212q0 -14 -3.5 -17t-17.5 -3h-436q-14 0 -17 3t-3 17v88q0 13 3 17t17 4h436q14 0 17.5 -4t3.5 -17v-88z" />
    <glyph glyph-name="emdash" unicode="&#x2014;" horiz-adv-x="849" 
d="M823 213q0 -14 -3.5 -17.5t-17.5 -3.5h-756q-14 0 -17 3.5t-3 17.5v87q0 14 3 17.5t17 3.5h756q14 0 17.5 -4t3.5 -17v-87z" />
    <glyph glyph-name="quoteleft" unicode="&#x2018;" horiz-adv-x="308" 
d="M259 676l-57 -201q-4 -16 -21 -16h-128q-20 0 -20 10q0 5 5 15l114 224q6 13 13 13q5 0 14 -3l67 -16q16 -4 16 -12q0 -2 -1.5 -6.5t-1.5 -7.5z" />
    <glyph glyph-name="quoteright" unicode="&#x2019;" horiz-adv-x="292" 
d="M253 688l-114 -224q-7 -13 -13 -13q-5 0 -14 3l-67 17q-16 4 -16 12q0 5 3 14l56 199q4 18 22 18h127q21 0 21 -11q0 -5 -5 -15z" />
    <glyph glyph-name="quotedblleft" unicode="&#x201c;" horiz-adv-x="512" 
d="M479 676l-56 -201q-4 -16 -22 -16h-128q-20 0 -20 10q0 5 5 15l114 224q6 13 13 13q5 0 14 -3l67 -16q16 -4 16 -13q0 -4 -3 -13zM259 676l-57 -201q-4 -16 -21 -16h-128q-20 0 -20 10q0 5 5 15l114 224q6 13 13 13q5 0 14 -3l67 -16q16 -4 16 -12q0 -2 -1.5 -6.5
t-1.5 -7.5z" />
    <glyph glyph-name="quotedblright" unicode="&#x201d;" horiz-adv-x="515" 
d="M483 686l-114 -223q-7 -13 -13 -13q-5 0 -14 3l-67 16q-16 4 -16 12q0 5 3 14l57 200q4 17 21 17h128q20 0 20 -11q0 -5 -5 -15zM263 686l-114 -223q-7 -13 -13 -13q-5 0 -14 3l-67 16q-16 4 -16 12q0 5 3 14l56 200q4 17 22 17h128q20 0 20 -11q0 -5 -5 -15z" />
    <glyph glyph-name="quotedblbase" unicode="&#x201e;" horiz-adv-x="514" 
d="M482 100l-114 -224q-7 -14 -14 -14q-2 0 -6 1.5t-7 1.5l-67 17q-16 4 -16 12q0 4 3 13l57 201q4 16 21 16h128q20 0 20 -9q0 -5 -5 -15zM262 100l-114 -224q-7 -14 -14 -14q-2 0 -6 1.5t-7 1.5l-67 17q-16 4 -16 12q0 4 3 13l56 201q4 16 22 16h128q20 0 20 -9
q0 -5 -5 -15z" />
    <glyph glyph-name="dagger" unicode="&#x2020;" horiz-adv-x="545" 
d="M481 383q0 -14 -3.5 -17.5t-16.5 -3.5h-118v-553q0 -13 -3.5 -17t-16.5 -4h-101q-13 0 -17 3.5t-4 17.5v553h-116q-14 0 -17.5 3.5t-3.5 17.5v80q0 14 3.5 17t17.5 3h116v183q0 13 4 16.5t17 3.5h101q13 0 16.5 -3.5t3.5 -16.5v-183h118q13 0 16.5 -3t3.5 -17v-80z" />
    <glyph glyph-name="bullet" unicode="&#x2022;" horiz-adv-x="676" 
d="M492 350q0 -60 -42 -102t-101 -42t-101.5 42t-42.5 102t42.5 102.5t101.5 42.5t101 -42.5t42 -102.5z" />
    <glyph glyph-name="ellipsis" unicode="&#x2026;" horiz-adv-x="909" 
d="M868 89q0 -46 -32.5 -78t-78.5 -32t-78 32t-32 78t32 78.5t78 32.5t78.5 -32.5t32.5 -78.5zM565 89q0 -46 -32 -78t-78 -32t-78.5 32t-32.5 78t32.5 78.5t78.5 32.5t78 -32.5t32 -78.5zM262 89q0 -46 -32 -78t-78 -32t-78 32t-32 78t32 78.5t78 32.5t78 -32.5t32 -78.5z
" />
    <glyph glyph-name="Euro" unicode="&#x20ac;" horiz-adv-x="528" 
d="M508 64q2 -3 2 -10q0 -12 -11 -19l-17 -11q-63 -41 -156 -41q-65 0 -113.5 22.5t-73.5 52t-40.5 70.5t-19 66t-4.5 50h-62q-14 0 -14 10q0 4 1 6l16 43q5 14 12 15q3 1 7 1h35v40h-57q-15 0 -15 8q0 2 2 8l16 43q5 14 12 15q3 1 7 1h40q11 117 76 188q72 81 187 81
q46 0 93 -16.5t78 -43.5l7 -6q6 -5 6 -12q0 -3 -2 -9l-46 -94q-4 -8 -11 -8q-5 0 -8 2l-18 12q-57 38 -93 38q-90 0 -99 -132h170q19 0 19 -10q0 -2 -2 -8l-16 -43q-5 -14 -23 -14h-152v-40h131q19 0 19 -10q0 -4 -1 -6l-17 -45q-3 -9 -6.5 -11.5t-14.5 -2.5h-107
q0 -46 23.5 -85t76.5 -39q43 0 82 27l17 12q4 3 8 3q5 0 10 -7z" />
    <glyph glyph-name="afii61352" unicode="&#x2116;" horiz-adv-x="962" 
d="M560 668v-651q0 -17 -13 -17h-102q-11 0 -21 17l-171 310q-25 44 -37 76l-16 44l4 -32q7 -63 7 -81v-313q0 -12 -3.5 -16.5t-14.5 -4.5h-112q-10 0 -13 4t-3 15v648q0 7 1 10.5t4.5 6t10.5 2.5h115q11 0 19 -13l156 -282q15 -26 38 -86l15 -39l-4 45q-4 68 -4 78v278
q0 11 4 15t15 4h107q11 0 14.5 -4t3.5 -14zM779 703q27 0 51.5 -8t48.5 -26t38.5 -54t14.5 -86q0 -80 -41 -128t-113 -48q-27 0 -51 6.5t-49 24t-39.5 54.5t-14.5 91q0 28 8 56t24.5 55.5t48.5 45t74 17.5zM923 261v-52q0 -10 -3 -14t-14 -4h-256q-11 0 -14.5 3.5t-3.5 13.5
v53q0 10 3 14t14 4h257q11 0 14 -4t3 -14zM778 626q-13 0 -21.5 -4.5t-16.5 -27t-8 -64.5q0 -71 19 -90q10 -10 27 -10t27 10q19 19 19 88q0 34 -4 55.5t-12 30t-14 10.5t-16 2z" />
    <glyph glyph-name="trademark" unicode="&#x2122;" horiz-adv-x="719" 
d="M682 299v-3q0 -11 -14 -11h-72q-9 0 -11.5 2.5t-2.5 10.5l-3 167q0 64 3 88q-2 -9 -9.5 -40t-10.5 -41l-30 -92q-3 -11 -16 -11h-46q-8 0 -10.5 2t-4.5 10l-26 89q-4 13 -20 82q2 -26 2 -90l-3 -164q0 -8 -2.5 -10.5t-11.5 -2.5h-70q-13 0 -13 9l21 379q1 8 3.5 10.5
t11.5 2.5h77q12 0 15 -10l43 -130q8 -25 14 -53q8 31 16 53l45 130q3 10 17 10h73q9 0 11 -2t3 -11zM297 670l-12 -61q-2 -10 -17 -10h-72v-301q0 -9 -2.5 -11t-11.5 -2h-75q-11 0 -14 2t-3 11v301h-75q-9 0 -11.5 2t-2.5 11v60q0 8 2.5 11t11.5 3h269q14 0 14 -8
q0 -5 -1 -8z" />
    <glyph glyph-name="radical" unicode="&#x221a;" horiz-adv-x="513" 
d="M96 405h-67q-8 0 -11 3t-3 11v61q0 8 3 11t11 3h145q11 0 15 -15q1 -1 1 -2l90 -358h5l144 571q3 13 16 13h57q15 0 15 -11l-1 -2v-2l-190 -739q-2 -10 -14 -10h-86q-10 0 -13 10z" />
    <glyph glyph-name="infinity" unicode="&#x221e;" horiz-adv-x="859" 
d="M430 236q-106 -116 -209 -116q-81 0 -126 51t-45 122q0 75 48 122t123 47q103 0 209 -116q96 116 207 116q68 0 120 -43t52 -126q0 -75 -49 -124t-122 -49q-40 0 -75.5 12.5t-63.5 35.5t-40 35t-29 33zM495 291q69 -69 135 -69q33 0 56.5 19t23.5 51q0 33 -24.5 51
t-55.5 18q-29 0 -57 -13.5t-41.5 -24t-36.5 -32.5zM362 291q-1 1 -9 8.5t-10.5 10t-10.5 9.5t-12 9.5t-12 8t-14 8t-14.5 6.5t-16 5.5t-17 3t-19.5 1.5q-32 0 -55.5 -18t-23.5 -51q0 -27 18.5 -48.5t60.5 -21.5q38 0 65.5 14.5t69.5 54.5z" />
    <glyph glyph-name="approxequal" unicode="&#x2248;" horiz-adv-x="574" 
d="M532 400q-31 -59 -65.5 -89t-93.5 -30q-34 0 -101 26l-49 19q-23 9 -43 9q-33 0 -62 -47q-8 -12 -13 -12t-15 6l-47 28q-12 7 -12 13q0 3 5 15q29 65 61 95.5t92 30.5q30 0 108.5 -26.5t89.5 -26.5q25 0 51 25t28 25q6 0 13 -5l49 -28q11 -7 11 -12q0 -2 -7 -16zM536 195
q-31 -59 -65.5 -89t-93.5 -30q-34 0 -101 26l-49 19q-22 9 -43 9q-33 0 -62 -47q-8 -12 -13 -12t-15 6l-47 28q-12 7 -12 13q0 3 5 15q29 65 61 95.5t92 30.5q30 0 108.5 -26.5t89.5 -26.5q25 0 51 25t28 25q6 0 13 -5l49 -28q11 -7 11 -12q0 -2 -7 -16z" />
    <glyph glyph-name="notequal" unicode="&#x2260;" horiz-adv-x="529" 
d="M498 222v-103q0 -10 -3 -13t-13 -3h-243l-49 -98q-6 -6 -9 -6q-4 0 -6 1l-71 34q-9 4 -9 12q0 3 2 7l25 50h-79q-9 0 -12 3t-3 12v104q0 10 3 13t13 3h146l33 68h-176q-10 0 -13 3t-3 13v103q0 16 17 16h243l48 95q5 9 10 9t9 -2l67 -32q10 -6 10 -12q0 -5 -3 -9l-25 -49
h78q10 0 13.5 -2.5t3.5 -13.5v-103q0 -11 -3.5 -13.5t-13.5 -2.5h-146l-34 -68h177q10 0 13 -3t3 -13z" />
    <glyph glyph-name="lessequal" unicode="&#x2264;" 
d="M500 163q0 -13 -9 -13q-2 0 -6 2l-448 228q-1 1 -3 1q-11 8 -11 19v92q0 12 12 19l450 229q4 2 6 2q9 0 9 -11v-125q0 -16 -11 -21l-292 -138l292 -141q11 -6 11 -21v-122zM500 -46q0 -13 -9 -13q-2 0 -6 2l-448 228q-1 1 -3 1q-11 8 -11 19v119q0 17 11 17q4 0 6 -1
l449 -229q11 -5 11 -21v-122z" />
    <glyph glyph-name="greaterequal" unicode="&#x2265;" 
d="M23 163v122q0 15 11 21l292 141l-292 138q-11 5 -11 21v125q0 11 9 11q2 0 6 -2l450 -229q12 -7 12 -19v-92q0 -7 -2.5 -11t-3.5 -4.5t-8 -4.5l-448 -228q-4 -2 -6 -2q-9 0 -9 13zM23 -46v122q0 16 11 21l449 229q2 1 6 1q11 0 11 -17v-119q0 -7 -2.5 -11t-3.5 -4.5
t-8 -4.5l-448 -228q-4 -2 -6 -2q-9 0 -9 13z" />
    <glyph glyph-name="Acute" unicode="&#xf6c9;" horiz-adv-x="515" 
d="M399 857q5 -10 5 -14q0 -8 -15 -14l-206 -79q-7 -3 -13 -3q-9 0 -14 13l-24 49q-5 10 -5 14q0 6 14 14l188 113q11 6 15 6q6 0 13 -14z" />
    <glyph glyph-name="Dieresis" unicode="&#xf6cb;" horiz-adv-x="509" 
d="M443 824q0 -35 -24.5 -60t-59.5 -25t-59.5 25t-24.5 60t24.5 60t59.5 25t59.5 -25t24.5 -60zM234 824q0 -35 -24.5 -60t-59.5 -25t-59.5 25t-24.5 60t24.5 60t59.5 25t59.5 -25t24.5 -60z" />
    <glyph glyph-name="cyrBreve" unicode="&#xf6d1;" horiz-adv-x="519" 
d="M343 916l100 -11q12 -1 12 -18q0 -44 -41 -87q-56 -56 -153 -56q-79 0 -138 42t-59 103q0 15 13 16l105 11q7 0 9 -8l4 -16q11 -49 65 -49q24 0 39.5 11t20.5 20.5t6 19.5l3 14q2 8 12 8h2z" />
    <glyph glyph-name="cyrbreve" unicode="&#xf6d4;" horiz-adv-x="455" 
d="M308 737l87 -10q10 0 10 -16q0 -56 -45 -100q-49 -48 -133 -48q-90 0 -133.5 45.5t-43.5 102.5q0 16 9 16l88 10q12 0 15 -13l3 -11q15 -52 63 -52q24 0 40 14t21 36l3 12q4 14 14 14h2z" />
    <glyph glyph-name="nbspace" horiz-adv-x="233" 
 />
    </font>
</defs>
</svg>
