<?xml version="1.0" standalone="no"?>
<!DOCTYPE svg PUBLIC "-//W3C//DTD SVG 1.1//EN" "http://www.w3.org/Graphics/SVG/1.1/DTD/svg11.dtd" >
<svg xmlns="http://www.w3.org/2000/svg" xmlns:xlink="http://www.w3.org/1999/xlink" version="1.1">
<metadata>
Created by FontForge 20161003 at Sun Mar 19 19:48:24 2017
 By www-data
Copyright (c) 1990-2002 ParaType, Inc. All Rights Reserved. ITC Officina Serif is a registered trade mark of International Typeface Corporation.
</metadata>
<defs>
<font id="OfficinaSerifMediumItalic" horiz-adv-x="519" >
  <font-face 
    font-family="OfficinaSerifMediumItalic"
    font-weight="500"
    font-style="italic"
    font-stretch="normal"
    units-per-em="1000"
    panose-1="0 0 6 0 0 0 0 0 0 0"
    ascent="754"
    descent="-246"
    x-height="487"
    cap-height="686"
    bbox="-143.471 -244.531 955 899"
    underline-thickness="50"
    underline-position="-150"
    slope="-12"
    unicode-range="U+0020-F6D4"
  />
<missing-glyph horiz-adv-x="233" 
 />
    <glyph glyph-name=".notdef" horiz-adv-x="233" 
 />
    <glyph glyph-name=".null" horiz-adv-x="0" 
 />
    <glyph glyph-name="nonmarkingreturn" horiz-adv-x="333" 
 />
    <glyph glyph-name="space" unicode=" " horiz-adv-x="233" 
 />
    <glyph glyph-name="space" unicode="&#xa0;" horiz-adv-x="233" 
 />
    <glyph glyph-name="exclam" unicode="!" horiz-adv-x="353" 
d="M321 671l-109 -405q-2 -8 -5 -10.5t-12 -2.5h-47q-13 0 -10 16l62 402q2 10 4.5 12.5t11.5 2.5h92q17 0 13 -15zM208 60q0 -31 -21.5 -52t-52.5 -21t-52 21t-21 52t21 52.5t52 21.5t52.5 -21.5t21.5 -52.5z" />
    <glyph glyph-name="quotedbl" unicode="&#x22;" horiz-adv-x="369" 
d="M325 672l-16 -247q-1 -11 -3 -13t-11 -2h-43q-8 0 -10.5 3t-3.5 11l-15 248q-1 8 1.5 11t10.5 3h76q15 0 14 -14zM163 672l-15 -247q-1 -11 -3 -13t-11 -2h-44q-8 0 -10 2.5t-3 11.5l-15 248q-1 8 1.5 11t10.5 3h76q8 0 11 -3t2 -11z" />
    <glyph glyph-name="numbersign" unicode="#" 
d="M523 450l-9 -45q-3 -13 -16 -13h-65l-59 -185h55q11 0 12.5 -6t-1.5 -14l-9 -45q-2 -13 -16 -13h-65l-59 -185q-4 -12 -17 -12h-44q-18 0 -10 22l56 175h-116l-59 -185q-2 -8 -5 -10t-11 -2h-44q-18 0 -10 22l56 175h-54q-18 0 -12 21l10 44q3 13 16 13h64l59 185h-54
q-18 0 -12 21l10 44q2 8 5 10.5t11 2.5h65l60 189q2 8 5 10t12 2h43q8 0 11 -3t2.5 -6.5t-3.5 -11.5l-57 -180h116l60 189q3 12 17 12h43q19 0 11 -21l-57 -180h54q11 0 12.5 -6t-1.5 -14zM360 392h-116l-59 -185h115z" />
    <glyph glyph-name="dollar" unicode="$" 
d="M504 607l-32 -55q-6 -11 -16 -4q-3 2 -14.5 9t-17 9.5t-16 7.5t-22 7.5t-24.5 4.5l-44 -209q3 -2 17.5 -12t18.5 -13t16.5 -12t16.5 -13.5t13.5 -14t13 -16.5t9.5 -18t8.5 -21t4.5 -23t2 -27q0 -69 -37 -121t-102 -74q-25 -9 -61 -13l-11 -56q-2 -12 -16 -12h-25
q-10 0 -12 4t0 12l10 51q-75 8 -134 39q-9 5 -12 9t-2 7t6 12l28 54q5 10 23 -1q50 -33 110 -40l49 233q-124 66 -124 169q0 61 36.5 109t97.5 65q27 7 64 11l9 42q2 8 4.5 10.5t11.5 2.5h25q10 0 12.5 -3t0.5 -11l-9 -40q63 -5 108 -31q1 -1 4 -2.5t4 -2.5t3.5 -2.5t3.5 -3
t2.5 -3.5t1.5 -4t-0.5 -4.5t-2.5 -5.5zM312 585q-91 -20 -91 -102q0 -25 11 -42.5t41 -37.5zM343 195q0 28 -10.5 47.5t-36.5 42.5l-43 -204q90 23 90 114z" />
    <glyph glyph-name="percent" unicode="%" horiz-adv-x="806" 
d="M746 214q0 -95 -53 -161.5t-129 -66.5q-53 0 -83 32t-30 88q0 87 50 158.5t134 71.5q53 0 82 -32t29 -90zM666 651l-422 -672q-6 -8 -18 -8h-54q-20 0 -8 19l422 669q6 10 17 10h56q11 0 11 -6.5t-4 -11.5zM381 536q0 -95 -53 -160.5t-129 -65.5q-52 0 -82 31.5t-30 87.5
q0 88 49.5 158.5t133.5 70.5q52 0 81.5 -32.5t29.5 -89.5zM668 218q0 51 -42 51q-39 0 -67 -48.5t-28 -117.5q0 -50 42 -50q39 0 67 48.5t28 116.5zM303 541q0 51 -42 51q-39 0 -67 -48.5t-28 -116.5q0 -51 42 -51q39 0 67 48.5t28 116.5z" />
    <glyph glyph-name="ampersand" unicode="&#x26;" horiz-adv-x="621" 
d="M584 311q-20 -99 -93 -188l51 -76q5 -6 4.5 -10.5t-8.5 -10.5l-53 -37q-8 -6 -11.5 -6t-8.5 8l-43 66q-34 -27 -64 -43q-64 -33 -144 -33q-86 0 -133 41.5t-47 117.5q0 83 47.5 135.5t132.5 95.5q-30 47 -44 80.5t-14 74.5q0 79 57 127.5t149 48.5q70 0 110.5 -36
t40.5 -97q0 -63 -40.5 -113.5t-132.5 -102.5l101 -152q40 55 53 120q2 10 3 12t5 5.5t12 -0.5l61 -9q6 -1 8.5 -3.5t2 -4.5t-1.5 -10zM416 558q0 32 -17.5 49.5t-49.5 17.5q-42 0 -69.5 -27t-27.5 -68q0 -24 9.5 -47t37.5 -67q34 20 55.5 35.5t41.5 44.5t20 62zM375 128
l-119 179q-56 -30 -87 -62.5t-31 -82.5q0 -45 25.5 -70.5t70.5 -25.5q72 0 141 62z" />
    <glyph glyph-name="quotesingle" unicode="'" horiz-adv-x="215" 
d="M230 672l-16 -247q-1 -11 -3 -13t-11 -2h-43q-8 0 -10.5 3t-3.5 11l-15 248q-1 8 1.5 11t10.5 3h76q15 0 14 -14z" />
    <glyph glyph-name="parenleft" unicode="(" horiz-adv-x="445" 
d="M478 709q3 -2 4.5 -4.5t1 -5t-1 -4.5t-2.5 -5l-3 -4.5t-4 -4.5l-4 -4q-100 -113 -160.5 -216.5t-84.5 -230.5q-13 -68 -13 -128q0 -147 71 -291q3 -7 4 -9.5t2 -8t-1.5 -8.5t-8.5 -6l-41 -21q-14 -7 -27 15q-102 174 -102 342q0 321 302 609l4.5 4.5t5 4.5t4.5 3.5t5 3
t4.5 1t5 0t4.5 -2.5z" />
    <glyph glyph-name="parenright" unicode=")" horiz-adv-x="445" 
d="M341 381q0 -316 -302 -609q-23 -23 -33 -14l-36 29q-4 3 -5.5 6t0.5 7t3.5 6t6 6t5.5 6q120 133 188.5 271.5t68.5 304.5q0 159 -70 291q-4 7 -5 9.5t-2 7t2 8t9 6.5l40 22q12 4 15.5 1.5t9.5 -12.5q53 -96 79 -174.5t26 -171.5z" />
    <glyph glyph-name="asterisk" unicode="*" 
d="M501 505q1 -11 -2 -14.5t-14 -3.5l-121 3l64 -106q8 -13 -7 -20l-49 -22q-16 -6 -20 7l-36 120l-80 -95q-10 -11 -21 1l-37 41q-10 12 3 21l101 70l-113 47q-7 3 -9 6.5t-1.5 6.5t4.5 10l25 45q5 9 10 9.5t13 -6.5l97 -73l9 120q1 13 3.5 15.5t12.5 0.5l57 -12q6 -1 9 -3
t2.5 -7t-1 -6.5t-3.5 -9.5l-38 -109l117 27q19 5 20 -12z" />
    <glyph glyph-name="plus" unicode="+" horiz-adv-x="528" 
d="M492 227q0 -11 -3 -14t-14 -3h-166v-166q0 -11 -3 -14t-14 -3h-57q-11 0 -14 3.5t-3 13.5v166h-165q-11 0 -14 3t-3 14v55q0 11 3 14t14 3h165v167q0 11 3 13.5t14 2.5h57q11 0 14 -2.5t3 -13.5v-167h166q11 0 14 -3t3 -14v-55z" />
    <glyph glyph-name="comma" unicode="," horiz-adv-x="306" 
d="M213 98l-159 -225q-8 -11 -21 -3l-29 16q-3 2 -5 3.5t-3 2.5t-0.5 3.5t0.5 3t1.5 4t2.5 5.5l92 201q4 10 17 10h95q24 0 9 -21z" />
    <glyph glyph-name="hyphen" unicode="-" horiz-adv-x="325" 
d="M294 282l-13 -62q-3 -14 -17 -14h-215q-16 0 -11 21l13 61q2 13 16 13h215q15 0 12 -19z" />
    <glyph glyph-name="hyphen" unicode="&#xad;" horiz-adv-x="325" 
d="M294 282l-13 -62q-3 -14 -17 -14h-215q-16 0 -11 21l13 61q2 13 16 13h215q15 0 12 -19z" />
    <glyph glyph-name="period" unicode="." horiz-adv-x="306" 
d="M191 66q0 -33 -23.5 -56t-55.5 -23q-33 0 -56 23t-23 56t23 56t56 23q32 0 55.5 -23t23.5 -56z" />
    <glyph glyph-name="slash" unicode="/" horiz-adv-x="473" 
d="M512 692l-515 -884q-6 -10 -20 -10h-55q-21 0 -11 18l517 887q6 10 20 10h55q20 0 9 -21z" />
    <glyph glyph-name="zero" unicode="0" horiz-adv-x="509" 
d="M506 485q0 -96 -29 -202.5t-74 -178.5q-34 -55 -89.5 -86.5t-116.5 -31.5q-80 0 -122.5 47.5t-42.5 137.5q0 97 29.5 204.5t75.5 180.5q35 55 89.5 85t117.5 30q78 0 120 -48t42 -138zM407 481q0 103 -82 103q-80 0 -129 -112q-24 -55 -44 -146.5t-20 -148.5
q0 -104 81 -104q80 0 130 114q25 56 44.5 146t19.5 148z" />
    <glyph glyph-name="one" unicode="1" horiz-adv-x="509" 
d="M411 637l-118 -559h81q14 0 10 -21l-9 -44q-2 -13 -17 -13h-275q-16 0 -12 20l10 45q3 13 16 13h102l100 470l-125 -69q-9 -6 -13.5 -4.5t-9.5 10.5l-14 28q-7 15 4 22l190 117q7 5 20 5h49q11 0 12.5 -6t-1.5 -14z" />
    <glyph glyph-name="two" unicode="2" horiz-adv-x="509" 
d="M499 528q0 -89 -59 -153q-24 -27 -51.5 -48t-99.5 -70q-74 -50 -107.5 -86t-47.5 -82h257q11 0 12.5 -5.5t-1.5 -14.5l-11 -56q-2 -13 -17 -13h-347q-10 0 -10 7q0 11 9.5 46.5t18.5 57.5q26 62 68.5 109.5t130.5 108.5q97 67 124 101q29 37 29 85q0 34 -17.5 52.5
t-50.5 18.5q-37 0 -65.5 -21.5t-58.5 -72.5q-5 -8 -6.5 -10.5t-7 -5.5t-11.5 2l-50 21q-8 3 -8 9q0 8 19 41q72 122 204 122q72 0 113 -38t41 -105z" />
    <glyph glyph-name="three" unicode="3" horiz-adv-x="509" 
d="M472 539q0 -62 -34.5 -111t-95.5 -74q45 -21 64.5 -51.5t19.5 -79.5q0 -100 -67 -167q-70 -70 -188 -70q-85 0 -144 31q-9 5 -10.5 6t-6.5 7.5t1 11.5l28 59q5 12 22 2q59 -33 120 -33q62 0 102 37q46 43 46 109q0 87 -117 87h-33q-11 0 -13 6t1 14l11 52q3 14 17 14h37
q72 0 112 46q32 37 32 86q0 68 -72 68q-50 0 -113 -57q-13 -12 -20 -5l-39 38q-4 4 -4 8q0 7 17 24q34 35 81 55t94 20q69 0 110.5 -36.5t41.5 -96.5z" />
    <glyph glyph-name="four" unicode="4" horiz-adv-x="509" 
d="M471 215l-10 -48q-2 -8 -5 -11t-10 -3h-74l-29 -140q-2 -13 -17 -13h-62q-11 0 -13 5.5t1 14.5l28 133h-250q-11 0 -13 6t1 14l12 55q5 26 17 40l330 409q8 10 21 5l56 -21q15 -6 5 -18l-331 -407h171l51 164q3 12 17 12h45q11 0 12.5 -6t-1.5 -14l-33 -156h70
q11 0 12.5 -6.5t-1.5 -14.5z" />
    <glyph glyph-name="five" unicode="5" horiz-adv-x="509" 
d="M496 637l-12 -53q-3 -13 -16 -13h-211l-58 -183q51 33 106 33q69 0 111 -42.5t42 -111.5q0 -58 -25 -114.5t-67 -97.5q-72 -69 -190 -69q-89 0 -139 24q-11 5 -13 9t2 14l20 55q6 14 29 6q61 -23 110 -23q77 0 128 52.5t51 131.5q0 41 -21.5 63.5t-61.5 22.5
q-64 0 -118 -52q-12 -12 -23 -8l-42 14l-7.5 3t-4 2t-1.5 3v3t1 5t2 6l101 328q4 12 17 12h278q17 0 12 -20z" />
    <glyph glyph-name="six" unicode="6" horiz-adv-x="509" 
d="M522 639l-28 -57q-5 -9 -23 -3q-27 10 -55 10q-73 0 -134 -62q-52 -53 -82 -132q62 59 131 59q62 0 98 -43t36 -119q0 -149 -94 -243q-63 -63 -155 -63q-76 0 -116.5 46.5t-40.5 133.5q0 96 36 201.5t95 181.5q94 123 235 123q60 0 90 -16q12 -6 7 -17zM368 282
q0 89 -77 89q-34 0 -63 -22t-46 -59q-26 -57 -26 -130q0 -91 75 -91q69 0 109 86q28 59 28 127z" />
    <glyph glyph-name="seven" unicode="7" horiz-adv-x="509" 
d="M529 637l-5 -20q-2 -10 -10 -23l-349 -597q-7 -11 -23 -8l-66 13q-17 3 -6 21l333 544h-255q-11 0 -13 6t1 14l12 57q3 13 16 13h353q17 0 12 -20z" />
    <glyph glyph-name="eight" unicode="8" horiz-adv-x="509" 
d="M500 533q0 -118 -145 -185q102 -51 102 -151q0 -87 -67 -149q-68 -62 -180 -62q-92 0 -142.5 39.5t-50.5 112.5q0 96 84 159q34 25 97 50q-84 52 -84 139q0 83 58.5 134t154.5 51q80 0 126.5 -37t46.5 -101zM404 516q0 35 -22 54.5t-62 19.5q-49 0 -79 -27.5t-30 -71.5
q0 -33 15.5 -54.5t59.5 -50.5q61 26 89.5 57t28.5 73zM358 189q0 56 -43 87q-18 13 -52 29q-78 -29 -112.5 -64t-34.5 -84q0 -42 28.5 -65t79.5 -23q61 0 97.5 33t36.5 87z" />
    <glyph glyph-name="nine" unicode="9" horiz-adv-x="509" 
d="M484 499q0 -111 -41.5 -227t-106.5 -190q-84 -96 -208 -96q-50 0 -75 11q-10 4 -12 8t1 14l15 52q3 9 10.5 9.5t15.5 -3.5q22 -6 48 -6q71 0 130 56q53 52 92 153q-62 -74 -140 -74q-61 0 -97 44.5t-36 119.5q0 140 82 230q65 71 166 71q76 0 116 -44t40 -128zM387 506
q0 39 -19 60.5t-54 21.5q-57 0 -95 -59q-42 -66 -42 -151q0 -43 19 -66t54 -23q56 0 89 46q21 28 34.5 76t13.5 95z" />
    <glyph glyph-name="colon" unicode=":" horiz-adv-x="306" 
d="M264 408q0 -33 -23.5 -56.5t-55.5 -23.5q-33 0 -56 23.5t-23 56.5q0 32 23 55.5t56 23.5q32 0 55.5 -23t23.5 -56zM191 66q0 -33 -23.5 -56t-55.5 -23q-33 0 -56 23t-23 56t23 56t56 23q32 0 55.5 -23t23.5 -56z" />
    <glyph glyph-name="semicolon" unicode=";" horiz-adv-x="306" 
d="M286 407q0 -33 -23 -56t-56 -23t-56 23t-23 56q0 32 23 55.5t56 23.5t56 -23.5t23 -55.5zM210 98l-158 -225q-8 -11 -21 -3l-29 16q-3 2 -5 3.5t-3 2.5t-0.5 3.5t0.5 3t1.5 4t2.5 5.5l92 201q4 10 17 10h95q23 0 8 -21z" />
    <glyph glyph-name="less" unicode="&#x3c;" horiz-adv-x="524" 
d="M485 100q0 -12 -5 -12q-4 0 -11 3l-413 200q-15 7 -16 14q-1 3 -1 8v57q0 10 3 13.5t14 8.5l413 200q7 3 11 3q5 0 5 -12v-67q0 -11 -2.5 -14t-13.5 -8l-324 -153l324 -153q11 -5 13.5 -8t2.5 -14v-66z" />
    <glyph glyph-name="equal" unicode="=" horiz-adv-x="524" 
d="M485 407q0 -11 -2.5 -13.5t-13.5 -2.5h-413q-11 0 -14 2.5t-3 13.5v54q0 11 3 14t14 3h413q11 0 13.5 -3t2.5 -14v-54zM485 242q0 -12 -2.5 -15t-13.5 -3h-413q-11 0 -14 3.5t-3 14.5v53q0 11 3 14t14 3h413q11 0 13.5 -3t2.5 -14v-53z" />
    <glyph glyph-name="greater" unicode="&#x3e;" horiz-adv-x="524" 
d="M485 313q0 -7 -2 -11t-4.5 -5.5t-10.5 -5.5l-413 -200q-7 -3 -11 -3q-5 0 -5 12v67q0 11 2.5 14t13.5 8l324 152l-324 153q-10 5 -13 8.5t-3 14.5v66q0 12 5 12q4 0 11 -3l413 -200q11 -5 14 -8.5t3 -13.5v-57z" />
    <glyph glyph-name="question" unicode="?" horiz-adv-x="473" 
d="M474 560q0 -56 -30.5 -105t-82.5 -75q-35 -17 -85 -29l-18 -83q-2 -13 -16 -13h-62q-16 0 -12 16l27 126q2 9 7.5 13t22.5 8q30 7 50.5 14.5t43.5 21.5t35 35.5t12 51.5q0 65 -78 65q-38 0 -103 -23q-21 -8 -25 3l-22 57q-5 12 18 22q2 1 3 1q78 32 153 32
q74 0 118 -37.5t44 -100.5zM245 60q0 -31 -21 -52t-52 -21t-52.5 21t-21.5 52t21.5 52.5t52.5 21.5t52 -21.5t21 -52.5z" />
    <glyph glyph-name="at" unicode="@" horiz-adv-x="982" 
d="M906 361q0 -127 -77 -219.5t-184 -92.5q-82 0 -90 81q-59 -81 -128 -81q-41 0 -64.5 31.5t-23.5 87.5q0 55 18 112.5t61 103.5t100 46q49 0 81 -36q1 1 4.5 10.5t5.5 10.5q5 5 10 5h52q12 0 7 -18l-47 -219q-2 -9 -2 -28q0 -39 40 -39q64 0 111 71.5t47 168.5
q0 110 -71.5 172.5t-196.5 62.5q-169 0 -279.5 -117t-110.5 -289q0 -143 82 -217t226 -74q88 0 156 18.5t143 52.5q14 7 17 -1l17 -46q5 -13 -14 -22q-58 -32 -147.5 -52t-176.5 -20q-181 0 -284 93.5t-103 267.5q0 200 139 338.5t339 138.5q152 0 247.5 -78t95.5 -223z
M580 336q-32 29 -60 29q-24 0 -44 -23.5t-30 -57t-15.5 -64t-5.5 -52.5q0 -48 32 -48q35 0 63 33.5t39 86.5z" />
    <glyph glyph-name="A" unicode="A" horiz-adv-x="556" 
d="M535 63l-12 -54q-1 -6 -3.5 -7.5t-11.5 -1.5h-202q-14 0 -11 13l11 51q3 13 15 13h54l-8 117h-195l-56 -117h55q8 0 10 -2.5t1 -10.5l-10 -52q-2 -12 -16 -12h-201q-9 0 -11 3t0 10l11 54q1 10 14 10h43l306 599q6 10 17 10h73q15 0 16 -15l54 -594h46q15 0 11 -14z
M360 273l-12 197q-3 50 -3 100q-31 -75 -43 -100l-94 -197h152z" />
    <glyph glyph-name="B" unicode="B" horiz-adv-x="565" 
d="M549 548q0 -64 -36 -114t-101 -75q92 -35 92 -137q0 -61 -32.5 -115.5t-83.5 -79.5q-34 -17 -66.5 -22t-103.5 -5h-222q-9 0 -11 3t0 10l11 52q2 12 15 12h59l113 532h-58q-14 0 -11 14l11 51q2 12 15 12h212q42 0 73.5 -5t61.5 -18.5t46 -42.5t16 -72zM442 535
q0 67 -84 67h-75l-45 -211h53q65 0 100 28q51 41 51 116zM397 227q0 43 -25.5 62t-82.5 19h-69l-47 -225h67q51 0 80 11.5t49 40.5q28 39 28 92z" />
    <glyph glyph-name="C" unicode="C" horiz-adv-x="491" 
d="M532 629l-26 -118q-3 -13 -15 -13h-57q-15 0 -11 16l18 84q-33 16 -68 16q-85 0 -136 -105q-32 -65 -51.5 -150t-19.5 -159q0 -124 103 -124q31 0 72 21l18 83q3 13 15 13h57q16 0 12 -15l-28 -128q-3 -12 -16 -19q-78 -46 -161 -46q-89 0 -135.5 55.5t-46.5 163.5
q0 106 32.5 211.5t86.5 178.5q81 107 206 107q85 0 143 -47q12 -9 8 -25z" />
    <glyph glyph-name="D" unicode="D" horiz-adv-x="593" 
d="M577 480q0 -110 -38.5 -225.5t-94.5 -175.5q-44 -47 -104.5 -63t-140.5 -16h-203q-15 0 -12 12l12 53q2 12 15 12h59l113 532h-58q-14 0 -11 14l11 51q2 12 15 12h194q85 0 126.5 -11.5t69.5 -43.5q47 -55 47 -151zM470 479q0 68 -29 94t-105 26h-52l-108 -512h50
q104 0 152 63q39 52 65.5 147t26.5 182z" />
    <glyph glyph-name="E" unicode="E" horiz-adv-x="501" 
d="M545 670l-32 -147q-2 -8 -4.5 -10.5t-10.5 -2.5h-53q-16 0 -13 14l16 75h-164l-42 -199h190q15 0 12 -15l-13 -57q-2 -8 -5 -10.5t-11 -2.5h-191l-48 -228h168l19 86q3 13 15 13h54q9 0 11.5 -2.5t0.5 -11.5l-33 -159q-2 -13 -17 -13h-398q-14 0 -11 14l11 51q2 12 15 12
h59l113 532h-58q-14 0 -11 14l11 51q2 12 15 12h394q15 0 11 -16z" />
    <glyph glyph-name="F" unicode="F" horiz-adv-x="473" 
d="M540 670l-31 -147q-3 -13 -15 -13h-56q-14 0 -11 15l16 74h-159l-43 -204h186q9 0 11 -3.5t0 -11.5l-12 -57q-2 -13 -16 -13h-188l-49 -233h70q14 0 10 -16l-11 -49q-2 -12 -15 -12h-231q-10 0 -12 2t0 10l12 53q2 12 15 12h59l113 532h-58q-14 0 -11 13l11 52
q2 12 15 12h388q15 0 12 -16z" />
    <glyph glyph-name="G" unicode="G" horiz-adv-x="575" 
d="M573 342l-11 -48q-2 -12 -14 -12h-58l-49 -233q-3 -15 -24 -24q-90 -40 -169 -40q-97 0 -145 60t-48 160q0 97 31 206t86 179q88 111 221 111q42 0 84 -12.5t65 -32.5q9 -7 6 -22l-25 -119q-3 -13 -16 -13h-58q-12 0 -9 17l17 79q-33 18 -73 18q-79 0 -128 -75
q-45 -70 -69.5 -162.5t-24.5 -180.5q0 -64 26.5 -94.5t81.5 -30.5q43 0 80 16l41 193h-68q-9 0 -11 4t0 12l10 49q2 11 14 11h226q15 0 11 -16z" />
    <glyph glyph-name="H" unicode="H" horiz-adv-x="630" 
d="M686 671l-11 -50q-2 -12 -16 -12h-59l-113 -532h58q9 0 11 -3t0 -12l-11 -50q-2 -12 -15 -12h-216q-9 0 -11 3t1 14l9 48q2 12 15 12h56l50 235h-211l-50 -235h55q13 0 10 -15l-10 -50q-2 -12 -15 -12h-217q-15 0 -12 12l12 53q2 12 15 12h59l113 532h-58q-14 0 -11 15
l11 50q2 12 15 12h218q13 0 10 -13l-11 -51q-2 -9 -4 -11t-11 -2h-56l-44 -209h211l44 209h-55q-9 0 -10.5 4t0.5 11l11 50q2 12 15 12h218q14 0 10 -15z" />
    <glyph glyph-name="I" unicode="I" horiz-adv-x="353" 
d="M406 669l-10 -47q-2 -13 -17 -13h-75l-113 -532h74q14 0 11 -16l-10 -48q-2 -13 -16 -13h-251q-10 0 -12 3t0 12l10 49q2 13 17 13h74l113 532h-75q-9 0 -10.5 4.5t0.5 11.5l10 48q2 13 17 13h252q14 0 11 -17z" />
    <glyph glyph-name="J" unicode="J" horiz-adv-x="436" 
d="M444 671l-98 -460q-16 -73 -35 -113t-50 -66q-56 -45 -132 -45q-65 0 -103.5 37t-38.5 100q0 44 7 65q5 11 10 11h74q4 0 6 -1.5t2.5 -4t0.5 -5t-1 -6t-1 -5.5q-4 -32 -4 -40q0 -64 61 -64q38 0 60 25t35 84l90 424h-158q-9 0 -11.5 2.5t-0.5 10.5l11 53q2 13 16 13h248
q10 0 12 -3.5t0 -11.5z" />
    <glyph glyph-name="K" unicode="K" horiz-adv-x="556" 
d="M649 672l-10 -51q-2 -12 -16 -12h-43l-252 -252l156 -280h38q10 0 11.5 -3.5t-0.5 -11.5l-10 -50q-2 -12 -16 -12h-190q-10 0 -11.5 4t0.5 11l10 50q2 12 15 12h32l-134 258l-54 -258h57q10 0 11.5 -3.5t-0.5 -11.5l-11 -50q-2 -12 -15 -12h-220q-10 0 -11.5 4t0.5 11
l11 50q2 12 15 12h59l113 532h-58q-14 0 -11 15l11 50q2 12 15 12h221q13 0 10 -17l-11 -48q-2 -12 -15 -12h-59l-49 -230l224 230h-29q-7 0 -8.5 3t1.5 12l10 50q2 12 15 12h187q14 0 11 -14z" />
    <glyph glyph-name="L" unicode="L" horiz-adv-x="482" 
d="M467 139l-65 -129q-5 -10 -17 -10h-389q-14 0 -11 13l11 52q2 12 15 12h59l113 532h-58q-9 0 -10.5 4t0.5 11l10 50q2 12 15 12h221q9 0 10.5 -4t-0.5 -11l-11 -50q-2 -12 -15 -12h-59l-110 -522h170l46 90q4 8 8 9t11 -3l51 -23q9 -4 9.5 -8.5t-4.5 -12.5z" />
    <glyph glyph-name="M" unicode="M" horiz-adv-x="704" 
d="M742 672l-9 -53q-1 -7 -3.5 -8.5t-11.5 -1.5h-61l-84 -532h56q10 0 12.5 -3.5t0.5 -12.5l-11 -49q-2 -12 -15 -12h-212q-10 0 -12.5 3t-0.5 11l11 50q3 13 15 13h60l59 315q16 82 33 158q-35 -76 -46 -96l-158 -288q-5 -10 -8 -10q-3 -1 -7 -1h-39q-9 0 -11 2.5t-3 12.5
l-30 279q-4 34 -6 103q-20 -98 -21 -104l-87 -371h57q10 0 12 -3t0 -11l-11 -53q-2 -10 -15 -10h-210q-9 0 -11 2.5t-1 10.5l11 52q2 12 15 12h59l141 532h-58q-10 0 -11.5 4.5t0.5 12.5l10 48q2 12 15 12h153q14 0 15 -15l27 -260q6 -70 5 -127q16 46 40 89l166 303
q6 10 17 10h152q9 0 11 -3t0 -11z" />
    <glyph glyph-name="N" unicode="N" horiz-adv-x="621" 
d="M687 671l-10 -50q-2 -12 -16 -12h-59l-127 -596q-2 -13 -16 -13h-59q-9 0 -11.5 2t-4.5 11l-115 435q-12 47 -18 94q-9 -71 -16 -102l-77 -363h57q14 0 11 -16l-11 -49q-2 -12 -15 -12h-207q-15 0 -12 12l11 53q2 12 16 12h59l113 532h-60q-13 0 -9 15l11 50q2 12 15 12
h139q9 0 12 -2.5t5 -10.5l104 -394q17 -65 26 -111q12 89 15 103l72 338h-57q-8 0 -10 3.5t0 10.5l10 50q3 13 15 13h209q9 0 11 -4t-1 -11z" />
    <glyph glyph-name="O" unicode="O" horiz-adv-x="565" 
d="M548 498q0 -114 -40 -237t-111 -202q-66 -74 -166 -74q-177 0 -177 204q0 92 23.5 188.5t62.5 170.5q81 153 233 153q175 0 175 -203zM441 496q0 64 -18.5 92t-59.5 28q-53 0 -94.5 -50t-63.5 -123t-33 -139.5t-11 -115.5q0 -63 18.5 -90.5t59.5 -27.5q54 0 95.5 49.5
t63.5 122t32.5 138.5t10.5 116z" />
    <glyph glyph-name="P" unicode="P" horiz-adv-x="528" 
d="M552 537q0 -70 -30.5 -129t-81.5 -89q-60 -36 -154 -36h-69l-44 -206h70q12 0 9 -15l-9 -50q-2 -12 -16 -12h-231q-14 0 -11 14l11 51q2 12 15 12h59l113 532h-58q-14 0 -11 14l11 51q2 12 15 12h224q62 0 95.5 -9t55.5 -32q37 -39 37 -108zM446 527q0 40 -21 57t-71 17
h-70l-49 -231h55q49 0 77.5 11.5t47.5 38.5q31 43 31 107z" />
    <glyph glyph-name="Q" unicode="Q" horiz-adv-x="565" 
d="M549 494q0 -150 -62 -306q-27 -68 -78 -128q40 -48 80 -75q24 -16 2 -30l-57 -33q-4 -3 -11 -3q-13 0 -38.5 24t-53.5 62q-44 -20 -98 -20q-91 0 -135 50.5t-44 156.5q0 59 10 124t34 134.5t59.5 124.5t91 90.5t122.5 35.5q178 0 178 -207zM441 496q0 65 -18 92.5
t-60 27.5q-53 0 -95 -50t-63.5 -123t-32.5 -139.5t-11 -115.5q0 -63 18.5 -90.5t60.5 -27.5q98 0 153 161q48 141 48 265z" />
    <glyph glyph-name="R" unicode="R" horiz-adv-x="547" 
d="M544 538q0 -88 -44 -147t-123 -83l82 -231h57q8 0 9.5 -3t-0.5 -12l-10 -50q-2 -12 -15 -12h-112q-14 0 -18 12l-89 284h-63l-46 -219h61q9 0 11 -3t0 -13l-11 -49q-2 -12 -15 -12h-222q-9 0 -11 3t0 11l11 51q2 12 15 12h59l113 532h-58q-9 0 -11 2.5t0 11.5l11 51
q2 12 15 12h216q89 0 138.5 -32.5t49.5 -115.5zM439 530q0 39 -22 56t-74 17h-60l-47 -223h57q71 0 108.5 39.5t37.5 110.5z" />
    <glyph glyph-name="S" unicode="S" horiz-adv-x="482" 
d="M500 641l-28 -131q-3 -13 -15 -13h-57q-13 0 -10 14l18 84q-42 18 -77 18q-55 0 -88 -29.5t-33 -77.5q0 -27 12 -44.5t51 -45.5l64 -47q27 -19 43 -34t33 -49.5t17 -76.5q0 -105 -75 -167q-66 -55 -174 -55q-109 0 -162 42q-9 7 -10 11t2 13l28 136q3 13 15 13h57
q16 0 11 -17l-20 -89q52 -21 92 -21q58 0 92 31.5t34 84.5q0 32 -13.5 53t-54.5 53l-74 57q-41 32 -57.5 64.5t-16.5 76.5q0 94 64 149t174 55q77 0 139 -31q22 -10 19 -27z" />
    <glyph glyph-name="T" unicode="T" horiz-adv-x="454" 
d="M535 670l-37 -174q-2 -12 -16 -12h-54q-9 0 -10.5 5t0.5 13l21 99h-86l-111 -524h69q9 0 10.5 -4t-0.5 -11l-11 -50q-2 -12 -14 -12h-240q-14 0 -11 14l10 50q3 13 16 13h68l111 524h-85l-22 -105q-2 -12 -16 -12h-55q-8 0 -9.5 3.5t0.5 11.5l36 174q2 13 17 13h406
q11 0 13.5 -4t-0.5 -12z" />
    <glyph glyph-name="U" unicode="U" horiz-adv-x="630" 
d="M697 672l-12 -53q-1 -7 -4 -8.5t-11 -1.5h-59l-84 -399q-15 -71 -36 -112.5t-70 -72.5q-61 -38 -153 -38q-187 0 -187 150q0 33 9 73l85 399h-58q-14 0 -10 16l11 51q2 10 15 10h219q14 0 11 -14l-11 -49q-2 -10 -4.5 -12t-11.5 -2h-59l-85 -399q-8 -42 -8 -59
q0 -78 96 -78q118 0 147 136l85 400h-59q-9 0 -10.5 3.5t0.5 10.5l11 50q3 13 15 13h218q13 0 10 -14z" />
    <glyph glyph-name="V" unicode="V" 
d="M628 670l-10 -49q-2 -12 -15 -12h-41l-294 -604q-5 -11 -18 -11h-87q-15 0 -16 15l-35 600h-41q-9 0 -11.5 3t-0.5 12l10 49q2 13 16 13h165q9 0 11.5 -3.5t0.5 -12.5l-10 -49q-2 -12 -16 -12h-16l5 -405q0 -20 -1.5 -60.5t-1.5 -57.5q34 83 43 103l187 419h-22
q-9 0 -11.5 3.5t-0.5 12.5l10 49q2 13 16 13h172q9 0 11.5 -3.5t0.5 -12.5z" />
    <glyph glyph-name="W" unicode="W" horiz-adv-x="751" 
d="M848 671l-10 -50q-2 -12 -15 -12h-46l-261 -603q-5 -11 -19 -11h-68q-10 0 -12.5 3t-2.5 13l13 362q0 50 11 160q-43 -115 -62 -159l-158 -368q-4 -11 -16 -11h-71q-10 0 -12.5 3t-2.5 13l10 598h-45q-9 0 -11.5 2.5t-0.5 11.5l11 50q2 13 14 13h159q9 0 11.5 -3t0.5 -12
l-11 -50q-2 -12 -15 -12h-15l-18 -364q-2 -33 -13 -131q32 97 71 189l159 372q4 11 17 11h60q10 0 12.5 -3.5t2.5 -13.5l-11 -422q-1 -44 -10 -129q31 104 41 129l142 362h-19q-9 0 -11 3t0 11l10 50q2 13 15 13h165q9 0 11 -3.5t0 -11.5z" />
    <glyph glyph-name="X" unicode="X" 
d="M604 674l-12 -53q-2 -12 -15 -12h-45l-197 -254l99 -278h51q9 0 11.5 -2.5t1.5 -10.5l-11 -51q-1 -5 -2.5 -7.5t-4 -4t-7.5 -1.5h-184q-9 0 -11.5 2.5t-1.5 10.5l11 51q3 13 15 13h23l-43 133q-7 20 -14 55q-15 -26 -37 -55l-100 -133h12q9 0 11.5 -2.5t1.5 -10.5
l-11 -51q-1 -5 -2.5 -7.5t-4 -4t-7.5 -1.5h-184q-9 0 -11.5 2.5t-1.5 10.5l11 51q3 13 15 13h50l221 285l-90 247h-52q-10 0 -11.5 3.5t0.5 12.5l10 48q2 8 4.5 10.5t10.5 2.5h173q8 0 11 -2.5t2 -9.5l-11 -53q-2 -12 -15 -12h-15l34 -105q8 -24 17 -65q21 41 40 67l75 103
h-13q-8 0 -11 2.5t-2 9.5l12 53q2 12 15 12h176q8 0 11 -2.5t2 -9.5z" />
    <glyph glyph-name="Y" unicode="Y" horiz-adv-x="482" 
d="M597 673l-10 -52q-2 -12 -16 -12h-40l-229 -324l-45 -208h68q15 0 12 -14l-12 -51q-2 -12 -15 -12h-239q-14 0 -11 14l11 51q2 12 15 12h69l44 208l-93 324h-45q-15 0 -12 13l10 52q2 12 16 12h187q15 0 12 -13l-10 -52q-2 -12 -16 -12h-36l38 -146q11 -43 16 -89
q5 8 13.5 23.5t13.5 23.5l116 188h-25q-15 0 -12 13l10 52q2 12 16 12h187q15 0 12 -13z" />
    <glyph glyph-name="Z" unicode="Z" horiz-adv-x="473" 
d="M525 669l-17 -72l-390 -503h214l45 83q8 13 21 6l47 -24q7 -4 9 -6.5t1 -5.5t-4 -9l-65 -126q-6 -12 -20 -12h-371q-10 0 -12 3.5t-1 13.5l15 68l395 511h-188l-16 -82q-3 -13 -16 -13h-58q-10 0 -12 2.5t0 11.5l34 159q2 12 17 12h359q11 0 13.5 -4.5t-0.5 -12.5z" />
    <glyph glyph-name="bracketleft" unicode="[" horiz-adv-x="445" 
d="M481 696l-11 -50q-3 -13 -17 -13h-106l-160 -755h104q10 0 12 -4t0 -11l-12 -59q-2 -9 -16 -9h-189q-9 0 -11 3.5t1 14.5l189 889q2 13 17 13h187q10 0 12.5 -5.5t-0.5 -13.5z" />
    <glyph glyph-name="backslash" unicode="\" horiz-adv-x="524" 
d="M490 -69q4 -11 2.5 -13.5t-9.5 -2.5h-68q-8 0 -10.5 2.5t-5.5 10.5l-337 828q-4 10 -2 12.5t12 2.5h66q8 0 10.5 -2.5t5.5 -10.5z" />
    <glyph glyph-name="bracketright" unicode="]" horiz-adv-x="445" 
d="M373 702l-189 -894q-3 -13 -17 -13h-187q-15 0 -12 17l11 52q2 8 5 11t11 3h106l161 755h-104q-16 0 -13 15l12 54q2 8 5 10.5t12 2.5h188q9 0 11 -2.5t0 -10.5z" />
    <glyph glyph-name="asciicircum" unicode="^" horiz-adv-x="524" 
d="M501 380q4 -7 4 -10.5t-3 -5t-10 -1.5h-74q-10 0 -13 2.5t-9 13.5l-127 231l-126 -231q-6 -11 -9 -13.5t-14 -2.5h-74q-10 0 -11.5 3.5t3.5 13.5l157 292q8 14 14 16q3 1 9 1h103q10 0 13 -3t9 -14z" />
    <glyph glyph-name="underscore" unicode="_" horiz-adv-x="524" 
d="M519 -136h-514v68h514v-68z" />
    <glyph glyph-name="grave" unicode="`" horiz-adv-x="510" 
d="M255 643l30 60q5 8 9 8t12 -5l167 -102q9 -5 9 -10q0 -4 -3 -8l-15 -30q-4 -6 -8 -6t-12 3l-180 74q-11 4 -11 9q0 3 2 7z" />
    <glyph glyph-name="a" unicode="a" 
d="M474 476l-70 -327q-11 -48 -1 -75h56q13 0 10 -14l-10 -45q-3 -15 -14 -15h-63q-41 0 -57.5 15t-16.5 53q0 14 1 25q-70 -108 -163 -108q-53 0 -82.5 41t-29.5 115q0 53 15 113.5t42.5 117t75 93.5t104.5 37q35 0 58.5 -12t48.5 -42l13 30q3 9 12 9h59q9 0 11.5 -2
t0.5 -9zM358 384q-44 41 -82 41q-36 0 -65.5 -33t-45 -81.5t-24 -93.5t-8.5 -78q0 -71 51 -71q47 0 86.5 46t55.5 121z" />
    <glyph glyph-name="b" unicode="b" horiz-adv-x="510" 
d="M474 357q0 -88 -36 -182.5t-89 -144.5q-48 -45 -124 -45q-40 0 -89.5 15t-87.5 42q-12 9 -8 25l122 576h-64q-13 0 -10 15l9 46q3 13 16 13h149q14 0 9 -18l-48 -222q-5 -21 -16 -55q58 80 150 80q117 0 117 -145zM376 350q0 71 -60 71q-48 0 -85 -39t-51 -106l-39 -188
q49 -26 89 -26q34 0 58.5 23t44.5 74q43 107 43 191z" />
    <glyph glyph-name="c" unicode="c" horiz-adv-x="408" 
d="M421 453l-26 -117q-2 -11 -13 -11h-58q-12 0 -9 14l16 76q-23 6 -37 6q-41 0 -73.5 -27.5t-50.5 -69t-27 -84t-9 -79.5q0 -90 83 -90q38 0 85 27q18 12 22 1l21 -53q5 -13 -15 -24q-62 -37 -133 -37q-78 0 -120.5 47t-42.5 134q0 83 29 157.5t91.5 126.5t147.5 52
q64 0 110 -28q12 -8 9 -21z" />
    <glyph glyph-name="d" unicode="d" 
d="M525 700l-118 -554q-7 -30 -7 -54v-18h64q13 0 10 -14l-11 -49q-2 -11 -13 -11h-63q-40 0 -57 15.5t-17 55.5v20q-73 -106 -166 -106q-111 0 -111 149q0 57 14 118t41.5 118.5t77 94.5t112.5 37q54 0 99 -29l36 170h-65q-9 0 -10.5 3.5t0.5 10.5l10 47q3 13 15 13h149
q14 0 10 -17zM364 398q-41 25 -78 25q-43 0 -69.5 -23t-45.5 -75q-36 -99 -36 -182q0 -75 51 -75q38 0 76 35q49 44 68 133z" />
    <glyph glyph-name="e" unicode="e" horiz-adv-x="464" 
d="M442 372q0 -48 -26 -86t-69 -59q-42 -21 -101 -30.5t-113 -7.5q-11 -121 89 -121q55 0 120 39q18 11 24 0l23 -46q6 -12 -7 -21q-78 -55 -180 -55q-82 0 -125 47t-43 137q0 140 78 236.5t190 96.5q65 0 102.5 -34.5t37.5 -95.5zM348 367q0 28 -16 44t-45 16
q-52 0 -89 -42t-54 -119q204 0 204 101z" />
    <glyph glyph-name="f" unicode="f" horiz-adv-x="320" 
d="M438 678l-18 -47q-5 -12 -17 -7q-6 2 -19 7t-23.5 7.5t-23.5 2.5q-33 0 -48.5 -18.5t-26.5 -70.5l-14 -65h128q12 0 8 -13l-16 -51q-3 -10 -14 -10h-122l-82 -430q-17 -91 -60.5 -139t-128.5 -48q-47 0 -72 9q-9 4 -10.5 7.5t1.5 12.5l17 52q4 10 17 6q22 -5 41 -5
q43 0 64.5 25t34.5 89l83 421h-71q-14 0 -10 14l11 49q3 11 13 11h73l21 99q14 65 50.5 99t112.5 34q62 0 97 -20q10 -5 4 -21z" />
    <glyph glyph-name="g" unicode="g" horiz-adv-x="510" 
d="M498 442q-37 -48 -49 -110l-43 -211l-17 -95q-13 -84 -28 -123t-42 -65q-55 -50 -151 -50q-40 0 -90.5 12.5t-74.5 28.5q-8 5 -3 19l23 56q3 9 9 9t15 -5q74 -38 130 -38q44 0 68.5 20t36.5 66q7 27 17.5 78t12.5 60q-36 -49 -70.5 -71t-76.5 -22q-56 0 -87.5 40.5
t-31.5 113.5q0 83 30 163t77 128q54 56 124 56q35 0 61 -11t58 -41q12 21 27 35.5t23 14.5q5 0 11 -4l39 -26q10 -7 10 -12.5t-8 -15.5zM366 388q-47 37 -87 37q-34 0 -61.5 -32t-42.5 -78.5t-22.5 -89.5t-7.5 -74q0 -70 50 -70q46 0 84 42.5t53 110.5z" />
    <glyph glyph-name="h" unicode="h" horiz-adv-x="538" 
d="M488 58l-9 -47q-2 -11 -14 -11h-79q-70 0 -70 52q0 9 6 39l51 234q7 37 7 51q0 20 -12 31t-33 11q-52 0 -95.5 -54.5t-62.5 -144.5l-44 -208q-2 -11 -13 -11h-72q-14 0 -11 14l135 629h-68q-8 0 -9.5 3.5t0.5 10.5l11 47q3 13 15 13h150q8 0 9.5 -3.5t-0.5 -10.5
l-49 -231q-12 -52 -17 -64q38 46 78 70t92 24q47 0 72 -24t25 -70q0 -30 -11 -78l-57 -256h66q8 0 9.5 -3.5t-0.5 -12.5z" />
    <glyph glyph-name="i" unicode="i" horiz-adv-x="278" 
d="M292 650q0 -28 -21 -49t-49 -21t-48 20.5t-20 49.5q0 28 20 48.5t49 20.5t49 -20.5t20 -48.5zM238 473l-85 -399h65q9 0 10.5 -4t-0.5 -11l-10 -48q-2 -11 -14 -11h-78q-71 0 -71 53q0 13 4 34l70 326h-79q-9 0 -11 2.5t0 8.5l12 52q3 11 13 11h164q14 0 10 -14z" />
    <glyph glyph-name="j" unicode="j" horiz-adv-x="278" 
d="M300 650q0 -29 -20 -49.5t-49 -20.5t-49 20.5t-20 49.5q0 28 20 48.5t49 20.5t49 -20.5t20 -48.5zM252 473l-101 -474q-9 -43 -15 -66.5t-22.5 -58t-39.5 -55.5q-45 -42 -116 -42q-45 0 -93 23q-12 6 -7 19l21 56q5 12 28 1q28 -15 56 -15q37 0 56 30t38 117l86 405h-79
q-8 0 -10 2.5t0 9.5l11 51q2 11 13 11h164q13 0 10 -14z" />
    <glyph glyph-name="k" unicode="k" horiz-adv-x="501" 
d="M530 472l-10 -48q-2 -11 -14 -11h-36l-189 -153l120 -186h52q14 0 11 -15l-11 -48q-2 -11 -13 -11h-94q-11 0 -16 8l-147 238l-50 -235q-2 -11 -13 -11h-72q-9 0 -11 2.5t0 10.5l135 630h-66q-14 0 -10 14l10 47q3 13 15 13h149q12 0 9 -15l-90 -428l172 143h-57
q-13 0 -10 12l10 47q2 11 13 11h203q13 0 10 -15z" />
    <glyph glyph-name="l" unicode="l" horiz-adv-x="269" 
d="M266 699l-110 -517q-14 -63 -14 -82q0 -27 27 -27q14 0 34 9q16 7 17 -4l7 -52q2 -11 -1.5 -14.5t-19.5 -9.5q-37 -14 -73 -14q-90 0 -90 80q0 32 15 103l100 472h-68q-13 0 -10 14l10 47q3 13 15 13h152q10 0 11 -6t-2 -12z" />
    <glyph glyph-name="m" unicode="m" horiz-adv-x="769" 
d="M720 60l-10 -49q-2 -11 -13 -11h-79q-71 0 -71 55q0 6 5 31l53 240q7 33 7 52q0 18 -10.5 28.5t-28.5 10.5q-33 0 -63.5 -24t-49.5 -66q-16 -34 -31 -105l-46 -211q-2 -11 -13 -11h-72q-8 0 -10 3t0 10l66 301q11 55 11 63q0 40 -41 40q-25 0 -48 -17t-38.5 -41.5
t-29 -58t-21 -59.5t-13.5 -52l-38 -178q-2 -11 -14 -11h-71q-9 0 -10.5 3t0.5 11l71 326q9 46 4 73h-60q-13 0 -10 13l10 50q2 11 13 11h115q14 0 19.5 -15t5.5 -52v-17q67 99 168 99q45 0 62 -25.5t18 -72.5q41 53 79.5 75.5t88.5 22.5q87 0 87 -93q0 -30 -9 -72l-58 -263
h65q8 0 10 -2.5t0 -11.5z" />
    <glyph glyph-name="n" unicode="n" horiz-adv-x="538" 
d="M489 60l-10 -49q-2 -11 -14 -11h-78q-71 0 -71 53q0 17 4 34l53 238q6 29 6 49q0 43 -42 43q-52 0 -94.5 -53.5t-61.5 -142.5l-45 -210q-2 -11 -13 -11h-72q-13 0 -10 14l71 326q9 42 8 73h-64q-8 0 -9.5 2.5t-0.5 10.5l10 50q2 11 13 11h116q26 0 26 -67l-1 -22
q77 104 179 104q44 0 68 -24t24 -68q0 -29 -10 -74l-58 -262h66q13 0 10 -14z" />
    <glyph glyph-name="o" unicode="o" horiz-adv-x="501" 
d="M461 329q0 -70 -23.5 -139t-64.5 -120q-68 -85 -181 -85q-159 0 -159 174q0 148 86 257q68 86 183 86q76 0 117.5 -45t41.5 -128zM360 333q0 43 -19.5 65.5t-55.5 22.5q-79 0 -117 -99q-34 -90 -34 -168q0 -88 74 -88q80 0 118 102q34 94 34 165z" />
    <glyph glyph-name="p" unicode="p" 
d="M478 346q0 -86 -29 -171t-75 -134q-52 -56 -133 -56q-54 0 -102 34l-32 -148h62q10 0 11.5 -4.5t-1.5 -9.5l-10 -48q-3 -12 -14 -12h-211q-9 0 -10.5 3.5t0.5 10.5l10 50q2 10 14 10h54l95 450q11 53 8 92h-64q-9 0 -11 3.5t1 10.5l10 49q2 11 13 11h116q16 0 20.5 -11.5
t6.5 -37.5l2 -23q37 48 71.5 67.5t79.5 19.5q118 0 118 -156zM380 341q0 38 -14.5 59t-41.5 21q-29 0 -57 -18.5t-45 -49.5q-18 -31 -32 -94l-35 -165q45 -30 84 -30t65 26t45 83q31 93 31 168z" />
    <glyph glyph-name="q" unicode="q" horiz-adv-x="510" 
d="M495 470q10 -6 -3 -25q-35 -50 -48 -111l-98 -463h56q9 0 10.5 -3.5t-0.5 -10.5l-10 -48q-3 -12 -13 -12h-212q-8 0 -9.5 4.5t0.5 11.5l10 48q2 10 13 10h59l44 198q-67 -81 -150 -81q-51 0 -80 40.5t-29 111.5q0 65 21 137t56 127q61 98 161 98q36 0 61.5 -11.5
t56.5 -41.5q33 51 49 51q4 0 7 -2zM361 390q-43 35 -85 35q-69 0 -105 -94q-37 -96 -37 -188q0 -72 49 -72q32 0 62.5 19.5t49.5 50.5q21 35 31 84z" />
    <glyph glyph-name="r" unicode="r" horiz-adv-x="353" 
d="M391 487q0 -3 -2 -7l-33 -77q-4 -8 -10 -6q-15 5 -28 5q-43 0 -80.5 -49t-47.5 -95l-53 -247q-2 -11 -14 -11h-71q-9 0 -10.5 3.5t0.5 10.5l66 310q12 58 9 89h-63q-8 0 -10 2t-1 9l11 52q2 11 14 11h115q13 0 18.5 -14.5t5.5 -50.5q0 -15 -1 -28q37 56 70 80.5t73 24.5
q42 0 42 -12z" />
    <glyph glyph-name="s" unicode="s" horiz-adv-x="399" 
d="M377 454l-20 -97q-2 -10 -14 -10h-54q-10 0 -11.5 2.5t0.5 10.5l13 59q-20 5 -38 5q-38 0 -60 -18t-22 -49q0 -20 11.5 -32.5t48.5 -33.5l39 -22q40 -23 55.5 -49t15.5 -66q0 -77 -50.5 -123t-135.5 -46q-81 0 -144 35q-9 5 -10.5 7.5t0.5 13.5l21 102q3 12 14 12h56
q12 0 9 -15l-14 -63q35 -14 71 -14q42 0 66 20t24 54q0 22 -11.5 36t-44.5 33l-47 26q-38 21 -53 46t-15 62q0 73 49 117.5t129 44.5q69 0 111 -26q9 -6 11 -9.5t0 -12.5z" />
    <glyph glyph-name="t" unicode="t" horiz-adv-x="353" 
d="M387 470l-20 -48q-3 -9 -13 -9h-125l-55 -257q-6 -27 -6 -48q0 -41 43 -41q13 0 26 3t34 11t26 9q11 4 13 -4l11 -48q3 -6 1 -10t-3.5 -5.5t-10.5 -5.5q-64 -32 -132 -32q-108 0 -108 100q0 26 8 62l56 266h-70q-12 0 -8 18l9 45q2 11 13 11h72l28 131q3 11 12 12l74 14
q9 2 12 -1.5t1 -12.5l-31 -143h135q15 0 8 -17z" />
    <glyph glyph-name="u" unicode="u" horiz-adv-x="538" 
d="M498 480l-73 -329q-15 -67 -1 -77h56q13 0 10 -13l-10 -50q-2 -11 -14 -11h-66q-38 0 -54.5 15.5t-16.5 51.5l1 20q-78 -102 -170 -102q-48 0 -75 26t-27 73q0 36 9 73l56 256h-70q-9 0 -10.5 3.5t0.5 10.5l11 49q2 11 13 11h156q12 0 8 -17l-63 -289q-9 -41 -9 -63
q0 -21 11.5 -33t32.5 -12q59 0 106 69q29 42 44 111l46 214q2 10 9 11l79 19q16 4 11 -17z" />
    <glyph glyph-name="v" unicode="v" horiz-adv-x="445" 
d="M476 469l-264 -470q-5 -8 -14 -8h-59q-12 0 -13 12l-50 410h-60q-9 0 -11.5 3t-0.5 11l11 49q2 11 14 11h125q11 0 12 -11l23 -259q5 -58 5 -106q39 84 51 106l138 270q4 7 6.5 8t10.5 0l69 -10q9 -1 10.5 -3.5t-3.5 -12.5z" />
    <glyph glyph-name="w" unicode="w" horiz-adv-x="658" 
d="M675 464l-228 -463q-3 -8 -14 -8h-65q-11 0 -11 12l-2 285q0 50 3 75q-18 -49 -31 -75l-137 -288q-4 -9 -14 -9h-60q-11 0 -11 11l-18 409h-63q-11 0 -8 14l11 49q2 11 13 11h126q8 0 11 -2.5t3 -11.5l-4 -280q0 -3 -3 -87q18 53 38 95l129 277q4 9 14 9h64q10 0 10 -11
l3 -282q0 -35 -4 -91q12 37 39 98l121 285q4 10 18 7l63 -12q14 -2 7 -17z" />
    <glyph glyph-name="x" unicode="x" horiz-adv-x="445" 
d="M467 451l-186 -199l85 -178h61q14 0 10 -16l-11 -46q-2 -12 -13 -12h-108q-11 0 -15 10l-51 120q-18 42 -21 51q-14 -20 -38 -48l-120 -141q-5 -6 -18 -1l-65 24q-12 5 -1 18l204 218l-77 162h-62q-13 0 -10 14l11 49q2 11 13 11h109q10 0 14 -9l39 -94q22 -52 25 -65
q26 34 40 50l102 123q6 8 13 4l69 -30q10 -5 1 -15z" />
    <glyph glyph-name="y" unicode="y" horiz-adv-x="454" 
d="M485 461l-189 -402q-66 -143 -105 -197q-56 -77 -146 -77q-54 0 -102 28q-15 9 -8 22l31 51q6 9 16 4q46 -23 69 -23q57 0 95 71l33 62h-37q-13 0 -14 11l-53 402h-61q-8 0 -10 2.5t-1 9.5l11 51q2 11 13 11h127q12 0 13 -12l26 -246q14 -117 15 -170q12 26 36 82.5
t35 82.5l115 264q3 6 6 7t11 -1l69 -16q12 -3 5 -17z" />
    <glyph glyph-name="z" unicode="z" horiz-adv-x="417" 
d="M428 472l-12 -56l-302 -334h165l38 59q7 12 21 4l38 -24q10 -7 4 -17l-60 -96q-5 -8 -14 -8h-315q-8 0 -10.5 2t-0.5 9l13 58l309 338h-141l-14 -63q-2 -11 -12 -11h-54q-9 0 -10.5 3.5t0.5 10.5l28 129q2 11 12 11h308q12 0 9 -15z" />
    <glyph glyph-name="braceleft" unicode="{" horiz-adv-x="524" 
d="M515 695l-18 -81q-64 -2 -85 -16.5t-34 -74.5l-32 -150q-10 -51 -29 -76.5t-60 -46.5q34 -21 40.5 -55t-4.5 -70l-35 -162q-11 -50 7.5 -63t76.5 -13l-17 -82q-25 -1 -47 -1t-41 3.5t-34 9t-25.5 17t-16 27.5t-5.5 39.5t7 54.5l35 166q10 28 3 56.5t-40 36.5l16 78
q32 7 50 28t26 59l37 174q11 49 30.5 80t51 44.5t63 16.5t80.5 1z" />
    <glyph glyph-name="bar" unicode="|" horiz-adv-x="524" 
d="M313 -154q0 -11 -3.5 -14t-14.5 -3h-66q-11 0 -13.5 3t-2.5 14v824q0 11 2.5 13.5t13.5 2.5h66q11 0 14.5 -3t3.5 -13v-824z" />
    <glyph glyph-name="braceright" unicode="}" horiz-adv-x="524" 
d="M400 286l-16 -77q-33 -7 -51 -28t-26 -60l-37 -173q-20 -91 -73.5 -120.5t-150.5 -22.5l18 82q60 1 82.5 14.5t34.5 68.5l34 158q11 51 29 76t59 46q-33 23 -40 55.5t4 68.5l33 154q12 56 -2.5 70t-79.5 16l17 81q104 5 144 -24t19 -125l-36 -166q-4 -18 -5 -30.5
t1.5 -26.5t13 -23.5t28.5 -13.5z" />
    <glyph glyph-name="asciitilde" unicode="~" horiz-adv-x="696" 
d="M595 707q-54 -108 -146 -108q-34 0 -93 24l-54 22q-33 14 -55 14q-24 0 -41 -12.5t-35 -42.5q-6 -10 -10 -10.5t-13 5.5l-29 19q-9 6 -9.5 9.5t4.5 13.5q30 63 61 88.5t79 25.5q35 0 112 -32q48 -20 62 -24.5t32 -4.5q48 0 77 48q6 10 9.5 11t12.5 -4l32 -19
q9 -6 9.5 -10t-5.5 -13z" />
    <glyph glyph-name="sterling" unicode="&#xa3;" 
d="M567 610l-25 -48q-8 -16 -23 -6q-52 33 -108 33q-84 0 -122 -58.5t-29 -147.5h141q11 0 13.5 -4t-0.5 -12l-12 -51q-2 -9 -4 -11t-11 -2h-122q3 -59 -7.5 -105.5t-38.5 -111.5h266q20 0 11 -18l-30 -58q-5 -10 -17 -10h-424q-10 0 -12.5 4.5t0.5 14.5l11 54q3 13 16 13
h81q28 56 39.5 100.5t11.5 104.5v12h-94q-8 0 -10 3.5t0 11.5l11 51q3 14 13 14h76q-3 25 -3 40q0 113 68.5 181t182.5 68q92 0 147 -38q12 -9 4 -24z" />
    <glyph glyph-name="currency" unicode="&#xa4;" horiz-adv-x="696" 
d="M670 122l-31 -34q-8 -10 -19 1l-91 91q-68 -51 -147 -51q-74 0 -147 49l-90 -88q-8 -7 -10.5 -7t-9.5 7l-33 31q-10 9 0 19l91 91q-50 66 -50 145q0 77 49 144l-91 90q-11 10 -2 19l35 35q10 10 21 -2l90 -90q72 51 147 51t145 -50l89 89q7 7 10 7.5t9 -5.5l35 -34
q10 -10 0 -19l-91 -90q51 -72 51 -145q0 -71 -50 -144l90 -90q7 -8 7 -10.5t-7 -9.5zM543 376q0 68 -47.5 115t-114.5 47t-114.5 -47.5t-47.5 -114.5t47.5 -115t114.5 -48t114.5 48t47.5 115z" />
    <glyph glyph-name="section" unicode="&#xa7;" 
d="M496 635l-28 -46q-7 -11 -22 -2q-49 33 -97 33q-36 0 -59.5 -18.5t-23.5 -46.5q0 -17 11 -28t43 -32l69 -43q82 -51 82 -123q0 -106 -139 -162q70 -44 70 -115t-53.5 -118.5t-135.5 -47.5q-86 0 -166 52q-7 5 -9.5 8t-2 6t4.5 9l28 48q9 13 22 4q65 -46 127 -46
q35 0 57 20.5t22 51.5q0 25 -14.5 40.5t-62.5 42.5q-33 19 -47.5 28.5t-38 29t-33 42.5t-9.5 52q0 109 144 164q-66 39 -66 103q0 69 52 113t132 44q87 0 139 -42q11 -9 4 -21zM373 318q0 15 -5.5 26.5t-18.5 22.5t-20 15t-25 15q-114 -45 -114 -108q0 -25 14.5 -40.5
t60.5 -41.5q22 10 37 18.5t33.5 22.5t28 31.5t9.5 38.5z" />
    <glyph glyph-name="dieresis" unicode="&#xa8;" horiz-adv-x="510" 
d="M487 630q0 -26 -17 -43.5t-42 -17.5t-43 17.5t-18 42.5t17.5 42.5t42.5 17.5t42.5 -17t17.5 -42zM301 629q0 -25 -18 -42.5t-43 -17.5t-42.5 17.5t-17.5 42.5t17.5 42.5t42.5 17.5t43 -17.5t18 -42.5z" />
    <glyph glyph-name="copyright" unicode="&#xa9;" horiz-adv-x="715" 
d="M697 373q0 -156 -103.5 -271t-243.5 -115q-126 0 -211.5 94t-85.5 232q0 158 104 272t247 114q123 0 208 -94.5t85 -231.5zM636 366q0 118 -69.5 195.5t-175.5 77.5q-110 0 -193 -96t-83 -223q0 -116 69.5 -194.5t171.5 -78.5q113 0 196.5 95.5t83.5 223.5zM513 512
l-16 -70q-1 -10 -11 -10h-34q-12 0 -9 13l10 48q-19 8 -38 8q-49 0 -79 -61q-43 -88 -43 -182q0 -71 60 -71q17 0 41 12l10 48q3 9 12 9h34q12 0 10 -11l-17 -76q-1 -7 -11 -13q-48 -28 -98 -28q-112 0 -112 132q0 63 19.5 126.5t52.5 106.5q48 65 126 65q52 0 87 -29
q9 -6 6 -17z" />
    <glyph glyph-name="guillemotleft" unicode="&#xab;" horiz-adv-x="565" 
d="M557 432l-173 -193l83 -187q4 -10 4 -12q0 -5 -9 -9l-43 -21q-10 -4 -11 -4q-6 0 -10 8l-125 223q-4 7 -4 10t6 9l225 222q6 6 10 6q3 0 10 -5l36 -27q6 -6 6 -10q0 -3 -5 -10zM344 432l-173 -193l83 -187q3 -6 3 -11q0 -6 -8 -10l-43 -21q-10 -4 -11 -4q-6 0 -10 8
l-125 223q-4 7 -4 10t6 9l225 222q6 6 10 6q3 0 10 -5l36 -27q6 -6 6 -10q0 -3 -5 -10z" />
    <glyph glyph-name="logicalnot" unicode="&#xac;" horiz-adv-x="524" 
d="M460 13q0 -8 -3 -10.5t-11 -2.5h-66q-11 0 -13 2t-2 12v175h-337q-11 0 -13 2.5t-2 12.5v57q0 8 3 11t11 3h418q10 0 12.5 -2.5t2.5 -10.5v-249z" />
    <glyph glyph-name="registered" unicode="&#xae;" horiz-adv-x="715" 
d="M697 373q0 -156 -103.5 -271t-243.5 -115q-126 0 -211.5 94t-85.5 232q0 158 104 272t247 114q123 0 208 -94.5t85 -231.5zM636 366q0 118 -69.5 195.5t-175.5 77.5q-110 0 -193 -96t-83 -223q0 -116 69.5 -194.5t171.5 -78.5q113 0 196.5 95.5t83.5 223.5zM534 462
q0 -106 -99 -138l48 -132h32q10 0 8 -12l-6 -30q-1 -9 -11 -9h-68q-10 0 -13 9l-53 166h-34l-26 -124h33q12 0 9 -13l-6 -29q-1 -9 -12 -9h-133q-12 0 -9 11l7 30q3 10 11 10h34l66 310h-31q-11 0 -9 11l6 30q1 10 12 10h129q115 0 115 -91zM466 458q0 22 -12 31t-43 9h-34
l-27 -127h31q41 0 63 23t22 64z" />
    <glyph glyph-name="degree" unicode="&#xb0;" horiz-adv-x="524" 
d="M472 538q0 -60 -44 -102t-106 -42t-106 41.5t-44 102.5t44 104.5t106 43.5t106 -43.5t44 -104.5zM413 538q0 37 -27 65t-64 28t-64 -28t-27 -65t26.5 -63t64.5 -26t64.5 26t26.5 63z" />
    <glyph glyph-name="plusminus" unicode="&#xb1;" horiz-adv-x="528" 
d="M492 227q0 -11 -3 -14t-14 -3h-166v-131q0 -11 -3 -14.5t-14 -3.5h-57q-11 0 -14 3.5t-3 14.5v131h-165q-11 0 -14 3t-3 14v55q0 11 3 14t14 3h165v167q0 11 3 13.5t14 2.5h57q11 0 14 -2.5t3 -13.5v-167h166q11 0 14 -3t3 -14v-55zM495 -42q0 -11 -3.5 -14t-14.5 -3
h-426q-11 0 -14 3t-3 14v53q0 11 3 14t14 3h426q11 0 14.5 -3t3.5 -14v-53z" />
    <glyph glyph-name="acute" unicode="&#xb4;" horiz-adv-x="510" 
d="M481 643q2 -4 2 -7q0 -5 -11 -9l-180 -74q-8 -3 -12 -3t-8 6l-15 30q-3 4 -3 8q0 5 9 10l167 102q8 5 12 5t9 -8z" />
    <glyph glyph-name="mu" unicode="&#xb5;" 
d="M487 477l-72 -331q-15 -67 1 -118q2 -8 -7 -12l-63 -28q-4 -2 -8 -2q-20 0 -20 70q0 21 1 28q-80 -99 -169 -99l-32 6l-36 -171q-2 -11 -13 -13l-71 -17q-11 -3 -14.5 -0.5t-1.5 13.5l144 665q2 10 13 12l74 16q8 2 10.5 -1.5t-0.5 -16.5l-65 -297q-9 -43 -9 -63
t12.5 -32.5t32.5 -12.5q60 0 106 68q29 42 44 112l46 215q1 6 2 7.5t3 3t7 2.5l70 15q10 3 14 -0.5t1 -18.5z" />
    <glyph glyph-name="mu" unicode="&#x3bc;" 
d="M487 477l-72 -331q-15 -67 1 -118q2 -8 -7 -12l-63 -28q-4 -2 -8 -2q-20 0 -20 70q0 21 1 28q-80 -99 -169 -99l-32 6l-36 -171q-2 -11 -13 -13l-71 -17q-11 -3 -14.5 -0.5t-1.5 13.5l144 665q2 10 13 12l74 16q8 2 10.5 -1.5t-0.5 -16.5l-65 -297q-9 -43 -9 -63
t12.5 -32.5t32.5 -12.5q60 0 106 68q29 42 44 112l46 215q1 6 2 7.5t3 3t7 2.5l70 15q10 3 14 -0.5t1 -18.5z" />
    <glyph glyph-name="paragraph" unicode="&#xb6;" horiz-adv-x="649" 
d="M596 625q0 -11 -3 -13.5t-14 -2.5h-62v-778q0 -11 -2.5 -14t-13.5 -3h-52q-11 0 -14 3t-3 14v778h-65v-778q0 -11 -2.5 -14t-13.5 -3h-53q-11 0 -13.5 3t-2.5 14v338q-134 -26 -202 42.5t-68 212.5q0 193 121 243q49 19 146 19h300q11 0 14 -3t3 -14v-44zM282 245v364
q-88 0 -118 -24q-46 -38 -46 -153q0 -49 6.5 -83.5t23 -64t50.5 -39.5t84 0z" />
    <glyph glyph-name="guillemotright" unicode="&#xbb;" horiz-adv-x="565" 
d="M514 254q4 -7 4 -10t-6 -9l-224 -223q-6 -6 -10 -6q-3 0 -10 5l-36 27q-8 6 -8 11q0 4 6 10l172 194l-81 185q-4 10 -4 12q0 5 9 9l44 22q8 4 9 4q5 0 10 -9zM300 256q1 -3 4 -6q2 -3 2 -5q0 -3 -7 -10l-224 -223q-6 -6 -10 -6q-3 0 -10 5l-36 27q-8 6 -8 11q0 4 6 10
l172 194l-81 185q-4 10 -4 12q0 5 9 9l44 22q8 4 10 4q4 0 10 -9z" />
    <glyph glyph-name="divide" unicode="&#xf7;" horiz-adv-x="524" 
d="M324 437q0 -25 -18.5 -43.5t-43.5 -18.5q-26 0 -44 18.5t-18 43.5t18.5 43t43.5 18t43.5 -18t18.5 -43zM485 226q0 -12 -2.5 -15t-13.5 -3h-413q-11 0 -14 3.5t-3 14.5v57q0 11 3 14.5t14 3.5h413q11 0 13.5 -3.5t2.5 -14.5v-57zM324 73q0 -25 -18.5 -43t-43.5 -18
t-43.5 18t-18.5 43t18 43t44 18q25 0 43.5 -18t18.5 -43z" />
    <glyph glyph-name="dotlessi" unicode="&#x131;" horiz-adv-x="278" 
d="M238 473l-85 -399h65q9 0 10.5 -4t-0.5 -11l-10 -48q-2 -11 -14 -11h-78q-71 0 -71 53q0 13 4 34l70 326h-79q-9 0 -11 2.5t0 8.5l12 52q3 11 13 11h164q14 0 10 -14z" />
    <glyph glyph-name="florin" unicode="&#x192;" 
d="M571 681l-24 -54q-4 -9 -22 -1q-33 13 -60 13q-32 0 -50.5 -19.5t-31.5 -67.5l-17 -65h125q16 0 10 -14l-19 -49q-4 -9 -6 -10t-11 -1h-120l-110 -425q-25 -97 -69.5 -144.5t-135.5 -47.5q-47 0 -68 8q-9 3 -10.5 5t0.5 10l23 59q3 7 11 6q20 -4 45 -4q46 0 69 24.5
t41 93.5l109 415h-67q-11 0 -12.5 3.5t1.5 11.5l13 46q2 9 4.5 11t12.5 2h70l21 81q20 79 60.5 115t117.5 36q21 0 53 -6t47 -17q5 -4 0 -15z" />
    <glyph glyph-name="dotaccent" unicode="&#x2d9;" horiz-adv-x="510" 
d="M399 630q0 -28 -19 -47t-46 -19t-46.5 19.5t-19.5 46.5q0 26 20 45t46 19q27 0 46 -19t19 -45z" />
    <glyph glyph-name="Delta" unicode="&#x394;" horiz-adv-x="555" 
d="M334 685h88q8 0 10 -11l58 -574l-19 -87q-3 -11 -9 -12q-2 -1 -6 -1h-450q-15 0 -11 13l19 87l300 572q6 13 20 13zM375 89l-31 457l-223 -457h254z" />
    <glyph glyph-name="Delta" unicode="&#x2206;" horiz-adv-x="555" 
d="M334 685h88q8 0 10 -11l58 -574l-19 -87q-3 -11 -9 -12q-2 -1 -6 -1h-450q-15 0 -11 13l19 87l300 572q6 13 20 13zM375 89l-31 457l-223 -457h254z" />
    <glyph glyph-name="afii10023" unicode="&#x401;" horiz-adv-x="501" 
d="M545 670l-32 -147q-2 -8 -4.5 -10.5t-10.5 -2.5h-53q-16 0 -13 14l16 75h-164l-42 -199h190q15 0 12 -15l-13 -57q-2 -8 -5 -10.5t-11 -2.5h-191l-48 -228h168l19 86q3 13 15 13h54q9 0 11.5 -2.5t0.5 -11.5l-33 -159q-2 -13 -17 -13h-398q-14 0 -11 14l11 51q2 12 15 12
h59l113 532h-58q-14 0 -11 14l11 51q2 12 15 12h394q15 0 11 -16zM511 798q0 -26 -17 -43.5t-42 -17.5t-43 17.5t-18 42.5t17.5 42.5t42.5 17.5t42.5 -17t17.5 -42zM325 797q0 -25 -18 -42.5t-43 -17.5t-42.5 17.5t-17.5 42.5t17.5 42.5t42.5 17.5t43 -17.5t18 -42.5z" />
    <glyph glyph-name="afii10051" unicode="&#x402;" horiz-adv-x="623" 
d="M346 601l-46 -217q66 30 130 30q71 0 108 -39t37 -112q0 -52 -15 -106.5t-41 -90.5q-58 -81 -160 -81q-43 0 -72 16q-12 7 -8 18l26 58q5 12 18 8q5 -1 18 -6.5t26 -5.5q44 0 70 46q30 52 30 126q0 44 -26 65q-19 16 -60 16q-42 0 -99 -27l-61 -288q-3 -11 -14 -11h-150
q-11 0 -9 12l11 54q3 12 14 12h60l110 523h-78l-21 -103q-2 -8 -5 -11t-12 -3h-53q-14 0 -10 17l36 171q2 8 5 11t12 3h407q14 0 11 -15l-37 -173q-2 -8 -5 -11t-12 -3h-53q-11 0 -12 4.5t2 12.5l21 100h-93z" />
    <glyph glyph-name="afii10052" unicode="&#x403;" horiz-adv-x="473" 
d="M540 670l-31 -147q-3 -13 -15 -13h-56q-14 0 -11 15l16 74h-159l-111 -522h70q14 0 10 -16l-11 -49q-2 -12 -15 -12h-231q-10 0 -12 2t0 10l12 53q2 12 15 12h59l113 532h-58q-14 0 -11 13l11 52q2 12 15 12h388q15 0 12 -16zM476 831q2 -4 2 -7q0 -5 -11 -9l-180 -74
q-7 -3 -12 -3q-4 0 -8 6l-15 30q-3 4 -3 8q0 5 9 10l167 102q8 5 12 5t9 -8z" />
    <glyph glyph-name="afii10053" unicode="&#x404;" horiz-adv-x="485" 
d="M340 95l18 85q8 12 14 13h57q11 0 12.5 -7.5t-2.5 -16.5l-24 -115q-3 -13 -21 -24q-78 -45 -147 -45q-87 0 -136 51q-55 58 -55 188q0 106 35.5 217t101.5 179q79 81 186 81q59 0 112 -26q21 -10 30.5 -20.5t9 -17t-1.5 -13.5l-24 -113q-4 -13 -15 -13h-57q-15 0 -10 20
l18 81q-26 18 -66 18q-78 0 -129 -81q-37 -58 -55 -138h174q16 0 13 -16l-11 -53q-3 -17 -20 -17h-174q-9 -65 -9 -100q0 -84 30 -116q25 -27 72 -27q38 0 74 26z" />
    <glyph glyph-name="afii10054" unicode="&#x405;" horiz-adv-x="482" 
d="M500 641l-28 -131q-3 -13 -15 -13h-57q-13 0 -10 14l18 84q-42 18 -77 18q-55 0 -88 -29.5t-33 -77.5q0 -27 12 -44.5t51 -45.5l64 -47q27 -19 43 -34t33 -49.5t17 -76.5q0 -105 -75 -167q-66 -55 -174 -55q-109 0 -162 42q-9 7 -10 11t2 13l28 136q3 13 15 13h57
q16 0 11 -17l-20 -89q52 -21 92 -21q58 0 92 31.5t34 84.5q0 32 -13.5 53t-54.5 53l-74 57q-41 32 -57.5 64.5t-16.5 76.5q0 94 64 149t174 55q77 0 139 -31q22 -10 19 -27z" />
    <glyph glyph-name="afii10055" unicode="&#x406;" horiz-adv-x="353" 
d="M406 669l-10 -47q-2 -13 -17 -13h-75l-113 -532h74q14 0 11 -16l-10 -48q-2 -13 -16 -13h-251q-10 0 -12 3t0 12l10 49q2 13 17 13h74l113 532h-75q-9 0 -10.5 4.5t0.5 11.5l10 48q2 13 17 13h252q14 0 11 -17z" />
    <glyph glyph-name="afii10056" unicode="&#x407;" horiz-adv-x="353" 
d="M406 669l-10 -47q-2 -13 -17 -13h-75l-113 -532h74q14 0 11 -16l-10 -48q-2 -13 -16 -13h-251q-10 0 -12 3t0 12l10 49q2 13 17 13h74l113 532h-75q-9 0 -10.5 4.5t0.5 11.5l10 48q2 13 17 13h252q14 0 11 -17zM429 798q0 -26 -17 -43.5t-42 -17.5t-43 17.5t-18 42.5
t17.5 42.5t42.5 17.5t42.5 -17t17.5 -42zM243 797q0 -25 -18 -42.5t-43 -17.5t-42.5 17.5t-17.5 42.5t17.5 42.5t42.5 17.5t43 -17.5t18 -42.5z" />
    <glyph glyph-name="afii10057" unicode="&#x408;" horiz-adv-x="436" 
d="M444 671l-98 -460q-16 -73 -35 -113t-50 -66q-56 -45 -132 -45q-65 0 -103.5 37t-38.5 100q0 44 7 65q5 11 10 11h74q4 0 6 -1.5t2.5 -4t0.5 -5t-1 -6t-1 -5.5q-4 -32 -4 -40q0 -64 61 -64q38 0 60 25t35 84l90 424h-158q-9 0 -11.5 2.5t-0.5 10.5l11 53q2 13 16 13h248
q10 0 12 -3.5t0 -11.5z" />
    <glyph glyph-name="afii10058" unicode="&#x409;" horiz-adv-x="826" 
d="M536 404h79q96 0 144 -49q42 -42 42 -112q0 -109 -68 -174q-71 -69 -201 -69h-242q-12 0 -10 14l11 52q2 12 13 12h61l110 520h-127l-31 -129q-29 -121 -63 -216q-51 -145 -112 -207q-61 -61 -147 -61q-10 0 -16 1t-11 6.5t-3 14.5l13 64q3 19 19 17l8 -1q41 -6 81 36
t87 180q36 105 58 205l23 101h-58q-13 0 -10 14l11 51q2 12 13 12h440q14 0 11 -15l-11 -51q-3 -12 -14 -12h-57zM517 316l-49 -228h46q30 0 45 1t44 10t48 28q41 39 41 101q0 48 -33 70q-26 18 -94 18h-48z" />
    <glyph glyph-name="afii10059" unicode="&#x40a;" horiz-adv-x="843" 
d="M553 404h79q90 0 138 -43t48 -118q0 -32 -7 -63t-26 -64.5t-48 -58.5t-77.5 -41t-110.5 -16h-242q-12 0 -10 14l11 52q2 12 13 12h61l50 238h-211l-50 -239h55q14 0 10 -15l-10 -50q-1 -8 -4 -10t-11 -2h-217q-14 0 -12 12l12 53q2 8 4 10t11 2h59l113 532h-58
q-14 0 -11 15l11 50q2 12 15 12h218q13 0 10 -13l-11 -51q-1 -7 -2 -9t-3.5 -3t-9.5 -1h-56l-44 -205h211l43 205h-57q-6 0 -9 4t-2 10l11 51q3 12 13 12h217q15 0 11 -14l-11 -51q-3 -12 -14 -12h-57zM534 316l-49 -228h46q178 0 178 140q0 25 -9.5 42.5t-21 26t-32 13.5
t-32.5 5.5t-32 0.5h-48z" />
    <glyph glyph-name="afii10060" unicode="&#x40b;" horiz-adv-x="667" 
d="M350 601l-45 -214q74 30 141 30q72 0 109 -36q32 -32 32 -84q0 -24 -8 -64l-33 -156h57q16 0 11 -17l-10 -47q-4 -13 -15 -13h-216q-14 0 -11 17l10 47q3 13 16 13h55l32 153q6 28 6 40q0 24 -18 41q-22 18 -59 18q-51 0 -117 -27l-48 -225h62q13 0 9 -18l-10 -47
q-2 -12 -13 -12h-224q-14 0 -10 19l10 46q3 12 14 12h60l111 524h-78l-22 -103q-1 -6 -2 -8.5t-4.5 -4t-9.5 -1.5h-55q-10 0 -8 14l36 174q2 8 5 11t12 3h406q9 0 10.5 -4t-0.5 -11l-37 -173q-1 -6 -2 -8.5t-4.5 -4t-9.5 -1.5h-53q-9 0 -10.5 4t0.5 11l21 102h-93z" />
    <glyph glyph-name="afii10061" unicode="&#x40c;" horiz-adv-x="567" 
d="M233 400h50q51 0 76 23q19 17 39 68l28 71q25 62 55 91q43 39 96 45l8 1q28 4 30 -10l7 -58q2 -18 -17 -20l-15 -2q-30 -4 -47 -22q-15 -16 -32 -59l-23 -62q-20 -54 -43 -77q-27 -27 -63 -33v-3q26 -8 43 -33q17 -23 19 -63l8 -113q2 -37 14 -50q9 -9 34 -14l11 -2
q16 -3 9 -18l-29 -63q-5 -10 -12.5 -12t-32.5 2q-45 10 -64 29q-12 12 -18.5 31t-8 33t-2.5 44l-4 109q0 40 -19 60q-18 19 -69 19h-47l-49 -235h53q16 0 11 -17l-10 -47q-3 -13 -16 -13h-211q-15 0 -10 17l10 47q3 13 15 13h55l113 532h-54q-13 0 -10 17l10 47q4 13 15 13
h211q14 0 11 -17l-10 -47q-3 -13 -16 -13h-55zM516 831q2 -4 2 -7q0 -5 -11 -9l-180 -74q-7 -3 -12 -3q-4 0 -8 6l-15 30q-3 4 -3 8q0 5 9 10l167 102q8 5 12 5t9 -8z" />
    <glyph glyph-name="afii10062" unicode="&#x40e;" horiz-adv-x="544" 
d="M513 858q0 -16 -26 -57q-45 -64 -130 -64q-54 0 -83.5 29t-29.5 83q0 17 15 18l48 6q5 2 7.5 0.5t4 -1t2 -2t0.5 -3.5v-5v-6q0 -53 44 -53q49 0 68 56q4 11 7 13t15 1l48 -7q10 -1 10 -8zM260 187h-48q-7 0 -8.5 2.5t-2.5 8.5l-63 411h-50q-10 0 -11.5 4.5t1.5 11.5
l10 49q2 12 15 12h206q14 0 10 -15l-10 -47q-3 -13 -8 -14q-3 -1 -9 -1h-46l32 -219l13 -135h3q21 45 32 75q7 16 32 69l100 210h-53q-11 0 -9 14l11 50q2 8 4.5 10.5t10.5 2.5h199q14 0 9 -17l-10 -48q-3 -12 -15 -12h-41l-242 -489q-30 -60 -56 -86q-50 -50 -126 -50
q-67 0 -110 33l-4 3q-11 7 -3 21l34 54q8 12 22 3l6 -4q33 -22 61 -22q37 0 64 28q22 23 41 67z" />
    <glyph glyph-name="afii10145" unicode="&#x40f;" horiz-adv-x="618" 
d="M171 88h208l111 521h-57q-12 0 -10 11l12 54q2 11 15 11h216q14 0 10 -15l-10 -49q-2 -12 -13 -12h-61l-112 -532h57q14 0 10 -18l-10 -47q-2 -12 -13 -12h-215l-36 -166q-3 -10 -7 -11q-2 -1 -6 -1h-79q-16 0 -11 17l35 161h-214q-13 0 -9 18l10 47q3 12 15 12h60
l112 532h-58q-14 0 -9 17l10 48q3 11 14 11h219q13 0 10 -15l-10 -47q-8 -13 -14 -14h-59z" />
    <glyph glyph-name="afii10017" unicode="&#x410;" horiz-adv-x="556" 
d="M529 63l-12 -54q-1 -6 -3.5 -7.5t-11.5 -1.5h-202q-14 0 -11 13l11 51q3 13 15 13h54l-8 117h-195l-56 -117h55q8 0 10 -2.5t1 -10.5l-10 -52q-2 -12 -16 -12h-201q-9 0 -11 3t0 10l11 54q1 10 14 10h43l306 599q6 10 17 10h73q15 0 16 -15l54 -594h46q15 0 11 -14z
M360 273l-12 197q-3 50 -3 100q-31 -75 -43 -100l-94 -197h152z" />
    <glyph glyph-name="afii10018" unicode="&#x411;" horiz-adv-x="563" 
d="M290 599l-41 -195h56q109 0 159 -45q47 -43 47 -119q0 -103 -69 -172q-68 -68 -193 -68h-246q-14 0 -10 15l11 51q2 11 14 11h60l112 532h-57q-14 0 -11 14l11 51q3 12 15 12h399q13 0 10 -15l-34 -160q-2 -11 -5 -13.5t-12 -2.5h-54q-15 0 -12 13l19 91h-169zM180 84h66
q25 0 41.5 1.5t37.5 10.5t38 25q42 42 42 110q0 40 -24 64q-25 25 -93 25h-58z" />
    <glyph glyph-name="afii10019" unicode="&#x412;" horiz-adv-x="565" 
d="M559 548q0 -64 -36 -114t-101 -75q92 -35 92 -137q0 -61 -32.5 -115.5t-83.5 -79.5q-34 -17 -66.5 -22t-103.5 -5h-222q-9 0 -11 3t0 10l11 52q2 12 15 12h59l113 532h-58q-14 0 -11 14l11 51q2 12 15 12h212q43 0 74 -5t61 -18.5t46 -42.5t16 -72zM452 535q0 67 -84 67
h-75l-45 -211h53q65 0 100 28q51 41 51 116zM407 227q0 43 -25.5 62t-82.5 19h-69l-47 -225h67q51 0 80 11.5t49 40.5q28 39 28 92z" />
    <glyph glyph-name="afii10020" unicode="&#x413;" horiz-adv-x="473" 
d="M540 670l-31 -147q-3 -13 -15 -13h-56q-14 0 -11 15l16 74h-159l-111 -522h70q14 0 10 -16l-11 -49q-2 -12 -15 -12h-231q-10 0 -12 2t0 10l12 53q2 12 15 12h59l113 532h-58q-14 0 -11 13l11 52q2 12 15 12h388q15 0 12 -16z" />
    <glyph glyph-name="afii10021" unicode="&#x414;" horiz-adv-x="615" 
d="M581 608l-113 -528h57q10 0 11.5 -5t-1.5 -17l-47 -218q-2 -13 -17 -13h-71q-16 0 -11 21l33 152h-346l-34 -160q-4 -13 -16 -13h-71q-17 0 -12 21l46 216q1 6 2.5 8.5t5 5t10.5 2.5h35q69 97 110 194q40 95 78 263l16 71h-60q-14 0 -9 17l11 48q3 12 14 12h454
q9 0 10.5 -5.5t-0.5 -10.5l-11 -49q-3 -12 -14 -12h-60zM366 87l110 512h-136l-27 -119q-30 -133 -70 -225q-38 -88 -92 -168h215z" />
    <glyph glyph-name="afii10022" unicode="&#x415;" horiz-adv-x="501" 
d="M545 670l-32 -147q-2 -8 -4.5 -10.5t-10.5 -2.5h-53q-16 0 -13 14l16 75h-164l-42 -199h190q15 0 12 -15l-13 -57q-2 -8 -5 -10.5t-11 -2.5h-191l-48 -228h168l19 86q3 13 15 13h54q9 0 11.5 -2.5t0.5 -11.5l-33 -159q-2 -13 -17 -13h-398q-14 0 -11 14l11 51q2 12 15 12
h59l113 532h-58q-14 0 -11 14l11 51q2 12 15 12h394q15 0 11 -16z" />
    <glyph glyph-name="afii10024" unicode="&#x416;" horiz-adv-x="789" 
d="M317 78l51 234h-34q-46 0 -69 -19q-20 -17 -41 -67l-51 -120q-1 -3 -6.5 -15t-8 -17t-7.5 -14t-10.5 -16.5t-12.5 -14.5q-44 -45 -119 -45q-19 0 -21 13l-8 63q-2 15 15 18l15 3q30 7 43 20q12 12 33 54l52 105q21 42 41 63q27 28 68 39v3q-25 9 -39 34q-10 17 -16 66
l-10 91q-2 26 -13 38q-10 12 -34 16l-14 2q-15 3 -8 19l24 58q5 12 22 12q52 0 82 -31q24 -26 31 -93l9 -89q4 -47 14 -62q17 -26 70 -26h22l44 209h-54q-9 0 -11 4.5t1 12.5l10 46q3 13 15 13h211q13 0 11 -12l-11 -51q-3 -13 -16 -13h-54l-45 -209h30q41 0 63 18
q23 17 41 63l32 80q26 65 54 91q34 34 100 47q34 7 35 -10l6 -58q2 -18 -16 -20l-14 -2q-29 -5 -45 -20q-14 -13 -33 -60l-25 -63q-20 -50 -46 -76q-24 -24 -59 -33v-4q25 -9 41 -31q17 -25 21 -70l8 -105q3 -38 7 -45q8 -16 30 -20l23 -4q6 -1 9 -6t0 -12l-29 -63
q-7 -13 -23 -13q-54 0 -86 32q-29 30 -31 109l-4 110q-3 43 -17 58q-19 19 -61 19h-29l-51 -234h54q14 0 10 -17l-10 -48q-3 -13 -16 -13h-210q-9 0 -10.5 5.5t0.5 11.5l9 48q3 13 16 13h55z" />
    <glyph glyph-name="afii10025" unicode="&#x417;" horiz-adv-x="521" 
d="M201 326l11 50q2 7 2.5 9t3 6t7 5t11.5 1h20q65 0 106 36t41 95q0 39 -23 62q-25 25 -67 25q-34 0 -68 -16l-12 -6l-17 -79q-4 -15 -14 -15h-65q-11 0 -9 14l24 114q2 10 16 22q29 21 65 35q46 17 96 17q83 0 132 -46q45 -45 45 -116q0 -83 -50 -133q-33 -35 -86 -48
q30 -11 49 -30q39 -38 39 -106q0 -102 -68 -170t-189 -68q-89 0 -159 38q-20 10 -17 28l27 128q1 6 2 8t4 4t9 2h62q13 0 10 -14l-18 -87l7 -3q41 -17 76 -17q69 0 107 40q39 40 39 110q0 45 -27 67q-26 22 -83 22h-26q-10 0 -12.5 3.5t-0.5 12.5z" />
    <glyph glyph-name="afii10026" unicode="&#x418;" horiz-adv-x="643" 
d="M283 609l-61 -290q-4 -19 -23 -85h5q22 31 53 67l252 295l2 13h-54q-13 0 -10 17l11 48q3 10 7 11q2 1 6 1h220q9 0 10.5 -5t-0.5 -12l-11 -48q-1 -6 -2 -8t-3.5 -3t-8.5 -1h-62l-113 -531h59q14 0 10 -14l-12 -52q-3 -12 -15 -12h-218q-15 0 -10 16l12 50q3 12 13 12h59
l63 296q13 55 20 78h-4q-18 -26 -54 -69l-250 -293l-3 -12h55q13 0 10 -14l-11 -52q-3 -12 -14 -12h-219q-13 0 -10 14l11 52q3 12 14 12h61l113 531h-59q-12 0 -9 17l10 48q3 12 14 12h220q14 0 9 -17l-10 -48q-2 -12 -15 -12h-58z" />
    <glyph glyph-name="afii10027" unicode="&#x419;" horiz-adv-x="643" 
d="M509 861l57 -8q13 -3 11 -12l-1 -4q-10 -40 -39 -69q-44 -47 -120 -47q-65 0 -98 33q-31 29 -31 82v6q0 9 12 11l54 8q17 3 17 -11v-4q0 -29 9 -41q13 -16 39 -16q30 0 50 20q12 12 21 36l2 6q3 12 17 10zM283 609l-61 -290q-4 -19 -23 -85h5q22 31 53 67l252 295l2 13
h-54q-13 0 -10 17l11 48q3 10 7 11q2 1 6 1h220q9 0 10.5 -5t-0.5 -12l-11 -48q-1 -6 -2 -8t-3.5 -3t-8.5 -1h-62l-113 -531h59q14 0 10 -14l-12 -52q-3 -12 -15 -12h-218q-15 0 -10 16l12 50q3 12 13 12h59l63 296q13 55 20 78h-4q-18 -26 -54 -69l-250 -293l-3 -12h55
q13 0 10 -14l-11 -52q-3 -12 -14 -12h-219q-13 0 -10 14l11 52q3 12 14 12h61l113 531h-59q-12 0 -9 17l10 48q3 12 14 12h220q14 0 9 -17l-10 -48q-2 -12 -15 -12h-58z" />
    <glyph glyph-name="afii10028" unicode="&#x41a;" horiz-adv-x="567" 
d="M233 400h50q51 0 76 23q19 17 39 68l28 71q25 62 55 91q43 39 96 45l8 1q28 4 30 -10l7 -58q2 -18 -17 -20l-15 -2q-30 -4 -47 -22q-15 -16 -32 -59l-23 -62q-20 -54 -43 -77q-27 -27 -63 -33v-3q26 -8 43 -33q17 -23 19 -63l8 -113q2 -37 14 -50q9 -9 34 -14l11 -2
q16 -3 9 -18l-29 -63q-5 -10 -12.5 -12t-32.5 2q-45 10 -64 29q-12 12 -18.5 31t-8 33t-2.5 44l-4 109q0 40 -19 60q-18 19 -69 19h-47l-49 -235h53q16 0 11 -17l-10 -47q-3 -13 -16 -13h-211q-15 0 -10 17l10 47q3 13 15 13h55l113 532h-54q-13 0 -10 17l10 47q4 13 15 13
h211q14 0 11 -17l-10 -47q-3 -13 -16 -13h-55z" />
    <glyph glyph-name="afii10029" unicode="&#x41b;" horiz-adv-x="607" 
d="M348 598l-31 -129q-29 -121 -63 -216q-51 -145 -112 -207q-61 -61 -147 -61q-10 0 -16 1t-11 6.5t-3 14.5l13 64q3 19 19 17l8 -1q41 -6 81 36t87 180q36 105 58 205l23 101h-58q-13 0 -10 14l11 51q2 12 13 12h446q12 0 9 -17l-11 -50q-2 -10 -15 -10h-60l-114 -532h58
q11 0 13 -4.5t-2 -13.5l-10 -47q-3 -12 -15 -12h-218q-10 0 -11 5.5t2 12.5l10 47q3 12 14 12h56l112 521h-126z" />
    <glyph glyph-name="afii10030" unicode="&#x41c;" horiz-adv-x="704" 
d="M742 672l-9 -53q-1 -7 -3.5 -8.5t-11.5 -1.5h-61l-84 -532h56q10 0 12.5 -3.5t0.5 -12.5l-11 -49q-2 -12 -15 -12h-212q-10 0 -12.5 3t-0.5 11l11 50q3 13 15 13h60l59 315q16 82 33 158q-35 -76 -46 -96l-158 -288q-5 -10 -8 -10q-3 -1 -7 -1h-39q-9 0 -11 2.5t-3 12.5
l-30 279q-4 34 -6 103q-20 -98 -21 -104l-87 -371h57q10 0 12 -3t0 -11l-11 -53q-2 -10 -15 -10h-210q-9 0 -11 2.5t-1 10.5l11 52q2 12 15 12h59l141 532h-58q-10 0 -11.5 4.5t0.5 12.5l10 48q2 12 15 12h153q14 0 15 -15l27 -260q6 -70 5 -127q16 46 40 89l166 303
q6 10 17 10h152q9 0 11 -3t0 -11z" />
    <glyph glyph-name="afii10031" unicode="&#x41d;" horiz-adv-x="630" 
d="M686 671l-11 -50q-2 -12 -16 -12h-59l-113 -532h58q9 0 11 -3t0 -12l-11 -50q-2 -12 -15 -12h-216q-9 0 -11 3t1 14l9 48q2 12 15 12h56l50 235h-211l-50 -235h55q13 0 10 -15l-10 -50q-2 -12 -15 -12h-217q-15 0 -12 12l12 53q2 12 15 12h59l113 532h-58q-14 0 -11 15
l11 50q2 12 15 12h218q13 0 10 -13l-11 -51q-2 -9 -4 -11t-11 -2h-56l-44 -209h211l44 209h-55q-9 0 -10.5 4t0.5 11l11 50q2 12 15 12h218q14 0 10 -15z" />
    <glyph glyph-name="afii10032" unicode="&#x41e;" horiz-adv-x="565" 
d="M548 498q0 -114 -40 -237t-111 -202q-66 -74 -166 -74q-177 0 -177 204q0 92 23.5 188.5t62.5 170.5q81 153 233 153q175 0 175 -203zM441 496q0 64 -18.5 92t-59.5 28q-53 0 -94.5 -50t-63.5 -123t-33 -139.5t-11 -115.5q0 -63 18.5 -90.5t59.5 -27.5q54 0 95.5 49.5
t63.5 122t32.5 138.5t10.5 116z" />
    <glyph glyph-name="afii10033" unicode="&#x41f;" horiz-adv-x="616" 
d="M485 597h-204l-112 -519h54q16 0 12 -16l-11 -50q-2 -12 -17 -12h-215q-12 0 -9 19l10 47q2 12 16 12h57l114 531h-56q-16 0 -12 17l10 48q3 12 15 12h525q16 0 12 -17l-10 -48q-3 -12 -15 -12h-60l-113 -531h56q15 0 11 -18l-10 -48q-2 -12 -17 -12h-208q-6 0 -9.5 0.5
t-6 4t-1.5 10.5l11 51q3 12 19 12h52z" />
    <glyph glyph-name="afii10034" unicode="&#x420;" horiz-adv-x="528" 
d="M552 537q0 -70 -30.5 -129t-81.5 -89q-60 -36 -154 -36h-69l-44 -206h70q12 0 9 -15l-9 -50q-2 -12 -16 -12h-231q-14 0 -11 14l11 51q2 12 15 12h59l113 532h-58q-14 0 -11 14l11 51q2 12 15 12h224q62 0 95.5 -9t55.5 -32q37 -39 37 -108zM446 527q0 40 -21 57t-71 17
h-70l-49 -231h55q49 0 77.5 11.5t47.5 38.5q31 43 31 107z" />
    <glyph glyph-name="afii10035" unicode="&#x421;" horiz-adv-x="491" 
d="M532 629l-26 -118q-3 -13 -15 -13h-57q-15 0 -11 16l18 84q-33 16 -68 16q-85 0 -136 -105q-32 -65 -51.5 -150t-19.5 -159q0 -124 103 -124q31 0 72 21l18 83q3 13 15 13h57q16 0 12 -15l-28 -128q-3 -12 -16 -19q-78 -46 -161 -46q-89 0 -135.5 55.5t-46.5 163.5
q0 106 32.5 211.5t86.5 178.5q81 107 206 107q85 0 143 -47q12 -9 8 -25z" />
    <glyph glyph-name="afii10036" unicode="&#x422;" horiz-adv-x="454" 
d="M535 670l-37 -174q-2 -12 -16 -12h-54q-9 0 -10.5 5t0.5 13l21 99h-86l-111 -524h69q9 0 10.5 -4t-0.5 -11l-11 -50q-2 -12 -14 -12h-240q-14 0 -11 14l10 50q3 13 16 13h68l111 524h-85l-22 -105q-2 -12 -16 -12h-55q-8 0 -9.5 3.5t0.5 11.5l36 174q2 13 17 13h406
q11 0 13.5 -4t-0.5 -12z" />
    <glyph glyph-name="afii10037" unicode="&#x423;" horiz-adv-x="544" 
d="M260 187h-48q-7 0 -8.5 2.5t-2.5 8.5l-63 411h-50q-10 0 -11.5 4.5t1.5 11.5l10 49q2 12 15 12h206q14 0 10 -15l-10 -47q-3 -13 -8 -14q-3 -1 -9 -1h-46l32 -219l13 -135h3q21 45 32 75q7 16 32 69l100 210h-53q-11 0 -9 14l11 50q2 8 4.5 10.5t10.5 2.5h199q14 0 9 -17
l-10 -48q-3 -12 -15 -12h-41l-242 -489q-30 -60 -56 -86q-50 -50 -126 -50q-67 0 -110 33l-4 3q-11 7 -3 21l34 54q8 12 22 3l6 -4q33 -22 61 -22q37 0 64 28q22 23 41 67z" />
    <glyph glyph-name="afii10038" unicode="&#x424;" horiz-adv-x="646" 
d="M348 619h-59q-14 0 -10 17l9 41q1 5 1.5 7t2.5 5t5.5 4t8.5 1h216q16 0 13 -17l-9 -41q-1 -5 -1.5 -7t-2.5 -5t-5.5 -4t-8.5 -1h-58l-10 -50h9q90 0 136 -45q44 -42 44 -120q0 -130 -80 -207q-72 -70 -196 -70h-7l-11 -50h59q14 0 10 -16l-9 -43q-5 -18 -20 -18h-216
q-13 0 -10 16l8 45q3 16 18 16h58l10 50h-9q-78 0 -128 42q-52 44 -52 127q0 60 25.5 121t73.5 99q66 53 175 53h9zM418 490l-61 -285h10q68 0 105 35q27 25 42 69t15 89q0 50 -24 72q-22 20 -74 20h-13zM265 205l61 285h-16q-19 0 -34 -2.5t-34 -10t-35.5 -25t-28.5 -44.5
q-24 -53 -24 -111q0 -49 26 -71q24 -21 75 -21h10z" />
    <glyph glyph-name="afii10039" unicode="&#x425;" 
d="M604 674l-12 -53q-2 -12 -15 -12h-45l-197 -254l99 -278h51q9 0 11.5 -2.5t1.5 -10.5l-11 -51q-1 -5 -2.5 -7.5t-4 -4t-7.5 -1.5h-184q-9 0 -11.5 2.5t-1.5 10.5l11 51q3 13 15 13h23l-43 133q-7 20 -14 55q-15 -26 -37 -55l-100 -133h12q9 0 11.5 -2.5t1.5 -10.5
l-11 -51q-1 -5 -2.5 -7.5t-4 -4t-7.5 -1.5h-184q-9 0 -11.5 2.5t-1.5 10.5l11 51q3 13 15 13h50l221 285l-90 247h-52q-10 0 -11.5 3.5t0.5 12.5l10 48q2 8 4.5 10.5t10.5 2.5h173q8 0 11 -2.5t2 -9.5l-11 -53q-2 -12 -15 -12h-15l34 -105q8 -24 17 -65q21 41 40 67l75 103
h-13q-8 0 -11 2.5t-2 9.5l12 53q2 12 15 12h176q8 0 11 -2.5t2 -9.5z" />
    <glyph glyph-name="afii10040" unicode="&#x426;" horiz-adv-x="620" 
d="M171 88h208l111 521h-57q-15 0 -10 17l12 49q3 11 14 11h219q9 0 10.5 -6t-1.5 -13l-11 -46q-3 -12 -14 -12h-60l-112 -532h63q13 0 11 -11l-49 -225q-3 -15 -7 -17q-3 -2 -9 -2h-77q-14 0 -10 19l34 159h-445q-13 0 -9 18l9 42q3 15 10 16q2 1 6 1h59l113 532h-60
q-15 0 -10 17l12 49q3 11 14 11h219q9 0 10.5 -6t-1.5 -13l-11 -46q-3 -12 -14 -12h-57z" />
    <glyph glyph-name="afii10041" unicode="&#x427;" horiz-adv-x="597" 
d="M417 375l51 234h-56q-13 0 -10 14l11 51q1 6 2 8t3.5 3t7.5 1h219q13 0 10 -16l-11 -49q-3 -12 -14 -12h-60l-114 -532h59q13 0 10 -15l-11 -50q-3 -12 -15 -12h-232q-13 0 -10 15l11 50q3 12 14 12h72l45 212q-68 -29 -129 -29q-84 0 -126 39q-34 33 -34 87q0 28 6 52
l38 171h-60q-14 0 -9 17l11 49q2 11 16 11h217q14 0 9 -17l-10 -48q-3 -12 -15 -12h-57l-34 -161q-14 -63 16 -85q23 -16 64 -16q55 0 115 28z" />
    <glyph glyph-name="afii10042" unicode="&#x428;" horiz-adv-x="839" 
d="M709 608h-57q-15 0 -10 17l12 50q3 11 14 11h219q10 0 11 -6t-2 -13l-11 -47q-3 -12 -14 -12h-60l-113 -530h62q14 0 9 -18l-10 -47q-3 -13 -16 -13h-751q-13 0 -10 15l11 51q3 12 14 12h60l113 530h-59q-13 0 -10 15l11 52q2 11 14 11h217q14 0 10 -19l-10 -47
q-3 -12 -14 -12h-57l-111 -520h163l124 583q2 9 5.5 12t12.5 3h72q15 0 12 -16l-124 -582h162z" />
    <glyph glyph-name="afii10043" unicode="&#x429;" horiz-adv-x="839" 
d="M655 0h-665q-10 0 -8 15l11 51q3 12 14 12h60l113 530h-59q-13 0 -10 15l11 52q2 11 14 11h217q14 0 10 -19l-10 -47q-3 -12 -14 -12h-57l-111 -520h163l124 583q2 9 5.5 12t12.5 3h72q15 0 12 -16l-124 -582h162l111 520h-57q-15 0 -10 17l12 50q3 11 14 11h219
q10 0 11 -6t-2 -13l-11 -47q-3 -12 -14 -12h-60l-112 -530h63q13 0 11 -11l-50 -233q-3 -12 -15 -12h-74q-18 0 -13 19z" />
    <glyph glyph-name="afii10044" unicode="&#x42a;" horiz-adv-x="597" 
d="M307 404h73q102 0 149 -47q43 -42 43 -116q0 -107 -68 -173q-31 -31 -74.5 -47t-72.5 -18.5t-72 -2.5h-225q-12 0 -10 14l11 51q3 12 13 12h60l112 524h-90l-22 -103q-1 -6 -2 -8.5t-4.5 -4t-9.5 -1.5h-53q-15 0 -12 14l38 176q2 12 12 12h322q14 0 10 -17l-11 -48
q-1 -6 -2 -8t-3.5 -3t-8.5 -1h-60zM288 316l-49 -228h55q88 0 127 37q19 18 31 47t12 57q0 48 -34 70q-27 17 -93 17h-49z" />
    <glyph glyph-name="afii10045" unicode="&#x42b;" horiz-adv-x="795" 
d="M239 404h49q38 0 61 -2t56.5 -14t56.5 -35q42 -43 42 -111q0 -104 -61 -167q-72 -75 -216 -75h-235q-12 0 -10 14l11 51q1 6 2 8t3.5 3t7.5 1h61l113 532h-57q-13 0 -10 17l10 48q2 12 13 12h219q14 0 10 -17l-10 -48q-3 -12 -14 -12h-59zM171 88h55q86 0 128 39
q41 38 41 100q0 45 -27 68q-24 21 -83 21h-65zM767 609l-113 -532h60q11 0 9 -14l-11 -51q-2 -8 -4 -10t-11 -2h-216q-14 0 -10 15l11 50q3 12 13 12h57l113 532h-55q-13 0 -10 15l11 50q2 12 13 12h219q14 0 10 -17l-10 -48q-3 -12 -15 -12h-61z" />
    <glyph glyph-name="afii10046" unicode="&#x42c;" horiz-adv-x="528" 
d="M238 404h79q96 0 144 -49q42 -42 42 -112q0 -109 -68 -174q-71 -69 -201 -69h-242q-12 0 -10 14l11 52q2 12 13 12h61l112 530h-57q-14 0 -11 14l11 51q3 12 13 12h217q14 0 11 -14l-11 -51q-3 -12 -14 -12h-57zM219 316l-49 -228h46q30 0 45 1t44 10t48 28q41 39 41 101
q0 48 -33 70q-26 18 -94 18h-48z" />
    <glyph glyph-name="afii10047" unicode="&#x42d;" horiz-adv-x="544" 
d="M391 311h-173q-17 0 -13 16l11 54q1 7 2 10t5.5 5.5t12.5 2.5h173q10 52 10 95q0 65 -27 94q-26 28 -74 28q-43 0 -75 -18l-19 -88q-3 -15 -17 -15h-60q-14 0 -11 14l25 118q2 12 14 22q66 52 164 52q84 0 133 -48q55 -54 55 -163q0 -123 -40 -243q-42 -123 -112 -190
q-75 -72 -188 -72q-73 0 -133 33q-27 14 -24 30l29 135q2 14 16 14h61q14 0 10 -15l-20 -94q31 -18 66 -18q59 0 102 40q67 63 97 201z" />
    <glyph glyph-name="afii10048" unicode="&#x42e;" horiz-adv-x="835" 
d="M241 400h113q36 151 114 229q72 72 176 72q79 0 123 -44q51 -50 51 -155q0 -111 -36.5 -240.5t-114.5 -207.5q-38 -39 -77.5 -54t-92.5 -15q-76 0 -119 41q-54 51 -54 165q0 56 13 121h-115l-50 -235h54q13 0 10 -13l-11 -52q-9 -11 -14 -12h-221q-10 0 -8 13l11 52
q3 12 11 12h65l113 532h-58q-14 0 -11 15l11 50q2 12 15 12h218q12 0 10 -13l-11 -51q-1 -7 -2 -9t-3.5 -3t-9.5 -1h-56zM711 504q0 68 -24 93q-19 19 -54 19q-47 0 -83 -37q-51 -52 -85 -176t-34 -220q0 -63 23 -91q20 -22 53 -22q51 0 90 40q48 49 81 170t33 224z" />
    <glyph glyph-name="afii10049" unicode="&#x42f;" horiz-adv-x="575" 
d="M380 295h-38q-43 0 -67 -20q-17 -14 -37 -55l-46 -99q-29 -65 -57 -92q-46 -45 -122 -45q-17 0 -19 13l-9 63q-1 7 4 12t12 6l14 2q32 5 49 21q8 8 31 51l49 93q25 45 39 59q18 18 44 28v3q-40 12 -65 38q-30 33 -30 86q0 93 63 156q70 71 194 71h235q14 0 9 -17l-11 -48
q-3 -12 -15 -12h-60l-112 -532h60q11 0 8 -14l-11 -51q-9 -11 -14 -12h-218q-12 0 -9 15l11 51q2 11 14 11h57zM398 383l45 215h-56q-73 0 -108 -33q-39 -36 -39 -97q0 -44 32 -66q27 -19 80 -19h46z" />
    <glyph glyph-name="afii10065" unicode="&#x430;" 
d="M474 476l-70 -327q-11 -48 -1 -75h56q13 0 10 -14l-10 -45q-3 -15 -14 -15h-63q-41 0 -57.5 15t-16.5 53q0 14 1 25q-70 -108 -163 -108q-53 0 -82.5 41t-29.5 115q0 53 15 113.5t42.5 117t75 93.5t104.5 37q35 0 58.5 -12t48.5 -42l13 30q3 9 12 9h59q9 0 11.5 -2
t0.5 -9zM358 384q-44 41 -82 41q-36 0 -65.5 -33t-45 -81.5t-24 -93.5t-8.5 -78q0 -71 51 -71q47 0 86.5 46t55.5 121z" />
    <glyph glyph-name="afii10066" unicode="&#x431;" horiz-adv-x="513" 
d="M142 391h4q19 36 53 62q50 36 116 36q68 0 108 -42t40 -121q0 -65 -23 -142t-77 -130q-70 -69 -170 -69q-74 0 -116 43q-44 45 -44 140q0 112 40 234q38 115 101 179q59 61 139 91l190 73q22 9 26 -5l14 -52q3 -12 -1 -16.5t-14 -8.5l-209 -81q-66 -25 -109 -66
q-41 -40 -61 -103zM207 67q49 0 84 39q31 34 51 101.5t20 115.5q0 43 -22 65q-19 19 -51 19q-69 0 -110 -77q-19 -35 -32 -86.5t-13 -93.5q0 -41 19 -62t54 -21z" />
    <glyph glyph-name="afii10067" unicode="&#x432;" horiz-adv-x="473" 
d="M25 47l59 268q21 92 65 135q53 53 143 53q66 0 104 -35q37 -35 37 -86q0 -57 -36 -91q-26 -25 -67 -36q32 -11 49 -29q28 -28 28 -75q0 -72 -49 -117q-56 -50 -157 -50q-107 0 -164 37q-15 10 -12 26zM175 289h49q57 0 85 22q28 21 28 60q0 25 -15 40q-18 16 -46 16
q-34 0 -58 -24t-34 -71zM158 214l-31 -141l10 -3q28 -9 63 -9q47 0 74 22q31 25 31 64q0 36 -27 53q-22 14 -65 14h-55z" />
    <glyph glyph-name="afii10068" unicode="&#x433;" horiz-adv-x="441" 
d="M339 97l11 -51q3 -12 -9 -19l-5 -3q-69 -40 -151 -40q-79 0 -121 40q-34 32 -34 83q0 59 40 99q30 30 107 63l37 16q44 19 66 36q27 21 27 50q0 22 -19 38q-17 14 -50 14t-67 -15l-10 -47q-1 -6 -2 -8.5t-4.5 -4t-9.5 -1.5h-54q-13 0 -10 12l20 90q2 11 14 19
q15 10 39 18q44 17 97 17q71 0 114 -36q41 -35 41 -91t-39 -93q-23 -22 -89 -54l-51 -24q-63 -30 -75 -42q-21 -20 -21 -47q0 -22 16 -36q17 -15 56 -15t103 29l11 5q20 8 22 -2z" />
    <glyph glyph-name="afii10069" unicode="&#x434;" horiz-adv-x="526" 
d="M179 634l-2 45q0 15 15 24q29 16 86 16q98 0 155 -64q53 -62 53 -178q0 -133 -44 -273q-32 -101 -84 -153q-66 -66 -160 -66q-74 0 -116 41q-49 47 -49 135q0 70 25.5 142.5t71.5 118.5q65 65 153 65q43 0 74 -20q31 -18 44 -53h3q1 32 1.5 61.5t-8 60.5t-25.5 52
q-36 45 -105 45q-20 0 -40 -4q-11 -2 -17.5 -3.5t-8.5 -2.5q-22 -5 -22 11zM209 67q58 0 95 58q22 36 36 94.5t14 100.5t-18 62q-20 23 -55 23q-64 0 -102 -68q-19 -34 -32 -86t-13 -98q0 -43 20 -64q20 -22 55 -22z" />
    <glyph glyph-name="afii10070" unicode="&#x435;" horiz-adv-x="464" 
d="M442 372q0 -48 -26 -86t-69 -59q-42 -21 -101 -30.5t-113 -7.5q-11 -121 89 -121q55 0 120 39q18 11 24 0l23 -46q6 -12 -7 -21q-78 -55 -180 -55q-82 0 -125 47t-43 137q0 140 78 236.5t190 96.5q65 0 102.5 -34.5t37.5 -95.5zM348 367q0 28 -16 44t-45 16
q-52 0 -89 -42t-54 -119q204 0 204 101z" />
    <glyph glyph-name="afii10072" unicode="&#x436;" horiz-adv-x="710" 
d="M333 0h-68q-13 0 -11 11l44 202h-27q-27 0 -50 -15q-18 -14 -33 -43l-33 -70q-26 -53 -55 -75q-36 -26 -91 -26q-16 0 -17 12l-3 55q-1 17 15 18l8 1q21 2 32 11q14 10 27 36l37 70q15 29 37 48q21 18 46 24v2q-17 8 -29 23q-10 13 -15 45l-6 42q-4 27 -14 36
q-9 8 -33 12l-6 1q-15 2 -10 15l25 59q5 9 18 9q46 0 75 -29q19 -19 27 -74l6 -47q3 -30 18 -45q14 -14 43 -14h26l39 177q3 12 12 14l78 18q6 1 8.5 -1.5t1.5 -7.5l-43 -200h29q29 0 47 12q18 13 34 49l20 45q20 45 50 71q38 32 93 32q14 0 15 -9l5 -59q1 -12 -16 -15
l-9 -2q-22 -4 -35 -15q-10 -8 -24 -36l-19 -39q-19 -39 -35 -52q-22 -18 -45 -21l-1 -2q22 -7 35 -23t17 -51l8 -65q2 -19 9 -29q8 -11 23 -13l18 -3q15 -2 7 -18l-24 -55q-5 -12 -22 -12q-54 0 -80 26q-22 22 -26 77l-5 69q-3 33 -17 45t-43 12h-27l-44 -202
q-2 -11 -17 -11z" />
    <glyph glyph-name="afii10073" unicode="&#x437;" horiz-adv-x="424" 
d="M144 410l-10 -49q-2 -8 -4.5 -10.5t-11.5 -2.5h-54q-13 0 -10 13l19 90q3 13 19 22q54 30 130 30q89 0 134 -46q38 -38 38 -96q0 -48 -29 -80q-23 -26 -55 -33v-3q31 -11 50 -32q26 -29 26 -71q0 -71 -56 -116q-53 -42 -150 -42q-108 0 -164 38l-3 2q-12 8 -6 20l25 48
q7 15 18 9l6 -3q64 -32 118 -32q46 0 71 17q33 21 33 58q0 36 -30 53q-23 13 -73 13h-22q-13 0 -11 13l11 48q2 8 5 11t12 3h17q46 0 71 13q37 19 37 62q0 29 -23 49q-23 19 -60 19t-68 -15z" />
    <glyph glyph-name="afii10074" unicode="&#x438;" horiz-adv-x="538" 
d="M498 480l-73 -329q-15 -67 -1 -77h56q13 0 10 -13l-10 -50q-2 -11 -14 -11h-66q-38 0 -54.5 15.5t-16.5 51.5l1 20q-78 -102 -170 -102q-48 0 -75 26t-27 73q0 36 9 73l56 256h-70q-9 0 -10.5 3.5t0.5 10.5l11 49q2 11 13 11h156q12 0 8 -17l-63 -289q-9 -41 -9 -63
q0 -21 11.5 -33t32.5 -12q59 0 106 69q29 42 44 111l46 214q2 10 9 11l79 19q16 4 11 -17z" />
    <glyph glyph-name="afii10075" unicode="&#x439;" horiz-adv-x="533" 
d="M496 484l-74 -333q-4 -18 -7 -38q-4 -29 6 -39h56q9 0 10.5 -3.5t-0.5 -9.5l-10 -50q-2 -11 -14 -11h-66q-38 0 -54 15q-22 20 -16 72q-31 -41 -69 -69q-48 -33 -103 -33q-47 0 -73 26q-27 27 -27 78q0 30 9 68l56 256h-70q-13 0 -10 14l11 49q1 5 2 6.5t3.5 3t7.5 1.5
h156q13 0 8 -16l-63 -290q-9 -42 -9 -62q0 -23 13 -35q13 -11 31 -11q43 0 83 40q46 46 67 140l46 214q3 9 9 11l79 19q3 0 6 0.5t5 -3t1 -10.5zM398 679l3 6q4 10 19 8l50 -7q13 -2 9 -19q-10 -39 -39 -68q-42 -42 -118 -42q-55 0 -86 31q-29 30 -29 81q0 6 1 9.5t4 5.5
t4.5 2t5.5 1l50 6q14 2 14 -13v-4q0 -28 10 -40q11 -13 33 -13q30 0 46 18q6 6 23 38z" />
    <glyph glyph-name="afii10076" unicode="&#x43a;" horiz-adv-x="524" 
d="M126 413h-74q-14 0 -9 18l9 44q2 8 4 10t11 2h157q14 0 10 -18l-38 -175h35q32 0 52 14q21 16 33 46l20 46q27 63 75 87q33 16 71 16q14 0 15 -9l5 -59q2 -14 -14 -15l-9 -1q-20 -2 -36 -16q-9 -9 -25 -39l-21 -43q-13 -28 -29 -44q-20 -20 -45 -25v-3q21 -9 33 -27
t16 -51l6 -49q4 -28 10 -37q8 -10 29 -14l12 -2q15 -2 7 -18l-24 -55q-5 -12 -22 -12q-34 0 -61 13q-38 19 -42 75l-7 82q-2 33 -15 46t-47 13h-40l-44 -202q-3 -11 -13 -11h-73q-11 0 -9 16z" />
    <glyph glyph-name="afii10077" unicode="&#x43b;" horiz-adv-x="535" 
d="M377 405h-96l-40 -145q-45 -161 -105 -220q-58 -56 -132 -56q-10 0 -13.5 2.5t-4.5 11.5l-6 55q-2 17 19 20l8 1q42 5 70 33q31 31 59 107q22 62 39 128l18 71h-67q-14 0 -10 15l11 47q1 6 2 8t3.5 3t8.5 1h337q13 0 10 -13l-87 -400h64q15 0 11 -16l-11 -47
q-2 -11 -16 -11h-69q-42 0 -60 17q-16 15 -16 40q0 3 7 42z" />
    <glyph glyph-name="afii10078" unicode="&#x43c;" horiz-adv-x="659" 
d="M381 270l122 207q6 10 13 10h83q9 0 8 -11l-69 -402h64q12 0 10 -14l-10 -49q-2 -11 -13 -11h-69q-41 0 -59 19q-14 14 -14 39q0 10 6 40l40 189q3 15 15 71h-2q-14 -32 -35 -66l-116 -196q-7 -11 -18 -11h-45q-8 0 -10 2t-3 9l-31 210q-4 24 -4 52h-2q-4 -27 -15 -69
l-19 -76q-37 -152 -103 -198q-43 -31 -99 -31q-19 0 -20 13l-6 56q-2 17 16 20l6 1q38 6 64 27q29 25 51 91q16 47 34 122l25 99h-67q-13 0 -10 15l10 47q1 6 2 8t3.5 3t7.5 1h164q5 0 6.5 -0.5t3 -2.5t2.5 -7l33 -207q5 -33 5 -86h2q32 67 43 86z" />
    <glyph glyph-name="afii10079" unicode="&#x43d;" horiz-adv-x="549" 
d="M197 293h166l39 176q3 11 13 13l78 16q5 1 7.5 -0.5t1.5 -7.5l-91 -416h66q14 0 11 -13l-12 -53q-2 -8 -10 -8h-79q-41 0 -58 17q-14 14 -14 37q0 16 6 42l25 116h-166l-44 -204q-2 -8 -12 -8h-74q-13 0 -11 11l89 402h-74q-13 0 -9 15l11 48q2 11 14 11h156q14 0 10 -16
z" />
    <glyph glyph-name="afii10080" unicode="&#x43e;" horiz-adv-x="501" 
d="M461 329q0 -70 -23.5 -139t-64.5 -120q-68 -85 -181 -85q-159 0 -159 174q0 148 86 257q68 86 183 86q76 0 117.5 -45t41.5 -128zM360 333q0 43 -19.5 65.5t-55.5 22.5q-79 0 -117 -99q-34 -90 -34 -168q0 -88 74 -88q80 0 118 102q34 94 34 165z" />
    <glyph glyph-name="afii10081" unicode="&#x43f;" horiz-adv-x="538" 
d="M489 60l-10 -49q-2 -11 -14 -11h-78q-71 0 -71 53q0 17 4 34l53 238q6 29 6 49q0 43 -42 43q-52 0 -94.5 -53.5t-61.5 -142.5l-45 -210q-2 -11 -13 -11h-72q-13 0 -10 14l71 326q9 42 8 73h-64q-8 0 -9.5 2.5t-0.5 10.5l10 50q2 11 13 11h116q26 0 26 -67l-1 -22
q77 104 179 104q44 0 68 -24t24 -68q0 -29 -10 -74l-58 -262h66q13 0 10 -14z" />
    <glyph glyph-name="afii10082" unicode="&#x440;" 
d="M478 346q0 -86 -29 -171t-75 -134q-52 -56 -133 -56q-54 0 -102 34l-32 -148h62q10 0 11.5 -4.5t-1.5 -9.5l-10 -48q-3 -12 -14 -12h-211q-9 0 -10.5 3.5t0.5 10.5l10 50q2 10 14 10h54l95 450q11 53 8 92h-64q-9 0 -11 3.5t1 10.5l10 49q2 11 13 11h116q16 0 20.5 -11.5
t6.5 -37.5l2 -23q37 48 71.5 67.5t79.5 19.5q118 0 118 -156zM380 341q0 38 -14.5 59t-41.5 21q-29 0 -57 -18.5t-45 -49.5q-18 -31 -32 -94l-35 -165q45 -30 84 -30t65 26t45 83q31 93 31 168z" />
    <glyph glyph-name="afii10083" unicode="&#x441;" horiz-adv-x="408" 
d="M406 453l-26 -117q-2 -11 -13 -11h-58q-12 0 -9 14l16 76q-23 6 -37 6q-41 0 -73.5 -27.5t-50.5 -69t-27 -84t-9 -79.5q0 -90 83 -90q38 0 85 27q18 12 22 1l21 -53q5 -13 -15 -24q-62 -37 -133 -37q-78 0 -120.5 47t-42.5 134q0 83 29 157.5t91.5 126.5t147.5 52
q64 0 110 -28q12 -8 9 -21z" />
    <glyph glyph-name="afii10084" unicode="&#x442;" horiz-adv-x="769" 
d="M720 60l-10 -49q-2 -11 -13 -11h-79q-71 0 -71 55q0 6 5 31l53 240q7 33 7 52q0 18 -10.5 28.5t-28.5 10.5q-33 0 -63.5 -24t-49.5 -66q-16 -34 -31 -105l-46 -211q-2 -11 -13 -11h-72q-8 0 -10 3t0 10l66 301q11 55 11 63q0 40 -41 40q-25 0 -48 -17t-38.5 -41.5
t-29 -58t-21 -59.5t-13.5 -52l-38 -178q-2 -11 -14 -11h-71q-9 0 -10.5 3t0.5 11l71 326q9 46 4 73h-60q-13 0 -10 13l10 50q2 11 13 11h115q14 0 19.5 -15t5.5 -52v-17q67 99 168 99q45 0 62 -25.5t18 -72.5q41 53 79.5 75.5t88.5 22.5q87 0 87 -93q0 -30 -9 -72l-58 -263
h65q8 0 10 -2.5t0 -11.5z" />
    <glyph glyph-name="afii10085" unicode="&#x443;" horiz-adv-x="454" 
d="M465 461l-189 -402q-66 -143 -105 -197q-56 -77 -146 -77q-54 0 -102 28q-15 9 -8 22l31 51q6 9 16 4q46 -23 69 -23q57 0 95 71l33 62h-37q-13 0 -14 11l-53 402h-61q-8 0 -10 2.5t-1 9.5l11 51q2 11 13 11h127q12 0 13 -12l26 -246q14 -117 15 -170q12 26 36 82.5
t35 82.5l115 264q3 6 6 7t11 -1l69 -16q12 -3 5 -17z" />
    <glyph glyph-name="afii10086" unicode="&#x444;" horiz-adv-x="679" 
d="M207 -128l31 144q-36 -20 -79 -20q-59 0 -93 41q-33 40 -33 119q0 73 25 153.5t74 129.5q52 52 124 52q48 0 76 -32l36 168h-66q-11 0 -8 12l12 54q1 8 12 8h150q11 0 9 -13l-49 -229q38 32 91 32t86 -36q34 -38 34 -111q0 -78 -22 -161.5t-70 -133.5q-52 -53 -137 -53
q-44 0 -76 20l-31 -144h60q11 0 9 -13l-11 -49q-2 -12 -13 -12h-210q-11 0 -8 13l11 51q3 10 13 10h53zM412 385l-61 -291q22 -19 56 -19q42 0 70 29q30 31 49 103.5t19 127.5q0 42 -19 61q-16 16 -46 16q-37 0 -68 -27zM255 94l61 291q-19 27 -55 27q-45 0 -75 -41
q-27 -37 -43 -103t-16 -114q0 -42 18 -61q17 -18 45 -18q38 0 65 19z" />
    <glyph glyph-name="afii10087" unicode="&#x445;" horiz-adv-x="445" 
d="M462 451l-186 -199l85 -178h61q14 0 10 -16l-11 -46q-2 -12 -13 -12h-108q-11 0 -15 10l-51 120q-18 42 -21 51q-14 -20 -38 -48l-120 -141q-5 -6 -18 -1l-65 24q-12 5 -1 18l204 218l-77 162h-62q-13 0 -10 14l11 49q2 11 13 11h109q10 0 14 -9l39 -94q22 -52 25 -65
q26 34 40 50l102 123q6 8 13 4l69 -30q10 -5 1 -15z" />
    <glyph glyph-name="afii10088" unicode="&#x446;" horiz-adv-x="538" 
d="M121 413h-74q-10 0 -7 12l11 50q9 11 14 12h153q15 0 11 -18l-64 -295q-7 -35 -7 -48q0 -31 12 -42q13 -11 32 -11q52 0 95 55q18 23 30 50t15.5 40.5t10.5 45.5l43 200q3 13 13 15l75 18q7 2 11 -1.5t2 -12.5l-69 -318q-6 -26 -6 -48q0 -25 12 -41h54q7 0 8.5 -0.5
t4.5 -3.5t0 -10l-40 -192q-3 -11 -13 -14l-66 -18q-9 -3 -11 2.5t0 10.5l31 149l-9 1q-36 4 -53 28q-12 18 -12 47v7h-2q-29 -42 -72 -68q-48 -30 -98 -30q-47 0 -73 28q-25 27 -25 77q0 22 9 68z" />
    <glyph glyph-name="afii10089" unicode="&#x447;" 
d="M385 74h66q13 0 10 -14l-10 -49q-2 -11 -14 -11h-79q-37 0 -55 18q-15 15 -15 40q0 15 5 35l21 98q-58 -30 -110 -30q-60 0 -94 31q-26 24 -26 66q0 24 7 57l21 98h-74q-10 0 -8 15l9 47q2 12 13 12h158q14 0 9 -18l-30 -142q-11 -52 9 -69q15 -13 48 -13q39 0 83 19
l42 199q3 14 13 16l76 18q8 2 10.5 -1.5t1.5 -9.5z" />
    <glyph glyph-name="afii10090" unicode="&#x448;" horiz-adv-x="780" 
d="M653 74h64q13 0 10 -13l-11 -51q-2 -10 -14 -10h-71q-38 0 -54 17q-17 18 -14 60l1 12h-2q-30 -45 -57 -67q-46 -38 -108 -38q-37 0 -60 24q-26 27 -24 73h-2q-25 -41 -62 -67q-43 -30 -95 -30q-50 0 -76 32q-20 24 -20 64q0 21 8 61l58 272h-75q-13 0 -10 12l11 50
q7 11 13 12h158q14 0 11 -14l-67 -319q-7 -28 -7 -40q0 -21 10 -31q12 -12 32 -12q56 0 94 63q29 47 49 142l42 192q2 8 13 11l71 17q8 3 13 1.5t3 -11.5l-72 -332q-6 -24 -6 -43t10 -29q11 -11 30 -11q38 0 73 36q47 49 71 161l42 200q2 8 13 11l72 17q4 1 8 1t6 -3.5
t1 -9.5l-74 -347q-6 -30 -6 -63z" />
    <glyph glyph-name="afii10091" unicode="&#x449;" horiz-adv-x="775" 
d="M733 62l-40 -192q-3 -11 -13 -14l-66 -18q-2 0 -5 -0.5t-5 3t-1 10.5l31 149q-35 0 -57 22q-22 24 -18 61h-2q-35 -42 -57 -61q-44 -38 -104 -38q-41 0 -65 24q-25 27 -23 73h-2q-25 -41 -62 -67q-43 -30 -95 -30q-50 0 -76 32q-20 24 -20 64q0 21 8 61l58 272h-75
q-13 0 -10 12l11 50q7 11 13 12h158q14 0 11 -14l-67 -319q-7 -28 -7 -40q0 -21 10 -31q12 -12 32 -12q56 0 94 63q29 47 49 142l42 192q2 8 13 11l71 17q8 3 13 1.5t3 -11.5l-72 -332q-6 -24 -6 -43t10 -29q11 -11 30 -11q38 0 73 36q47 49 71 161l42 200q2 8 13 11l72 17
q7 2 11 0t4 -5v-5l-69 -321q-6 -26 -6 -48q0 -25 13 -41h54q7 0 8.5 -0.5t4.5 -3.5t0 -10z" />
    <glyph glyph-name="afii10092" unicode="&#x44a;" horiz-adv-x="556" 
d="M221 410h-87l-14 -69q-3 -14 -14 -14h-55q-13 0 -11 16l29 132q3 10 7 11q2 1 6 1h239q14 0 10 -16l-37 -168q34 10 75 10q70 0 112 -40q38 -36 38 -97q0 -80 -54 -136q-56 -56 -151 -56q-38 0 -85.5 10t-72.5 28q-17 12 -13 28zM278 229l-35 -157l11 -3q32 -8 59 -8
q49 0 77 28q31 31 31 78q0 34 -23 53q-22 18 -62 18q-32 0 -58 -9z" />
    <glyph glyph-name="afii10093" unicode="&#x44b;" horiz-adv-x="694" 
d="M236 474l-37 -171q35 10 74 10q70 0 112 -40q39 -38 39 -97q0 -83 -54 -137q-55 -55 -151 -55q-38 0 -85.5 10t-72.5 28q-17 12 -13 28l79 363h-80q-11 0 -8 14l9 48q1 8 3.5 10t10.5 2h164q13 0 10 -13zM647 473l-86 -399h67q11 0 8 -13l-11 -50q-1 -5 -2 -7t-3.5 -3
t-7.5 -1h-79q-38 0 -55 17q-15 15 -15 41q0 14 5 35l70 320h-80q-12 0 -10 12l11 50q1 6 2 8t3.5 3t8.5 1h164q13 0 10 -14zM183 229l-35 -157l11 -3q32 -8 59 -8q49 0 77 28q31 29 31 78q0 33 -23 53q-22 18 -62 18q-31 0 -58 -9z" />
    <glyph glyph-name="afii10094" unicode="&#x44c;" horiz-adv-x="460" 
d="M234 465l-36 -162q34 10 75 10q71 0 112 -41q38 -38 38 -94q0 -81 -55 -138q-56 -56 -150 -56q-38 0 -85.5 10t-72.5 28q-17 12 -13 28l79 363h-78q-14 0 -9 18l8 44q1 8 3.5 10t10.5 2h164q14 0 9 -22zM182 229l-35 -156l13 -4q24 -8 57 -8q49 0 77 28q31 33 31 78
q0 34 -23 53q-22 18 -62 18q-32 0 -58 -9z" />
    <glyph glyph-name="afii10095" unicode="&#x44d;" horiz-adv-x="438" 
d="M127 223l11 50q2 8 4.5 10.5t11.5 2.5h140q13 79 -22 113q-24 24 -72 24q-31 0 -55 -10l-11 -53q-8 -14 -15 -15h-55q-13 0 -10 12l20 92q3 14 13 21q15 12 52 22q44 11 78 11q86 0 134 -48q47 -48 47 -133q0 -72 -23.5 -150t-71.5 -126q-62 -62 -153 -62q-49 0 -91 18
q-26 11 -51 29l-4 3q-11 8 -5 17l28 49q7 13 17 6l6 -4l10 -6q9 -7 12.5 -8.5t13.5 -6.5t17.5 -7t19.5 -4t24 -2q47 0 78 27q44 40 56 115h-143q-14 0 -11 13z" />
    <glyph glyph-name="afii10096" unicode="&#x44e;" horiz-adv-x="707" 
d="M195 294h75q29 91 85 144q66 65 159 65q67 0 107 -40q46 -46 46 -130q0 -67 -24 -146t-79 -135q-68 -68 -162 -68q-70 0 -109 41q-31 31 -40.5 87.5t0.5 100.5h-76l-43 -200q-1 -7 -2 -9t-3.5 -3t-9.5 -1h-69q-13 0 -11 16l86 397h-73q-14 0 -11 16l10 46q3 12 14 12h157
q15 0 11 -13zM569 333q0 51 -22 72q-19 17 -49 17q-45 0 -77 -34t-53 -101.5t-21 -122.5q0 -46 14 -69q17 -29 57 -29q41 0 71 28q33 31 56.5 104t23.5 135z" />
    <glyph glyph-name="afii10097" unicode="&#x44f;" horiz-adv-x="511" 
d="M379 74h65q14 0 10 -17l-10 -47q-2 -10 -13 -10h-74q-43 0 -61 18q-14 13 -14 38q0 15 5 35l23 105h-37q-37 0 -55 -14q-13 -10 -30 -43l-36 -77q-22 -47 -67 -65q-31 -13 -74 -13q-9 0 -11.5 2t-3.5 10l-7 55q-2 16 14 18l9 1q20 3 32 10q14 9 25 30l29 52q19 33 30 44
q19 19 43 24v3q-30 5 -52 27q-28 28 -28 73q0 80 71 124q50 30 144 30h148q7 0 9 -2t1 -11zM326 272l29 139h-57q-49 0 -75 -16q-34 -20 -34 -63q0 -29 20 -44q20 -16 63 -16h54z" />
    <glyph glyph-name="afii10071" unicode="&#x451;" horiz-adv-x="464" 
d="M442 372q0 -48 -26 -86t-69 -59q-42 -21 -101 -30.5t-113 -7.5q-11 -121 89 -121q55 0 120 39q18 11 24 0l23 -46q6 -12 -7 -21q-78 -55 -180 -55q-82 0 -125 47t-43 137q0 140 78 236.5t190 96.5q65 0 102.5 -34.5t37.5 -95.5zM348 367q0 28 -16 44t-45 16
q-52 0 -89 -42t-54 -119q204 0 204 101zM464 630q0 -26 -17 -43.5t-42 -17.5t-43 17.5t-18 42.5t17.5 42.5t42.5 17.5t42.5 -17t17.5 -42zM278 629q0 -25 -18 -42.5t-43 -17.5t-42.5 17.5t-17.5 42.5t17.5 42.5t42.5 17.5t43 -17.5t18 -42.5z" />
    <glyph glyph-name="afii10099" unicode="&#x452;" horiz-adv-x="454" 
d="M219 611h119q14 0 11 -15l-7 -31q-3 -11 -15 -11h-120l-20 -96q-3 -13 -13 -48l3 -1q28 36 54 55q51 39 110 39q44 0 72 -26q30 -28 30 -93q0 -101 -34.5 -214.5t-88.5 -201.5q-62 -101 -166 -190q-14 -11 -19 -13t-13 3l-31 26q-3 3 -4 6t1.5 6.5t5 6.5t7.5 7.5t7 7.5
l15 16q96 102 152 244q23 57 43 134.5t20 129.5q0 38 -15 53q-12 12 -33 12q-37 0 -73 -36q-54 -54 -81 -162l-45 -211q-2 -8 -10 -8h-76q-12 0 -9 11l116 543h-67q-12 0 -10 12l7 33q2 12 15 12h67l7 32h-68q-12 0 -10 11l12 50q3 11 9 12q2 1 6 1h150q11 0 9 -12z" />
    <glyph glyph-name="afii10100" unicode="&#x453;" horiz-adv-x="441" 
d="M339 97l11 -51q3 -12 -9 -19l-5 -3q-69 -40 -151 -40q-79 0 -121 40q-34 32 -34 83q0 59 40 99q30 30 107 63l37 16q44 19 66 36q27 21 27 50q0 22 -19 38q-17 14 -50 14t-67 -15l-10 -47q-1 -6 -2 -8.5t-4.5 -4t-9.5 -1.5h-54q-13 0 -10 12l20 90q2 11 14 19
q15 10 39 18q44 17 97 17q71 0 114 -36q41 -35 41 -91t-39 -93q-23 -22 -89 -54l-51 -24q-63 -30 -75 -42q-21 -20 -21 -47q0 -22 16 -36q17 -15 56 -15t103 29l11 5q20 8 22 -2zM391 643q2 -4 2 -7q0 -5 -11 -9l-180 -74q-8 -3 -12 -3t-8 6l-15 30q-3 4 -3 8q0 5 9 10
l167 102q8 5 12 5t9 -8z" />
    <glyph glyph-name="afii10101" unicode="&#x454;" horiz-adv-x="403" 
d="M375 345h-51q-13 0 -10 18l12 51q-19 11 -44 11q-43 0 -81 -34q-44 -41 -60 -105h142q8 0 10 -3t0 -12l-10 -48q-3 -13 -16 -13h-140q-4 -44 -4 -52q0 -49 24 -73q22 -22 58 -22q40 0 85 26l7 4q13 8 16 -1l21 -48q5 -12 -6 -19l-8 -5q-22 -13 -62 -24t-74 -11
q-71 0 -114 43q-47 48 -47 141q0 76 24.5 145t69.5 114q74 75 171 75q64 0 107 -27q16 -10 13 -27l-19 -93q-2 -11 -14 -11z" />
    <glyph glyph-name="afii10102" unicode="&#x455;" horiz-adv-x="399" 
d="M377 454l-20 -97q-2 -10 -14 -10h-54q-10 0 -11.5 2.5t0.5 10.5l13 59q-20 5 -38 5q-38 0 -60 -18t-22 -49q0 -20 11.5 -32.5t48.5 -33.5l39 -22q40 -23 55.5 -49t15.5 -66q0 -77 -50.5 -123t-135.5 -46q-81 0 -144 35q-9 5 -10.5 7.5t0.5 13.5l21 102q3 12 14 12h56
q12 0 9 -15l-14 -63q35 -14 71 -14q42 0 66 20t24 54q0 22 -11.5 36t-44.5 33l-47 26q-38 21 -53 46t-15 62q0 73 49 117.5t129 44.5q69 0 111 -26q9 -6 11 -9.5t0 -12.5z" />
    <glyph glyph-name="afii10103" unicode="&#x456;" horiz-adv-x="278" 
d="M292 650q0 -28 -21 -49t-49 -21t-48 20.5t-20 49.5q0 28 20 48.5t49 20.5t49 -20.5t20 -48.5zM238 473l-85 -399h65q9 0 10.5 -4t-0.5 -11l-10 -48q-2 -11 -14 -11h-78q-71 0 -71 53q0 13 4 34l70 326h-79q-9 0 -11 2.5t0 8.5l12 52q3 11 13 11h164q14 0 10 -14z" />
    <glyph glyph-name="afii10104" unicode="&#x457;" horiz-adv-x="278" 
d="M238 473l-85 -399h65q9 0 10.5 -4t-0.5 -11l-10 -48q-2 -11 -14 -11h-78q-71 0 -71 53q0 13 4 34l70 326h-79q-9 0 -11 2.5t0 8.5l12 52q3 11 13 11h164q14 0 10 -14zM312 630q0 -25 -15.5 -43t-37.5 -18q-23 0 -39 17.5t-16 42.5t16 42.5t38 17.5t38 -17t16 -42z
M162 629q0 -25 -16 -42.5t-39 -17.5q-22 0 -38 17.5t-16 42.5t16 42.5t38 17.5q23 0 39 -17.5t16 -42.5z" />
    <glyph glyph-name="afii10105" unicode="&#x458;" horiz-adv-x="278" 
d="M300 650q0 -29 -20 -49.5t-49 -20.5t-49 20.5t-20 49.5q0 28 20 48.5t49 20.5t49 -20.5t20 -48.5zM252 473l-101 -474q-9 -43 -15 -66.5t-22.5 -58t-39.5 -55.5q-45 -42 -116 -42q-45 0 -93 23q-12 6 -7 19l21 56q5 12 28 1q28 -15 56 -15q37 0 56 30t38 117l86 405h-79
q-8 0 -10 2.5t0 9.5l11 51q2 11 13 11h164q13 0 10 -14z" />
    <glyph glyph-name="afii10106" unicode="&#x459;" horiz-adv-x="713" 
d="M141 487h337q14 0 9 -22l-36 -162q34 10 75 10q71 0 112 -41q38 -38 38 -94q0 -81 -55 -138q-56 -56 -150 -56q-38 0 -85.5 10t-72.5 28q-17 12 -13 28l77 355h-96l-40 -145q-45 -161 -105 -220q-58 -56 -132 -56q-10 0 -13.5 2.5t-4.5 11.5l-6 55q-2 17 19 20l8 1
q42 5 70 33q31 31 59 107q22 62 39 128l18 71h-67q-14 0 -10 15l11 47q1 6 2 8t3.5 3t8.5 1zM435 229l-35 -156l13 -4q24 -8 57 -8q49 0 77 28q31 33 31 78q0 34 -23 53q-22 18 -62 18q-32 0 -58 -9z" />
    <glyph glyph-name="afii10107" unicode="&#x45a;" horiz-adv-x="723" 
d="M414 487h74q14 0 9 -22l-36 -162q34 10 75 10q71 0 112 -41q38 -38 38 -94q0 -81 -55 -138q-56 -56 -150 -56q-38 0 -85.5 10t-72.5 28q-17 12 -13 28l35 162h-165l-44 -204q-2 -8 -12 -8h-74q-13 0 -11 11l89 402h-74q-13 0 -9 15l11 48q2 11 14 11h156q14 0 10 -16
l-39 -178h166l37 182q1 6 2 8t3.5 3t8.5 1zM445 229l-35 -156l13 -4q24 -8 57 -8q49 0 77 28q31 33 31 78q0 34 -23 53q-22 18 -62 18q-32 0 -58 -9z" />
    <glyph glyph-name="afii10108" unicode="&#x45b;" horiz-adv-x="443" 
d="M423 330l-57 -256h66q12 0 10 -10l-10 -55q-1 -9 -12 -9h-81q-41 0 -58 18q-12 14 -12 34q0 15 5 35l52 238q6 26 6 53q0 18 -9 27q-12 13 -36 13q-41 0 -79 -38q-57 -57 -78 -161l-45 -211q-2 -8 -10 -8h-76q-12 0 -9 11l116 543h-67q-12 0 -10 12l7 33q2 12 15 12h67
l7 32h-68q-12 0 -10 11l12 50q3 11 9 12q2 1 6 1h150q11 0 9 -12l-20 -94h119q14 0 11 -15l-7 -31q-3 -11 -15 -11h-120l-20 -96q-4 -17 -14 -50q27 34 59 58q49 36 111 36q48 0 74 -26q23 -25 23 -68q0 -32 -11 -78z" />
    <glyph glyph-name="afii10109" unicode="&#x45c;" horiz-adv-x="524" 
d="M126 413h-74q-14 0 -9 18l9 44q2 8 4 10t11 2h157q14 0 10 -18l-38 -175h35q32 0 52 14q21 16 33 46l20 46q27 63 75 87q33 16 71 16q14 0 15 -9l5 -59q2 -14 -14 -15l-9 -1q-20 -2 -36 -16q-9 -9 -25 -39l-21 -43q-13 -28 -29 -44q-20 -20 -45 -25v-3q21 -9 33 -27
t16 -51l6 -49q4 -28 10 -37q8 -10 29 -14l12 -2q15 -2 7 -18l-24 -55q-5 -12 -22 -12q-34 0 -61 13q-38 19 -42 75l-7 82q-2 33 -15 46t-47 13h-40l-44 -202q-3 -11 -13 -11h-73q-11 0 -9 16zM441 643q2 -4 2 -7q0 -5 -11 -9l-180 -74q-8 -3 -12 -3t-8 6l-15 30q-3 4 -3 8
q0 5 9 10l167 102q8 5 12 5t9 -8z" />
    <glyph glyph-name="afii10110" unicode="&#x45e;" horiz-adv-x="454" 
d="M465 461l-189 -402q-66 -143 -105 -197q-56 -77 -146 -77q-54 0 -102 28q-15 9 -8 22l31 51q6 9 16 4q46 -23 69 -23q57 0 95 71l33 62h-37q-13 0 -14 11l-53 402h-61q-8 0 -10 2.5t-1 9.5l11 51q2 11 13 11h127q12 0 13 -12l26 -246q14 -117 15 -170q12 26 36 82.5
t35 82.5l115 264q3 6 6 7t11 -1l69 -16q12 -3 5 -17zM321 679l3 6q4 10 19 8l50 -7q13 -2 9 -19q-10 -39 -39 -68q-42 -42 -118 -42q-55 0 -86 31q-29 30 -29 81q0 6 1 9.5t4 5.5t4.5 2t5.5 1l50 6q14 2 14 -13v-4q0 -28 10 -40q11 -13 33 -13q30 0 46 18q6 6 23 38z" />
    <glyph glyph-name="afii10193" unicode="&#x45f;" horiz-adv-x="533" 
d="M162 -175l42 107q2 6 13 15l53 37q7 5 12 1.5t3 -12.5l-32 -143q-2 -10 -12 -11l-68 -7q-8 -1 -11 3.5t0 9.5zM496 485l-74 -334q-8 -38 -8 -51q0 -15 7 -26h56q9 0 10.5 -3.5t-0.5 -9.5l-10 -50q-3 -11 -12 -11h-68q-39 0 -56 17q-19 19 -14 70q-30 -40 -65 -66
q-48 -36 -108 -36q-46 0 -73 28q-26 27 -26 72q0 27 9 72l56 256h-73q-6 0 -7 1.5t0 7.5l12 57q2 8 12 8h156q12 0 9 -12l-64 -294q-9 -43 -9 -61q0 -25 14 -37q12 -10 30 -10q59 0 106 69q29 43 44 111l46 214q2 9 9 11l79 19q6 2 10 -1t2 -11z" />
    <glyph glyph-name="afii10050" unicode="&#x490;" horiz-adv-x="473" 
d="M281 599l-110 -522h70q14 0 11 -13l-11 -52q-3 -12 -15 -12h-234q-14 0 -10 14l12 51q3 12 13 12h61l112 532h-59q-15 0 -10 17l12 49q7 10 13 11h323l21 103q3 12 16 12h54q10 0 12 -3.5t0 -12.5l-35 -174q-3 -12 -15 -12h-231z" />
    <glyph glyph-name="afii10098" unicode="&#x491;" horiz-adv-x="400" 
d="M218 407l-84 -397q-2 -10 -12 -10h-74q-12 0 -9 16l83 391h-68q-13 0 -10 13l11 56q3 11 14 11h238l28 132q1 5 3.5 8t4.5 4t9 3l58 16q8 2 12 1t4 -4.5t-1 -8.5l-46 -219q-9 -11 -14 -12h-147z" />
    <glyph glyph-name="endash" unicode="&#x2013;" horiz-adv-x="529" 
d="M496 277l-11 -51q-2 -13 -16 -13h-419q-10 0 -12.5 2.5t-0.5 10.5l12 56q2 13 16 13h419q15 0 12 -18z" />
    <glyph glyph-name="emdash" unicode="&#x2014;" horiz-adv-x="819" 
d="M786 277l-11 -51q-2 -13 -16 -13h-709q-10 0 -12.5 2.5t-0.5 10.5l12 56q2 13 16 13h709q15 0 12 -18z" />
    <glyph glyph-name="quoteleft" unicode="&#x2018;" horiz-adv-x="306" 
d="M338 680l-93 -202q-4 -8 -6 -9.5t-10 -1.5h-98q-21 0 -8 20l160 226q8 11 18 5l32 -18q6 -3 7.5 -6t1 -5t-3.5 -9z" />
    <glyph glyph-name="quoteright" unicode="&#x2019;" horiz-adv-x="306" 
d="M337 695l-160 -226q-8 -12 -19 -5l-31 17q-12 6 -6 18l93 206q4 10 17 10h96q23 0 10 -20z" />
    <glyph glyph-name="quotedblleft" unicode="&#x201c;" horiz-adv-x="482" 
d="M514 680l-93 -202q-4 -11 -16 -11h-98q-9 0 -12.5 5t2.5 13l162 228q8 11 22 3l30 -17q9 -5 3 -19zM338 680l-93 -202q-4 -8 -6 -9.5t-10 -1.5h-98q-21 0 -8 20l160 226q8 11 18 5l32 -18q6 -3 7.5 -6t1 -5t-3.5 -9z" />
    <glyph glyph-name="quotedblright" unicode="&#x201d;" horiz-adv-x="482" 
d="M513 696l-160 -227q-8 -11 -18 -5l-32 17q-9 4 -9.5 7.5t3.5 12.5l93 204q4 10 17 10h96q24 0 10 -19zM337 695l-160 -226q-8 -12 -19 -5l-31 17q-12 6 -6 18l93 206q4 10 17 10h96q23 0 10 -20z" />
    <glyph glyph-name="quotedblbase" unicode="&#x201e;" horiz-adv-x="482" 
d="M386 100l-160 -227q-8 -11 -18 -5l-32 18q-8 4 -8.5 7.5t3.5 12.5l93 203q4 10 17 10h95q24 0 10 -19zM210 100l-160 -227q-5 -7 -8.5 -8t-10.5 4l-31 17q-12 6 -6 18l94 205q4 10 17 10h95q23 0 10 -19z" />
    <glyph glyph-name="dagger" unicode="&#x2020;" 
d="M484 452l-11 -54q-2 -13 -17 -13h-119l-123 -580q-2 -13 -16 -13h-71q-12 0 -9 14l123 579h-119q-13 0 -9 17l11 53q2 13 16 13h119l44 205q2 13 16 13h66q11 0 13 -2.5t0 -12.5l-43 -203h116q11 0 13.5 -4.5t-0.5 -11.5z" />
    <glyph glyph-name="bullet" unicode="&#x2022;" horiz-adv-x="696" 
d="M509 350q0 -59 -42 -101.5t-100 -42.5t-99.5 42.5t-41.5 101.5t41.5 101.5t100.5 42.5q58 0 99.5 -42.5t41.5 -101.5z" />
    <glyph glyph-name="ellipsis" unicode="&#x2026;" horiz-adv-x="899" 
d="M784 66q0 -33 -23.5 -56t-55.5 -23q-33 0 -56.5 23t-23.5 56t23.5 56t56.5 23q32 0 55.5 -23t23.5 -56zM487 66q0 -33 -23 -56t-55 -23q-33 0 -56 23t-23 56t23 56t56 23q32 0 55 -23t23 -56zM191 66q0 -33 -23.5 -56t-55.5 -23q-33 0 -56 23t-23 56t23 56t56 23
q32 0 55.5 -23t23.5 -56z" />
    <glyph glyph-name="Euro" unicode="&#x20ac;" horiz-adv-x="496" 
d="M205 411h196q13 0 7 -13l-9 -19q-5 -9 -13 -9h-191l-10 -52h171q13 0 8 -12l-10 -21q-4 -9 -17 -9h-157q-5 -33 -5 -64q0 -82 30 -116q25 -27 71 -27q39 0 75 26l18 85q8 12 14 13h57q11 0 12.5 -7.5t-2.5 -16.5l-24 -115q-2 -11 -21 -24q-69 -45 -149 -45q-86 0 -134 51
q-67 70 -53 240h-60q-11 0 -9 11l4 21q2 10 11 10h58l10 52h-58q-9 0 -8 10l4 22q1 9 12 9h60q34 129 111 209q79 81 186 81q59 0 112 -26q21 -10 30.5 -20.5t9 -17t-1.5 -13.5l-24 -113q-4 -13 -15 -13h-57q-15 0 -10 20l18 81q-26 18 -66 18q-78 0 -129 -81
q-32 -51 -52 -125z" />
    <glyph glyph-name="afii61352" unicode="&#x2116;" horiz-adv-x="905" 
d="M780 371q-40 0 -71.5 24t-31.5 86q0 83 46.5 149t126.5 66q46 0 75.5 -27t29.5 -81q0 -95 -51 -156t-124 -61zM793 433q36 0 61.5 44t25.5 103q0 54 -41 54q-35 0 -61.5 -45.5t-26.5 -102.5q0 -53 42 -53zM625 247l8 36q3 17 20 17h228q10 0 12.5 -5t-0.5 -12l-7 -36
q-3 -17 -20 -17h-228q-16 0 -13 17zM685 673l-10 -52q-2 -12 -16 -12h-59l-127 -596q-2 -9 -5 -11t-11 -2h-59q-9 0 -11.5 2t-4.5 11l-115 435q-11 42 -18 94q-5 -45 -16 -102l-77 -363h57q15 0 11 -16l-11 -49q-2 -12 -15 -12h-207q-14 0 -12 12l11 53q2 12 16 12h59
l113 532h-60q-12 0 -9 15l11 50q2 8 4 10t11 2h139q6 0 8.5 -0.5t5 -3.5t3.5 -9l104 -394q18 -68 26 -111l4 34q6 43 11 69l72 338h-57q-13 0 -10 14l10 50q3 13 15 13h209q9 0 10.5 -2.5t-0.5 -10.5z" />
    <glyph glyph-name="trademark" unicode="&#x2122;" horiz-adv-x="771" 
d="M755 657l-5 -30q-1 -8 -11 -8h-33l-47 -295h29q13 0 10 -12l-6 -28q-2 -8 -11 -8h-122q-12 0 -9 11l6 28q1 9 11 9h32l33 176q3 17 14 65q-3 -6 -5.5 -11.5t-5.5 -11.5t-5 -9l-91 -162l-1 -3q-2 -5 -9 -5h-23q-3 0 -5 0.5t-3 2t-1.5 3t-0.5 5.5l-17 157q-1 6 -2 18.5
t-1 18.5q-2 -16 -8 -38l-49 -206h30q11 0 9 -11l-6 -30q-1 -7 -11 -7h-120q-13 0 -10 10l7 29q1 9 11 9h31l80 295h-30q-11 0 -9 13l6 27q1 9 11 9h87q9 0 11 -11l16 -147q3 -29 3 -58q8 21 18 38l95 171q4 7 11 7h87q11 0 9 -11zM351 656l-21 -99q-1 -8 -12 -8h-30
q-11 0 -9 13l12 53h-44l-63 -291h37q10 0 8 -11l-6 -29q-1 -8 -11 -8h-137q-11 0 -9 11l6 28q1 9 12 9h36l63 291h-44l-12 -58q-1 -8 -11 -8h-32q-9 0 -7 11l20 98q3 10 12 10h232q13 0 10 -12z" />
    <glyph glyph-name="radical" unicode="&#x221a;" horiz-adv-x="510" 
d="M108 419h-54q-8 0 -11 3t-3 11v40q0 8 3 11t11 3h108q10 0 12 -8l102 -376h3l157 592q2 8 9 8h46q11 0 9 -11l-195 -737q-1 -9 -12 -9h-49q-9 0 -11 10z" />
    <glyph glyph-name="infinity" unicode="&#x221e;" horiz-adv-x="840" 
d="M420 339l16 16q44 44 72 63q52 35 113 35q72 0 119 -45q45 -44 45 -117q0 -74 -46 -118q-44 -44 -117 -44q-59 0 -113 36q-29 19 -73 63l-16 16l-16 -16q-44 -44 -73 -63q-54 -36 -113 -36q-73 0 -117 44q-46 44 -46 118q0 73 45 117q47 45 119 45q61 0 113 -35
q28 -19 72 -63zM465 291l27 -25q34 -32 59 -45q31 -17 68 -17q42 0 70 28q24 24 24 60q0 34 -23 59q-26 28 -71 28q-36 0 -71 -20q-35 -21 -56 -42zM376 291l-27 26q-21 21 -56 42q-35 20 -71 20q-45 0 -71 -28q-23 -25 -23 -59q0 -36 24 -60q28 -28 70 -28q37 0 68 17
q25 13 59 45z" />
    <glyph glyph-name="approxequal" unicode="&#x2248;" horiz-adv-x="573" 
d="M526 448q-54 -108 -146 -108q-34 0 -93 24l-54 22q-33 14 -55 14q-24 0 -41 -12.5t-35 -42.5q-6 -10 -10 -10.5t-13 5.5l-29 19q-9 6 -9.5 9.5t4.5 13.5q30 63 61 88.5t79 25.5q35 0 112 -32q48 -20 62 -24.5t32 -4.5q49 0 77 48q6 10 9.5 11t12.5 -4l32 -19
q9 -6 9.5 -10t-5.5 -13zM526 273q-54 -108 -146 -108q-34 0 -93 24l-54 22q-33 14 -55 14q-24 0 -41 -12.5t-35 -42.5q-6 -10 -10 -10.5t-13 5.5l-29 19q-9 6 -9.5 9.5t4.5 13.5q30 63 61 88.5t79 25.5q35 0 112 -32q48 -20 62 -24.5t32 -4.5q49 0 77 48q6 10 9.5 11
t12.5 -4l32 -19q9 -6 9.5 -10t-5.5 -13z" />
    <glyph glyph-name="notequal" unicode="&#x2260;" horiz-adv-x="530" 
d="M492 449v-64q0 -11 -11 -11h-154l-40 -62h196q9 0 9 -10v-66q0 -10 -9 -10h-250l-61 -96q-6 -8 -14 -2l-44 28q-5 4 -1 13l37 57h-101q-11 0 -11 11v63q0 12 11 12h155l40 62h-196q-10 0 -10 11v63q0 12 11 12h249l61 96q6 8 12 4l45 -29q8 -5 1 -14l-36 -57h100
q11 0 11 -11z" />
    <glyph glyph-name="lessequal" unicode="&#x2264;" horiz-adv-x="522" 
d="M38 364v61q0 13 13 20l421 204l6 2q6 0 6 -6v-80q0 -8 -12 -14l-328 -155l330 -154q10 -6 10 -12v-80q0 -7 -7 -7q-3 0 -5 1l-426 206q-8 5 -8 14zM38 215v67q0 12 11 12q2 0 6 -2l424 -205q5 -3 5 -9v-69q0 -11 -11 -11q-1 0 -7 2l-417 201q-11 5 -11 14z" />
    <glyph glyph-name="greaterequal" unicode="&#x2265;" horiz-adv-x="522" 
d="M484 425v-61q0 -9 -8 -14l-426 -206q-2 -1 -5 -1q-7 0 -7 7v80q0 6 10 12l330 154l-328 155q-12 6 -12 14v80q0 6 6 6l6 -2l421 -204q13 -7 13 -20zM484 282v-67q0 -9 -11 -14l-417 -201q-6 -2 -7 -2q-11 0 -11 11v69q0 6 5 9l424 205q4 2 6 2q11 0 11 -12z" />
    <glyph glyph-name="Acute" unicode="&#xf6c9;" horiz-adv-x="510" 
d="M481 831q2 -4 2 -7q0 -5 -11 -9l-180 -74q-8 -3 -12 -3t-8 6l-15 30q-3 4 -3 8q0 5 9 10l167 102q8 5 12 5t9 -8z" />
    <glyph glyph-name="Dieresis" unicode="&#xf6cb;" horiz-adv-x="510" 
d="M487 798q0 -26 -17 -43.5t-42 -17.5t-43 17.5t-18 42.5t17.5 42.5t42.5 17.5t42.5 -17t17.5 -42zM301 797q0 -25 -18 -42.5t-43 -17.5t-42.5 17.5t-17.5 42.5t17.5 42.5t42.5 17.5t43 -17.5t18 -42.5z" />
    <glyph glyph-name="cyrBreve" unicode="&#xf6d1;" horiz-adv-x="213" 
d="M203 861l57 -8q13 -3 11 -12l-1 -4q-10 -40 -39 -69q-44 -47 -120 -47q-65 0 -98 33q-31 29 -31 82v6q0 9 12 11l54 8q17 3 17 -11v-4q0 -29 9 -41q13 -16 39 -16q30 0 50 20q12 12 21 36l2 6q3 12 17 10z" />
    <glyph glyph-name="cyrbreve" unicode="&#xf6d4;" horiz-adv-x="350" 
d="M231 679l3 6q4 10 19 8l50 -7q13 -2 9 -19q-10 -39 -39 -68q-42 -42 -118 -42q-55 0 -86 31q-29 30 -29 81q0 6 1 9.5t4 5.5t4.5 2t5.5 1l50 6q14 2 14 -13v-4q0 -28 10 -40q11 -13 33 -13q30 0 46 18q6 6 23 38z" />
    <glyph glyph-name="nbspace" horiz-adv-x="233" 
 />
    </font>
</defs>
</svg>
