<?xml version="1.0" standalone="no"?>
<!DOCTYPE svg PUBLIC "-//W3C//DTD SVG 1.1//EN" "http://www.w3.org/Graphics/SVG/1.1/DTD/svg11.dtd" >
<svg xmlns="http://www.w3.org/2000/svg" xmlns:xlink="http://www.w3.org/1999/xlink" version="1.1">
<metadata>
Created by FontForge 20161003 at Sun Mar 19 19:33:46 2017
 By www-data
Copyright (c) 1990-2002 ParaType, Inc. All Rights Reserved. ITC Officina is a registered trade mark of International Typeface Corporation.
</metadata>
<defs>
<font id="OfficinaSansExtraBoldItalic" horiz-adv-x="539" >
  <font-face 
    font-family="OfficinaSansExtraBoldItalic"
    font-weight="800"
    font-style="italic"
    font-stretch="normal"
    units-per-em="1000"
    panose-1="0 0 9 0 0 0 0 0 0 0"
    ascent="742"
    descent="-258"
    x-height="494"
    cap-height="686"
    bbox="-147 -258 999 931"
    underline-thickness="50"
    underline-position="-150"
    slope="-12"
    unicode-range="U+0020-F6D4"
  />
<missing-glyph horiz-adv-x="233" 
 />
    <glyph glyph-name=".notdef" horiz-adv-x="233" 
 />
    <glyph glyph-name=".null" horiz-adv-x="0" 
 />
    <glyph glyph-name="nonmarkingreturn" horiz-adv-x="333" 
 />
    <glyph glyph-name="space" unicode=" " horiz-adv-x="233" 
 />
    <glyph glyph-name="space" unicode="&#xa0;" horiz-adv-x="233" 
 />
    <glyph glyph-name="exclam" unicode="!" horiz-adv-x="366" 
d="M359 664l-110 -408q-2 -9 -5 -11.5t-13 -2.5h-90q-16 0 -16 12q0 8 1 12l62 402q2 12 5 15t13 3h138q18 0 18 -10q0 -2 -1.5 -6t-1.5 -6zM255 73q0 -40 -28.5 -68.5t-68.5 -28.5t-68.5 28.5t-28.5 68.5q0 41 28.5 69t68.5 28t68.5 -28.5t28.5 -68.5z" />
    <glyph glyph-name="quotedbl" unicode="&#x22;" horiz-adv-x="487" 
d="M491 658l-71 -230q-5 -16 -21 -16h-67q-17 0 -17 15q0 5 2 15l28 227q3 17 22 17h111q16 0 16 -12q0 -7 -3 -16zM296 658l-71 -230q-5 -16 -21 -16h-67q-17 0 -17 15q0 5 2 15l28 227q3 17 22 17h111q16 0 16 -12q0 -7 -3 -16z" />
    <glyph glyph-name="numbersign" unicode="#" horiz-adv-x="595" 
d="M616 486l-16 -75q-3 -17 -18 -17h-77l-42 -142h66q16 0 16 -10q0 -3 -2 -13l-17 -76q-5 -17 -18 -17h-80l-50 -171q-5 -17 -18 -17h-89q-19 0 -19 14q0 7 3 16l45 158h-82l-49 -171q-5 -17 -19 -17h-90q-19 0 -19 14q0 7 3 16l46 158h-59q-16 0 -16 10q0 4 2 14l16 74
q3 18 19 18h73l42 142h-63q-15 0 -15 9q0 2 2 14l16 76q4 17 19 17h76l46 160q4 16 18 16h90q19 0 19 -14v-1l-3 -15l-42 -146h82l46 160q4 16 19 16h89q18 0 18 -13q0 -8 -3 -17l-41 -146h63q15 0 15 -9q0 -3 -2 -15zM377 394h-82l-42 -142h82z" />
    <glyph glyph-name="dollar" unicode="$" horiz-adv-x="522" 
d="M530 618l-43 -80q-4 -8 -14 -8q-13 0 -37 13q-55 29 -102 29q-43 0 -68 -21t-25 -55q0 -30 37 -57q15 -11 81 -52q56 -34 83.5 -72t27.5 -92q0 -91 -57.5 -153.5t-153.5 -78.5l-9 -46q-4 -20 -21 -20h-61q-8 0 -14 5t-6 12l9 47q-46 5 -106.5 24t-60.5 38q0 6 4 13l49 90
q7 12 15 12q2 0 8 -2q1 0 18 -8.5t34.5 -16t43.5 -14t47 -6.5q47 0 73 21t26 57q0 39 -48 70l-64 42q-65 42 -89 75.5t-24 91.5q0 94 59 152t164 69l4 23q4 20 21 20h61q8 0 14 -5t6 -12l-5 -28q45 -7 87.5 -25t42.5 -34q0 -4 -7 -18z" />
    <glyph glyph-name="percent" unicode="%" horiz-adv-x="841" 
d="M797 223q0 -94 -53 -166t-143 -72q-59 0 -93.5 35t-34.5 95q0 95 53 167t145 72q58 0 92 -36t34 -95zM690 647l-424 -672q-10 -15 -23 -15h-77q-15 0 -15 11q0 9 7 20l424 672q10 15 23 15h77q16 0 16 -11q0 -8 -8 -20zM387 531q0 -94 -53 -166t-143 -72q-59 0 -93.5 35
t-34.5 95q0 95 53.5 167.5t145.5 72.5q58 0 91.5 -36t33.5 -96zM690 225q0 37 -32 37q-27 0 -45.5 -30t-25 -62.5t-6.5 -57.5q0 -35 31 -35q38 0 58 52t20 96zM280 534q0 37 -32 37q-21 0 -37 -17t-24 -42.5t-12 -48.5t-4 -41q0 -37 31 -37q27 0 45.5 30t25.5 62t7 57z" />
    <glyph glyph-name="ampersand" unicode="&#x26;" horiz-adv-x="651" 
d="M624 330q-4 -42 -31 -95.5t-58 -94.5l63 -87q8 -10 8 -18t-8 -11l-91 -41q-8 -4 -17 -4q-11 0 -17 9l-38 56q-90 -70 -204 -70q-96 0 -149.5 44t-53.5 125q0 150 181 231q-32 49 -45 82t-13 69q0 83 62.5 132.5t164.5 49.5q80 0 127 -37.5t47 -105.5q0 -62 -39 -113
t-124 -101l66 -98q26 46 37 91q5 22 18 22q2 0 16 -2l85 -13q13 -2 13 -14v-6zM413 550q0 46 -45 46q-32 0 -53 -20t-21 -49q0 -31 37 -93q82 51 82 116zM365 142l-93 143q-49 -27 -69.5 -52.5t-20.5 -58.5q0 -38 19.5 -59t52.5 -21q57 0 111 48z" />
    <glyph glyph-name="quotesingle" unicode="'" horiz-adv-x="312" 
d="M311 658l-71 -230q-4 -16 -22 -16h-67q-17 0 -17 12q0 6 1 10l30 235q3 17 21 17h112q16 0 16 -13q0 -7 -3 -15z" />
    <glyph glyph-name="parenleft" unicode="(" horiz-adv-x="466" 
d="M514 669q-64 -70 -106.5 -126t-81.5 -125.5t-58 -146.5t-19 -163q0 -148 77 -291q9 -16 9 -27q0 -9 -8 -13l-65 -30q-8 -4 -19 -4q-13 0 -21.5 9t-27.5 45q-99 177 -99 329q0 317 317 606q21 19 34 19q8 0 13 -4l55 -38q13 -9 13 -18t-13 -22z" />
    <glyph glyph-name="parenright" unicode=")" horiz-adv-x="473" 
d="M375 367q0 -160 -68 -296t-208 -270q-15 -21 -39 -40t-37 -19q-8 0 -13 4l-55 38q-11 8 -11 18t11 21q130 141 197.5 270t67.5 293q0 141 -77 290q-9 16 -9 26t9 14l64 30q14 6 20 6q10 0 20 -10.5t29 -45.5q51 -92 75 -168.5t24 -160.5z" />
    <glyph glyph-name="asterisk" unicode="*" horiz-adv-x="530" 
d="M504 512q0 -2 1.5 -8.5t1.5 -10.5q0 -12 -16 -13l-130 -3l83 -98q6 -7 6 -14q0 -8 -7 -12l-77 -43q-4 -3 -9 -3q-11 0 -15 12l-45 124l-66 -112q-5 -9 -13 -9q-7 0 -18 9l-55 49q-8 6 -8 16q0 8 8 15l99 80l-122 29q-17 4 -17 14q0 4 4 14l35 75q4 10 12 10q6 0 20 -10
l100 -67l-10 129q0 18 17 18l89 -10q16 -3 16 -12q0 -1 -5 -18l-36 -116l119 46q10 4 14 4q8 0 11 -14z" />
    <glyph glyph-name="plus" unicode="+" horiz-adv-x="505" 
d="M489 229q0 -14 -3.5 -17t-17.5 -3h-131v-131q0 -14 -3 -17t-17 -3h-113q-14 0 -17.5 3t-3.5 17v131h-131q-14 0 -17 3t-3 17v99q0 13 3 17t17 4h131v130q0 13 3.5 17t17.5 4h113q14 0 17 -3.5t3 -17.5v-130h131q14 0 17.5 -4t3.5 -17v-99z" />
    <glyph glyph-name="comma" unicode="," horiz-adv-x="322" 
d="M253 103l-172 -237q-7 -10 -14 -10q-3 0 -11 3l-68 25q-12 4 -12 11q0 1 4 11l105 208q5 11 20 11h136q16 0 16 -11q0 -6 -4 -11z" />
    <glyph glyph-name="hyphen" unicode="-" horiz-adv-x="370" 
d="M351 308l-25 -111q-4 -15 -15 -15h-270q-12 0 -12 12l25 114q4 15 15 15h270q12 0 12 -12v-3z" />
    <glyph glyph-name="hyphen" unicode="&#xad;" horiz-adv-x="370" 
d="M351 308l-25 -111q-4 -15 -15 -15h-270q-12 0 -12 12l25 114q4 15 15 15h270q12 0 12 -12v-3z" />
    <glyph glyph-name="period" unicode="." horiz-adv-x="320" 
d="M241 88q0 -44 -32 -76t-76 -32t-75.5 32t-31.5 76q0 45 31.5 76t76.5 31q44 0 75.5 -31.5t31.5 -75.5z" />
    <glyph glyph-name="slash" unicode="/" horiz-adv-x="516" 
d="M14 -117l304 843q5 15 22 15h97q19 0 19 -13q0 -5 -4 -17l-304 -843q-5 -15 -23 -15h-98q-18 0 -18 11q0 7 5 19z" />
    <glyph glyph-name="zero" unicode="0" horiz-adv-x="541" 
d="M561 497q0 -97 -23 -188t-65 -164t-108 -117.5t-145 -44.5q-93 0 -143 52.5t-50 142.5q0 129 39.5 243.5t119 189.5t182.5 75q90 0 141.5 -50.5t51.5 -138.5zM406 480q0 77 -56 77q-37 0 -70.5 -41t-54 -100t-32 -120.5t-11.5 -107.5q0 -76 55 -76q37 0 70 40.5t54 99
t33 120t12 108.5z" />
    <glyph glyph-name="one" unicode="1" horiz-adv-x="545" 
d="M465 639l-113 -528h71q17 0 17 -13q0 -6 -1 -9l-15 -71q-4 -18 -19 -18h-314q-14 0 -14 10q0 3 2 13l14 71q3 17 19 17h98l84 391l-92 -47q-12 -7 -17 -7q-6 0 -12 13l-26 57q-5 12 -5 16q0 7 10 13l193 114q13 8 30 8h74q18 0 18 -14q0 -6 -2 -16z" />
    <glyph glyph-name="two" unicode="2" horiz-adv-x="541" 
d="M541 528q0 -89 -57 -155q-25 -29 -95 -78.5t-127 -94t-65 -71.5h237q19 0 19 -11q0 -2 -2 -12l-18 -88q-3 -18 -20 -18h-374q-9 0 -13 3t-5 7t-1 11q0 32 27 101q26 62 74 112t129 104q88 58 116 88.5t28 83.5q0 52 -49 52q-33 0 -59 -22.5t-54 -62.5q-12 -18 -20 -18
q-4 0 -16 5l-73 32q-7 4 -7 10q0 5 2 11q22 76 95.5 122.5t154.5 46.5q79 0 126 -42.5t47 -115.5z" />
    <glyph glyph-name="three" unicode="3" horiz-adv-x="544" 
d="M513 538q0 -60 -31.5 -109.5t-83.5 -70.5q73 -42 73 -128q0 -111 -75 -179t-197 -68q-51 0 -120 19.5t-69 43.5q0 6 6 17l36 74q6 11 14 11q3 0 17 -6q62 -36 123 -36q56 0 88.5 32.5t32.5 85.5q0 34 -22 50.5t-74 16.5h-43q-19 0 -19 12q0 3 2 11l17 79q3 17 19 17h44
q57 0 88 28t31 78q0 48 -52 48q-43 0 -103 -53q-11 -9 -17 -9t-11 5l-57 48q-9 7 -9 16q0 10 13 23q83 92 204 92q79 0 127 -40t48 -108z" />
    <glyph glyph-name="four" unicode="4" horiz-adv-x="545" 
d="M517 240l-16 -78q-3 -18 -19 -18h-61l-27 -127q-3 -17 -20 -17h-102q-17 0 -17 11q0 3 2 13l25 120h-245q-19 0 -19 13q0 3 2 13l22 106q3 15 11 26l288 396q6 9 16 9q3 0 21 -5l90 -28q13 -4 13 -13q0 -5 -8 -17l-293 -381h129l54 151q6 17 19 17h78q19 0 19 -12
q0 -1 -2 -11l-30 -145h56q15 0 15 -12q0 -7 -1 -11z" />
    <glyph glyph-name="five" unicode="5" horiz-adv-x="545" 
d="M540 649l-25 -95q-3 -13 -17 -13h-210l-40 -128q38 21 86 21q71 0 120 -45t49 -115q0 -121 -87 -206t-220 -85q-59 0 -122.5 16t-63.5 36q0 6 5 18l34 82q4 8 11 8q2 0 20 -6q67 -30 121 -30q71 0 114.5 41t43.5 110q0 65 -66 65q-58 0 -103 -42q-14 -12 -22 -12
q-5 0 -8 1l-75 26q-8 3 -8 11q0 5 4 17l101 328q6 17 19 17h325q15 0 15 -12q0 -5 -1 -8z" />
    <glyph glyph-name="six" unicode="6" horiz-adv-x="541" 
d="M539 628l-41 -76q-4 -8 -12 -8q-7 0 -32.5 9.5t-43.5 9.5q-103 0 -171 -130q48 36 100 36q72 0 112.5 -44.5t40.5 -123.5q0 -132 -74 -225t-197 -93q-86 0 -134 51t-48 142q0 121 46 236.5t135.5 194.5t199.5 79q41 0 83 -12.5t42 -29.5q0 -4 -6 -16zM347 286
q0 68 -55 68q-45 0 -76 -50t-31 -131q0 -66 53 -66q45 0 77 50.5t32 128.5z" />
    <glyph glyph-name="seven" unicode="7" horiz-adv-x="550" 
d="M553 647l-15 -61l-342 -590q-6 -10 -16 -10l-129 22q-8 1 -8 8t5 15l315 506h-244q-13 0 -13 13q0 5 1 8l23 100q3 11 16 11h394q15 0 15 -12q0 -2 -2 -10z" />
    <glyph glyph-name="eight" unicode="8" horiz-adv-x="541" 
d="M539 529q0 -55 -34 -101.5t-98 -75.5q87 -51 87 -143q0 -95 -72 -161q-72 -65 -204 -65q-99 0 -155 41t-56 119q0 71 43.5 125t122.5 86q-72 49 -72 129q0 91 66 147t172 56q87 0 143.5 -43.5t56.5 -113.5zM390 512q0 27 -15.5 42t-44.5 15q-39 0 -61 -22.5t-22 -58.5
q0 -49 55 -80q88 34 88 104zM345 200q0 33 -17 54.5t-56 39.5q-59 -24 -87.5 -53t-28.5 -70q0 -67 85 -67q50 0 77 25.5t27 70.5z" />
    <glyph glyph-name="nine" unicode="9" horiz-adv-x="541" 
d="M520 492q0 -119 -45.5 -234.5t-135 -195t-199.5 -79.5q-41 0 -74 13t-33 28q0 8 4 18l25 69q4 11 15 11q10 0 34.5 -8t36.5 -8q111 0 173 134q-48 -39 -101 -39q-70 0 -111 44.5t-41 122.5q0 132 74 225t197 93q87 0 134 -50.5t47 -143.5zM376 497q0 65 -53 65
q-50 0 -80 -57t-30 -126q0 -31 14 -47.5t40 -16.5q45 0 77 53.5t32 128.5z" />
    <glyph glyph-name="colon" unicode=":" horiz-adv-x="322" 
d="M314 417q0 -44 -32 -76t-76 -32t-76 32t-32 76q0 45 31.5 76t76.5 31q44 0 76 -31.5t32 -75.5zM241 88q0 -44 -32 -76t-76 -32t-75.5 32t-31.5 76q0 45 31.5 76t76.5 31q44 0 75.5 -31.5t31.5 -75.5z" />
    <glyph glyph-name="semicolon" unicode=";" horiz-adv-x="325" 
d="M328 417q0 -44 -32 -76t-76 -32t-75.5 32t-31.5 76q0 45 31.5 76t76.5 31q44 0 75.5 -31.5t31.5 -75.5zM248 103l-172 -237q-7 -10 -14 -10q-4 0 -11 3l-68 25q-12 4 -12 11q0 1 4 11l105 208q6 11 20 11h136q16 0 16 -11q0 -6 -4 -11z" />
    <glyph glyph-name="less" unicode="&#x3c;" 
d="M508 64q0 -16 -8 -16q-6 0 -13 4l-437 222q-17 9 -18 14q-1 3 -1 9v92q0 10 3 13t14 9l439 223q7 4 13 4q8 0 8 -16v-119q0 -11 -3.5 -15t-15.5 -10l-284 -134l284 -137q12 -6 15.5 -10t3.5 -15v-118z" />
    <glyph glyph-name="equal" unicode="=" horiz-adv-x="523" 
d="M495 327q0 -14 -3.5 -17.5t-17.5 -3.5h-426q-14 0 -17 3.5t-3 17.5v94q0 13 3 16.5t17 3.5h426q14 0 17.5 -3.5t3.5 -16.5v-94zM495 123q0 -14 -3.5 -17t-17.5 -3h-426q-14 0 -17 3t-3 17v94q0 13 3 17t17 4h426q14 0 17.5 -4t3.5 -17v-94z" />
    <glyph glyph-name="greater" unicode="&#x3e;" 
d="M508 297q0 -7 -2.5 -11.5t-3.5 -5l-13 -6.5l-438 -222q-7 -4 -13 -4q-7 0 -7 16v119q0 11 3 15.5t15 9.5l284 136l-284 135q-12 6 -15 9.5t-3 14.5v119q0 16 7 16q6 0 13 -4l439 -223q16 -8 17 -14q1 -3 1 -8v-92z" />
    <glyph glyph-name="question" unicode="?" horiz-adv-x="477" 
d="M493 543q0 -82 -54 -139t-148 -76l-15 -69q-2 -9 -5 -11.5t-12 -2.5h-110q-14 0 -14 10q0 2 2 12l25 123q2 10 6 14.5t14 6.5q148 36 148 106q0 48 -56 48q-53 0 -102 -24l-14 -7q-4 -2 -6 -2q-7 0 -13 11l-40 79q-5 12 -5 15q0 7 18 18q76 48 194 48q83 0 135 -44
t52 -116zM273 74q0 -40 -28.5 -68.5t-68.5 -28.5t-68.5 28.5t-28.5 68.5t28 68t69 28q40 0 68.5 -28t28.5 -68z" />
    <glyph glyph-name="at" unicode="@" horiz-adv-x="997" 
d="M926 357q0 -136 -81.5 -224.5t-198.5 -88.5q-82 0 -95 63q-55 -63 -119 -63q-48 0 -73.5 34t-25.5 93q0 106 53.5 185t125.5 79q60 0 91 -33q1 2 3.5 7.5t4 8.5t5 5.5t8.5 2.5h69q12 0 12 -11q0 -6 -1 -9l-47 -221q-2 -8 -2 -24q0 -27 35 -27q51 0 90.5 66t39.5 150
q0 101 -67.5 162t-188.5 61q-163 0 -265.5 -111.5t-102.5 -275.5q0 -132 79 -199t215 -67q159 0 283 59q15 6 18 6q7 0 10 -7l22 -61q2 -6 2 -8q0 -8 -14 -17q-48 -31 -139 -51.5t-179 -20.5q-194 0 -301.5 97t-107.5 272q0 135 64.5 245t175.5 172t245 62q163 0 260 -83.5
t97 -227.5zM577 323q-28 25 -50 25q-35 0 -55.5 -61t-20.5 -113q0 -21 5.5 -30t21.5 -9q27 0 50 25.5t31 67.5z" />
    <glyph glyph-name="A" unicode="A" horiz-adv-x="570" 
d="M522 22v-9q0 -7 -3 -10t-13 -3h-130q-10 0 -13 3t-4 14l-8 157h-145l-74 -162q-5 -12 -20 -12h-131q-16 0 -16 9q0 4 3 10l331 656q5 11 18 11h127q11 0 14 -3t4 -13zM349 528q-19 -48 -37 -88l-68 -154h103v161q0 27 2 81z" />
    <glyph glyph-name="B" unicode="B" horiz-adv-x="562" 
d="M556 526q0 -116 -125 -168q84 -38 84 -139q0 -65 -32.5 -116.5t-85.5 -75.5q-35 -15 -70.5 -21t-104.5 -6h-186q-15 0 -15 10q0 2 2 10l139 652q2 9 5 11.5t12 2.5h170q98 0 152.5 -40.5t54.5 -119.5zM400 515q0 51 -65 51h-39l-34 -158h29q52 0 80.5 28.5t28.5 78.5z
M357 234q0 32 -18.5 45t-65.5 13h-36l-36 -172h34q65 0 93.5 27t28.5 87z" />
    <glyph glyph-name="C" unicode="C" horiz-adv-x="493" 
d="M560 614l-53 -83q-4 -7 -12 -7q-6 0 -21 10q-51 38 -87 38q-41 0 -76 -36.5t-55.5 -90.5t-31.5 -111t-11 -105q0 -59 20 -83.5t61 -24.5q38 0 89 28q13 8 20 8q5 0 8 -5l40 -91q2 -6 2 -8q0 -18 -68 -44t-135 -26q-96 0 -149.5 63.5t-53.5 177.5q0 89 20.5 172t61 152.5
t108 112t152.5 42.5q93 0 166 -57q11 -8 11 -16q0 -7 -6 -16z" />
    <glyph glyph-name="D" unicode="D" horiz-adv-x="603" 
d="M596 458q0 -107 -38 -217t-97 -166q-46 -44 -109.5 -59.5t-162.5 -15.5h-153q-14 0 -14 11q0 2 2 14l138 647q2 10 4.5 12t14.5 2h145q84 0 130 -11.5t78 -43.5q62 -60 62 -173zM432 458q0 57 -23 78.5t-85 21.5h-27l-91 -430h24q88 0 127 51q31 42 53 123.5t22 155.5z
" />
    <glyph glyph-name="E" unicode="E" horiz-adv-x="484" 
d="M555 663l-42 -95q-5 -11 -20 -11h-197l-28 -135h172q13 0 13 -8q0 -2 -2 -10l-21 -97q-2 -9 -5 -11.5t-12 -2.5h-173l-35 -164h215q13 0 13 -8q0 -2 -2 -12l-19 -94q-2 -10 -5 -12.5t-13 -2.5h-359q-14 0 -14 12q0 2 2 12l138 648q2 9 5 11.5t12 2.5h367q14 0 14 -8
q0 -7 -4 -15z" />
    <glyph glyph-name="F" unicode="F" horiz-adv-x="466" 
d="M557 669l-44 -99q-6 -13 -18 -13h-199l-29 -137h174q13 0 13 -10q0 -5 -1 -8l-22 -99q-2 -12 -18 -12h-174l-58 -277q-2 -9 -5 -11.5t-12 -2.5h-130q-13 0 -13 9q0 2 2 12l139 651q2 9 5 11.5t12 2.5h368q12 0 12 -9q0 -2 -2 -8z" />
    <glyph glyph-name="G" unicode="G" horiz-adv-x="591" 
d="M603 622l-55 -85q-5 -8 -14 -8q-7 0 -11 4q-57 42 -115 42q-48 0 -80 -23t-58 -73q-26 -51 -42.5 -125.5t-16.5 -138.5q0 -55 18.5 -77.5t58.5 -22.5q31 0 66 13l27 121h-66q-13 0 -13 9v2q1 1 1 2l21 101q2 8 3 10.5t4 5t8 2.5h207q15 0 15 -9q0 -3 -2 -11l-64 -293
q-8 -38 -85 -61.5t-145 -23.5q-108 0 -163.5 63.5t-55.5 171.5q0 128 41.5 237t127 178.5t199.5 69.5q68 0 130 -25.5t62 -46.5q0 -5 -3 -9z" />
    <glyph glyph-name="H" unicode="H" horiz-adv-x="613" 
d="M635 668l-139 -654q-2 -9 -5 -11.5t-13 -2.5h-128q-13 0 -13 9q0 6 1 9l57 271h-154l-59 -275q-2 -9 -5 -11.5t-12 -2.5h-130q-13 0 -13 9q0 3 2 11l139 652q2 9 5 11.5t12 2.5h129q14 0 14 -7q0 -2 -2 -12l-52 -247h154l54 252q2 9 5 11.5t12 2.5h127q16 0 16 -8
q0 -2 -2 -10z" />
    <glyph glyph-name="I" unicode="I" horiz-adv-x="361" 
d="M414 668l-19 -88q-2 -9 -5 -11.5t-13 -2.5h-50l-95 -446h50q12 0 12 -8q0 -6 -1 -9l-18 -88q-2 -10 -5 -12.5t-13 -2.5h-258q-12 0 -12 9q0 2 2 10l17 87q1 9 4.5 11.5t13.5 2.5h50l95 446h-49q-12 0 -12 11q0 5 1 8l18 87q2 9 5 11.5t13 2.5h257q13 0 13 -9q0 -6 -1 -9z
" />
    <glyph glyph-name="J" unicode="J" horiz-adv-x="458" 
d="M484 670l-97 -459q-25 -117 -84.5 -170t-153.5 -53q-74 0 -117 39.5t-43 108.5q0 37 8 61t21 24h110q11 0 11 -7t-4 -27t-4 -27q0 -43 33 -43q23 0 36 15t22 55l81 379h-138q-14 0 -14 10q0 5 1 9l19 87q2 9 5 11.5t13 2.5h282q14 0 14 -8q0 -5 -1 -8z" />
    <glyph glyph-name="K" unicode="K" horiz-adv-x="571" 
d="M647 623l-280 -269l175 -302q6 -11 6 -16q0 -6 -12 -10l-124 -39q-9 -3 -14 -3t-11 10l-148 288l-58 -268q-2 -9 -5 -11.5t-12 -2.5h-129q-14 0 -14 10q0 1 2 11l139 651q2 9 5 11.5t12 2.5h127q16 0 16 -9q0 -1 -2 -11l-48 -231l247 252q9 9 14 9q3 0 17 -6l92 -43
q13 -6 13 -12t-8 -12z" />
    <glyph glyph-name="L" unicode="L" horiz-adv-x="474" 
d="M459 120l-43 -108q-5 -12 -18 -12h-360q-14 0 -14 8q0 2 2 12l139 652q2 9 5 11.5t12 2.5h127q16 0 16 -8q0 -2 -2 -10l-111 -526h238q13 0 13 -7t-4 -15z" />
    <glyph glyph-name="M" unicode="M" horiz-adv-x="691" 
d="M693 668l-107 -653q-1 -10 -4.5 -12.5t-13.5 -2.5h-122q-12 0 -12 9q0 3 2 13l58 303q2 7 9.5 45.5t12.5 62.5q-39 -88 -49 -107l-89 -169q-6 -11 -19 -11h-69q-10 0 -13 3t-4 13l-14 161q-2 20 -4 65t-2 49q-2 -7 -10 -50t-13 -65l-70 -308q-2 -9 -5 -11.5t-13 -2.5
h-118q-12 0 -12 8q0 2 2 10l169 654q2 9 5 11.5t13 2.5h124q10 0 13.5 -3t4.5 -13l22 -222q2 -34 2 -70v-31q26 62 47 100l129 228q5 11 18 11h120q13 0 13 -9q0 -6 -1 -9z" />
    <glyph glyph-name="N" unicode="N" horiz-adv-x="617" 
d="M640 669l-139 -655q-2 -9 -5 -11.5t-13 -2.5h-89q-9 0 -11.5 2t-5.5 11l-106 326q0 1 -21 76q-6 -55 -13 -84l-68 -317q-2 -9 -5 -11.5t-13 -2.5h-120q-10 0 -10 7q0 1 2 11l139 654q2 9 5 11.5t12 2.5h97q9 0 11.5 -2t5.5 -11l99 -300q13 -39 24 -83q1 8 3 23.5t4.5 31
t6.5 31.5l63 296q2 9 5 11.5t13 2.5h119q11 0 11 -8q0 -5 -1 -9z" />
    <glyph glyph-name="O" unicode="O" horiz-adv-x="593" 
d="M589 491q0 -135 -39.5 -249t-119 -186.5t-184.5 -72.5q-97 0 -149.5 56t-52.5 157q0 92 21.5 180t62.5 162t108.5 119.5t151.5 45.5q95 0 148 -56.5t53 -155.5zM425 488q0 51 -12.5 69.5t-38.5 18.5q-45 0 -84 -58t-60.5 -145t-21.5 -175q0 -50 12.5 -69t38.5 -19
q44 0 83 57.5t61 145t22 175.5z" />
    <glyph glyph-name="P" unicode="P" horiz-adv-x="525" 
d="M564 524q0 -120 -78 -189t-213 -69h-37l-54 -252q-2 -9 -5 -11.5t-12 -2.5h-130q-13 0 -13 8q0 2 2 12l139 652q2 9 5 11.5t12 2.5h158q117 0 171.5 -40.5t54.5 -121.5zM407 509q0 30 -17 42.5t-59 12.5h-31l-37 -172h24q60 0 90 33.5t30 83.5z" />
    <glyph glyph-name="Q" unicode="Q" horiz-adv-x="592" 
d="M588 492q0 -116 -36 -229.5t-101 -190.5q17 -20 28 -30q4 -4 19.5 -17t27.5 -23.5t12 -14.5q0 -5 -9 -10l-97 -58q-4 -3 -10 -3q-30 0 -87 80q-39 -13 -86 -13q-99 0 -152 55.5t-53 156.5q0 91 22.5 180t63.5 163t108 119.5t148 45.5q96 0 149 -56t53 -155zM424 489
q0 50 -12.5 68.5t-38.5 18.5q-44 0 -82.5 -58t-60.5 -145t-22 -175q0 -50 12.5 -69t38.5 -19q43 0 82 57.5t61 145t22 176.5z" />
    <glyph glyph-name="R" unicode="R" horiz-adv-x="560" 
d="M564 521q0 -50 -21 -98.5t-55 -79.5q-27 -23 -81 -46l98 -269q3 -6 3 -11q0 -7 -13 -10l-126 -22q-4 -1 -10 -1q-11 0 -15 12l-80 281l-27 -1l-55 -262q-3 -12 -7 -13q-3 -1 -8 -1h-132q-13 0 -13 8q0 2 2 12l139 652q2 9 5 11.5t12 2.5h155q229 0 229 -165zM406 509
q0 31 -16 43.5t-58 12.5h-33l-36 -170h30q56 0 84.5 31t28.5 83z" />
    <glyph glyph-name="S" unicode="S" horiz-adv-x="526" 
d="M542 618l-43 -80q-4 -8 -14 -8q-13 0 -37 13q-55 29 -102 29q-44 0 -68.5 -21t-24.5 -55q0 -30 37 -57q15 -11 81 -52q56 -35 83.5 -73t27.5 -91q0 -106 -75.5 -171.5t-196.5 -65.5q-49 0 -128.5 20.5t-79.5 44.5q0 6 4 13l49 90q6 12 15 12q2 0 8 -2q1 0 18 -8.5
t34.5 -16t43.5 -14t47 -6.5q47 0 73 21t26 57q0 39 -48 70l-64 42q-65 42 -89 75.5t-24 91.5q0 104 71.5 164t195.5 60q52 0 119.5 -20.5t67.5 -43.5q0 -4 -7 -18z" />
    <glyph glyph-name="T" unicode="T" horiz-adv-x="468" 
d="M566 666l-46 -107q-5 -12 -19 -12h-128l-112 -533q-2 -9 -5 -11.5t-13 -2.5h-126q-16 0 -16 9q0 2 2 12l112 526h-133q-12 0 -12 7q0 1 2 13l22 103q2 11 5 13.5t12 2.5h444q14 0 14 -9q0 -5 -3 -11z" />
    <glyph glyph-name="U" unicode="U" horiz-adv-x="615" 
d="M643 672l-92 -439q-17 -81 -37 -121.5t-66 -73.5q-74 -52 -179 -52q-103 0 -160.5 43t-57.5 124q0 42 8 79l94 440q2 9 5 11.5t13 2.5h129q13 0 13 -8q0 -2 -2 -12l-93 -433q-8 -35 -8 -58q0 -59 71 -59q46 0 74.5 35.5t45.5 117.5l86 403q2 9 5 11.5t13 2.5h126
q13 0 13 -6q0 -5 -1 -8z" />
    <glyph glyph-name="V" unicode="V" horiz-adv-x="537" 
d="M631 663l-326 -664q-4 -8 -6 -9.5t-11 -1.5h-144q-10 0 -13 3t-4 13l-46 662q0 5 1.5 7.5t5 4t9.5 2.5l139 15q1 0 3 0.5t3 0.5q10 0 10 -18l-1 -391q0 -8 -5 -123q9 24 19 51.5t16.5 43.5t11.5 28l172 398q5 10 15 10q2 0 6.5 -0.5t7.5 -0.5l126 -12q15 -1 15 -8
q0 -1 -4 -11z" />
    <glyph glyph-name="W" unicode="W" horiz-adv-x="759" 
d="M839 652l-290 -650q-4 -8 -6.5 -10t-11.5 -2h-112q-9 0 -13 3.5t-4 13.5l8 308q2 52 9 123q-28 -79 -48 -123l-140 -313q-4 -9 -6 -10.5t-11 -1.5h-115q-17 0 -17 17l7 653q0 10 2.5 13.5t12.5 4.5l121 16q2 0 5 0.5t4 0.5q11 0 11 -13l-18 -323q-3 -55 -12 -117
q3 7 17.5 47t28.5 71l138 314q4 8 6.5 10t11.5 2h107q10 0 13.5 -3t3.5 -14l-2 -305q0 -26 -8 -120q25 90 36 119l122 320q4 11 14 11q7 0 12 -1l117 -18q12 -1 12 -8q0 -5 -5 -15z" />
    <glyph glyph-name="X" unicode="X" horiz-adv-x="544" 
d="M615 651l-236 -300l122 -327q3 -7 3 -11q0 -6 -13 -9l-132 -21q-5 -1 -11 -1q-7 0 -11 13l-50 170q-5 18 -12 55q-22 -34 -37 -55l-126 -171q-8 -11 -19 -11q-1 0 -3 0.5t-3 0.5l-129 24q-12 3 -12 9q0 4 7 13l267 335l-113 287q-3 8 -3 12q0 8 15 10l122 20q4 1 10 1
q7 0 11 -13l40 -137q8 -25 15 -66q23 45 38 66l95 142q6 9 13 9q2 0 12 -2l134 -22q12 -3 12 -9q0 -5 -6 -12z" />
    <glyph glyph-name="Y" unicode="Y" horiz-adv-x="532" 
d="M623 655l-267 -375l-57 -266q-2 -9 -5 -11.5t-12 -2.5h-131q-11 0 -11 9q0 6 1 10l55 262l-118 376q-2 10 -2 11q0 8 12 9l130 17q2 0 5.5 0.5t4.5 0.5q10 0 12 -10l46 -178q7 -26 14 -82q26 49 46 79l119 183q5 8 16 8q7 0 11 -1l125 -18q12 -1 12 -8q0 -6 -6 -13z" />
    <glyph glyph-name="Z" unicode="Z" horiz-adv-x="516" 
d="M564 669l-21 -102l-345 -425h268q16 0 16 -9q0 -5 -3 -12l-36 -108q-4 -13 -19 -13h-429q-17 0 -17 12q0 5 1 7l21 97l347 434h-227q-13 0 -13 8q0 5 3 14l36 101q5 13 18 13h384q16 0 16 -12v-5z" />
    <glyph glyph-name="bracketleft" unicode="[" horiz-adv-x="447" 
d="M499 699l-21 -97q-3 -14 -19 -14h-100l-140 -665h98q14 0 14 -10q0 -6 -1 -10l-19 -91q-2 -12 -5 -14.5t-15 -2.5h-234q-12 0 -12 8q0 3 2 13l188 885q2 10 5 12t13 2h231q16 0 16 -9q0 -1 -0.5 -3t-0.5 -4z" />
    <glyph glyph-name="backslash" unicode="\" horiz-adv-x="516" 
d="M502 -117q5 -12 5 -19q0 -11 -18 -11h-98q-18 0 -23 15l-304 843q-4 12 -4 17q0 13 19 13h97q17 0 22 -15z" />
    <glyph glyph-name="bracketright" unicode="]" horiz-adv-x="444" 
d="M402 696l-188 -887q-2 -10 -5 -12t-13 -2h-233q-13 0 -13 9q0 2 2 12l19 92q2 9 5.5 12t12.5 3h101l140 665h-99q-15 0 -15 7q0 2 1.5 6t1.5 7l21 92q2 10 5 12.5t12 2.5h233q13 0 13 -9q0 -6 -1 -10z" />
    <glyph glyph-name="asciicircum" unicode="^" horiz-adv-x="526" 
d="M510 378q3 -6 3 -10q0 -8 -13 -8h-121q-18 0 -24 17l-70 190l-111 -190q-10 -17 -24 -17h-117q-14 0 -14 8q0 4 4 10l177 290q13 21 28 21h141q16 0 23 -18z" />
    <glyph glyph-name="underscore" unicode="_" horiz-adv-x="552" 
d="M508 -164h-544v116h544v-116z" />
    <glyph glyph-name="grave" unicode="`" horiz-adv-x="435" 
d="M389 625q7 -4 7 -9t-8 -13l-39 -42q-9 -9 -12 -9q-4 0 -12 4l-188 78q-13 4 -13 10q0 2 7 13l60 79q10 12 16 12q7 0 13 -5z" />
    <glyph glyph-name="a" unicode="a" horiz-adv-x="535" 
d="M521 478l-68 -318q-8 -39 -8 -71q0 -9 5 -30t5 -32q0 -8 -9 -11l-106 -30q-2 0 -5.5 -1.5t-5.5 -1.5q-5 0 -10 9t-9.5 27.5t-5.5 41.5q-68 -78 -148 -78q-63 0 -95.5 45t-32.5 124q0 145 72 252t177 107q66 0 109 -46l8 20q4 9 14 9h103q11 0 11 -7q0 -5 -1 -9zM352 383
q-32 27 -59 27q-46 0 -83.5 -81t-37.5 -184q0 -50 37 -50q80 0 111 141z" />
    <glyph glyph-name="b" unicode="b" 
d="M513 357q0 -93 -30.5 -177t-93.5 -140.5t-145 -56.5q-92 0 -198 61q-22 12 -22 23q0 1 2 11l129 610q2 13 16 15l119 20q4 1 10 1q10 0 10 -9q0 -5 -1 -8l-45 -211q-7 -30 -13 -47q49 62 124 62q67 0 102.5 -39.5t35.5 -114.5zM368 342q0 56 -47 56q-80 0 -105 -127
l-33 -161q36 -22 64 -22q38 0 67 47t41.5 103.5t12.5 103.5z" />
    <glyph glyph-name="c" unicode="c" horiz-adv-x="436" 
d="M459 451l-39 -75q-8 -14 -15 -14q-5 0 -37 15.5t-55 15.5q-68 0 -102 -67t-34 -149q0 -69 63 -69q30 0 70 16q18 7 24 7q7 0 10 -8l28 -81q0 -1 1.5 -4.5t1.5 -5.5q0 -16 -53.5 -32.5t-94.5 -16.5q-94 0 -147 53t-53 145q0 136 77.5 233t210.5 97q47 0 96.5 -17t49.5 -36
q0 -3 -2 -7z" />
    <glyph glyph-name="d" unicode="d" horiz-adv-x="536" 
d="M567 708l-117 -547q-8 -38 -8 -66q0 -11 5 -33t5 -33q0 -12 -11 -14l-99 -29q-8 -2 -11 -2q-22 0 -29 77q-61 -78 -147 -78q-126 0 -126 157q0 67 17 132t49 119t83.5 87t114.5 33q44 0 78 -19l42 196q2 9 4.5 11.5t11.5 3.5l123 20q4 1 9 1q7 0 7 -7q0 -5 -1 -9z
M351 396q-23 11 -49 11q-33 0 -59.5 -25.5t-41 -65t-22 -80.5t-7.5 -78q0 -30 12 -46.5t33 -16.5q69 0 101 147z" />
    <glyph glyph-name="e" unicode="e" horiz-adv-x="490" 
d="M482 372q0 -93 -83 -140t-214 -47h-11q-3 -9 -3 -22q0 -63 74 -63q45 0 123 38q8 4 13 4q6 0 10 -8l32 -76q1 -2 1 -6q0 -20 -69.5 -44.5t-138.5 -24.5q-90 0 -139.5 50t-49.5 140q0 139 82.5 238.5t210.5 99.5q74 0 118 -37.5t44 -101.5zM344 367q0 19 -11.5 31
t-28.5 12q-89 0 -121 -125q84 0 122.5 20t38.5 62z" />
    <glyph glyph-name="f" unicode="f" horiz-adv-x="360" 
d="M459 671l-24 -76q-4 -11 -14 -11q-7 0 -28.5 6.5t-33.5 6.5q-26 0 -38.5 -15t-20.5 -53l-7 -35h113q11 0 11 -8q0 -5 -1 -8l-24 -86q-2 -8 -4.5 -9.5t-9.5 -1.5h-106l-73 -383q-19 -102 -68.5 -152.5t-136.5 -50.5q-41 0 -72 6.5t-31 19.5q0 3 4 15l25 83q1 7 8 7
q6 0 22 -3.5t24 -3.5q34 0 50 19t28 81l72 362h-67q-13 0 -13 10q0 4 1 7l16 80q1 7 2 10t4 4.5t9 1.5h71l13 67q16 82 61.5 120t125.5 38q42 0 78.5 -10t36.5 -26q0 -5 -3 -12z" />
    <glyph glyph-name="g" unicode="g" horiz-adv-x="540" 
d="M545 454q-6 -12 -18 -34t-17.5 -33t-12 -29t-10.5 -37l-31 -142q-12 -53 -29 -159q-23 -137 -78 -184.5t-167 -47.5q-54 0 -123 18t-69 41q0 4 4 14l32 80q3 9 11 9q4 0 58 -20.5t89 -20.5q44 0 65.5 17.5t30.5 60.5l16 75q-61 -63 -126 -63t-101 43.5t-36 119.5
q0 83 30.5 162.5t87 133t124.5 53.5q40 0 63 -11.5t55 -43.5q34 53 51 53q5 0 16 -5l78 -33q9 -5 9 -10q0 -3 -2 -7zM349 377q-30 28 -57 28q-31 0 -58 -42t-41 -97t-14 -104q0 -56 37 -56q33 0 60.5 29t39.5 87z" />
    <glyph glyph-name="h" unicode="h" horiz-adv-x="543" 
d="M513 405q0 -33 -10 -79l-70 -315q-2 -11 -14 -11h-123q-13 0 -13 7q0 1 2 9l67 301q6 26 6 43q0 34 -30 34q-39 0 -70 -42t-49 -124l-46 -217q-2 -11 -14 -11h-123q-13 0 -13 8q0 1 2 11l142 669q1 9 4 11t12 4l123 20q2 0 4.5 0.5t3.5 0.5q8 0 8 -8q0 -6 -1 -10
l-45 -213q-6 -27 -13 -50q67 68 142 68q55 0 86.5 -27.5t31.5 -78.5z" />
    <glyph glyph-name="i" unicode="i" horiz-adv-x="298" 
d="M339 651q0 -39 -27.5 -67t-67.5 -28q-39 0 -66.5 28t-27.5 67t27.5 66.5t67.5 27.5q39 0 66.5 -28t27.5 -66zM284 477l-100 -466q-2 -11 -14 -11h-120q-15 0 -15 8q0 4 1 7l78 366h-62q-13 0 -13 8l1 1v3l17 85q2 11 4.5 13.5t11.5 2.5h199q14 0 14 -7q0 -2 -2 -10z" />
    <glyph glyph-name="j" unicode="j" horiz-adv-x="297" 
d="M337 651q0 -39 -27.5 -67t-67.5 -28q-39 0 -66.5 28t-27.5 67t27.5 66.5t67.5 27.5q39 0 66.5 -28t27.5 -66zM286 478l-99 -464q-28 -132 -76 -189.5t-145 -57.5q-33 0 -60 6.5t-40 14.5t-13 14q0 1 2 9l31 89q4 11 12 11q4 0 27 -9.5t38 -9.5q31 0 45 25t31 104l76 360
h-63q-13 0 -13 8l1 2v3l18 83q2 12 4.5 14.5t10.5 2.5h200q14 0 14 -8q0 -5 -1 -8z" />
    <glyph glyph-name="k" unicode="k" horiz-adv-x="515" 
d="M535 419l-198 -155l127 -208q7 -12 7 -14q0 -5 -9 -8l-115 -44q-6 -2 -7 -2q-10 0 -16 13l-119 211l-42 -201q-2 -11 -14 -11h-122q-13 0 -13 8q0 5 1 8l142 672q1 9 4 11t12 4l121 20q2 0 5 0.5t4 0.5q9 0 9 -9q0 -5 -1 -8l-81 -382l201 173q6 5 11 5q6 0 11 -4l82 -56
q9 -6 9 -12q0 -5 -9 -12z" />
    <glyph glyph-name="l" unicode="l" horiz-adv-x="293" 
d="M305 710l-108 -506q-13 -59 -13 -67q0 -16 16 -16q6 0 19.5 3t16.5 3q10 0 11 -11l11 -74q2 -10 2 -13q0 -15 -34 -27t-81 -12q-113 0 -114 94q0 40 14 106l105 497q3 14 17 16l130 21q9 0 9 -8q0 -1 -0.5 -3t-0.5 -3z" />
    <glyph glyph-name="m" unicode="m" horiz-adv-x="781" 
d="M751 397q0 -43 -8 -75l-71 -311q-2 -11 -14 -11h-121q-14 0 -14 8q0 4 1 7l67 295q7 30 7 50v4q-3 25 -27 25q-72 0 -109 -171l-44 -207q-2 -11 -14 -11h-121q-14 0 -14 8q0 5 1 8l67 294q8 32 8 52v3q-2 24 -25 24q-35 0 -64.5 -44t-47.5 -127l-43 -203q-2 -9 -5 -12
t-11 -3h-122q-12 0 -12 8q0 3 2 11l71 312q10 40 10 76q0 8 -3 25t-3 29q0 9 9 12l102 33q3 1 7 1q23 0 26 -88q74 92 155 92q41 0 67 -23.5t26 -66.5q38 47 74.5 68.5t83.5 21.5q52 0 80.5 -30.5t28.5 -83.5z" />
    <glyph glyph-name="n" unicode="n" 
d="M509 398q0 -37 -9 -76l-71 -311q-2 -11 -14 -11h-122q-13 0 -13 10q0 5 1 8l65 288q9 40 9 55v3q-1 27 -30 27q-38 0 -69 -46.5t-49 -130.5l-43 -203q-2 -11 -14 -11h-124q-11 0 -11 10q0 7 1 11l71 310q10 43 10 76q0 25 -4 40q0 3 -1.5 7.5t-1.5 6.5q0 9 13 13l100 33
q2 1 6 1q13 0 20 -26.5t7 -54.5v-8q71 92 161 92q53 0 82.5 -30.5t29.5 -82.5z" />
    <glyph glyph-name="o" unicode="o" horiz-adv-x="523" 
d="M499 328q0 -65 -20 -126t-56 -110.5t-92 -79t-123 -29.5q-88 0 -135.5 48t-47.5 135q0 137 80.5 241t212.5 104q84 0 132.5 -49.5t48.5 -133.5zM349 337q0 62 -54 62q-38 0 -67 -42.5t-41 -95t-12 -101.5q0 -66 51 -66q40 0 69 42t41.5 95.5t12.5 105.5z" />
    <glyph glyph-name="p" unicode="p" horiz-adv-x="533" 
d="M507 357q0 -92 -28.5 -175.5t-91 -141t-146.5 -57.5q-44 0 -77 20l-38 -178q-2 -9 -4.5 -12t-11.5 -4l-125 -19q-1 0 -3 -0.5t-3 -0.5q-7 0 -7 7q0 6 1 10l116 549q4 19 4 45q0 13 -3.5 34.5t-3.5 26.5q0 10 10 13l102 32q8 2 10 2q9 0 15 -20t6 -48v-15q65 86 142 86
q65 0 100.5 -41t35.5 -113zM366 340q0 23 -11.5 39t-27.5 16q-79 0 -111 -152l-30 -139q23 -13 49 -13q41 0 72 40.5t45 96t14 112.5z" />
    <glyph glyph-name="q" unicode="q" horiz-adv-x="538" 
d="M538 470q10 -4 10 -10q0 -3 -2.5 -7.5t-7.5 -10.5t-7 -10q-30 -43 -42 -101l-108 -506q-2 -14 -16 -16l-120 -19q-5 -1 -12 -1t-7 6q0 2 2 12l39 182q6 24 14 55q-56 -61 -128 -61q-59 0 -92 43t-33 117q0 90 30 173.5t88.5 139t130.5 55.5q64 0 113 -52q13 20 27.5 34.5
t21.5 14.5q6 0 10 -2zM350 375q-36 28 -60 28q-34 0 -62 -48t-40.5 -105.5t-12.5 -104.5q0 -48 32 -48q38 0 68.5 38t44.5 101z" />
    <glyph glyph-name="r" unicode="r" horiz-adv-x="379" 
d="M420 471l-43 -106q-3 -6 -8 -6q-6 0 -20.5 4t-21.5 4q-43 0 -74 -45t-46 -113l-42 -197q-2 -12 -14 -12h-122q-14 0 -14 9q0 1 2 9l64 303q10 52 10 72q0 13 -3.5 36t-3.5 34q0 7 10 10l104 34q3 1 7 1q10 0 17.5 -21.5t7.5 -51.5q0 -13 -1 -19q32 47 63.5 68.5
t72.5 21.5q59 0 59 -23q0 -2 -4 -12z" />
    <glyph glyph-name="s" unicode="s" horiz-adv-x="424" 
d="M407 447l-25 -67q-4 -11 -13 -11q-7 0 -46 14.5t-58 14.5q-26 0 -42 -11.5t-16 -31.5q0 -21 35 -38l54 -27q47 -24 67.5 -51t20.5 -74q0 -83 -55 -132.5t-149 -49.5q-53 0 -118 19.5t-65 34.5q0 3 3 10l30 79q3 8 10 8q11 0 58 -19t76 -19q68 0 68 48q0 17 -12.5 26
t-50.5 26q-61 28 -87.5 56t-26.5 79q0 81 55.5 130.5t144.5 49.5q53 0 99 -17t46 -35q0 -6 -3 -12z" />
    <glyph glyph-name="t" unicode="t" horiz-adv-x="389" 
d="M418 477l-27 -81q-4 -11 -15 -11h-122l-45 -214q-5 -27 -5 -42q0 -23 27 -23q19 0 54.5 11t39.5 11q7 0 11 -12l21 -72q1 -4 1 -9q0 -17 -60 -34.5t-115 -17.5q-132 0 -132 112q0 21 8 63l47 227h-63q-12 0 -12 9q0 5 1 9l18 79q2 12 14 12h66l27 124q3 11 13 12l120 13
q2 0 4.5 0.5t3.5 0.5q10 0 10 -9q0 -6 -1 -10l-30 -131h129q14 0 14 -8q0 -1 -2 -9z" />
    <glyph glyph-name="u" unicode="u" horiz-adv-x="533" 
d="M523 486l-74 -327q-8 -39 -8 -59v-12q0 -11 4.5 -29.5t4.5 -28.5t-12 -13l-99 -32q-4 -1 -11 -1q-10 0 -17.5 22.5t-7.5 56.5v9q-72 -89 -158 -89q-113 0 -115 113q0 26 11 76l67 295q2 9 4.5 12t11.5 4l121 19q2 0 5 0.5t4 0.5q8 0 8 -7q0 -5 -1 -9l-67 -295
q-9 -41 -9 -54t8 -20.5t21 -7.5q40 0 71.5 54t50.5 144l34 159q2 10 4 12.5t11 3.5l124 20q3 1 9 1q7 0 7 -7q0 -1 -2 -11z" />
    <glyph glyph-name="v" unicode="v" horiz-adv-x="470" 
d="M513 470l-271 -473q-5 -9 -14 -9h-109q-8 0 -10.5 2.5t-3.5 10.5l-62 469q0 2 -0.5 4.5t-0.5 3.5q0 11 13 12l124 11q13 0 13 -12l10 -254q1 -31 1 -93q35 84 39 93l120 255q5 11 15 11l132 -10q9 -1 9 -8q0 -5 -5 -13z" />
    <glyph glyph-name="w" unicode="w" horiz-adv-x="682" 
d="M718 468l-243 -467q-5 -9 -16 -9h-113q-9 0 -11.5 2.5t-2.5 12.5l7 233q1 31 7 77q-16 -47 -29 -77l-103 -238q-4 -10 -15 -10h-106q-8 0 -10 2.5t-3 11.5l-32 466q0 14 13 15l120 14q2 0 4 0.5t3 0.5q9 0 9 -18l-7 -232q-1 -36 -7 -88q25 65 34 88l98 233q3 9 15 9h110
q8 0 10.5 -3t2.5 -11l-3 -223q-1 -47 -8 -96q21 58 36 97l91 227q5 13 16 13q1 0 4.5 -0.5t5.5 -0.5l113 -10q13 -1 13 -9q0 -4 -3 -10z" />
    <glyph glyph-name="x" unicode="x" horiz-adv-x="492" 
d="M524 449l-193 -195l116 -222q3 -6 3 -10q0 -8 -11 -9l-109 -22q-10 -2 -14 -2q-9 0 -13 9l-49 112q-11 26 -18 49q-22 -33 -37 -50l-97 -112q-7 -8 -14 -8q-6 0 -13 3l-105 31q-8 1 -8 8q0 6 5 11l203 210l-99 199q-5 10 -5 14q0 7 12 10l109 27q10 2 11 2q8 0 13 -13
l38 -93q17 -45 18 -49q25 33 36 46l86 101q7 8 15 8q3 0 11 -2l107 -35q7 -3 7 -8t-5 -10z" />
    <glyph glyph-name="y" unicode="y" horiz-adv-x="470" 
d="M512 469l-203 -414q-27 -56 -42.5 -85t-37.5 -66.5t-39 -55.5t-40.5 -36t-49 -24.5t-57.5 -6.5q-45 0 -88.5 17.5t-43.5 31.5q0 5 5 13l40 75q4 9 12 9q2 0 14 -5q39 -18 64 -18q49 0 72 45l26 51h-32q-8 0 -10.5 2.5t-3.5 10.5l-60 455q0 2 -0.5 4.5t-0.5 3.5
q0 12 17 13l106 9q2 0 5 0.5t4 0.5q16 0 17 -13l18 -248q2 -39 4 -112q5 11 17 40.5t19 47.5l118 278q4 9 17 9q2 0 6 -0.5t6 -0.5l111 -12q13 -1 13 -9q0 -4 -3 -10z" />
    <glyph glyph-name="z" unicode="z" horiz-adv-x="467" 
d="M480 479l-18 -85l-271 -274h221q13 0 13 -7q0 -5 -4 -12l-54 -91q-6 -10 -21 -10h-352q-13 0 -13 8l1 2v2l17 88l275 274h-181q-11 0 -11 8q0 5 1 9l19 91q2 12 15 12h350q14 0 14 -10l-1 -2v-3z" />
    <glyph glyph-name="braceleft" unicode="{" horiz-adv-x="435" 
d="M484 680l-19 -86q-3 -13 -7 -15.5t-21 -2.5q-40 0 -60.5 -11t-28.5 -48l-30 -140q-10 -46 -30.5 -74t-61.5 -46q45 -28 45 -80q0 -21 -7 -51l-28 -134q-5 -30 -5 -32q0 -31 39 -32l36 -1q16 0 16 -10q0 -1 -0.5 -3t-0.5 -3l-18 -84q-5 -20 -15 -25t-33 -5h-16
q-84 0 -122 31t-38 93q0 32 9 71l27 130q4 17 4 33q0 32 -34 37l-23 4q-12 3 -12 13q0 1 0.5 2.5t0.5 2.5l21 92q3 13 18 17l31 7q37 8 52 73l36 151q36 151 221 151q56 0 56 -15q0 -2 -2 -10z" />
    <glyph glyph-name="bar" unicode="|" horiz-adv-x="521" 
d="M339 -183q0 -13 -7.5 -21.5t-20.5 -8.5h-101q-13 0 -20.5 8.5t-7.5 21.5v880q0 13 7.5 21.5t20.5 8.5h101q13 0 20.5 -8.5t7.5 -21.5v-880z" />
    <glyph glyph-name="braceright" unicode="}" horiz-adv-x="440" 
d="M391 288l-20 -93q-2 -10 -6 -12.5t-16 -4.5l-17 -2q-26 -3 -39.5 -16t-20.5 -42l-32 -145q-20 -90 -76 -133t-153 -43q-56 0 -56 12q0 1 0.5 3t1.5 4.5t1 3.5l19 88q2 12 5 14.5t15 3.5l36 2q28 1 41 14t20 43l30 140q10 45 30.5 72t60.5 48q-43 29 -43 81q0 24 6 51
l28 134q4 24 4 31q0 19 -12.5 26.5t-43.5 7.5h-21q-12 0 -12 11q0 5 1 8l19 91q2 12 15 15.5t48 3.5q83 0 120.5 -30t37.5 -93q0 -29 -8 -71l-28 -131q-4 -17 -4 -32q0 -17 10 -25.5t37 -13.5l10 -2q13 -3 13 -11q0 -5 -1 -8z" />
    <glyph glyph-name="asciitilde" unicode="~" horiz-adv-x="695" 
d="M601 705l-8 -16q-27 -55 -61 -82.5t-87 -27.5q-19 0 -103 30t-96 30q-18 0 -35 -15.5t-28 -31.5t-15 -16l-4 2l-58 40q-9 8 -9 14q0 4 3 10l12 24q25 50 57 76.5t83 26.5q28 0 108.5 -30t92.5 -30q20 0 37 14t28.5 28t17.5 14q4 0 9 -4l52 -36q7 -4 7 -10q0 -4 -3 -10z
" />
    <glyph glyph-name="sterling" unicode="&#xa3;" horiz-adv-x="558" 
d="M593 609l-49 -78q-6 -9 -14 -9q-10 0 -32 12q-46 26 -94 26q-60 0 -90 -39.5t-30 -95.5q0 -18 1 -27h143q18 0 18 -11q0 -1 -2 -11l-16 -73q-2 -11 -5.5 -14t-15.5 -3h-119q0 -3 1.5 -13.5t1.5 -15.5q0 -57 -31 -127h257q17 0 17 -9q0 -7 -4 -15l-38 -92q-6 -14 -22 -14
h-462q-17 0 -17 9q0 5 1 9l19 95q2 11 6 14t15 3h74q22 41 29.5 71t7.5 74v11h-85q-18 0 -18 10q0 3 2 11l15 73q2 11 6 14t16 3h59v21q0 119 79.5 193.5t204.5 74.5q47 0 89.5 -11.5t64.5 -26t22 -25.5q0 -6 -5 -14z" />
    <glyph glyph-name="currency" unicode="&#xa4;" horiz-adv-x="705" 
d="M675 141l-60 -62q-9 -10 -14 -10t-13 9l-91 91q-65 -44 -139 -44q-71 0 -140 43l-93 -95q-6 -6 -9 -6q-4 0 -13 9l-63 64q-7 7 -7 12q0 4 8 12l87 87q-40 58 -40 135q0 72 41 133l-85 83q-6 6 -6 10t10 14l63 63q6 6 10 6q5 0 17 -12l81 -80q64 42 139 42q72 0 136 -41
l85 84q9 7 11 7q5 0 16 -10l60 -59q6 -6 6 -11t-7 -12l-80 -83q42 -65 42 -135q0 -71 -40 -133l86 -88q8 -8 8 -13q0 -4 -6 -10zM486 385q0 54 -36.5 90.5t-91.5 36.5t-91 -36.5t-36 -90.5q0 -53 36.5 -90.5t90.5 -37.5t91 37.5t37 90.5z" />
    <glyph glyph-name="section" unicode="&#xa7;" horiz-adv-x="526" 
d="M512 587l-49 -78q-6 -9 -12 -9q-3 0 -17 7q-58 34 -97 34q-61 0 -61 -42q0 -11 6.5 -18t25.5 -18l84 -48q51 -29 73 -57.5t22 -69.5q0 -53 -34 -99.5t-90 -70.5q55 -38 55 -101q0 -79 -64.5 -132.5t-153.5 -53.5q-56 0 -131 23.5t-75 48.5q0 5 3 10l48 85q4 8 12 8
q7 0 18 -7q79 -49 132 -49q25 0 40 13t15 36q0 22 -31 39l-91 52q-93 53 -93 138q0 55 35 97t96 66q-52 40 -52 99q0 78 59.5 122t161.5 44q45 0 106 -20.5t61 -42.5q0 -2 -2 -6zM344 261q0 19 -15 32t-53 35q-42 -17 -63 -34.5t-21 -43.5q0 -20 15.5 -32.5t57.5 -33.5
q40 18 59.5 35t19.5 42z" />
    <glyph glyph-name="dieresis" unicode="&#xa8;" horiz-adv-x="507" 
d="M491 635q0 -35 -24.5 -59.5t-59.5 -24.5t-59.5 24.5t-24.5 59.5t25 60t60 25q34 0 58.5 -25t24.5 -60zM266 635q0 -35 -24.5 -59.5t-59.5 -24.5q-34 0 -59 24.5t-25 59.5t25 60t60 25q34 0 58.5 -25t24.5 -60z" />
    <glyph glyph-name="copyright" unicode="&#xa9;" horiz-adv-x="730" 
d="M716 395q0 -174 -111 -292t-273 -118q-126 0 -205.5 87t-79.5 219q0 172 109 291t277 119q125 0 204 -87.5t79 -218.5zM640 384q0 108 -60.5 177t-160.5 69q-126 0 -211 -96t-85 -233q0 -106 60.5 -175.5t158.5 -69.5q126 0 212 95.5t86 232.5zM530 521q5 -4 5 -9
q0 -4 -6 -14l-30 -47q-5 -6 -10 -6q-8 0 -32.5 14t-34.5 14q-25 0 -46 -20.5t-32.5 -52t-17.5 -64t-6 -60.5q0 -34 11 -47.5t36 -13.5q20 0 52 16q12 6 15 6q6 0 9 -6l24 -54q1 -1 1 -4q0 -15 -39.5 -31t-86.5 -16q-63 0 -97 39.5t-34 110.5q0 72 21.5 134.5t71 105.5
t119.5 43q65 0 107 -38z" />
    <glyph glyph-name="guillemotleft" unicode="&#xab;" horiz-adv-x="644" 
d="M627 426l-161 -184l77 -180q4 -8 4 -12q0 -8 -13 -13l-86 -33q-10 -4 -13 -4q-7 0 -13 10l-117 227q-4 7 -4 15q0 7 5 12l221 227q9 9 15 9q5 0 17 -7l67 -41q9 -6 9 -11t-8 -15zM369 426l-161 -184l77 -180q4 -8 4 -12q0 -8 -13 -13l-86 -33q-10 -4 -13 -4q-7 0 -13 10
l-117 227q-4 7 -4 15q0 7 5 12l221 227q9 9 15 9q5 0 17 -7l67 -41q9 -6 9 -11t-8 -15z" />
    <glyph glyph-name="logicalnot" unicode="&#xac;" horiz-adv-x="522" 
d="M500 21q0 -14 -3.5 -17.5t-17.5 -3.5h-113q-14 0 -17.5 3.5t-3.5 17.5v129h-302q-14 0 -17 3.5t-3 17.5v95q0 13 3 17t17 4h436q14 0 17.5 -4t3.5 -17v-245z" />
    <glyph glyph-name="registered" unicode="&#xae;" horiz-adv-x="730" 
d="M716 395q0 -174 -111 -292t-273 -118q-126 0 -205.5 87t-79.5 219q0 172 109 291t277 119q125 0 204 -87.5t79 -218.5zM640 384q0 108 -60.5 177t-160.5 69q-126 0 -211 -96t-85 -233q0 -106 60.5 -175.5t158.5 -69.5q126 0 212 95.5t86 232.5zM543 449q0 -93 -95 -132
l61 -156q2 -6 2 -8q0 -8 -10 -9l-76 -13q-1 0 -3 -0.5t-3 -0.5q-11 0 -14 10l-50 163l-13 -1l-33 -151q-2 -11 -14 -11h-75q-13 0 -13 7q0 2 2 10l81 383q3 12 15 12h93q145 0 145 -103zM440 443q0 16 -9.5 23t-34.5 7h-18l-20 -93h13q69 0 69 63z" />
    <glyph glyph-name="degree" unicode="&#xb0;" horiz-adv-x="448" 
d="M484 552q0 -72 -47.5 -121.5t-126.5 -49.5q-60 0 -101.5 41t-41.5 100q0 69 53 119.5t123 50.5q60 0 100.5 -40.5t40.5 -99.5zM388 541q0 25 -16 42t-41 17q-27 0 -47.5 -20.5t-20.5 -47.5q0 -25 16.5 -42.5t41.5 -17.5q27 0 47 21t20 48z" />
    <glyph glyph-name="plusminus" unicode="&#xb1;" horiz-adv-x="522" 
d="M490 317q0 -14 -3.5 -17.5t-17.5 -3.5h-131v-130q0 -14 -3 -17.5t-17 -3.5h-113q-14 0 -17.5 3.5t-3.5 17.5v130h-131q-14 0 -17 3.5t-3 17.5v99q0 13 3 16.5t17 3.5h131v131q0 13 3.5 16.5t17.5 3.5h113q14 0 17 -3.5t3 -17.5v-130h131q14 0 17.5 -3.5t3.5 -16.5v-99z
M500 -21q0 -14 -3.5 -17t-17.5 -3h-436q-14 0 -17 3t-3 17v96q0 13 3 17t17 4h436q14 0 17.5 -4t3.5 -17v-96z" />
    <glyph glyph-name="acute" unicode="&#xb4;" horiz-adv-x="427" 
d="M407 655q6 -12 6 -13q0 -6 -13 -10l-203 -74q-2 -1 -4 -1.5t-3 -1t-2.5 -1t-2.5 -0.5q-3 0 -12 9l-38 44q-6 6 -6 12t12 13l188 109q10 5 14 5q8 0 15 -12z" />
    <glyph glyph-name="mu" unicode="&#xb5;" horiz-adv-x="536" 
d="M526 486l-74 -327q-8 -39 -8 -59v-12q0 -11 4.5 -29.5t4.5 -28.5t-12 -13l-99 -32q-4 -1 -11 -1q-10 0 -17.5 22.5t-7.5 56.5v9q-70 -88 -143 -88h-7l-34 -159q-2 -9 -4.5 -12t-11.5 -4l-125 -19q-1 0 -3 -0.5t-3 -0.5q-7 0 -7 7q0 6 1 10l140 658q4 17 18 19l121 19
q2 0 5 0.5t4 0.5q8 0 8 -7q0 -5 -1 -9l-67 -295q-9 -41 -9 -54t8 -20.5t21 -7.5q40 0 71.5 54t50.5 144l34 159q2 10 4 12.5t11 3.5l124 20q3 1 9 1q7 0 7 -7q0 -1 -2 -11z" />
    <glyph glyph-name="mu" unicode="&#x3bc;" horiz-adv-x="536" 
d="M526 486l-74 -327q-8 -39 -8 -59v-12q0 -11 4.5 -29.5t4.5 -28.5t-12 -13l-99 -32q-4 -1 -11 -1q-10 0 -17.5 22.5t-7.5 56.5v9q-70 -88 -143 -88h-7l-34 -159q-2 -9 -4.5 -12t-11.5 -4l-125 -19q-1 0 -3 -0.5t-3 -0.5q-7 0 -7 7q0 6 1 10l140 658q4 17 18 19l121 19
q2 0 5 0.5t4 0.5q8 0 8 -7q0 -5 -1 -9l-67 -295q-9 -41 -9 -54t8 -20.5t21 -7.5q40 0 71.5 54t50.5 144l34 159q2 10 4 12.5t11 3.5l124 20q3 1 9 1q7 0 7 -7q0 -1 -2 -11z" />
    <glyph glyph-name="paragraph" unicode="&#xb6;" horiz-adv-x="758" 
d="M743 590q0 -13 -3.5 -16.5t-16.5 -3.5h-41v-736q0 -14 -3 -17t-17 -3h-79q-11 0 -16 1t-8 5.5t-3 13.5v736h-82v-736q0 -14 -3 -17t-17 -3h-89q-13 0 -16.5 3t-3.5 17v320q-24 -6 -48 -6q-108 0 -169 69t-61 194q0 188 117 247q34 17 68.5 22.5t102.5 5.5h368
q13 0 16.5 -3.5t3.5 -16.5v-76zM345 265v304q-73 0 -98.5 -33t-25.5 -109q0 -92 23 -129.5t69 -37.5q12 0 32 5z" />
    <glyph glyph-name="guillemotright" unicode="&#xbb;" horiz-adv-x="642" 
d="M633 261q4 -7 4 -15q0 -7 -5 -12l-221 -227q-8 -8 -14 -8q-5 0 -17 7l-68 40q-9 6 -9 12q0 5 8 15l161 183l-77 180q-4 8 -4 12q0 8 13 13l87 33q10 4 13 4q6 0 12 -10zM375 261q4 -7 4 -15q0 -7 -5 -12l-221 -227q-8 -8 -14 -8q-5 0 -17 7l-68 40q-9 6 -9 12q0 5 8 15
l161 183l-77 180q-4 8 -4 12q0 8 13 13l87 33q10 4 13 4q6 0 12 -10z" />
    <glyph glyph-name="divide" unicode="&#xf7;" horiz-adv-x="522" 
d="M349 476q0 -36 -26 -61.5t-62 -25.5t-61.5 25.5t-25.5 61.5t25.5 62t61.5 26t62 -26t26 -62zM500 231q0 -14 -3.5 -17t-17.5 -3h-436q-14 0 -17 3t-3 17v94q0 13 3 17t17 4h436q14 0 17.5 -4t3.5 -17v-94zM349 80q0 -36 -26 -61t-62 -25t-61.5 25t-25.5 61t25.5 62
t61.5 26t62 -26t26 -62z" />
    <glyph glyph-name="dotlessi" unicode="&#x131;" horiz-adv-x="299" 
d="M285 477l-100 -466q-2 -11 -14 -11h-121q-15 0 -15 8q0 4 1 7l78 366h-62q-13 0 -13 8l1 1v3l17 85q2 11 4.5 13.5t11.5 2.5h200q14 0 14 -7q0 -2 -2 -10z" />
    <glyph glyph-name="florin" unicode="&#x192;" horiz-adv-x="549" 
d="M563 675l-27 -86q-4 -10 -10 -10q-2 0 -10 2q-43 16 -57 16q-27 0 -37.5 -16.5t-18.5 -55.5l-6 -29h105q17 0 17 -10q0 -3 -2 -11l-16 -74q-4 -18 -22 -18h-105l-77 -385q-21 -104 -71 -153.5t-140 -49.5q-27 0 -51 5.5t-36 12.5t-12 13q0 1 2 11l23 81q3 11 10 11
q8 0 24.5 -3.5t25.5 -3.5q34 0 50.5 18t28.5 79l74 364h-62q-18 0 -18 11q0 6 1 10l13 72q2 13 5.5 16.5t15.5 3.5h70l9 45q18 95 59.5 136.5t132.5 41.5q37 0 75.5 -10t38.5 -25q0 -1 -2 -9z" />
    <glyph glyph-name="dotaccent" unicode="&#x2d9;" horiz-adv-x="371" 
d="M319 646q0 -38 -26.5 -64.5t-64.5 -26.5t-65 26.5t-27 64.5t27 64.5t65 26.5t64.5 -26.5t26.5 -64.5z" />
    <glyph glyph-name="Delta" unicode="&#x394;" horiz-adv-x="562" 
d="M312 686h130q14 0 14 -15l60 -652q0 -19 -20 -19h-521q-16 0 -16 11q0 3 2 7l331 655q6 13 20 13zM344 122v405l-175 -405h175z" />
    <glyph glyph-name="Delta" unicode="&#x2206;" horiz-adv-x="562" 
d="M312 686h130q14 0 14 -15l60 -652q0 -19 -20 -19h-521q-16 0 -16 11q0 3 2 7l331 655q6 13 20 13zM344 122v405l-175 -405h175z" />
    <glyph glyph-name="afii10023" unicode="&#x401;" horiz-adv-x="480" 
d="M548 686q11 0 11 -9q0 -1 -2 -7l-45 -102q-4 -11 -14 -11h-203l-28 -135h175q9 0 9 -8l-22 -107q-2 -14 -15 -14h-175l-35 -164h215q13 0 13 -9l-21 -105q-4 -15 -14 -15h-366q-11 0 -11 13l141 664q2 9 10 9h377zM405 803q0 30 21.5 51.5t51.5 21.5t51.5 -21.5
t21.5 -51.5t-21.5 -51.5t-51.5 -21.5t-51.5 21.5t-21.5 51.5zM211 803q0 30 21.5 51.5t51.5 21.5t51.5 -21.5t21.5 -51.5t-21.5 -51.5t-51.5 -21.5t-51.5 21.5t-21.5 51.5z" />
    <glyph glyph-name="afii10051" unicode="&#x402;" horiz-adv-x="668" 
d="M206 556h-122q-15 0 -15 10q0 5 1 7l22 99q2 9 5.5 11.5t12.5 2.5h454q15 0 15 -10q0 -4 -2 -8l-45 -100q-5 -12 -20 -12h-148l-32 -149q61 27 132 27q84 0 127 -45q37 -41 37 -110q0 -126 -64.5 -211t-175.5 -85q-36 0 -58.5 5.5t-28.5 10.5t-6 8q0 5 3 12l35 92
q2 7 9 7q4 0 6 -1l8 -3q18 -6 30 -6q27 0 45 24t24 51t6 53q0 36 -14 54t-50 18q-43 0 -91 -23l-56 -265q-4 -20 -23 -20h-121q-15 0 -15 12q0 4 1 7z" />
    <glyph glyph-name="afii10052" unicode="&#x403;" horiz-adv-x="461" 
d="M537 669l-44 -99q-6 -13 -18 -13h-179l-115 -543q-2 -9 -5 -11.5t-12 -2.5h-130q-13 0 -13 9q0 2 2 12l139 651q2 9 5 11.5t12 2.5h348q12 0 12 -9q0 -2 -2 -8zM497 840q6 -12 6 -13q0 -6 -13 -10l-203 -74q-2 -1 -4 -1.5t-3 -1t-2.5 -1t-2.5 -0.5q-3 0 -12 9l-38 44
q-6 6 -6 12t12 13l188 109q10 5 14 5q8 0 15 -12z" />
    <glyph glyph-name="afii10053" unicode="&#x404;" horiz-adv-x="483" 
d="M405 143l34 -88q1 -2 1 -6q0 -26 -66.5 -46t-121.5 -20q-95 0 -147 52q-61 61 -61 184q0 101 34 215t111 187q86 82 203 82q59 0 103 -19q64 -31 64 -52q0 -6 -4 -11l-60 -82q-3 -5 -10 -5q-5 0 -9 3l-10 9q-34 30 -77 30q-61 0 -98.5 -48.5t-50.5 -111.5h158q14 0 14 -9
q0 -5 -1 -9l-20 -89q-4 -20 -21 -20h-155q-8 -42 -8 -79q0 -100 83 -100q40 0 86 28l13 8q6 2 7 2q7 0 9 -5z" />
    <glyph glyph-name="afii10054" unicode="&#x405;" horiz-adv-x="526" 
d="M542 618l-43 -80q-4 -8 -14 -8q-13 0 -37 13q-55 29 -102 29q-44 0 -68.5 -21t-24.5 -55q0 -30 37 -57q15 -11 81 -52q56 -35 83.5 -73t27.5 -91q0 -106 -75.5 -171.5t-196.5 -65.5q-49 0 -128.5 20.5t-79.5 44.5q0 6 4 13l49 90q6 12 15 12q2 0 8 -2q1 0 18 -8.5
t34.5 -16t43.5 -14t47 -6.5q47 0 73 21t26 57q0 39 -48 70l-64 42q-65 42 -89 75.5t-24 91.5q0 104 71.5 164t195.5 60q52 0 119.5 -20.5t67.5 -43.5q0 -4 -7 -18z" />
    <glyph glyph-name="afii10055" unicode="&#x406;" horiz-adv-x="363" 
d="M416 668l-19 -88q-2 -9 -5 -11.5t-13 -2.5h-50l-95 -446h50q12 0 12 -8q0 -6 -1 -9l-18 -88q-2 -10 -5 -12.5t-13 -2.5h-260q-12 0 -12 9q0 2 2 10l17 87q1 9 4.5 11.5t13.5 2.5h50l95 446h-49q-12 0 -12 11q0 5 1 8l18 87q2 9 5 11.5t13 2.5h259q13 0 13 -9q0 -6 -1 -9z
" />
    <glyph glyph-name="afii10056" unicode="&#x407;" horiz-adv-x="363" 
d="M415 672l-20 -92q-3 -14 -18 -14h-50l-95 -446h50q13 0 13 -7q0 -2 -2 -10l-18 -88q-2 -9 -5 -12t-13 -3h-260q-12 0 -12 8q0 4 1 7l18 91q2 14 11 14h57l95 446h-49q-12 0 -12 11q0 5 1 8l18 87q2 14 11 14h266q14 0 14 -9v-2q-1 -2 -1 -3zM295 820q0 35 24.5 59.5
t59.5 24.5t59.5 -24.5t24.5 -59.5t-24.5 -59.5t-59.5 -24.5t-59.5 24.5t-24.5 59.5zM110 820q0 35 24.5 59.5t59.5 24.5t59.5 -24.5t24.5 -59.5t-24.5 -59.5t-59.5 -24.5t-59.5 24.5t-24.5 59.5z" />
    <glyph glyph-name="afii10057" unicode="&#x408;" horiz-adv-x="458" 
d="M484 670l-97 -459q-25 -117 -84.5 -170t-153.5 -53q-74 0 -117 39.5t-43 108.5q0 37 8 61t21 24h110q11 0 11 -7t-4 -27t-4 -27q0 -43 33 -43q23 0 36 15t22 55l81 379h-138q-14 0 -14 10q0 5 1 9l19 87q2 9 5 11.5t13 2.5h282q14 0 14 -8q0 -5 -1 -8z" />
    <glyph glyph-name="afii10058" unicode="&#x409;" horiz-adv-x="865" 
d="M512 128h45q118 0 118 109q0 30 -18 46t-49 16h-59zM445 556h-102l-32 -136q-29 -123 -55 -197q-84 -240 -267 -240q-19 0 -20 12l-9 106q0 16 13 18l16 2q42 4 75 36q29 28 53 96t59 220l45 198q3 15 17 15h377q14 0 14 -12l-54 -255h55q28 0 50.5 -2t53.5 -12
t51.5 -27.5t35 -50.5t14.5 -79q0 -111 -69 -179q-71 -69 -215 -69h-211q-10 0 -10 9q0 1 0.5 3t0.5 3z" />
    <glyph glyph-name="afii10059" unicode="&#x40a;" horiz-adv-x="867" 
d="M514 128h45q118 0 118 109q0 30 -18 46t-49 16h-59zM620 686q11 0 11 -10q0 -1 -1 -4v-2l-53 -251h55q28 0 50.5 -2t53.5 -12t51.5 -27.5t35 -50.5t14.5 -79q0 -111 -69 -179q-71 -69 -215 -69h-211q-10 0 -10 9q0 1 0.5 3t0.5 3l58 274h-154l-59 -275q-1 -6 -2 -8.5
t-4.5 -4t-10.5 -1.5h-130q-12 0 -12 10q0 6 1 10l139 652q3 14 14 14h132q14 0 14 -7q0 -4 -1 -7l-53 -252h153l55 259q1 7 9 7h138z" />
    <glyph glyph-name="afii10060" unicode="&#x40b;" horiz-adv-x="658" 
d="M364 556l-32 -149q69 27 136 27q47 0 79 -12.5t46.5 -34t19.5 -40t5 -38.5q0 -16 -5 -46l-51 -243q-4 -20 -24 -20h-119q-16 0 -16 13q0 4 1 7l45 215q3 12 3 25q0 48 -60 48q-42 0 -86 -22l-56 -266q-4 -20 -24 -20h-120q-15 0 -15 14q0 1 0.5 2.5t0.5 2.5l114 537h-122
q-15 0 -15 12l1 2v3l21 99q3 14 18 14h455q15 0 15 -10q0 -2 -2 -8l-44 -98q-6 -14 -22 -14h-147z" />
    <glyph glyph-name="afii10061" unicode="&#x40c;" horiz-adv-x="595" 
d="M159 672q3 14 15 14h135q8 0 8 -9l-54 -258h25q41 0 66.5 20.5t41.5 65.5l21 60q23 67 76 102.5t121 35.5q24 0 25 -13l6 -96q0 -7 -2.5 -10.5t-5 -4.5t-10.5 -3l-15 -3l-6 -1q-7 0 -9 -1t-8.5 -3t-10 -5.5t-9 -9.5t-10.5 -15.5t-10 -21.5l-25 -63q-14 -35 -39 -62
t-59 -32v-3q64 -24 64 -105l1 -64q0 -28 5.5 -42.5t9 -16t15.5 -4.5l24 -5q13 -3 13 -11q0 -4 -3 -10l-46 -100q-6 -15 -26 -15q-75 0 -110 36q-30 31 -30 103v101q0 24 -6.5 39t-19.5 20.5t-22.5 7t-24.5 1.5h-34l-58 -276q-4 -15 -16 -15h-130q-13 0 -13 9q0 1 0.5 3
t0.5 4zM552 840q6 -12 6 -13q0 -6 -13 -10l-203 -74l-12 -4q-3 0 -12 9l-38 44q-6 6 -6 12t12 13l188 109q10 5 14 5q8 0 15 -12z" />
    <glyph glyph-name="afii10062" unicode="&#x40e;" 
d="M546 889q-11 -61 -60 -102.5t-119 -41.5q-61 0 -94 35t-33 87q0 33 15 34l80 9q2 0 4.5 0.5t3.5 0.5q12 0 12 -11q0 -2 -1 -8.5t-1 -9.5q0 -32 32 -32q23 0 41 31t23 31q7 0 12 -1l77 -11q8 -2 8 -9v-2zM304 312h4q42 98 64 153l90 218q6 11 14 11l131 -10q11 -2 11 -9
q0 -1 -2 -7l-240 -508q-38 -79 -73 -118q-56 -59 -143 -59q-48 0 -96.5 15.5t-48.5 37.5q0 4 3 9l49 86q4 8 11 8q4 0 10 -4l10 -6q32 -20 65 -20q54 0 83 69l13 30h-73q-8 0 -10 9l-77 453q0 13 16 14l139 10q8 0 10 -10l26 -225q11 -82 14 -147z" />
    <glyph glyph-name="afii10145" unicode="&#x40f;" horiz-adv-x="609" 
d="M634 673l-138 -651q-3 -14 -8 -18t-20 -4h-136l-36 -166q-3 -12 -11 -12h-128q-10 0 -10 9q0 1 0.5 3t0.5 3l35 163h-152q-11 0 -11 9l141 667q3 10 11 10h138q11 0 11 -9q0 -1 -1 -3l-115 -544h154l117 546q1 10 12 10h134q13 0 13 -8l-1 -2v-3z" />
    <glyph glyph-name="afii10017" unicode="&#x410;" horiz-adv-x="570" 
d="M522 22v-9q0 -7 -3 -10t-13 -3h-130q-10 0 -13 3t-4 14l-8 157h-145l-74 -162q-5 -12 -20 -12h-131q-16 0 -16 9q0 4 3 10l331 656q5 11 18 11h127q11 0 14 -3t4 -13zM349 528q-19 -48 -37 -88l-68 -154h103v161q0 27 2 81z" />
    <glyph glyph-name="afii10018" unicode="&#x411;" horiz-adv-x="574" 
d="M42 0q-10 0 -10 10l142 666q1 10 12 10h377q13 0 13 -8q0 -1 -2 -7l-46 -103q-5 -11 -17 -11h-204l-29 -138h54q204 0 204 -170q0 -60 -19.5 -106t-48.5 -72t-66.5 -43t-69 -22.5t-61.5 -5.5h-229zM216 128h56q52 0 80 30q26 28 26 78q0 63 -77 63h-48z" />
    <glyph glyph-name="afii10019" unicode="&#x412;" horiz-adv-x="562" 
d="M556 526q0 -116 -125 -168q84 -38 84 -139q0 -65 -32.5 -116.5t-85.5 -75.5q-35 -15 -70.5 -21t-104.5 -6h-186q-15 0 -15 10q0 2 2 10l139 652q2 9 5 11.5t12 2.5h170q98 0 152.5 -40.5t54.5 -119.5zM400 515q0 51 -65 51h-39l-34 -158h29q52 0 80.5 28.5t28.5 78.5z
M357 234q0 32 -18.5 45t-65.5 13h-36l-36 -172h34q65 0 93.5 27t28.5 87z" />
    <glyph glyph-name="afii10020" unicode="&#x413;" horiz-adv-x="461" 
d="M537 669l-44 -99q-6 -13 -18 -13h-179l-115 -543q-2 -9 -5 -11.5t-12 -2.5h-130q-13 0 -13 9q0 2 2 12l139 651q2 9 5 11.5t12 2.5h348q12 0 12 -9q0 -2 -2 -8z" />
    <glyph glyph-name="afii10021" unicode="&#x414;" horiz-adv-x="619" 
d="M404 0h-312l-32 -150q-3 -13 -15 -13h-116q-10 0 -10 10q0 1 0.5 3t0.5 3l56 263q3 12 15 12h45q66 88 103 192q33 94 65 246l23 107q2 8 4.5 10.5t10.5 2.5h364q13 0 13 -11l-115 -547h48q15 0 15 -14q0 -6 -1 -9l-53 -251q-4 -17 -16 -17h-115q-10 0 -10 9q0 6 1 8z
M347 558l-19 -85q-51 -222 -136 -345h154l92 430h-91z" />
    <glyph glyph-name="afii10022" unicode="&#x415;" horiz-adv-x="484" 
d="M555 663l-42 -95q-5 -11 -20 -11h-197l-28 -135h172q13 0 13 -8q0 -2 -2 -10l-21 -97q-2 -9 -5 -11.5t-12 -2.5h-173l-35 -164h215q13 0 13 -8q0 -2 -2 -12l-19 -94q-2 -10 -5 -12.5t-13 -2.5h-359q-14 0 -14 12q0 2 2 12l138 648q2 9 5 11.5t12 2.5h367q14 0 14 -8
q0 -7 -4 -15z" />
    <glyph glyph-name="afii10024" unicode="&#x416;" horiz-adv-x="915" 
d="M467 679q2 7 8 7h140q9 0 9 -8v-4l-1 -2l-54 -253h21q63 0 95 78l29 73q25 62 76.5 97.5t113.5 35.5q23 0 24 -16l7 -98q0 -11 -14 -13l-26 -5q-35 -7 -57 -56l-31 -74q-28 -65 -93 -82v-3q65 -20 65 -116v-47q0 -24 1.5 -38t7.5 -20t8 -7t14 -4l24 -5q12 -3 12 -11
q0 -1 -3 -10l-44 -100q-7 -15 -26 -15q-73 0 -109 32q-34 30 -34 111v107q0 35 -16.5 46.5t-41.5 11.5h-30l-59 -275q-3 -16 -12 -16h-137q-10 0 -10 9q0 6 1 8l59 274h-32q-26 0 -45 -13t-26.5 -25.5t-14.5 -31.5l-39 -95q-26 -67 -55 -95q-48 -48 -141 -48q-17 0 -19 10
l-17 109q0 14 14 17l17 3q46 7 68 58l33 73q11 25 20.5 41t34 36.5t58.5 28.5l1 3q-25 11 -37 29t-13 60l-3 75q0 40 -36 46l-22 4q-9 2 -9 13q0 7 2 11l36 90q5 13 32 13q70 0 105 -35q30 -30 30 -92v-79q0 -26 5.5 -43.5t16 -24t18.5 -8.5t19 -2h26z" />
    <glyph glyph-name="afii10025" unicode="&#x417;" horiz-adv-x="508" 
d="M151 308l20 91q2 9 3 12t5.5 5.5t12.5 2.5h31q117 0 117 85q0 34 -22 52.5t-60 18.5t-92 -31l-14 -8q-5 -4 -14 -4t-12 7l-35 77q-2 6 -2 8q0 33 67 56t133 23q62 0 107 -18t67 -47t31.5 -58t9.5 -60q0 -77 -48 -125q-32 -32 -83 -46q89 -33 89 -143q0 -92 -55 -150
q-69 -73 -200 -73q-72 0 -145 24.5t-73 52.5q0 4 3 10l40 83q4 8 11 8q5 0 13 -5l16 -10q57 -35 111 -35q52 0 83 30q30 30 30 78q0 34 -25.5 53.5t-74.5 19.5h-35q-10 0 -10 14v2z" />
    <glyph glyph-name="afii10026" unicode="&#x418;" horiz-adv-x="632" 
d="M519 686h126q13 0 13 -10q0 -1 -0.5 -3t-0.5 -3l-141 -661q-2 -9 -12 -9h-133q-11 0 -11 8v2q1 1 1 2l62 286q2 9 5.5 21.5t9 35t10.5 41.5h-5q-25 -42 -73 -110l-195 -276q-7 -10 -23 -10h-121q-12 0 -12 12q0 2 0.5 4t0.5 3l140 656q3 11 11 11h136q9 0 9 -6
q0 -4 -1 -6l-52 -243q-8 -36 -33 -123h5q11 17 76 109l185 261q7 8 18 8h5z" />
    <glyph glyph-name="afii10027" unicode="&#x419;" horiz-adv-x="632" 
d="M277 892l74 9q4 1 12 1q15 0 15 -14v-4q0 -55 45 -55q52 0 73 55l4 9q5 10 13 10l91 -12q10 -2 10 -13l-1 -7q-10 -41 -34 -70t-54 -43t-56 -19.5t-51 -5.5q-57 0 -107 32.5t-50 99.5v6q0 18 16 21zM519 686h126q13 0 13 -10q0 -1 -0.5 -3t-0.5 -3l-141 -661
q-2 -9 -12 -9h-133q-11 0 -11 8v2q1 1 1 2l62 286q2 9 5.5 21.5t9 35t10.5 41.5h-5q-25 -42 -73 -110l-195 -276q-7 -10 -23 -10h-121q-12 0 -12 12q0 2 0.5 4t0.5 3l140 656q3 11 11 11h136q9 0 9 -6q0 -4 -1 -6l-52 -243q-8 -36 -33 -123h5q11 17 76 109l185 261q7 8 18 8
h5z" />
    <glyph glyph-name="afii10028" unicode="&#x41a;" horiz-adv-x="595" 
d="M159 672q3 14 15 14h135q8 0 8 -9l-54 -258h25q41 0 66.5 20.5t41.5 65.5l21 60q23 67 76 102.5t121 35.5q24 0 25 -13l6 -96q0 -7 -2.5 -10.5t-5 -4.5t-10.5 -3l-15 -3l-6 -1q-7 0 -9 -1t-8.5 -3t-10 -5.5t-9 -9.5t-10.5 -15.5t-10 -21.5l-25 -63q-14 -35 -39 -62
t-59 -32v-3q64 -24 64 -105l1 -64q0 -28 5.5 -42.5t9 -16t15.5 -4.5l24 -5q13 -3 13 -11q0 -4 -3 -10l-46 -100q-6 -15 -26 -15q-75 0 -110 36q-30 31 -30 103v101q0 24 -6.5 39t-19.5 20.5t-22.5 7t-24.5 1.5h-34l-58 -276q-4 -15 -16 -15h-130q-13 0 -13 9q0 1 0.5 3
t0.5 4z" />
    <glyph glyph-name="afii10029" unicode="&#x41b;" horiz-adv-x="652" 
d="M343 556l-32 -136q-29 -123 -55 -197q-84 -240 -267 -240q-19 0 -20 12l-9 106q0 16 13 18l16 2q42 4 75 36q29 28 53 96t59 220l45 198q3 15 17 15h375q14 0 14 -12l-141 -664q-2 -10 -11 -10h-137q-9 0 -9 10l116 546h-102z" />
    <glyph glyph-name="afii10030" unicode="&#x41c;" horiz-adv-x="691" 
d="M693 668l-107 -653q-1 -10 -4.5 -12.5t-13.5 -2.5h-122q-12 0 -12 9q0 3 2 13l58 303q2 7 9.5 45.5t12.5 62.5q-39 -88 -49 -107l-89 -169q-6 -11 -19 -11h-69q-10 0 -13 3t-4 13l-14 161q-2 20 -4 65t-2 49q-2 -7 -10 -50t-13 -65l-70 -308q-2 -9 -5 -11.5t-13 -2.5
h-118q-12 0 -12 8q0 2 2 10l169 654q2 9 5 11.5t13 2.5h124q10 0 13.5 -3t4.5 -13l22 -222q2 -34 2 -70v-31q26 62 47 100l129 228q5 11 18 11h120q13 0 13 -9q0 -6 -1 -9z" />
    <glyph glyph-name="afii10031" unicode="&#x41d;" horiz-adv-x="613" 
d="M635 668l-139 -654q-2 -9 -5 -11.5t-13 -2.5h-128q-13 0 -13 9q0 6 1 9l57 271h-154l-59 -275q-2 -9 -5 -11.5t-12 -2.5h-130q-13 0 -13 9q0 3 2 11l139 652q2 9 5 11.5t12 2.5h129q14 0 14 -7q0 -2 -2 -12l-52 -247h154l54 252q2 9 5 11.5t12 2.5h127q16 0 16 -8
q0 -2 -2 -10z" />
    <glyph glyph-name="afii10032" unicode="&#x41e;" horiz-adv-x="593" 
d="M589 491q0 -135 -39.5 -249t-119 -186.5t-184.5 -72.5q-97 0 -149.5 56t-52.5 157q0 92 21.5 180t62.5 162t108.5 119.5t151.5 45.5q95 0 148 -56.5t53 -155.5zM425 488q0 51 -12.5 69.5t-38.5 18.5q-45 0 -84 -58t-60.5 -145t-21.5 -175q0 -50 12.5 -69t38.5 -19
q44 0 83 57.5t61 145t22 175.5z" />
    <glyph glyph-name="afii10033" unicode="&#x41f;" horiz-adv-x="605" 
d="M627 668l-139 -654q-2 -9 -5 -11.5t-13 -2.5h-128q-13 0 -13 9q0 6 1 9l113 537h-146l-115 -541q-2 -9 -5 -11.5t-12 -2.5h-130q-13 0 -13 9q0 3 2 11l139 652q2 9 5 11.5t12 2.5h433q16 0 16 -8q0 -2 -2 -10z" />
    <glyph glyph-name="afii10034" unicode="&#x420;" horiz-adv-x="525" 
d="M564 524q0 -120 -78 -189t-213 -69h-37l-54 -252q-2 -9 -5 -11.5t-12 -2.5h-130q-13 0 -13 8q0 2 2 12l139 652q2 9 5 11.5t12 2.5h158q117 0 171.5 -40.5t54.5 -121.5zM407 509q0 30 -17 42.5t-59 12.5h-31l-37 -172h24q60 0 90 33.5t30 83.5z" />
    <glyph glyph-name="afii10035" unicode="&#x421;" horiz-adv-x="491" 
d="M558 614l-53 -83q-4 -7 -12 -7q-6 0 -21 10q-51 38 -87 38q-41 0 -76 -36.5t-55.5 -90.5t-31.5 -111t-11 -105q0 -59 20 -83.5t61 -24.5q38 0 89 28q13 8 20 8q5 0 8 -5l40 -91q2 -6 2 -8q0 -18 -68 -44t-133 -26q-96 0 -149.5 63.5t-53.5 177.5q0 89 20.5 172t61 152.5
t108 112t152.5 42.5q91 0 164 -57q11 -8 11 -16q0 -7 -6 -16z" />
    <glyph glyph-name="afii10036" unicode="&#x422;" horiz-adv-x="468" 
d="M566 666l-46 -107q-5 -12 -19 -12h-128l-112 -533q-2 -9 -5 -11.5t-13 -2.5h-126q-16 0 -16 9q0 2 2 12l112 526h-133q-12 0 -12 7q0 1 2 13l22 103q2 11 5 13.5t12 2.5h444q14 0 14 -9q0 -5 -3 -11z" />
    <glyph glyph-name="afii10037" unicode="&#x423;" 
d="M304 312h4q42 98 64 153l90 218q6 11 14 11l131 -10q11 -2 11 -9q0 -1 -2 -7l-240 -508q-38 -79 -73 -118q-56 -59 -143 -59q-48 0 -96.5 15.5t-48.5 37.5q0 4 3 9l49 86q4 8 11 8q4 0 10 -4l10 -6q32 -20 65 -20q54 0 83 69l13 30h-73q-8 0 -10 9l-77 453q0 13 16 14
l139 10q8 0 10 -10l26 -225q11 -82 14 -147z" />
    <glyph glyph-name="afii10038" unicode="&#x424;" horiz-adv-x="745" 
d="M397 724q3 10 10 10h140q9 0 9 -7q0 -4 -1 -6l-20 -93h12q50 0 87 -16t57 -38.5t32 -53t15 -53t3 -44.5q0 -59 -15.5 -112t-48.5 -99.5t-93 -74.5t-141 -28h-20l-20 -94q-3 -15 -11 -15h-139q-9 0 -9 10v4l1 2l20 93h-13q-55 0 -95 20t-59.5 51.5t-28.5 63t-9 62.5
q0 66 23.5 133t67.5 112q77 77 198 77h27zM442 225h18q50 0 82 31q26 25 41.5 76.5t15.5 97.5q0 82 -81 82h-15zM357 512h-19q-64 0 -100 -61.5t-36 -140.5q0 -28 7.5 -47t20.5 -26.5t22.5 -9.5t22.5 -2h21z" />
    <glyph glyph-name="afii10039" unicode="&#x425;" horiz-adv-x="544" 
d="M615 651l-236 -300l122 -327q3 -7 3 -11q0 -6 -13 -9l-132 -21q-5 -1 -11 -1q-7 0 -11 13l-50 170q-5 18 -12 55q-22 -34 -37 -55l-126 -171q-8 -11 -19 -11q-1 0 -3 0.5t-3 0.5l-129 24q-12 3 -12 9q0 4 7 13l267 335l-113 287q-3 8 -3 12q0 8 15 10l122 20q4 1 10 1
q7 0 11 -13l40 -137q8 -25 15 -66q23 45 38 66l95 142q6 9 13 9q2 0 12 -2l134 -22q12 -3 12 -9q0 -5 -6 -12z" />
    <glyph glyph-name="afii10040" unicode="&#x426;" horiz-adv-x="604" 
d="M619 673l-115 -543h50q15 0 15 -14q0 -1 -0.5 -3t-0.5 -3l-55 -261q-3 -12 -11 -12h-119q-10 0 -10 11l32 152h-374q-11 0 -11 9l141 667q3 10 11 10h137q11 0 11 -9v-1l-1 -2l-115 -544h140l117 546q1 10 12 10h134q13 0 13 -8v-2q-1 -2 -1 -3z" />
    <glyph glyph-name="afii10041" unicode="&#x427;" horiz-adv-x="584" 
d="M138 675q2 11 11 11h139q9 0 9 -8q0 -1 -1 -4v-2l-45 -213q-5 -22 -5 -38q0 -52 63 -52q35 0 79 20l63 290q2 7 9 7h140q9 0 9 -8l-141 -664q-4 -14 -12 -14h-138q-10 0 -10 9q0 5 1 7l55 254q-56 -27 -124 -27q-59 0 -110 35.5t-51 102.5q0 20 5 42z" />
    <glyph glyph-name="afii10042" unicode="&#x428;" horiz-adv-x="880" 
d="M23 18l139 654q2 9 5 11.5t13 2.5h128q13 0 13 -9q0 -6 -1 -9l-113 -538h131l115 542q2 9 5 11.5t12 2.5h130q13 0 13 -9q0 -3 -2 -11l-113 -536h130l115 542q2 9 5 11.5t12 2.5h130q13 0 13 -9q0 -3 -2 -11l-139 -652q-2 -9 -5 -11.5t-12 -2.5h-708q-16 0 -16 8
q0 2 2 10z" />
    <glyph glyph-name="afii10043" unicode="&#x429;" horiz-adv-x="883" 
d="M898 672l-115 -542h53q12 0 12 -14q0 -1 -0.5 -3t-0.5 -3l-55 -260q-4 -13 -15 -13h-112q-13 0 -13 9l32 154h-653q-12 0 -12 7q0 4 1 6l141 662q2 11 11 11h138q9 0 9 -10l-115 -546h130l118 548q2 8 11 8h137q10 0 10 -10l-116 -546h130l116 542q7 13 13 14h133
q13 0 13 -9q0 -3 -1 -5z" />
    <glyph glyph-name="afii10044" unicode="&#x42a;" horiz-adv-x="651" 
d="M233 556h-169q-10 0 -10 9q0 3 1 5l38 107q4 9 12 9h298q12 0 12 -10q0 -1 -0.5 -3t-0.5 -3l-53 -251h55q28 0 50.5 -2t53.5 -12t51.5 -27.5t35 -50.5t14.5 -79q0 -111 -69 -179q-71 -69 -215 -69h-211q-10 0 -10 9q0 1 0.5 3t0.5 3zM298 128h41q122 0 122 109
q0 30 -18 46t-49 16h-59z" />
    <glyph glyph-name="afii10045" unicode="&#x42b;" horiz-adv-x="810" 
d="M308 686q11 0 11 -10q0 -1 -1 -4v-2l-53 -251h49q28 0 50.5 -2t53.5 -12t51.5 -27.5t35 -50.5t14.5 -79q0 -111 -69 -179q-71 -69 -215 -69h-206q-10 0 -10 9q0 1 0.5 3t0.5 3l140 664q1 7 9 7h139zM688 686h140q7 0 7 -7l-140 -665q-3 -14 -11 -14h-137q-11 0 -11 11
l141 665q3 10 11 10zM202 128h47q28 0 51.5 7t44 33t20.5 69q0 30 -18 46t-49 16h-59z" />
    <glyph glyph-name="afii10046" unicode="&#x42c;" horiz-adv-x="555" 
d="M202 128h45q118 0 118 109q0 30 -18 46t-49 16h-59zM308 686q11 0 11 -10q0 -1 -1 -4v-2l-53 -251h55q28 0 50.5 -2t53.5 -12t51.5 -27.5t35 -50.5t14.5 -79q0 -111 -69 -179q-71 -69 -215 -69h-212q-10 0 -10 9q0 1 0.5 3t0.5 3l140 664q1 7 9 7h139z" />
    <glyph glyph-name="afii10047" unicode="&#x42d;" horiz-adv-x="499" 
d="M133 304l19 89q0 2 1 6q3 14 11 16l13 1h153q5 32 5 54q0 45 -20 75t-61 30q-38 0 -91 -32l-12 -7q-7 -4 -12 -4q-10 0 -12 8l-25 73q-2 4 -2 10q0 37 64.5 58.5t118.5 21.5q97 0 152 -55q60 -60 60 -183q0 -91 -17.5 -173t-54 -153.5t-100 -113.5t-147.5 -42
q-109 0 -173 52l-11 9q-7 6 -7 15q0 4 2 8l46 79q5 9 13 9q4 0 9 -3l11 -7q43 -28 66 -32q12 -2 26 -2q37 0 65.5 19.5t45 50.5t24.5 56.5t12 50.5h-162q-11 0 -11 10q0 4 1 6z" />
    <glyph glyph-name="afii10048" unicode="&#x42e;" horiz-adv-x="862" 
d="M266 420h84q14 57 42 110.5t62 87.5q81 85 203 85q44 0 78.5 -10.5t55.5 -30t35 -41t20.5 -48.5t9 -47t2.5 -42q0 -109 -39.5 -232t-107.5 -190q-79 -79 -195 -79q-51 0 -89 16t-59 38.5t-34 54t-16.5 56.5t-3.5 51q0 49 8 90h-84l-60 -279q-2 -10 -14 -10h-134
q-10 0 -10 8l141 666q3 12 13 12h137q9 0 9 -6q0 -1 -0.5 -3t-0.5 -3zM477 192q0 -82 50 -82q33 0 61 26q32 31 69 131t37 222q0 44 -11.5 65.5t-38.5 21.5q-90 0 -141 -189q-26 -94 -26 -195z" />
    <glyph glyph-name="afii10049" unicode="&#x42f;" horiz-adv-x="582" 
d="M369 686h228q10 0 10 -10l-142 -666q-2 -10 -13 -10h-137q-9 0 -9 9q0 1 0.5 3t0.5 3l54 256h-31q-26 0 -45.5 -14t-37.5 -59l-29 -74q-24 -64 -51 -91q-49 -50 -141 -50q-16 0 -18 11l-17 97q0 1 -0.5 3t-0.5 4q0 13 16 17l15 4q3 1 10.5 2.5l10 2t9 3.5t10 7t9.5 11
t11.5 17t11.5 24l23 52q35 76 93 93l1 3q-46 19 -67 50t-21 88q0 90 63 150q66 64 184 64zM387 393l36 168h-43q-39 0 -70.5 -21.5t-31.5 -75.5q0 -27 19.5 -49t51.5 -22h38z" />
    <glyph glyph-name="afii10065" unicode="&#x430;" horiz-adv-x="535" 
d="M521 478l-68 -318q-8 -39 -8 -71q0 -9 5 -30t5 -32q0 -8 -9 -11l-106 -30q-2 0 -5.5 -1.5t-5.5 -1.5q-5 0 -10 9t-9.5 27.5t-5.5 41.5q-68 -78 -148 -78q-63 0 -95.5 45t-32.5 124q0 145 72 252t177 107q66 0 109 -46l8 20q4 9 14 9h103q11 0 11 -7q0 -5 -1 -9zM352 383
q-32 27 -59 27q-46 0 -83.5 -81t-37.5 -184q0 -50 37 -50q80 0 111 141z" />
    <glyph glyph-name="afii10066" unicode="&#x431;" horiz-adv-x="522" 
d="M552 760l20 -87q1 -2 1 -7q0 -11 -8 -14l-214 -77q-56 -20 -100 -61t-64 -95h4q52 75 149 75q47 0 81 -16.5t50 -44t23 -53.5t7 -54q0 -70 -27.5 -144.5t-75.5 -122.5q-74 -76 -189 -76q-179 0 -179 194q0 100 32 204q67 234 269 311l202 76q2 1 7 1q8 0 12 -9zM230 95
q38 0 66.5 36.5t41.5 86.5t13 101q0 63 -52 63q-38 0 -66.5 -40t-40.5 -88.5t-12 -91.5q0 -67 50 -67z" />
    <glyph glyph-name="afii10067" unicode="&#x432;" horiz-adv-x="525" 
d="M21 43l63 279q19 82 62 125q62 64 180 64q61 0 110 -31.5t49 -98.5q0 -104 -106 -127q41 -11 61 -40t20 -65q0 -44 -17.5 -76.5t-41 -49t-56.5 -26.5t-56 -12t-48 -2q-82 0 -151.5 16t-69.5 35q0 6 1 9zM229 303h44q32 0 53.5 15.5t21.5 49.5q0 18 -11.5 30.5t-33.5 12.5
q-50 0 -63 -60zM207 205l-25 -112l9 -3q21 -7 49 -7q30 0 51 19t21 51q0 52 -67 52h-38z" />
    <glyph glyph-name="afii10068" unicode="&#x433;" horiz-adv-x="438" 
d="M355 131l9 -80q0 -1 0.5 -3t0.5 -3q0 -16 -68 -39t-123 -23q-28 0 -55.5 6.5t-54 20.5t-43 42t-16.5 66q0 62 39 99t120 67q74 28 92.5 39.5t18.5 35.5q0 19 -15.5 28t-34.5 9q-41 0 -80 -18l-20 -9q-7 -3 -11 -3q-7 0 -10 9l-14 69q-1 3 -1 7q0 27 63 43.5t114 16.5
q80 0 121 -40q36 -36 36 -100q0 -22 -2 -34.5t-11 -30.5t-27.5 -32t-52.5 -32t-85 -37q-56 -21 -74 -33.5t-18 -35.5q0 -38 50 -38q53 0 124 32l11 5q6 2 9 2q8 0 8 -6z" />
    <glyph glyph-name="afii10069" unicode="&#x434;" 
d="M183 589l-4 92v2q0 17 39.5 27.5t81.5 10.5q57 0 99 -17.5t65.5 -44t37.5 -63t18 -67.5t4 -66q0 -96 -29 -207q-13 -52 -30 -91.5t-49.5 -85t-86 -71t-125.5 -25.5q-84 0 -131 47q-48 49 -48 141q0 77 30 150t91.5 123t140.5 50q107 0 119 -95q3 27 3 54
q0 63 -31.5 103.5t-88.5 40.5q-44 0 -86 -15q-8 -2 -10 -2q-10 0 -10 9zM226 94q40 0 68.5 40t39.5 88.5t11 95.5q0 64 -51 64q-53 0 -86 -69.5t-33 -152.5q0 -66 51 -66z" />
    <glyph glyph-name="afii10070" unicode="&#x435;" horiz-adv-x="490" 
d="M482 372q0 -93 -83 -140t-214 -47h-11q-3 -9 -3 -22q0 -63 74 -63q45 0 123 38q8 4 13 4q6 0 10 -8l32 -76q1 -2 1 -6q0 -20 -69.5 -44.5t-138.5 -24.5q-90 0 -139.5 50t-49.5 140q0 139 82.5 238.5t210.5 99.5q74 0 118 -37.5t44 -101.5zM344 367q0 19 -11.5 31
t-28.5 12q-89 0 -121 -125q84 0 122.5 20t38.5 62z" />
    <glyph glyph-name="afii10072" unicode="&#x436;" horiz-adv-x="726" 
d="M384 9q-2 -9 -10 -9h-123q-8 0 -8 8l42 188h-26q-21 0 -36 -10t-20 -19t-13 -27l-28 -64q-40 -93 -163 -93q-20 0 -21 11l-8 89q0 13 14 15l16 2q12 1 17 3t14.5 11.5t20.5 29.5l29 52q28 51 82 65v3q-34 17 -36 61l-3 32q-5 34 -35 37l-20 3q-8 2 -8 11q0 3 1 5l31 83
q6 15 31 15q47 0 80 -22.5t37 -71.5l4 -58q3 -43 47 -43h18l34 155q2 10 11 11l131 21q6 0 6 -6l-40 -181h32q20 0 33 10t29 48l21 50q20 48 61.5 67.5t81.5 19.5q19 0 21 -11l10 -90q0 -10 -11 -12l-9 -2q-22 -6 -33.5 -13.5t-20.5 -25.5l-21 -41q-24 -49 -73 -58v-3
q41 -19 47 -77l3 -31q0 -1 0.5 -6t0.5 -6t1 -5.5t1.5 -6t2 -5t3.5 -5t5 -4.5t6 -4t8 -2.5t10 -2.5l16 -3q8 -1 8 -9q0 -4 -1 -6l-33 -85q-5 -14 -23 -14q-75 0 -107 33q-22 23 -25 70l-3 54q-1 19 -5 31.5t-11 17t-12.5 6t-14.5 1.5h-24z" />
    <glyph glyph-name="afii10073" unicode="&#x437;" horiz-adv-x="425" 
d="M106 217l17 71q2 9 5 11.5t12 2.5h41q77 0 77 49q0 28 -21.5 39t-45.5 11q-38 0 -78 -20l-14 -7q-8 -4 -14 -4q-8 0 -10 7l-14 75q0 24 57 41.5t106 17.5q25 0 52 -6t56.5 -21t48.5 -45.5t19 -72.5q0 -41 -22.5 -75t-73.5 -44l-1 -3q66 -33 66 -107q0 -54 -33.5 -90.5
t-75.5 -50t-87 -13.5q-52 0 -117.5 19.5t-65.5 51.5q0 4 3 10l27 61q5 10 14 10q4 0 9 -3l10 -6q54 -33 96 -33q27 0 48.5 14.5t21.5 44.5q0 50 -72 50h-30q-12 0 -12 9q0 1 0.5 3t0.5 3z" />
    <glyph glyph-name="afii10074" unicode="&#x438;" horiz-adv-x="533" 
d="M523 486l-74 -327q-8 -39 -8 -59v-12q0 -11 4.5 -29.5t4.5 -28.5t-12 -13l-99 -32q-4 -1 -11 -1q-10 0 -17.5 22.5t-7.5 56.5v9q-72 -89 -158 -89q-113 0 -115 113q0 26 11 76l67 295q2 9 4.5 12t11.5 4l121 19q2 0 5 0.5t4 0.5q8 0 8 -7q0 -5 -1 -9l-67 -295
q-9 -41 -9 -54t8 -20.5t21 -7.5q40 0 71.5 54t50.5 144l34 159q2 10 4 12.5t11 3.5l124 20q3 1 9 1q7 0 7 -7q0 -1 -2 -11z" />
    <glyph glyph-name="afii10075" unicode="&#x439;" horiz-adv-x="535" 
d="M223 709l87 12h2q10 0 10 -15v-11q0 -49 43 -49q25 0 39 10.5t30 41.5l6 11q7 12 13 12l79 -11q5 -1 7 -1.5t3.5 -3.5t1.5 -9q0 -15 -14.5 -39t-28.5 -39q-59 -62 -154 -62q-32 0 -61 10t-53.5 39.5t-24.5 74.5q0 27 15 29zM386 483l130 21h3q7 0 7 -7q0 -4 -1 -6
l-75 -332q-8 -38 -8 -65q0 -28 6 -52l2 -7q0 -1 0.5 -2.5t0.5 -2.5q0 -9 -8 -12l-107 -34q-2 -1 -4 -1q-28 0 -28 89q-73 -89 -158 -89q-116 0 -116 113q0 30 11 76l69 299q2 10 15 12l130 20q8 0 8 -7q0 -6 -1 -9l-67 -295q-9 -50 -9 -52q0 -30 29 -30q42 0 73.5 59
t47.5 133l36 170q2 9 14 11z" />
    <glyph glyph-name="afii10076" unicode="&#x43a;" horiz-adv-x="550" 
d="M220 197l-42 -186q-2 -11 -10 -11h-129q-10 0 -10 9q0 1 0.5 2.5t0.5 2.5l102 458q2 9 9 10l138 21q8 0 8 -6q0 -1 -1 -3l-39 -177h43q43 0 65 52l20 45q42 97 159 97q16 0 17 -9l9 -91q0 -12 -12 -14l-21 -3q-11 -1 -16 -3t-12.5 -10.5t-16.5 -26.5l-17 -36
q-25 -53 -75 -59v-3q20 -6 32 -20t14.5 -23.5t4.5 -26.5l4 -43q3 -34 32 -42l18 -4q8 -3 8 -10q0 -3 -3 -11l-32 -78q-6 -15 -29 -15q-71 0 -101 29q-20 19 -25 65l-5 64q-3 56 -50 56h-38z" />
    <glyph glyph-name="afii10077" unicode="&#x43b;" horiz-adv-x="565" 
d="M362 374h-85l-18 -77q-7 -31 -12 -51.5t-17 -56.5t-24.5 -60.5t-33 -54.5t-44 -48t-57 -30.5t-71.5 -12.5q-4 0 -7 0.5t-5 2t-3 2.5t-2 3t-1 3v4l-1 3l-6 76q0 18 15 20l11 2q33 5 53 22q27 24 46.5 78t60.5 235l11 48q3 12 13 12h342q8 0 8 -6l-109 -480q-2 -8 -10 -8
h-128q-11 0 -11 8l1 2v3z" />
    <glyph glyph-name="afii10078" unicode="&#x43c;" horiz-adv-x="694" 
d="M160 494h141q12 0 13 -11l20 -184q2 -26 2 -41q0 -18 -1 -27h3q13 32 36 73l103 179q7 11 17 11h145q11 0 11 -9q0 -1 -0.5 -3t-0.5 -3l-79 -467q-2 -12 -14 -12h-115q-9 0 -9 10l35 187q11 57 24 112h-2q-24 -51 -88 -158l-40 -66q-8 -12 -20 -12h-77q-9 0 -11 12
l-10 81q-13 108 -13 143h-2q-4 -23 -26 -107l-48 -187q-3 -15 -14 -15h-116q-10 0 -10 9q0 4 1 6l131 464q6 15 14 15z" />
    <glyph glyph-name="afii10079" unicode="&#x43d;" horiz-adv-x="575" 
d="M358 315l40 156q2 10 9 11l134 21q10 0 10 -8q0 -1 -1 -3l-111 -482q-2 -10 -11 -10h-129q-8 0 -8 8l40 187h-115l-43 -187q-2 -8 -10 -8h-128q-11 0 -11 8v2q1 2 1 3l103 454q4 14 14 16l134 20q8 0 8 -8v-1l-1 -2l-40 -177h115z" />
    <glyph glyph-name="afii10080" unicode="&#x43e;" horiz-adv-x="523" 
d="M499 328q0 -65 -20 -126t-56 -110.5t-92 -79t-123 -29.5q-88 0 -135.5 48t-47.5 135q0 137 80.5 241t212.5 104q84 0 132.5 -49.5t48.5 -133.5zM349 338q0 61 -54 61q-38 0 -67 -42.5t-41 -95t-12 -100.5q0 -66 51 -66q40 0 69 42t41.5 95.5t12.5 105.5z" />
    <glyph glyph-name="afii10081" unicode="&#x43f;" 
d="M509 398q0 -37 -9 -76l-71 -311q-2 -11 -14 -11h-122q-13 0 -13 10q0 5 1 8l65 288q9 40 9 55v3q-1 27 -30 27q-38 0 -69 -46.5t-49 -130.5l-43 -203q-2 -11 -14 -11h-124q-11 0 -11 10q0 7 1 11l71 310q10 43 10 76q0 25 -4 40q0 3 -1.5 7.5t-1.5 6.5q0 9 13 13l100 33
q2 1 6 1q13 0 20 -26.5t7 -54.5v-8q71 92 161 92q53 0 82.5 -30.5t29.5 -82.5z" />
    <glyph glyph-name="afii10082" unicode="&#x440;" horiz-adv-x="533" 
d="M507 357q0 -92 -28.5 -175.5t-91 -141t-146.5 -57.5q-44 0 -77 20l-38 -178q-2 -9 -4.5 -12t-11.5 -4l-125 -19q-1 0 -3 -0.5t-3 -0.5q-7 0 -7 7q0 6 1 10l116 549q4 19 4 45q0 13 -3.5 34.5t-3.5 26.5q0 10 10 13l102 32q8 2 10 2q9 0 15 -20t6 -48v-15q65 86 142 86
q65 0 100.5 -41t35.5 -113zM366 340q0 23 -11.5 39t-27.5 16q-79 0 -111 -152l-30 -139q23 -13 49 -13q41 0 72 40.5t45 96t14 112.5z" />
    <glyph glyph-name="afii10083" unicode="&#x441;" horiz-adv-x="436" 
d="M459 451l-39 -75q-8 -14 -15 -14q-5 0 -37 15.5t-55 15.5q-68 0 -102 -67t-34 -149q0 -69 63 -69q30 0 70 16q18 7 24 7q7 0 10 -8l28 -81q0 -1 1.5 -4.5t1.5 -5.5q0 -16 -53.5 -32.5t-94.5 -16.5q-94 0 -147 53t-53 145q0 136 77.5 233t210.5 97q47 0 96.5 -17t49.5 -36
q0 -3 -2 -7z" />
    <glyph glyph-name="afii10084" unicode="&#x442;" horiz-adv-x="781" 
d="M751 397q0 -43 -8 -75l-71 -311q-2 -11 -14 -11h-121q-14 0 -14 8q0 4 1 7l67 295q7 30 7 50v4q-3 25 -27 25q-72 0 -109 -171l-44 -207q-2 -11 -14 -11h-121q-14 0 -14 8q0 5 1 8l67 294q8 32 8 52v3q-2 24 -25 24q-35 0 -64.5 -44t-47.5 -127l-43 -203q-2 -9 -5 -12
t-11 -3h-122q-12 0 -12 8q0 3 2 11l71 312q10 40 10 76q0 8 -3 25t-3 29q0 9 9 12l102 33q3 1 7 1q23 0 26 -88q74 92 155 92q41 0 67 -23.5t26 -66.5q38 47 74.5 68.5t83.5 21.5q52 0 80.5 -30.5t28.5 -83.5z" />
    <glyph glyph-name="afii10085" unicode="&#x443;" horiz-adv-x="470" 
d="M512 469l-203 -414q-27 -56 -42.5 -85t-37.5 -66.5t-39 -55.5t-40.5 -36t-49 -24.5t-57.5 -6.5q-45 0 -88.5 17.5t-43.5 31.5q0 5 5 13l40 75q4 9 12 9q2 0 14 -5q39 -18 64 -18q49 0 72 45l26 51h-32q-8 0 -10.5 2.5t-3.5 10.5l-60 455q0 2 -0.5 4.5t-0.5 3.5
q0 12 17 13l106 9q2 0 5 0.5t4 0.5q16 0 17 -13l18 -248q2 -39 4 -112q5 11 17 40.5t19 47.5l118 278q4 9 17 9q2 0 6 -0.5t6 -0.5l111 -12q13 -1 13 -9q0 -4 -3 -10z" />
    <glyph glyph-name="afii10086" unicode="&#x444;" horiz-adv-x="721" 
d="M534 696l-49 -222q39 37 94 37q117 0 117 -156q0 -55 -13.5 -116t-40.5 -120t-75 -97.5t-109 -38.5q-42 0 -76 25l-40 -183q-2 -10 -10 -11l-135 -20q-8 0 -8 7l45 209q-40 -27 -82 -27t-70 18t-39 47.5t-14.5 51t-3.5 44.5q0 52 14 113t40.5 119t72.5 96.5t103 38.5
q50 0 82 -36l44 199q2 12 13 13l133 20q7 0 7 -7v-4zM256 109l58 265q-11 27 -37 27q-37 0 -64 -48.5t-37.5 -103t-10.5 -99.5q0 -24 9 -38.5t17.5 -17.5t17.5 -3q25 0 47 18zM463 372l-58 -265q16 -16 40 -16q36 0 62.5 45.5t37.5 101t11 105.5q0 58 -38 58q-33 0 -55 -29z
" />
    <glyph glyph-name="afii10087" unicode="&#x445;" horiz-adv-x="492" 
d="M524 449l-193 -195l116 -222q3 -6 3 -10q0 -8 -11 -9l-109 -22q-10 -2 -14 -2q-9 0 -13 9l-49 112q-11 26 -18 49q-22 -33 -37 -50l-97 -112q-7 -8 -14 -8q-6 0 -13 3l-105 31q-8 1 -8 8q0 6 5 11l203 210l-99 199q-5 10 -5 14q0 7 12 10l109 27q10 2 11 2q8 0 13 -13
l38 -93q17 -45 18 -49q25 33 36 46l86 101q7 8 15 8q3 0 11 -2l107 -35q7 -3 7 -8t-5 -10z" />
    <glyph glyph-name="afii10088" unicode="&#x446;" horiz-adv-x="549" 
d="M524 493l-68 -301q-8 -35 -8 -60q0 -26 16 -42h52q14 0 14 -8q0 -4 -1 -7l-47 -208q-3 -14 -15 -16l-108 -17q-8 0 -8 7q0 4 1 6l35 153h-5q-34 0 -54.5 20t-20.5 54q-61 -91 -164 -91q-52 0 -83 29q-30 28 -30 86q0 28 11 74l67 296q2 12 16 15l131 20q7 0 7 -7
l-68 -304q-9 -38 -9 -51q0 -31 27 -31q26 0 50 24q47 50 74 174l35 164q2 9 9 10l139 22q6 0 6 -6q0 -1 -0.5 -2.5t-0.5 -2.5z" />
    <glyph glyph-name="afii10089" unicode="&#x447;" horiz-adv-x="535" 
d="M309 281l43 190q3 10 10 11l136 21q7 0 7 -6l-107 -489q-2 -8 -10 -8h-128q-11 0 -11 8l1 2v3l36 164q-46 -20 -94 -20q-19 0 -37 3.5t-42 13t-38.5 33t-14.5 58.5q0 19 4 36l36 166q2 14 11 15l136 21q7 0 7 -7l-37 -170q-3 -18 -3 -21q0 -37 44 -37q24 0 51 13z" />
    <glyph glyph-name="afii10090" unicode="&#x448;" horiz-adv-x="787" 
d="M262 495l-69 -308q-8 -39 -8 -46q0 -31 28 -31q42 0 73 63t47 135l35 164q2 9 9 10l139 22q6 0 6 -7l-71 -321q-6 -30 -6 -38q0 -29 26 -29q80 0 121 199l35 164q2 9 9 10l138 22q7 0 7 -6l-76 -339q-8 -34 -8 -61q0 -31 6 -55l2 -8q0 -1 1 -3v-2q0 -7 -12 -13l-99 -32
q-2 -1 -6 -1q-30 0 -30 88q-72 -89 -161 -89q-35 0 -65.5 21t-32.5 70h-2q-13 -18 -23.5 -30t-29.5 -28t-45.5 -24.5t-57.5 -8.5q-56 0 -84 29.5t-28 83.5q0 30 11 76l69 302q2 6 9 8l135 21q8 0 8 -7v-1z" />
    <glyph glyph-name="afii10091" unicode="&#x449;" horiz-adv-x="806" 
d="M592 308l36 164q2 9 9 10l139 22q6 0 6 -6q0 -1 -0.5 -2.5t-0.5 -2.5l-68 -301q-8 -35 -8 -60q0 -26 16 -42h52q14 0 14 -8q0 -4 -1 -7l-47 -208q-3 -14 -15 -16l-108 -17q-8 0 -8 7q0 4 1 6l35 153h-5q-34 0 -54.5 20t-20.5 54q-34 -54 -74 -72.5t-91 -18.5
q-38 0 -67.5 21.5t-31.5 69.5h-2q-13 -18 -23.5 -30t-29.5 -28t-45.5 -24.5t-57.5 -8.5q-56 0 -84 29.5t-28 83.5q0 30 11 76l69 302q2 6 9 8l135 21q8 0 8 -7l-69 -309q-8 -39 -8 -46q0 -31 28 -31q42 0 73 63t47 135l35 164q2 9 9 10l139 22q6 0 6 -7l-71 -321
q-6 -30 -6 -38q0 -29 26 -29q77 0 121 199z" />
    <glyph glyph-name="afii10092" unicode="&#x44a;" horiz-adv-x="570" 
d="M342 484l-42 -171q29 6 62 6q45 0 77.5 -11.5t49.5 -27.5t27 -38.5t12 -37.5t2 -31q0 -51 -19 -88t-45 -56t-62 -30t-60.5 -13.5t-50.5 -2.5q-58 0 -123.5 14.5t-74.5 23.5q-6 6 -6 13q0 6 1 9l82 331h-123q-10 0 -10 9q0 3 1 5l29 92q4 14 18 14h246q9 0 9 -6v-4z
M278 213l-27 -117l7 -2q18 -6 43 -6q79 0 79 79q0 24 -17 38t-41 14q-18 0 -44 -6z" />
    <glyph glyph-name="afii10093" unicode="&#x44b;" horiz-adv-x="751" 
d="M468 12l105 462q1 7 8 8l137 21q8 0 8 -7l-110 -488q-2 -8 -10 -8h-129q-9 0 -9 8v4zM276 491l-40 -178q33 6 59 6q50 0 85 -15.5t51.5 -40t23 -46t6.5 -43.5q0 -47 -16.5 -83t-40.5 -56t-57 -32t-60.5 -16t-56.5 -4q-61 0 -125.5 14.5t-73.5 23.5q-6 6 -6 13q0 6 1 9
l97 426q4 12 10 13l136 21q8 0 8 -8q0 -1 -1 -4zM213 213l-27 -117l7 -2q18 -6 43 -6q79 0 79 79q0 24 -17 38t-41 14q-19 0 -44 -6z" />
    <glyph glyph-name="afii10094" unicode="&#x44c;" horiz-adv-x="515" 
d="M282 491l-41 -178q29 6 61 6q45 0 78 -11.5t49.5 -27.5t26.5 -38.5t12 -37.5t2 -31q0 -51 -19 -88t-45 -56t-62 -30t-60.5 -13.5t-50.5 -2.5q-57 0 -122.5 14.5t-74.5 23.5q-6 6 -6 13q0 6 1 9l99 426q3 12 10 13l135 21q8 0 8 -8q0 -1 -1 -4zM218 213l-27 -117l7 -2
q18 -6 43 -6q79 0 79 79q0 24 -17 38t-41 14q-18 0 -44 -6z" />
    <glyph glyph-name="afii10095" unicode="&#x44d;" horiz-adv-x="426" 
d="M132 302h121q1 8 1 22q0 77 -71 77q-30 0 -61.5 -18.5t-42.5 -18.5q-9 0 -11 8l-21 71q-1 2 -1 5q0 29 57.5 45.5t104.5 16.5q92 0 142 -52q52 -53 52 -155q0 -73 -20 -143t-62 -113q-62 -64 -170 -64q-43 0 -83 12.5t-60.5 27t-20.5 22.5q0 5 2 8l33 75q3 6 11 6
q6 0 13 -4l16 -9q44 -24 76 -24q79 0 102 102h-129q-12 0 -12 8q0 1 0.5 3t0.5 3l16 75q2 8 5 11t12 3z" />
    <glyph glyph-name="afii10096" unicode="&#x44e;" horiz-adv-x="765" 
d="M242 318h58q26 84 88.5 138.5t169.5 54.5q83 0 132 -47q51 -50 51 -138q0 -61 -17.5 -120t-51.5 -110t-92.5 -82t-132.5 -31q-87 0 -131.5 46t-44.5 133q0 23 2 36h-58l-42 -190q-2 -8 -10 -8h-128q-11 0 -11 8v2q1 2 1 3l100 457q3 11 10 12l139 21q7 0 7 -7q0 -1 -1 -3
v-2zM468 94q39 0 68 40t42 94t13 110q0 24 -12.5 42.5t-39.5 18.5q-53 0 -87.5 -75.5t-34.5 -164.5q0 -65 51 -65z" />
    <glyph glyph-name="afii10097" unicode="&#x44f;" horiz-adv-x="550" 
d="M520 484l-105 -476q-2 -8 -10 -8h-129q-9 0 -9 10l37 171h-29q-28 0 -44 -14.5t-30 -42.5l-22 -47q-15 -32 -33.5 -52.5t-42 -28.5t-42 -10.5t-48.5 -2.5q-18 0 -19 10l-9 89q0 13 16 16l11 2q31 5 50 37l15 26q27 49 71 64l1 3q-32 7 -54.5 35.5t-22.5 62.5q0 61 43 106
q60 60 185 60h212q9 0 9 -6l-1 -2v-2zM327 283l24 109h-50q-83 0 -83 -62q0 -47 61 -47h48z" />
    <glyph glyph-name="afii10071" unicode="&#x451;" horiz-adv-x="484" 
d="M391 134l32 -76q2 -4 2 -6q0 -7 -10 -14q-32 -26 -89 -40.5t-110 -14.5q-189 0 -189 190q0 135 81.5 236.5t212.5 101.5q73 0 117 -35t44 -102q0 -41 -15.5 -73t-42.5 -51.5t-57.5 -33.5t-66 -20t-61 -8.5t-50.5 -2.5h-15q-3 -10 -3 -22q0 -63 75 -63q47 0 115 34l8 4
q8 4 12 4q7 0 10 -8zM183 285h9q152 0 152 81q0 20 -12 32t-31 12q-43 0 -75 -38t-43 -87zM184 626q0 29 20.5 49.5t49.5 20.5t49.5 -20.5t20.5 -49.5t-20.5 -49.5t-49.5 -20.5t-49.5 20.5t-20.5 49.5zM369 626q0 29 20.5 49.5t49.5 20.5t49.5 -20.5t20.5 -49.5t-20.5 -49.5
t-49.5 -20.5t-49.5 20.5t-20.5 49.5z" />
    <glyph glyph-name="afii10099" unicode="&#x452;" horiz-adv-x="566" 
d="M154 -165l13 13q95 95 150.5 243t55.5 236q0 39 -8.5 52t-27.5 13q-42 0 -71 -51t-43 -116l-45 -215q-2 -10 -13 -10h-124q-12 0 -12 8q0 1 0.5 3t0.5 3l115 544h-69q-12 0 -12 10l11 54q3 14 17 14h70l11 53q2 12 15 14l123 20q3 1 9 1q8 0 8 -7q0 -1 -0.5 -3t-0.5 -3
l-16 -75h124q11 0 11 -7q0 -4 -1 -7l-11 -50q-2 -14 -17 -14h-123l-25 -113q61 67 138 67q66 0 93.5 -43t27.5 -107q0 -137 -76 -312q-41 -94 -91.5 -162t-90.5 -101l-18 -15q-10 -9 -19 -9q-2 0 -22.5 8t-43 22.5t-22.5 27.5q0 5 9 14z" />
    <glyph glyph-name="afii10100" unicode="&#x453;" horiz-adv-x="438" 
d="M355 131l9 -80q0 -1 0.5 -3t0.5 -3q0 -16 -68 -39t-123 -23q-28 0 -55.5 6.5t-54 20.5t-43 42t-16.5 66q0 62 39 99t120 67q74 28 92.5 39.5t18.5 35.5q0 19 -15.5 28t-34.5 9q-41 0 -80 -18l-20 -9q-7 -3 -11 -3q-7 0 -10 9l-14 69q-1 3 -1 7q0 27 63 43.5t114 16.5
q80 0 121 -40q36 -36 36 -100q0 -22 -2 -34.5t-11 -30.5t-27.5 -32t-52.5 -32t-85 -37q-56 -21 -74 -33.5t-18 -35.5q0 -38 50 -38q53 0 124 32l11 5q6 2 9 2q8 0 8 -6zM392 655q6 -12 6 -13q0 -6 -13 -10l-203 -74l-12 -4q-3 0 -12 9l-38 44q-6 6 -6 12t12 13l188 109
q10 5 14 5q8 0 15 -12z" />
    <glyph glyph-name="afii10101" unicode="&#x454;" horiz-adv-x="441" 
d="M457 452l-49 -71q-4 -6 -9 -6q-3 0 -7 2l-12 7q-26 16 -62 16q-39 0 -72 -25.5t-44 -73.5h119q12 0 12 -8q0 -1 -0.5 -3t-0.5 -3l-16 -71q-3 -15 -17 -15h-119q-2 -20 -2 -30q0 -74 67 -74q47 0 78 17l10 5q2 1 5 1q6 0 8 -5l25 -78q1 -2 1 -5q0 -6 -9 -13
q-3 -3 -18 -10.5t-48.5 -16.5t-67.5 -9q-52 0 -90.5 15t-59 36t-33 51t-16 52.5t-3.5 47.5q0 135 79.5 230.5t210.5 95.5q38 0 73 -10t53 -22t18 -19q0 -2 -4 -8z" />
    <glyph glyph-name="afii10102" unicode="&#x455;" horiz-adv-x="424" 
d="M407 447l-25 -67q-4 -11 -13 -11q-7 0 -46 14.5t-58 14.5q-26 0 -42 -11.5t-16 -31.5q0 -21 35 -38l54 -27q47 -24 67.5 -51t20.5 -74q0 -83 -55 -132.5t-149 -49.5q-53 0 -118 19.5t-65 34.5q0 3 3 10l30 79q3 8 10 8q11 0 58 -19t76 -19q68 0 68 48q0 17 -12.5 26
t-50.5 26q-61 28 -87.5 56t-26.5 79q0 81 55.5 130.5t144.5 49.5q53 0 99 -17t46 -35q0 -6 -3 -12z" />
    <glyph glyph-name="afii10103" unicode="&#x456;" horiz-adv-x="299" 
d="M340 651q0 -39 -27.5 -67t-67.5 -28q-39 0 -66.5 28t-27.5 67t27.5 66.5t67.5 27.5q39 0 66.5 -28t27.5 -66zM285 477l-100 -466q-2 -11 -14 -11h-121q-15 0 -15 8q0 4 1 7l78 366h-62q-13 0 -13 8l1 1v3l17 85q2 11 4.5 13.5t11.5 2.5h200q14 0 14 -7q0 -2 -2 -10z" />
    <glyph glyph-name="afii10104" unicode="&#x457;" horiz-adv-x="299" 
d="M67 494h206q11 0 11 -8v-2q-1 -1 -1 -2l-101 -471q-2 -11 -14 -11h-121q-15 0 -15 7q0 5 1 8l78 366h-62q-12 0 -12 8l18 94q2 11 12 11zM37 640q0 35 19.5 59.5t48.5 24.5t48.5 -24.5t19.5 -59.5t-19.5 -59.5t-48.5 -24.5t-48.5 24.5t-19.5 59.5zM204 640
q0 35 19.5 59.5t48.5 24.5t48.5 -24.5t19.5 -59.5t-19.5 -59.5t-48.5 -24.5t-48.5 24.5t-19.5 59.5z" />
    <glyph glyph-name="afii10105" unicode="&#x458;" horiz-adv-x="297" 
d="M337 651q0 -39 -27.5 -67t-67.5 -28q-39 0 -66.5 28t-27.5 67t27.5 66.5t67.5 27.5q39 0 66.5 -28t27.5 -66zM286 478l-99 -464q-28 -132 -76 -189.5t-145 -57.5q-33 0 -60 6.5t-40 14.5t-13 14q0 1 2 9l31 89q4 11 12 11q4 0 27 -9.5t38 -9.5q31 0 45 25t31 104l76 360
h-63q-13 0 -13 8l1 2v3l18 83q2 12 4.5 14.5t10.5 2.5h200q14 0 14 -8q0 -5 -1 -8z" />
    <glyph glyph-name="afii10106" unicode="&#x459;" horiz-adv-x="771" 
d="M362 374h-85l-18 -77q-7 -31 -12 -51.5t-17 -56.5t-24.5 -60.5t-33 -54.5t-44 -48t-57 -30.5t-71.5 -12.5q-4 0 -7 0.5t-5 2t-3 2.5t-2 3t-1 3v4l-1 3l-6 76q0 18 15 20l11 2q33 5 53 22q27 24 46.5 78t60.5 235l11 48q3 12 13 12h342q8 0 8 -5l-39 -176q29 6 62 6
q168 0 168 -146q0 -54 -23 -94t-59 -59.5t-70.5 -28t-67.5 -8.5q-58 0 -111 11t-80.5 24t-27.5 22q0 6 1 9zM473 213l-27 -116l9 -3q17 -6 39 -6q81 0 81 80q0 20 -15 35.5t-42 15.5q-21 0 -45 -6z" />
    <glyph glyph-name="afii10107" unicode="&#x45a;" horiz-adv-x="781" 
d="M546 491l-40 -178q29 6 62 6q45 0 78 -11.5t49.5 -27.5t26.5 -38t12 -36.5t2 -29.5q0 -85 -53 -136q-59 -57 -173 -57q-45 0 -94.5 9.5t-78.5 19.5t-34 15q-6 6 -6 13q0 6 1 9l34 146h-117l-42 -187q-2 -8 -10 -8h-128q-11 0 -11 8v2q1 2 1 3l100 454q4 14 14 16l134 20
q7 0 7 -8l-39 -180h117l35 154q4 12 10 13l136 21q8 0 8 -8q0 -1 -1 -4zM483 213l-27 -116l9 -3q17 -6 39 -6q81 0 81 80q0 20 -15 35.5t-42 15.5q-21 0 -45 -6z" />
    <glyph glyph-name="afii10108" unicode="&#x45b;" horiz-adv-x="552" 
d="M441 7q-1 -7 -10 -7h-129q-9 0 -9 6l1 2v3l68 307q6 24 6 42q0 34 -30 34q-85 0 -120 -169l-45 -215q-2 -10 -13 -10h-124q-12 0 -12 8q0 1 0.5 3t0.5 3l115 544h-69q-12 0 -12 10l11 54q4 14 17 14h70l11 53q2 12 15 14l123 20q3 1 9 1q8 0 8 -7q0 -1 -0.5 -3t-0.5 -3
l-16 -75h124q11 0 11 -7q0 -4 -1 -7l-11 -50q-2 -14 -17 -14h-123l-16 -81l-10 -34q64 68 142 68q117 0 117 -107q0 -32 -10 -80z" />
    <glyph glyph-name="afii10109" unicode="&#x45c;" horiz-adv-x="550" 
d="M220 197l-42 -186q-2 -11 -10 -11h-129q-10 0 -10 9q0 1 0.5 2.5t0.5 2.5l102 458q2 9 9 10l138 21q8 0 8 -6q0 -1 -1 -3l-39 -177h43q43 0 65 52l20 45q42 97 159 97q16 0 17 -9l9 -91q0 -12 -12 -14l-21 -3q-11 -1 -16 -3t-12.5 -10.5t-16.5 -26.5l-17 -36
q-25 -53 -75 -59v-3q20 -6 32 -20t14.5 -23.5t4.5 -26.5l4 -43q3 -34 32 -42l18 -4q8 -3 8 -10q0 -3 -3 -11l-32 -78q-6 -15 -29 -15q-71 0 -101 29q-20 19 -25 65l-5 64q-3 56 -50 56h-38zM497 655q6 -12 6 -13q0 -6 -13 -10l-203 -74q-2 -1 -4 -1.5t-3 -1t-2.5 -1
t-2.5 -0.5q-3 0 -12 9l-38 44q-6 6 -6 12t12 13l188 109q10 5 14 5q8 0 15 -12z" />
    <glyph glyph-name="afii10110" unicode="&#x45e;" horiz-adv-x="470" 
d="M451 704q-11 -61 -60 -102.5t-119 -41.5q-61 0 -94 35t-33 87q0 33 15 34l80 9q2 0 4.5 0.5t3.5 0.5q12 0 12 -11q0 -3 -1 -9t-1 -9q0 -32 32 -32q17 0 29.5 15.5t20.5 31t14 15.5q7 0 12 -1l77 -11q8 -2 8 -9v-2zM512 469l-203 -414q-27 -56 -42.5 -85t-37.5 -66.5
t-39 -55.5t-40.5 -36t-49 -24.5t-57.5 -6.5q-45 0 -88.5 17.5t-43.5 31.5q0 5 5 13l40 75q4 9 12 9q2 0 14 -5q39 -18 64 -18q49 0 72 45l26 51h-32q-8 0 -10.5 2.5t-3.5 10.5l-60 455q0 2 -0.5 4.5t-0.5 3.5q0 12 17 13l106 9q2 0 5 0.5t4 0.5q16 0 17 -13l18 -248
q2 -39 4 -112q5 11 17 40.5t19 47.5l118 278q4 9 17 9q2 0 6 -0.5t6 -0.5l111 -12q13 -1 13 -9q0 -4 -3 -10z" />
    <glyph glyph-name="afii10193" unicode="&#x45f;" horiz-adv-x="531" 
d="M128 -174l46 97q7 15 18 21l68 43q8 5 13 5q8 0 8 -10q0 -5 -1 -8l-35 -152q-2 -11 -15 -11h-92q-12 0 -12 9q0 2 2 6zM386 483l130 21h3q7 0 7 -7q0 -4 -1 -6l-75 -332q-8 -38 -8 -65q0 -28 6 -52l2 -7q0 -1 0.5 -2.5t0.5 -2.5q0 -9 -8 -12l-107 -34q-2 -1 -4 -1
q-28 0 -28 89q-73 -89 -158 -89q-116 0 -116 113q0 30 11 76l69 299q2 10 15 12l130 20q8 0 8 -7q0 -6 -1 -9l-67 -295q-9 -50 -9 -52q0 -30 29 -30q42 0 73.5 59t47.5 133l36 170q2 9 14 11z" />
    <glyph glyph-name="afii10050" unicode="&#x490;" horiz-adv-x="495" 
d="M292 556l-114 -539q-4 -17 -21 -17h-122q-16 0 -16 13q0 5 1 8l138 648q4 17 21 17h221l30 144q3 15 18 15h115q14 0 14 -9q0 -1 -2 -11l-53 -251q-2 -10 -6.5 -14t-15.5 -4h-208z" />
    <glyph glyph-name="afii10098" unicode="&#x491;" horiz-adv-x="447" 
d="M144 494h192l25 118q2 12 14 14l109 21q9 0 9 -8q0 -4 -1 -7l-56 -245q-2 -13 -17 -13h-163l-83 -362q-3 -12 -13 -12h-126q-9 0 -9 8l109 477q2 9 10 9z" />
    <glyph glyph-name="endash" unicode="&#x2013;" horiz-adv-x="496" 
d="M477 303l-22 -97q-4 -15 -15 -15h-399q-12 0 -12 12l22 100q4 15 15 15h399q12 0 12 -12v-3z" />
    <glyph glyph-name="emdash" unicode="&#x2014;" horiz-adv-x="926" 
d="M907 303l-22 -97q-4 -15 -15 -15h-829q-12 0 -12 12l22 100q4 15 15 15h829q12 0 12 -12v-3z" />
    <glyph glyph-name="quoteleft" unicode="&#x2018;" horiz-adv-x="296" 
d="M346 676l-94 -203q-6 -13 -22 -13h-132q-15 0 -15 9t6 16l158 230q8 11 16 11q7 0 16 -4l59 -22q12 -4 12 -11q0 -3 -4 -13z" />
    <glyph glyph-name="quoteright" unicode="&#x2019;" horiz-adv-x="297" 
d="M340 693l-158 -230q-7 -11 -15 -11q-5 0 -17 5l-59 21q-12 4 -12 11q0 3 4 13l94 203q6 13 22 13h132q15 0 15 -9t-6 -16z" />
    <glyph glyph-name="quotedblleft" unicode="&#x201c;" horiz-adv-x="505" 
d="M555 676l-94 -203q-6 -13 -22 -13h-132q-15 0 -15 9t6 16l158 230q8 11 16 11q7 0 16 -4l59 -22q12 -4 12 -11q0 -3 -4 -13zM346 676l-94 -203q-6 -13 -22 -13h-132q-15 0 -15 9t6 16l158 230q8 11 16 11q7 0 16 -4l59 -22q12 -4 12 -11q0 -3 -4 -13z" />
    <glyph glyph-name="quotedblright" unicode="&#x201d;" horiz-adv-x="506" 
d="M549 693l-158 -230q-7 -11 -15 -11q-5 0 -17 5l-59 21q-12 4 -12 11q0 3 4 13l94 203q6 13 22 13h132q15 0 15 -9t-6 -16zM340 693l-158 -230q-7 -11 -15 -11q-5 0 -17 5l-59 21q-12 4 -12 11q0 3 4 13l94 203q6 13 22 13h132q15 0 15 -9t-6 -16z" />
    <glyph glyph-name="quotedblbase" unicode="&#x201e;" horiz-adv-x="507" 
d="M430 100l-158 -230q-7 -11 -15 -11q-5 0 -17 5l-59 21q-12 5 -12 11q0 3 4 13l94 203q6 13 22 13h132q15 0 15 -9q0 -8 -6 -16zM221 100l-158 -230q-7 -11 -15 -11q-5 0 -17 5l-59 21q-12 5 -12 11q0 3 4 13l94 203q6 13 22 13h132q15 0 15 -9q0 -8 -6 -16z" />
    <glyph glyph-name="dagger" unicode="&#x2020;" horiz-adv-x="511" 
d="M510 468l-19 -91q-3 -15 -20 -15h-118l-118 -553q-2 -11 -6 -14t-15 -3h-107q-18 0 -18 11q0 3 2 11l117 548h-116q-15 0 -15 11q0 6 1 10l18 82q2 12 6 15.5t15 3.5h116l40 185q2 11 6 14t15 3h108q17 0 17 -10q0 -6 -1 -9l-39 -183h116q16 0 16 -9q0 -4 -1 -7z" />
    <glyph glyph-name="bullet" unicode="&#x2022;" horiz-adv-x="566" 
d="M435 349q0 -59 -42.5 -101t-101.5 -42q-60 0 -102 42t-42 101q0 60 41.5 102t102.5 42q59 0 101.5 -42t42.5 -102z" />
    <glyph glyph-name="ellipsis" unicode="&#x2026;" horiz-adv-x="933" 
d="M854 88q0 -44 -32 -76t-76 -32t-75.5 32t-31.5 76q0 45 31.5 76t76.5 31q44 0 75.5 -31.5t31.5 -75.5zM547 88q0 -44 -32 -76t-76 -32t-75.5 32t-31.5 76q0 45 31.5 76t76.5 31q44 0 75.5 -31.5t31.5 -75.5zM241 88q0 -44 -32 -76t-76 -32t-75.5 32t-31.5 76
q0 45 31.5 76t76.5 31q44 0 75.5 -31.5t31.5 -75.5z" />
    <glyph glyph-name="Euro" unicode="&#x20ac;" horiz-adv-x="537" 
d="M458 154l41 -94q2 -6 2 -7q0 -18 -70 -44t-130 -26q-91 0 -145 54q-62 62 -62 196v13h-64q-18 0 -18 10q0 2 3 8l26 45q8 15 22 15h37q4 26 9 48h-55q-16 0 -16 10q0 4 3 8l26 45q4 7 6 9.5t6.5 4t12.5 1.5h39q85 253 308 253q53 0 113.5 -25.5t60.5 -48.5q0 -7 -5 -14
l-56 -87q-3 -5 -9 -5q-7 0 -17 7l-18 13q-40 29 -72 29q-44 0 -77.5 -35t-52.5 -87h179q15 0 15 -11q0 -5 -2 -8l-28 -48q-6 -11 -20 -11h-168q-7 -21 -10 -48h139q16 0 16 -11q0 -5 -3 -9l-27 -46q-7 -12 -21 -12h-114q-1 -6 -1 -23q0 -46 21 -74t61 -28q39 0 86 27l9 5
q1 0 3.5 1.5t5.5 2.5t5 1q5 0 6 -4z" />
    <glyph glyph-name="afii61352" unicode="&#x2116;" horiz-adv-x="994" 
d="M504 686h126q8 0 8 -9q0 -5 -1 -8l-139 -655q-3 -14 -16 -14h-92q-9 0 -11 2t-4 8l-107 329l-21 76q-5 -46 -13 -84l-68 -317q-2 -9 -5.5 -11.5t-12.5 -2.5h-120q-10 0 -10 7q0 4 1 6l140 659q3 14 14 14h104q10 0 12 -10q1 -2 1 -3l101 -306q9 -27 22 -77q6 49 13 80
l64 302q2 14 14 14zM873 703q126 0 126 -130q0 -93 -56.5 -161t-146.5 -68q-126 0 -126 129q0 95 56 162.5t147 67.5zM862 625q-41 0 -64 -48.5t-23 -104.5q0 -32 9 -41t22 -9h4q39 0 61.5 48.5t22.5 108.5q0 46 -32 46zM924 246l-11 -53q-2 -13 -6 -16.5t-17 -3.5h-266
q-17 0 -17 9q0 4 1 7l11 51q3 14 7.5 17t17.5 3h265q16 0 16 -10l-1 -2v-2z" />
    <glyph glyph-name="trademark" unicode="&#x2122;" horiz-adv-x="725" 
d="M721 671l-19 -373q-1 -8 -3 -10.5t-11 -2.5h-68q-12 0 -12 11l13 173q3 46 11 79q-4 -12 -15 -41l-50 -124q-6 -13 -19 -13h-41q-12 0 -14 11l-18 92q-1 7 -5 34.5t-7 41.5q0 -13 -1.5 -27.5t-4 -32t-3.5 -27.5l-16 -165q-1 -8 -3.5 -10t-10.5 -2h-70q-12 0 -12 10
q0 1 0.5 3t0.5 3l61 373q2 12 14 12h76q11 0 13 -11l29 -129q2 -8 4 -26.5t4 -29.5q4 15 21 56l56 131q3 9 15 9h72q13 0 13 -12v-3zM361 670l-21 -62q-4 -11 -14 -11h-72l-30 -300q-1 -8 -3.5 -10t-10.5 -2h-77q-12 0 -12 10l31 302h-75q-13 0 -13 11l8 66q1 12 15 12h264
q12 0 12 -8q0 -2 -2 -8z" />
    <glyph glyph-name="radical" unicode="&#x221a;" horiz-adv-x="513" 
d="M96 405h-67q-8 0 -11 3t-3 11v61q0 8 3 11t11 3h145q11 0 15 -15q1 -1 1 -2l90 -358h5l144 571q3 13 16 13h57q15 0 15 -11l-1 -2v-2l-190 -739q-2 -10 -14 -10h-86q-10 0 -13 10z" />
    <glyph glyph-name="infinity" unicode="&#x221e;" horiz-adv-x="859" 
d="M430 236q-106 -116 -209 -116q-81 0 -126 51t-45 122q0 75 48 122t123 47q103 0 209 -116q96 116 207 116q68 0 120 -43t52 -126q0 -75 -49 -124t-122 -49q-40 0 -75.5 12.5t-63.5 35.5t-40 35t-29 33zM495 291q69 -69 135 -69q33 0 56.5 19t23.5 51q0 33 -24.5 51
t-55.5 18q-29 0 -57 -13.5t-41.5 -24t-36.5 -32.5zM362 291q-1 1 -9 8.5t-10.5 10t-10.5 9.5t-12 9.5t-12 8t-14 8t-14.5 6.5t-16 5.5t-17 3t-19.5 1.5q-32 0 -55.5 -18t-23.5 -51q0 -27 18.5 -48.5t60.5 -21.5q38 0 65.5 14.5t69.5 54.5z" />
    <glyph glyph-name="approxequal" unicode="&#x2248;" horiz-adv-x="574" 
d="M532 400q-31 -59 -65.5 -89t-93.5 -30q-34 0 -101 26l-49 19q-23 9 -43 9q-33 0 -62 -47q-8 -12 -13 -12t-15 6l-47 28q-12 7 -12 13q0 3 5 15q29 65 61 95.5t92 30.5q30 0 108.5 -26.5t89.5 -26.5q25 0 51 25t28 25q6 0 13 -5l49 -28q11 -7 11 -12q0 -2 -7 -16zM536 195
q-31 -59 -65.5 -89t-93.5 -30q-34 0 -101 26l-49 19q-22 9 -43 9q-33 0 -62 -47q-8 -12 -13 -12t-15 6l-47 28q-12 7 -12 13q0 3 5 15q29 65 61 95.5t92 30.5q30 0 108.5 -26.5t89.5 -26.5q25 0 51 25t28 25q6 0 13 -5l49 -28q11 -7 11 -12q0 -2 -7 -16z" />
    <glyph glyph-name="notequal" unicode="&#x2260;" horiz-adv-x="529" 
d="M498 222v-103q0 -10 -3 -13t-13 -3h-243l-49 -98q-6 -6 -9 -6q-4 0 -6 1l-71 34q-9 4 -9 12q0 3 2 7l25 50h-79q-9 0 -12 3t-3 12v104q0 10 3 13t13 3h146l33 68h-176q-10 0 -13 3t-3 13v103q0 16 17 16h243l48 95q5 9 10 9t9 -2l67 -32q10 -6 10 -12q0 -5 -3 -9l-25 -49
h78q10 0 13.5 -2.5t3.5 -13.5v-103q0 -11 -3.5 -13.5t-13.5 -2.5h-146l-34 -68h177q10 0 13 -3t3 -13z" />
    <glyph glyph-name="lessequal" unicode="&#x2264;" horiz-adv-x="522" 
d="M500 163q0 -13 -9 -13q-2 0 -6 2l-448 228q-1 1 -3 1q-11 8 -11 19v92q0 12 12 19l450 229q4 2 6 2q9 0 9 -11v-125q0 -16 -11 -21l-292 -138l292 -141q11 -6 11 -21v-122zM500 -46q0 -13 -9 -13q-2 0 -6 2l-448 228q-1 1 -3 1q-11 8 -11 19v119q0 17 11 17q4 0 6 -1
l449 -229q11 -5 11 -21v-122z" />
    <glyph glyph-name="greaterequal" unicode="&#x2265;" horiz-adv-x="522" 
d="M23 163v122q0 15 11 21l292 141l-292 138q-11 5 -11 21v125q0 11 9 11q2 0 6 -2l450 -229q12 -7 12 -19v-92q0 -7 -2.5 -11t-3.5 -4.5t-8 -4.5l-448 -228q-4 -2 -6 -2q-9 0 -9 13zM23 -46v122q0 16 11 21l449 229q2 1 6 1q11 0 11 -17v-119q0 -7 -2.5 -11t-3.5 -4.5
t-8 -4.5l-448 -228q-4 -2 -6 -2q-9 0 -9 13z" />
    <glyph glyph-name="Acute" unicode="&#xf6c9;" horiz-adv-x="427" 
d="M407 840q6 -12 6 -13q0 -6 -13 -10l-203 -74q-2 -1 -4 -1.5t-3 -1t-2.5 -1t-2.5 -0.5q-3 0 -12 9l-38 44q-6 6 -6 12t12 13l188 109q10 5 14 5q8 0 15 -12z" />
    <glyph glyph-name="Dieresis" unicode="&#xf6cb;" horiz-adv-x="507" 
d="M491 820q0 -35 -24.5 -59.5t-59.5 -24.5t-59.5 25t-24.5 59q0 35 25 60t60 25q34 0 58.5 -25t24.5 -60zM266 820q0 -35 -24.5 -59.5t-59.5 -24.5q-34 0 -59 25t-25 59q0 35 25 60t60 25q34 0 58.5 -25t24.5 -60z" />
    <glyph glyph-name="cyrBreve" unicode="&#xf6d1;" horiz-adv-x="348" 
d="M36 892l74 9q4 1 12 1q15 0 15 -14v-4q0 -55 44 -55q52 0 74 55l4 9q5 10 13 10l91 -12q10 -2 10 -13l-1 -7q-10 -41 -34 -70t-54 -43t-56 -19.5t-51 -5.5q-57 0 -107 32.5t-50 99.5v6q0 18 16 21z" />
    <glyph glyph-name="cyrbreve" unicode="&#xf6d4;" horiz-adv-x="366" 
d="M45 709l87 12h2q10 0 10 -15v-11q0 -49 43 -49q25 0 39 10.5t30 41.5l6 11q7 12 13 12l79 -11q5 -1 7 -1.5t3.5 -3.5t1.5 -9q0 -15 -14.5 -39t-28.5 -39q-59 -62 -154 -62q-32 0 -61 10t-53.5 39.5t-24.5 74.5q0 27 15 29z" />
    <glyph glyph-name="nbspace" horiz-adv-x="233" 
 />
    </font>
</defs>
</svg>
